0
SECTION
2
HEADER
9
$INSUNITS
70
4
9
$ACADVER
1
AC1014
9
$HANDSEED
5
FFFF
0
ENDSEC
0
SECTION
2
TABLES
0
TABLE
2
VPORT
5
8
100
AcDbSymbolTable
0
ENDTAB
0
TABLE
2
LTYPE
5
5
100
AcDbSymbolTable
0
LTYPE
5
14
100
AcDbSymbolTableRecord
100
AcDbLinetypeTableRecord
2
BYBLOCK
70
0
0
LTYPE
5
15
100
AcDbSymbolTableRecord
100
AcDbLinetypeTableRecord
2
BYLAYER
70
0
0
ENDTAB
0
TABLE
2
LAYER
5
2
100
AcDbSymbolTable
70
2
0
LAYER
5
50
100
AcDbSymbolTableRecord
100
AcDbLayerTableRecord
2
0
70
0
6
CONTINUOUS
0
ENDTAB
0
TABLE
2
STYLE
5
3
100
AcDbSymbolTable
70
1
0
STYLE
5
11
100
AcDbSymbolTableRecord
100
AcDbTextStyleTableRecord
2
STANDARD
70
0
0
ENDTAB
0
TABLE
2
VIEW
5
6
100
AcDbSymbolTable
70
0
0
ENDTAB
0
TABLE
2
UCS
5
7
100
AcDbSymbolTable
70
0
0
ENDTAB
0
TABLE
2
APPID
5
9
100
AcDbSymbolTable
70
2
0
APPID
5
12
100
AcDbSymbolTableRecord
100
AcDbRegAppTableRecord
2
ACAD
70
0
0
ENDTAB
0
TABLE
2
DIMSTYLE
5
A
100
AcDbSymbolTable
70
1
0
ENDTAB
0
TABLE
2
BLOCK_RECORD
5
1
100
AcDbSymbolTable
70
1
0
BLOCK_RECORD
5
1F
100
AcDbSymbolTableRecord
100
AcDbBlockTableRecord
2
*MODEL_SPACE
0
BLOCK_RECORD
5
1B
100
AcDbSymbolTableRecord
100
AcDbBlockTableRecord
2
*PAPER_SPACE
0
ENDTAB
0
ENDSEC
0
SECTION
2
BLOCKS
0
BLOCK
5
20
100
AcDbEntity
100
AcDbBlockBegin
2
*MODEL_SPACE
0
ENDBLK
5
21
100
AcDbEntity
100
AcDbBlockEnd
0
BLOCK
5
1C
100
AcDbEntity
100
AcDbBlockBegin
2
*PAPER_SPACE
0
ENDBLK
5
1D
100
AcDbEntity
100
AcDbBlockEnd
0
ENDSEC
0
SECTION
2
ENTITIES
0
CIRCLE
5
100
100
AcDbEntity
8
0
100
AcDbCircle
10
106.67999999999999
20
66.039999999999992
30
0
40
1.25
210
0
220
0
230
1
0
LWPOLYLINE
5
101
100
AcDbEntity
8
0
100
AcDbPolyline
90
8
70
1
43
0.0
10
111.76000000000002
20
66.120000000000005
10
111.76000000000002
20
5
42
-0.41421356237309453
10
106.76000000000002
20
8.8817841970012523e-15
10
4.9999999999999645
20
0
42
-0.41421356237309137
10
-3.5527136788005009e-14
20
5
10
-3.5527136788005009e-14
20
66.120000000000005
42
-0.41421356237308982
10
4.9999999999999289
20
71.120000000000019
10
106.76000000000002
20
71.120000000000005
42
-0.41421356237309293
0
CIRCLE
5
102
100
AcDbEntity
8
0
100
AcDbCircle
10
5.0799999999999912
20
5.0799999999999912
30
0
40
1.25
210
0
220
0
230
1
0
CIRCLE
5
103
100
AcDbEntity
8
0
100
AcDbCircle
10
106.67999999999999
20
66.039999999999992
30
0
40
1.25
210
0
220
0
230
1
0
CIRCLE
5
104
100
AcDbEntity
8
0
100
AcDbCircle
10
106.67999999999999
20
5.0799999999999912
30
0
40
1.25
210
0
220
0
230
1
0
CIRCLE
5
105
100
AcDbEntity
8
0
100
AcDbCircle
10
5.0799999999999912
20
5.0799999999999912
30
0
40
1.25
210
0
220
0
230
1
0
CIRCLE
5
106
100
AcDbEntity
8
0
100
AcDbCircle
10
5.0799999999999912
20
66.039999999999992
30
0
40
1.25
210
0
220
0
230
1
0
CIRCLE
5
107
100
AcDbEntity
8
0
100
AcDbCircle
10
106.67999999999999
20
5.0799999999999912
30
0
40
1.25
210
0
220
0
230
1
0
CIRCLE
5
108
100
AcDbEntity
8
0
100
AcDbCircle
10
5.0799999999999912
20
66.039999999999992
30
0
40
1.25
210
0
220
0
230
1
0
LWPOLYLINE
5
109
100
AcDbEntity
8
0
100
AcDbPolyline
90
8
70
1
43
0.0
10
106.76000000000002
20
-0.1999999999999913
10
4.9999999999999654
20
-0.20000000000000018
42
-0.41421356237309148
10
-0.20000000000002682
20
4.9999999999999982
10
-0.20000000000003126
20
66.120000000000005
42
-0.41421356237308987
10
4.9999999999999263
20
71.320000000000022
10
106.76000000000002
20
71.319999999999993
42
-0.41421356237309309
10
111.96000000000001
20
66.120000000000005
10
111.96000000000001
20
5.0000000000000009
42
-0.41421356237309459
0
LWPOLYLINE
5
110
100
AcDbEntity
8
0
100
AcDbPolyline
90
8
70
1
43
0.0
10
106.76000000000002
20
-3.1999999999999917
10
4.9999999999999654
20
-3.2000000000000006
42
-0.41421356237309215
10
-3.2000000000000273
20
4.9999999999999813
10
-3.2000000000000384
20
66.120000000000005
42
-0.4142135623730902
10
4.9999999999998828
20
74.320000000000022
10
106.76000000000002
20
74.320000000000007
42
-0.41421356237309315
10
114.96000000000002
20
66.120000000000019
10
114.96000000000002
20
5
42
-0.4142135623730947
0
CIRCLE
5
111
100
AcDbEntity
8
0
100
AcDbCircle
10
5.0799999999999912
20
66.039999999999992
30
0
40
3.25
210
0
220
0
230
1
0
CIRCLE
5
112
100
AcDbEntity
8
0
100
AcDbCircle
10
5.0799999999999912
20
5.0799999999999912
30
0
40
3.25
210
0
220
0
230
1
0
CIRCLE
5
113
100
AcDbEntity
8
0
100
AcDbCircle
10
106.67999999999999
20
66.039999999999992
30
0
40
3.25
210
0
220
0
230
1
0
CIRCLE
5
114
100
AcDbEntity
8
0
100
AcDbCircle
10
106.67999999999999
20
5.0799999999999912
30
0
40
3.25
210
0
220
0
230
1
0
ENDSEC
0
SECTION
2
OBJECTS
0
DICTIONARY
5
C
100
AcDbDictionary
3
ACAD_GROUP
350
D
3
ACAD_MLINESTYLE
350
17
0
DICTIONARY
5
D
100
AcDbDictionary
0
DICTIONARY
5
1A
330
C
100
AcDbDictionary
0
DICTIONARY
5
17
100
AcDbDictionary
0
ENDSEC
0
EOF
