M48
INCH,TZ
T1C0.0197
T2C0.0276
T3C0.0315
T4C0.0374
T5C0.0394
T6C0.0984
%
G90
G05
T1
X69327Y-30898
X69327Y-31646
T2
X51000Y-29750
X51000Y-32750
X51000Y-34500
X51000Y-37500
X51000Y-39266
X51000Y-42266
X51250Y-44742
X51250Y-47742
X51250Y-49250
X51250Y-52250
X51913Y-39266
X51913Y-42266
X52000Y-29750
X52000Y-32750
X52000Y-34500
X52000Y-37500
X55000Y-40234
X55000Y-43234
X55000Y-44742
X55000Y-47742
X55000Y-49250
X55000Y-52250
X58750Y-40234
X58750Y-43234
X58750Y-44742
X58750Y-47742
X58750Y-49250
X58750Y-52250
X62500Y-40234
X62500Y-43234
X62500Y-44742
X62500Y-47742
X62500Y-49250
X62500Y-52250
X66250Y-40234
X66250Y-43234
X66250Y-44750
X66250Y-47750
X66250Y-49250
X66250Y-52250
X69250Y-36000
X69250Y-39000
X69500Y-28337
X69500Y-29837
X70000Y-40234
X70000Y-43234
X70000Y-44742
X70000Y-47742
X70000Y-49250
X70000Y-52250
X72000Y-36000
X72000Y-39000
X72500Y-28337
X72500Y-29837
X73000Y-36000
X73000Y-39000
T3
X37254Y-28748
X37254Y-29748
X37254Y-30748
X37254Y-31748
X37254Y-32748
X37254Y-33748
X37254Y-34748
X37258Y-37000
X37258Y-38000
X37258Y-39000
X37258Y-40000
X37258Y-41000
X37258Y-42000
X37258Y-43000
X37258Y-44998
X37258Y-45998
X37258Y-46998
X37258Y-47998
X37258Y-48998
X37258Y-49998
X37258Y-50998
X37713Y-52432
X39682Y-52432
X40254Y-28748
X40254Y-29748
X40254Y-30748
X40254Y-31748
X40254Y-32748
X40254Y-33748
X40254Y-34748
X40258Y-37000
X40258Y-38000
X40258Y-39000
X40258Y-40000
X40258Y-41000
X40258Y-42000
X40258Y-43000
X40258Y-44998
X40258Y-45998
X40258Y-46998
X40258Y-47998
X40258Y-48998
X40258Y-49998
X40258Y-50998
X41750Y-28752
X41750Y-29752
X41750Y-30752
X41750Y-31752
X41750Y-32752
X41750Y-33752
X41750Y-34752
X42246Y-36246
X42246Y-39246
X42246Y-40746
X42246Y-43746
X42246Y-45246
X42246Y-48246
X43246Y-36246
X43246Y-39246
X43246Y-40746
X43246Y-43746
X43246Y-45246
X43246Y-48246
X44246Y-36246
X44246Y-39246
X44246Y-40746
X44246Y-43746
X44246Y-45246
X44246Y-48246
X44750Y-28752
X44750Y-29752
X44750Y-30752
X44750Y-31752
X44750Y-32752
X44750Y-33752
X44750Y-34752
X45246Y-36246
X45246Y-39246
X45246Y-40746
X45246Y-43746
X45246Y-45246
X45246Y-48246
X46246Y-36246
X46246Y-39246
X46246Y-40746
X46246Y-43746
X46246Y-45246
X46246Y-48246
X46254Y-28750
X46254Y-29750
X46254Y-30750
X46254Y-31750
X46254Y-32750
X46254Y-33750
X46254Y-34750
X47246Y-36246
X47246Y-39246
X47246Y-40746
X47246Y-43746
X47246Y-45246
X47246Y-48246
X48246Y-36246
X48246Y-39246
X48246Y-40746
X48246Y-43746
X48246Y-45246
X48246Y-48246
X49246Y-36246
X49246Y-39246
X49246Y-40746
X49246Y-43746
X49246Y-45246
X49246Y-48246
X49254Y-28750
X49254Y-29750
X49254Y-30750
X49254Y-31750
X49254Y-32750
X49254Y-33750
X49254Y-34750
X53250Y-30266
X53250Y-32234
X53250Y-35016
X53250Y-36984
X53250Y-39781
X53250Y-41750
X60250Y-28250
X60250Y-29250
X60250Y-30250
X60250Y-31250
X60250Y-32250
X60250Y-33250
X60250Y-34250
X60250Y-35250
X63250Y-28250
X63250Y-29250
X63250Y-30250
X63250Y-31250
X63250Y-32250
X63250Y-33250
X63250Y-34250
X63250Y-35250
X65000Y-28250
X65000Y-29250
X65000Y-30250
X65000Y-31250
X65000Y-32250
X65000Y-33250
X65000Y-34250
X65000Y-35250
X68000Y-28250
X68000Y-29250
X68000Y-30250
X68000Y-31250
X68000Y-32250
X68000Y-33250
X68000Y-34250
X68000Y-35250
X68000Y-37031
X68000Y-39000
X70000Y-32500
X70000Y-33484
X70750Y-37016
X70750Y-38984
X72000Y-32500
X72000Y-33484
T4
X60031Y-37750
X61016Y-37750
X62000Y-37750
T5
X42750Y-50250
X42750Y-51234
X45955Y-50241
X45955Y-51225
X49000Y-50250
X49000Y-51234
X53000Y-50258
X53000Y-51242
X53043Y-45754
X53043Y-46738
X55996Y-29252
X56016Y-37750
X56750Y-41250
X56750Y-42234
X56750Y-45742
X56750Y-46726
X56750Y-50254
X56750Y-51238
X56996Y-29252
X57000Y-37750
X57996Y-29252
X60500Y-41250
X60500Y-42234
X60500Y-45742
X60500Y-46726
X60543Y-50266
X60543Y-51250
X64250Y-41250
X64250Y-42234
X64250Y-45742
X64250Y-46726
X64250Y-50258
X64250Y-51242
X65016Y-37750
X66000Y-37750
X68000Y-41250
X68000Y-42234
X68000Y-45742
X68000Y-46726
X68000Y-50258
X68000Y-51242
X71750Y-41250
X71750Y-42234
X71750Y-45750
X71750Y-46734
X71750Y-50258
X71750Y-51242
T6
X35000Y-28000
X35000Y-52000
X75000Y-28000
X75000Y-52000
T0
M30
