%TF.GenerationSoftware,KiCad,Pcbnew,7.0.1*%
%TF.CreationDate,2023-04-19T15:01:01-05:00*%
%TF.ProjectId,binary_clock,62696e61-7279-45f6-936c-6f636b2e6b69,rev?*%
%TF.SameCoordinates,Original*%
%TF.FileFunction,Drillmap*%
%TF.FilePolarity,Positive*%
%FSLAX45Y45*%
G04 Gerber Fmt 4.5, Leading zero omitted, Abs format (unit mm)*
G04 Created by KiCad (PCBNEW 7.0.1) date 2023-04-19 15:01:01*
%MOMM*%
%LPD*%
G01*
G04 APERTURE LIST*
%ADD10C,0.100000*%
%ADD11C,0.200000*%
%ADD12C,0.040000*%
%ADD13C,0.050000*%
%ADD14C,0.070000*%
%ADD15C,0.080000*%
%ADD16C,0.095000*%
%ADD17C,0.250000*%
G04 APERTURE END LIST*
D10*
X19058000Y-13716000D02*
G75*
G03*
X19558000Y-13216000I0J500000D01*
G01*
X19558000Y-7104000D02*
X19558000Y-13216000D01*
X8882000Y-6604000D02*
X19058000Y-6604000D01*
X8382000Y-13216000D02*
X8382000Y-7104000D01*
X8382000Y-13216000D02*
G75*
G03*
X8882000Y-13716000I500000J0D01*
G01*
X19058000Y-13716000D02*
X8882000Y-13716000D01*
X8882000Y-6604000D02*
G75*
G03*
X8382000Y-7104000I0J-500000D01*
G01*
X19558000Y-7104000D02*
G75*
G03*
X19058000Y-6604000I-500000J0D01*
G01*
D11*
D12*
X11104880Y-8476850D02*
X11144880Y-8516850D01*
X11144880Y-8476850D02*
X11104880Y-8516850D01*
X12802330Y-8709480D02*
X12842330Y-8749480D01*
X12842330Y-8709480D02*
X12802330Y-8749480D01*
X13735990Y-10459490D02*
X13775990Y-10499490D01*
X13775990Y-10459490D02*
X13735990Y-10499490D01*
D13*
X17634000Y-7848010D02*
G75*
G03*
X17634000Y-7848010I-25000J0D01*
G01*
X17634000Y-8038010D02*
G75*
G03*
X17634000Y-8038010I-25000J0D01*
G01*
D14*
X13043230Y-8667420D02*
X13043230Y-8737420D01*
X13008230Y-8702420D02*
X13078230Y-8702420D01*
X13043230Y-9429420D02*
X13043230Y-9499420D01*
X13008230Y-9464420D02*
X13078230Y-9464420D01*
X13047280Y-7465320D02*
X13047280Y-7535320D01*
X13012280Y-7500320D02*
X13082280Y-7500320D01*
X13047280Y-8227320D02*
X13047280Y-8297320D01*
X13012280Y-8262320D02*
X13082280Y-8262320D01*
X13079090Y-9958520D02*
X13079090Y-10028520D01*
X13044090Y-9993520D02*
X13114090Y-9993520D01*
X13079090Y-10720520D02*
X13079090Y-10790520D01*
X13044090Y-10755520D02*
X13114090Y-10755520D01*
X13081000Y-11329500D02*
X13081000Y-11399500D01*
X13046000Y-11364500D02*
X13116000Y-11364500D01*
X13081000Y-12091500D02*
X13081000Y-12161500D01*
X13046000Y-12126500D02*
X13116000Y-12126500D01*
X13081000Y-12474500D02*
X13081000Y-12544500D01*
X13046000Y-12509500D02*
X13116000Y-12509500D01*
X13081000Y-13236500D02*
X13081000Y-13306500D01*
X13046000Y-13271500D02*
X13116000Y-13271500D01*
X13297230Y-8667420D02*
X13297230Y-8737420D01*
X13262230Y-8702420D02*
X13332230Y-8702420D01*
X13297230Y-9429420D02*
X13297230Y-9499420D01*
X13262230Y-9464420D02*
X13332230Y-9464420D01*
X13301280Y-7465320D02*
X13301280Y-7535320D01*
X13266280Y-7500320D02*
X13336280Y-7500320D01*
X13301280Y-8227320D02*
X13301280Y-8297320D01*
X13266280Y-8262320D02*
X13336280Y-8262320D01*
X13311090Y-9958520D02*
X13311090Y-10028520D01*
X13276090Y-9993520D02*
X13346090Y-9993520D01*
X13311090Y-10720520D02*
X13311090Y-10790520D01*
X13276090Y-10755520D02*
X13346090Y-10755520D01*
X14033500Y-10184500D02*
X14033500Y-10254500D01*
X13998500Y-10219500D02*
X14068500Y-10219500D01*
X14033500Y-10946500D02*
X14033500Y-11016500D01*
X13998500Y-10981500D02*
X14068500Y-10981500D01*
X14033500Y-11329500D02*
X14033500Y-11399500D01*
X13998500Y-11364500D02*
X14068500Y-11364500D01*
X14033500Y-12091500D02*
X14033500Y-12161500D01*
X13998500Y-12126500D02*
X14068500Y-12126500D01*
X14033500Y-12474500D02*
X14033500Y-12544500D01*
X13998500Y-12509500D02*
X14068500Y-12509500D01*
X14033500Y-13236500D02*
X14033500Y-13306500D01*
X13998500Y-13271500D02*
X14068500Y-13271500D01*
X14986000Y-10184500D02*
X14986000Y-10254500D01*
X14951000Y-10219500D02*
X15021000Y-10219500D01*
X14986000Y-10946500D02*
X14986000Y-11016500D01*
X14951000Y-10981500D02*
X15021000Y-10981500D01*
X14986000Y-11329500D02*
X14986000Y-11399500D01*
X14951000Y-11364500D02*
X15021000Y-11364500D01*
X14986000Y-12091500D02*
X14986000Y-12161500D01*
X14951000Y-12126500D02*
X15021000Y-12126500D01*
X14986000Y-12474500D02*
X14986000Y-12544500D01*
X14951000Y-12509500D02*
X15021000Y-12509500D01*
X14986000Y-13236500D02*
X14986000Y-13306500D01*
X14951000Y-13271500D02*
X15021000Y-13271500D01*
X15938500Y-10184500D02*
X15938500Y-10254500D01*
X15903500Y-10219500D02*
X15973500Y-10219500D01*
X15938500Y-10946500D02*
X15938500Y-11016500D01*
X15903500Y-10981500D02*
X15973500Y-10981500D01*
X15938500Y-11329500D02*
X15938500Y-11399500D01*
X15903500Y-11364500D02*
X15973500Y-11364500D01*
X15938500Y-12091500D02*
X15938500Y-12161500D01*
X15903500Y-12126500D02*
X15973500Y-12126500D01*
X15938500Y-12474500D02*
X15938500Y-12544500D01*
X15903500Y-12509500D02*
X15973500Y-12509500D01*
X15938500Y-13236500D02*
X15938500Y-13306500D01*
X15903500Y-13271500D02*
X15973500Y-13271500D01*
X16891000Y-10184500D02*
X16891000Y-10254500D01*
X16856000Y-10219500D02*
X16926000Y-10219500D01*
X16891000Y-10946500D02*
X16891000Y-11016500D01*
X16856000Y-10981500D02*
X16926000Y-10981500D01*
X16891000Y-11331500D02*
X16891000Y-11401500D01*
X16856000Y-11366500D02*
X16926000Y-11366500D01*
X16891000Y-12093500D02*
X16891000Y-12163500D01*
X16856000Y-12128500D02*
X16926000Y-12128500D01*
X16891000Y-12474500D02*
X16891000Y-12544500D01*
X16856000Y-12509500D02*
X16926000Y-12509500D01*
X16891000Y-13236500D02*
X16891000Y-13306500D01*
X16856000Y-13271500D02*
X16926000Y-13271500D01*
X17589500Y-9109000D02*
X17589500Y-9179000D01*
X17554500Y-9144000D02*
X17624500Y-9144000D01*
X17589500Y-9871000D02*
X17589500Y-9941000D01*
X17554500Y-9906000D02*
X17624500Y-9906000D01*
X17653000Y-7162500D02*
X17653000Y-7232500D01*
X17618000Y-7197500D02*
X17688000Y-7197500D01*
X17653000Y-7543500D02*
X17653000Y-7613500D01*
X17618000Y-7578500D02*
X17688000Y-7578500D01*
X17843500Y-10184500D02*
X17843500Y-10254500D01*
X17808500Y-10219500D02*
X17878500Y-10219500D01*
X17843500Y-10946500D02*
X17843500Y-11016500D01*
X17808500Y-10981500D02*
X17878500Y-10981500D01*
X17843500Y-11329500D02*
X17843500Y-11399500D01*
X17808500Y-11364500D02*
X17878500Y-11364500D01*
X17843500Y-12091500D02*
X17843500Y-12161500D01*
X17808500Y-12126500D02*
X17878500Y-12126500D01*
X17843500Y-12474500D02*
X17843500Y-12544500D01*
X17808500Y-12509500D02*
X17878500Y-12509500D01*
X17843500Y-13236500D02*
X17843500Y-13306500D01*
X17808500Y-13271500D02*
X17878500Y-13271500D01*
X18288000Y-9109000D02*
X18288000Y-9179000D01*
X18253000Y-9144000D02*
X18323000Y-9144000D01*
X18288000Y-9871000D02*
X18288000Y-9941000D01*
X18253000Y-9906000D02*
X18323000Y-9906000D01*
X18415000Y-7162500D02*
X18415000Y-7232500D01*
X18380000Y-7197500D02*
X18450000Y-7197500D01*
X18415000Y-7543500D02*
X18415000Y-7613500D01*
X18380000Y-7578500D02*
X18450000Y-7578500D01*
X18542000Y-9109000D02*
X18542000Y-9179000D01*
X18507000Y-9144000D02*
X18577000Y-9144000D01*
X18542000Y-9871000D02*
X18542000Y-9941000D01*
X18507000Y-9906000D02*
X18577000Y-9906000D01*
D15*
X9490785Y-7330284D02*
X9490785Y-7273715D01*
X9434216Y-7273715D01*
X9434216Y-7330284D01*
X9490785Y-7330284D01*
X9490785Y-7584284D02*
X9490785Y-7527715D01*
X9434216Y-7527715D01*
X9434216Y-7584284D01*
X9490785Y-7584284D01*
X9490785Y-7838284D02*
X9490785Y-7781715D01*
X9434216Y-7781715D01*
X9434216Y-7838284D01*
X9490785Y-7838284D01*
X9490785Y-8092284D02*
X9490785Y-8035715D01*
X9434216Y-8035715D01*
X9434216Y-8092284D01*
X9490785Y-8092284D01*
X9490785Y-8346284D02*
X9490785Y-8289715D01*
X9434216Y-8289715D01*
X9434216Y-8346284D01*
X9490785Y-8346284D01*
X9490785Y-8600285D02*
X9490785Y-8543716D01*
X9434216Y-8543716D01*
X9434216Y-8600285D01*
X9490785Y-8600285D01*
X9490785Y-8854285D02*
X9490785Y-8797716D01*
X9434216Y-8797716D01*
X9434216Y-8854285D01*
X9490785Y-8854285D01*
X9491785Y-9426285D02*
X9491785Y-9369716D01*
X9435216Y-9369716D01*
X9435216Y-9426285D01*
X9491785Y-9426285D01*
X9491785Y-9680285D02*
X9491785Y-9623716D01*
X9435216Y-9623716D01*
X9435216Y-9680285D01*
X9491785Y-9680285D01*
X9491785Y-9934285D02*
X9491785Y-9877716D01*
X9435216Y-9877716D01*
X9435216Y-9934285D01*
X9491785Y-9934285D01*
X9491785Y-10188285D02*
X9491785Y-10131716D01*
X9435216Y-10131716D01*
X9435216Y-10188285D01*
X9491785Y-10188285D01*
X9491785Y-10442285D02*
X9491785Y-10385716D01*
X9435216Y-10385716D01*
X9435216Y-10442285D01*
X9491785Y-10442285D01*
X9491785Y-10696285D02*
X9491785Y-10639716D01*
X9435216Y-10639716D01*
X9435216Y-10696285D01*
X9491785Y-10696285D01*
X9491785Y-10950285D02*
X9491785Y-10893716D01*
X9435216Y-10893716D01*
X9435216Y-10950285D01*
X9491785Y-10950285D01*
X9491785Y-11457784D02*
X9491785Y-11401215D01*
X9435216Y-11401215D01*
X9435216Y-11457784D01*
X9491785Y-11457784D01*
X9491785Y-11711784D02*
X9491785Y-11655215D01*
X9435216Y-11655215D01*
X9435216Y-11711784D01*
X9491785Y-11711784D01*
X9491785Y-11965784D02*
X9491785Y-11909215D01*
X9435216Y-11909215D01*
X9435216Y-11965784D01*
X9491785Y-11965784D01*
X9491785Y-12219784D02*
X9491785Y-12163215D01*
X9435216Y-12163215D01*
X9435216Y-12219784D01*
X9491785Y-12219784D01*
X9491785Y-12473784D02*
X9491785Y-12417215D01*
X9435216Y-12417215D01*
X9435216Y-12473784D01*
X9491785Y-12473784D01*
X9491785Y-12727784D02*
X9491785Y-12671215D01*
X9435216Y-12671215D01*
X9435216Y-12727784D01*
X9491785Y-12727784D01*
X9491785Y-12981784D02*
X9491785Y-12925215D01*
X9435216Y-12925215D01*
X9435216Y-12981784D01*
X9491785Y-12981784D01*
X10252785Y-7330284D02*
X10252785Y-7273715D01*
X10196216Y-7273715D01*
X10196216Y-7330284D01*
X10252785Y-7330284D01*
X10252785Y-7584284D02*
X10252785Y-7527715D01*
X10196216Y-7527715D01*
X10196216Y-7584284D01*
X10252785Y-7584284D01*
X10252785Y-7838284D02*
X10252785Y-7781715D01*
X10196216Y-7781715D01*
X10196216Y-7838284D01*
X10252785Y-7838284D01*
X10252785Y-8092284D02*
X10252785Y-8035715D01*
X10196216Y-8035715D01*
X10196216Y-8092284D01*
X10252785Y-8092284D01*
X10252785Y-8346284D02*
X10252785Y-8289715D01*
X10196216Y-8289715D01*
X10196216Y-8346284D01*
X10252785Y-8346284D01*
X10252785Y-8600285D02*
X10252785Y-8543716D01*
X10196216Y-8543716D01*
X10196216Y-8600285D01*
X10252785Y-8600285D01*
X10252785Y-8854285D02*
X10252785Y-8797716D01*
X10196216Y-8797716D01*
X10196216Y-8854285D01*
X10252785Y-8854285D01*
X10253785Y-9426285D02*
X10253785Y-9369716D01*
X10197216Y-9369716D01*
X10197216Y-9426285D01*
X10253785Y-9426285D01*
X10253785Y-9680285D02*
X10253785Y-9623716D01*
X10197216Y-9623716D01*
X10197216Y-9680285D01*
X10253785Y-9680285D01*
X10253785Y-9934285D02*
X10253785Y-9877716D01*
X10197216Y-9877716D01*
X10197216Y-9934285D01*
X10253785Y-9934285D01*
X10253785Y-10188285D02*
X10253785Y-10131716D01*
X10197216Y-10131716D01*
X10197216Y-10188285D01*
X10253785Y-10188285D01*
X10253785Y-10442285D02*
X10253785Y-10385716D01*
X10197216Y-10385716D01*
X10197216Y-10442285D01*
X10253785Y-10442285D01*
X10253785Y-10696285D02*
X10253785Y-10639716D01*
X10197216Y-10639716D01*
X10197216Y-10696285D01*
X10253785Y-10696285D01*
X10253785Y-10950285D02*
X10253785Y-10893716D01*
X10197216Y-10893716D01*
X10197216Y-10950285D01*
X10253785Y-10950285D01*
X10253785Y-11457784D02*
X10253785Y-11401215D01*
X10197216Y-11401215D01*
X10197216Y-11457784D01*
X10253785Y-11457784D01*
X10253785Y-11711784D02*
X10253785Y-11655215D01*
X10197216Y-11655215D01*
X10197216Y-11711784D01*
X10253785Y-11711784D01*
X10253785Y-11965784D02*
X10253785Y-11909215D01*
X10197216Y-11909215D01*
X10197216Y-11965784D01*
X10253785Y-11965784D01*
X10253785Y-12219784D02*
X10253785Y-12163215D01*
X10197216Y-12163215D01*
X10197216Y-12219784D01*
X10253785Y-12219784D01*
X10253785Y-12473784D02*
X10253785Y-12417215D01*
X10197216Y-12417215D01*
X10197216Y-12473784D01*
X10253785Y-12473784D01*
X10253785Y-12727784D02*
X10253785Y-12671215D01*
X10197216Y-12671215D01*
X10197216Y-12727784D01*
X10253785Y-12727784D01*
X10253785Y-12981784D02*
X10253785Y-12925215D01*
X10197216Y-12925215D01*
X10197216Y-12981784D01*
X10253785Y-12981784D01*
X10618605Y-9350335D02*
X10618605Y-9293766D01*
X10562036Y-9293766D01*
X10562036Y-9350335D01*
X10618605Y-9350335D01*
X10618605Y-9850335D02*
X10618605Y-9793766D01*
X10562036Y-9793766D01*
X10562036Y-9850335D01*
X10618605Y-9850335D01*
X10618605Y-10495635D02*
X10618605Y-10439066D01*
X10562036Y-10439066D01*
X10562036Y-10495635D01*
X10618605Y-10495635D01*
X10618605Y-10995635D02*
X10618605Y-10939066D01*
X10562036Y-10939066D01*
X10562036Y-10995635D01*
X10618605Y-10995635D01*
X10618605Y-11645254D02*
X10618605Y-11588685D01*
X10562036Y-11588685D01*
X10562036Y-11645254D01*
X10618605Y-11645254D01*
X10618605Y-12145254D02*
X10618605Y-12088685D01*
X10562036Y-12088685D01*
X10562036Y-12145254D01*
X10618605Y-12145254D01*
X10632785Y-7331284D02*
X10632785Y-7274715D01*
X10576216Y-7274715D01*
X10576216Y-7331284D01*
X10632785Y-7331284D01*
X10632785Y-7585284D02*
X10632785Y-7528715D01*
X10576216Y-7528715D01*
X10576216Y-7585284D01*
X10632785Y-7585284D01*
X10632785Y-7839284D02*
X10632785Y-7782715D01*
X10576216Y-7782715D01*
X10576216Y-7839284D01*
X10632785Y-7839284D01*
X10632785Y-8093284D02*
X10632785Y-8036715D01*
X10576216Y-8036715D01*
X10576216Y-8093284D01*
X10632785Y-8093284D01*
X10632785Y-8347284D02*
X10632785Y-8290715D01*
X10576216Y-8290715D01*
X10576216Y-8347284D01*
X10632785Y-8347284D01*
X10632785Y-8601285D02*
X10632785Y-8544716D01*
X10576216Y-8544716D01*
X10576216Y-8601285D01*
X10632785Y-8601285D01*
X10632785Y-8855285D02*
X10632785Y-8798716D01*
X10576216Y-8798716D01*
X10576216Y-8855285D01*
X10632785Y-8855285D01*
X10981755Y-9231885D02*
X10981755Y-9175316D01*
X10925186Y-9175316D01*
X10925186Y-9231885D01*
X10981755Y-9231885D01*
X10981755Y-9993885D02*
X10981755Y-9937316D01*
X10925186Y-9937316D01*
X10925186Y-9993885D01*
X10981755Y-9993885D01*
X10981755Y-10374885D02*
X10981755Y-10318316D01*
X10925186Y-10318316D01*
X10925186Y-10374885D01*
X10981755Y-10374885D01*
X10981755Y-11136885D02*
X10981755Y-11080316D01*
X10925186Y-11080316D01*
X10925186Y-11136885D01*
X10981755Y-11136885D01*
X10981755Y-11517884D02*
X10981755Y-11461315D01*
X10925186Y-11461315D01*
X10925186Y-11517884D01*
X10981755Y-11517884D01*
X10981755Y-12279884D02*
X10981755Y-12223315D01*
X10925186Y-12223315D01*
X10925186Y-12279884D01*
X10981755Y-12279884D01*
X11235754Y-9231885D02*
X11235754Y-9175316D01*
X11179186Y-9175316D01*
X11179186Y-9231885D01*
X11235754Y-9231885D01*
X11235754Y-9993885D02*
X11235754Y-9937316D01*
X11179186Y-9937316D01*
X11179186Y-9993885D01*
X11235754Y-9993885D01*
X11235754Y-10374885D02*
X11235754Y-10318316D01*
X11179186Y-10318316D01*
X11179186Y-10374885D01*
X11235754Y-10374885D01*
X11235754Y-11136885D02*
X11235754Y-11080316D01*
X11179186Y-11080316D01*
X11179186Y-11136885D01*
X11235754Y-11136885D01*
X11235754Y-11517884D02*
X11235754Y-11461315D01*
X11179186Y-11461315D01*
X11179186Y-11517884D01*
X11235754Y-11517884D01*
X11235754Y-12279884D02*
X11235754Y-12223315D01*
X11179186Y-12223315D01*
X11179186Y-12279884D01*
X11235754Y-12279884D01*
X11394784Y-7331284D02*
X11394784Y-7274715D01*
X11338215Y-7274715D01*
X11338215Y-7331284D01*
X11394784Y-7331284D01*
X11394784Y-7585284D02*
X11394784Y-7528715D01*
X11338215Y-7528715D01*
X11338215Y-7585284D01*
X11394784Y-7585284D01*
X11394784Y-7839284D02*
X11394784Y-7782715D01*
X11338215Y-7782715D01*
X11338215Y-7839284D01*
X11394784Y-7839284D01*
X11394784Y-8093284D02*
X11394784Y-8036715D01*
X11338215Y-8036715D01*
X11338215Y-8093284D01*
X11394784Y-8093284D01*
X11394784Y-8347284D02*
X11394784Y-8290715D01*
X11338215Y-8290715D01*
X11338215Y-8347284D01*
X11394784Y-8347284D01*
X11394784Y-8601285D02*
X11394784Y-8544716D01*
X11338215Y-8544716D01*
X11338215Y-8601285D01*
X11394784Y-8601285D01*
X11394784Y-8855285D02*
X11394784Y-8798716D01*
X11338215Y-8798716D01*
X11338215Y-8855285D01*
X11394784Y-8855285D01*
X11489754Y-9231885D02*
X11489754Y-9175316D01*
X11433185Y-9175316D01*
X11433185Y-9231885D01*
X11489754Y-9231885D01*
X11489754Y-9993885D02*
X11489754Y-9937316D01*
X11433185Y-9937316D01*
X11433185Y-9993885D01*
X11489754Y-9993885D01*
X11489754Y-10374885D02*
X11489754Y-10318316D01*
X11433185Y-10318316D01*
X11433185Y-10374885D01*
X11489754Y-10374885D01*
X11489754Y-11136885D02*
X11489754Y-11080316D01*
X11433185Y-11080316D01*
X11433185Y-11136885D01*
X11489754Y-11136885D01*
X11489754Y-11517884D02*
X11489754Y-11461315D01*
X11433185Y-11461315D01*
X11433185Y-11517884D01*
X11489754Y-11517884D01*
X11489754Y-12279884D02*
X11489754Y-12223315D01*
X11433185Y-12223315D01*
X11433185Y-12279884D01*
X11489754Y-12279884D01*
X11743754Y-9231885D02*
X11743754Y-9175316D01*
X11687185Y-9175316D01*
X11687185Y-9231885D01*
X11743754Y-9231885D01*
X11743754Y-9993885D02*
X11743754Y-9937316D01*
X11687185Y-9937316D01*
X11687185Y-9993885D01*
X11743754Y-9993885D01*
X11743754Y-10374885D02*
X11743754Y-10318316D01*
X11687185Y-10318316D01*
X11687185Y-10374885D01*
X11743754Y-10374885D01*
X11743754Y-11136885D02*
X11743754Y-11080316D01*
X11687185Y-11080316D01*
X11687185Y-11136885D01*
X11743754Y-11136885D01*
X11743754Y-11517884D02*
X11743754Y-11461315D01*
X11687185Y-11461315D01*
X11687185Y-11517884D01*
X11743754Y-11517884D01*
X11743754Y-12279884D02*
X11743754Y-12223315D01*
X11687185Y-12223315D01*
X11687185Y-12279884D01*
X11743754Y-12279884D01*
X11776784Y-7330784D02*
X11776784Y-7274215D01*
X11720215Y-7274215D01*
X11720215Y-7330784D01*
X11776784Y-7330784D01*
X11776784Y-7584784D02*
X11776784Y-7528215D01*
X11720215Y-7528215D01*
X11720215Y-7584784D01*
X11776784Y-7584784D01*
X11776784Y-7838784D02*
X11776784Y-7782215D01*
X11720215Y-7782215D01*
X11720215Y-7838784D01*
X11776784Y-7838784D01*
X11776784Y-8092784D02*
X11776784Y-8036215D01*
X11720215Y-8036215D01*
X11720215Y-8092784D01*
X11776784Y-8092784D01*
X11776784Y-8346784D02*
X11776784Y-8290215D01*
X11720215Y-8290215D01*
X11720215Y-8346784D01*
X11776784Y-8346784D01*
X11776784Y-8600785D02*
X11776784Y-8544216D01*
X11720215Y-8544216D01*
X11720215Y-8600785D01*
X11776784Y-8600785D01*
X11776784Y-8854785D02*
X11776784Y-8798216D01*
X11720215Y-8798216D01*
X11720215Y-8854785D01*
X11776784Y-8854785D01*
X11997754Y-9231885D02*
X11997754Y-9175316D01*
X11941185Y-9175316D01*
X11941185Y-9231885D01*
X11997754Y-9231885D01*
X11997754Y-9993885D02*
X11997754Y-9937316D01*
X11941185Y-9937316D01*
X11941185Y-9993885D01*
X11997754Y-9993885D01*
X11997754Y-10374885D02*
X11997754Y-10318316D01*
X11941185Y-10318316D01*
X11941185Y-10374885D01*
X11997754Y-10374885D01*
X11997754Y-11136885D02*
X11997754Y-11080316D01*
X11941185Y-11080316D01*
X11941185Y-11136885D01*
X11997754Y-11136885D01*
X11997754Y-11517884D02*
X11997754Y-11461315D01*
X11941185Y-11461315D01*
X11941185Y-11517884D01*
X11997754Y-11517884D01*
X11997754Y-12279884D02*
X11997754Y-12223315D01*
X11941185Y-12223315D01*
X11941185Y-12279884D01*
X11997754Y-12279884D01*
X12251754Y-9231885D02*
X12251754Y-9175316D01*
X12195185Y-9175316D01*
X12195185Y-9231885D01*
X12251754Y-9231885D01*
X12251754Y-9993885D02*
X12251754Y-9937316D01*
X12195185Y-9937316D01*
X12195185Y-9993885D01*
X12251754Y-9993885D01*
X12251754Y-10374885D02*
X12251754Y-10318316D01*
X12195185Y-10318316D01*
X12195185Y-10374885D01*
X12251754Y-10374885D01*
X12251754Y-11136885D02*
X12251754Y-11080316D01*
X12195185Y-11080316D01*
X12195185Y-11136885D01*
X12251754Y-11136885D01*
X12251754Y-11517884D02*
X12251754Y-11461315D01*
X12195185Y-11461315D01*
X12195185Y-11517884D01*
X12251754Y-11517884D01*
X12251754Y-12279884D02*
X12251754Y-12223315D01*
X12195185Y-12223315D01*
X12195185Y-12279884D01*
X12251754Y-12279884D01*
X12505754Y-9231885D02*
X12505754Y-9175316D01*
X12449185Y-9175316D01*
X12449185Y-9231885D01*
X12505754Y-9231885D01*
X12505754Y-9993885D02*
X12505754Y-9937316D01*
X12449185Y-9937316D01*
X12449185Y-9993885D01*
X12505754Y-9993885D01*
X12505754Y-10374885D02*
X12505754Y-10318316D01*
X12449185Y-10318316D01*
X12449185Y-10374885D01*
X12505754Y-10374885D01*
X12505754Y-11136885D02*
X12505754Y-11080316D01*
X12449185Y-11080316D01*
X12449185Y-11136885D01*
X12505754Y-11136885D01*
X12505754Y-11517884D02*
X12505754Y-11461315D01*
X12449185Y-11461315D01*
X12449185Y-11517884D01*
X12505754Y-11517884D01*
X12505754Y-12279884D02*
X12505754Y-12223315D01*
X12449185Y-12223315D01*
X12449185Y-12279884D01*
X12505754Y-12279884D01*
X12538784Y-7330784D02*
X12538784Y-7274215D01*
X12482215Y-7274215D01*
X12482215Y-7330784D01*
X12538784Y-7330784D01*
X12538784Y-7584784D02*
X12538784Y-7528215D01*
X12482215Y-7528215D01*
X12482215Y-7584784D01*
X12538784Y-7584784D01*
X12538784Y-7838784D02*
X12538784Y-7782215D01*
X12482215Y-7782215D01*
X12482215Y-7838784D01*
X12538784Y-7838784D01*
X12538784Y-8092784D02*
X12538784Y-8036215D01*
X12482215Y-8036215D01*
X12482215Y-8092784D01*
X12538784Y-8092784D01*
X12538784Y-8346784D02*
X12538784Y-8290215D01*
X12482215Y-8290215D01*
X12482215Y-8346784D01*
X12538784Y-8346784D01*
X12538784Y-8600785D02*
X12538784Y-8544216D01*
X12482215Y-8544216D01*
X12482215Y-8600785D01*
X12538784Y-8600785D01*
X12538784Y-8854785D02*
X12538784Y-8798216D01*
X12482215Y-8798216D01*
X12482215Y-8854785D01*
X12538784Y-8854785D01*
X12759754Y-9231885D02*
X12759754Y-9175316D01*
X12703185Y-9175316D01*
X12703185Y-9231885D01*
X12759754Y-9231885D01*
X12759754Y-9993885D02*
X12759754Y-9937316D01*
X12703185Y-9937316D01*
X12703185Y-9993885D01*
X12759754Y-9993885D01*
X12759754Y-10374885D02*
X12759754Y-10318316D01*
X12703185Y-10318316D01*
X12703185Y-10374885D01*
X12759754Y-10374885D01*
X12759754Y-11136885D02*
X12759754Y-11080316D01*
X12703185Y-11080316D01*
X12703185Y-11136885D01*
X12759754Y-11136885D01*
X12759754Y-11517884D02*
X12759754Y-11461315D01*
X12703185Y-11461315D01*
X12703185Y-11517884D01*
X12759754Y-11517884D01*
X12759754Y-12279884D02*
X12759754Y-12223315D01*
X12703185Y-12223315D01*
X12703185Y-12279884D01*
X12759754Y-12279884D01*
X13643014Y-8861705D02*
X13643014Y-8805136D01*
X13586445Y-8805136D01*
X13586445Y-8861705D01*
X13643014Y-8861705D01*
X13643014Y-9361705D02*
X13643014Y-9305136D01*
X13586445Y-9305136D01*
X13586445Y-9361705D01*
X13643014Y-9361705D01*
X13647064Y-7659604D02*
X13647064Y-7603035D01*
X13590495Y-7603035D01*
X13590495Y-7659604D01*
X13647064Y-7659604D01*
X13647064Y-8159604D02*
X13647064Y-8103035D01*
X13590495Y-8103035D01*
X13590495Y-8159604D01*
X13647064Y-8159604D01*
X13678874Y-10152805D02*
X13678874Y-10096236D01*
X13622305Y-10096236D01*
X13622305Y-10152805D01*
X13678874Y-10152805D01*
X13678874Y-10652805D02*
X13678874Y-10596236D01*
X13622305Y-10596236D01*
X13622305Y-10652805D01*
X13678874Y-10652805D01*
X15331784Y-7203784D02*
X15331784Y-7147215D01*
X15275215Y-7147215D01*
X15275215Y-7203784D01*
X15331784Y-7203784D01*
X15331784Y-7457784D02*
X15331784Y-7401215D01*
X15275215Y-7401215D01*
X15275215Y-7457784D01*
X15331784Y-7457784D01*
X15331784Y-7711784D02*
X15331784Y-7655215D01*
X15275215Y-7655215D01*
X15275215Y-7711784D01*
X15331784Y-7711784D01*
X15331784Y-7965784D02*
X15331784Y-7909215D01*
X15275215Y-7909215D01*
X15275215Y-7965784D01*
X15331784Y-7965784D01*
X15331784Y-8219784D02*
X15331784Y-8163215D01*
X15275215Y-8163215D01*
X15275215Y-8219784D01*
X15331784Y-8219784D01*
X15331784Y-8473785D02*
X15331784Y-8417216D01*
X15275215Y-8417216D01*
X15275215Y-8473785D01*
X15331784Y-8473785D01*
X15331784Y-8727785D02*
X15331784Y-8671216D01*
X15275215Y-8671216D01*
X15275215Y-8727785D01*
X15331784Y-8727785D01*
X15331784Y-8981785D02*
X15331784Y-8925216D01*
X15275215Y-8925216D01*
X15275215Y-8981785D01*
X15331784Y-8981785D01*
X16093784Y-7203784D02*
X16093784Y-7147215D01*
X16037215Y-7147215D01*
X16037215Y-7203784D01*
X16093784Y-7203784D01*
X16093784Y-7457784D02*
X16093784Y-7401215D01*
X16037215Y-7401215D01*
X16037215Y-7457784D01*
X16093784Y-7457784D01*
X16093784Y-7711784D02*
X16093784Y-7655215D01*
X16037215Y-7655215D01*
X16037215Y-7711784D01*
X16093784Y-7711784D01*
X16093784Y-7965784D02*
X16093784Y-7909215D01*
X16037215Y-7909215D01*
X16037215Y-7965784D01*
X16093784Y-7965784D01*
X16093784Y-8219784D02*
X16093784Y-8163215D01*
X16037215Y-8163215D01*
X16037215Y-8219784D01*
X16093784Y-8219784D01*
X16093784Y-8473785D02*
X16093784Y-8417216D01*
X16037215Y-8417216D01*
X16037215Y-8473785D01*
X16093784Y-8473785D01*
X16093784Y-8727785D02*
X16093784Y-8671216D01*
X16037215Y-8671216D01*
X16037215Y-8727785D01*
X16093784Y-8727785D01*
X16093784Y-8981785D02*
X16093784Y-8925216D01*
X16037215Y-8925216D01*
X16037215Y-8981785D01*
X16093784Y-8981785D01*
X16538284Y-7203784D02*
X16538284Y-7147215D01*
X16481715Y-7147215D01*
X16481715Y-7203784D01*
X16538284Y-7203784D01*
X16538284Y-7457784D02*
X16538284Y-7401215D01*
X16481715Y-7401215D01*
X16481715Y-7457784D01*
X16538284Y-7457784D01*
X16538284Y-7711784D02*
X16538284Y-7655215D01*
X16481715Y-7655215D01*
X16481715Y-7711784D01*
X16538284Y-7711784D01*
X16538284Y-7965784D02*
X16538284Y-7909215D01*
X16481715Y-7909215D01*
X16481715Y-7965784D01*
X16538284Y-7965784D01*
X16538284Y-8219784D02*
X16538284Y-8163215D01*
X16481715Y-8163215D01*
X16481715Y-8219784D01*
X16538284Y-8219784D01*
X16538284Y-8473785D02*
X16538284Y-8417216D01*
X16481715Y-8417216D01*
X16481715Y-8473785D01*
X16538284Y-8473785D01*
X16538284Y-8727785D02*
X16538284Y-8671216D01*
X16481715Y-8671216D01*
X16481715Y-8727785D01*
X16538284Y-8727785D01*
X16538284Y-8981785D02*
X16538284Y-8925216D01*
X16481715Y-8925216D01*
X16481715Y-8981785D01*
X16538284Y-8981785D01*
X17300285Y-7203784D02*
X17300285Y-7147215D01*
X17243716Y-7147215D01*
X17243716Y-7203784D01*
X17300285Y-7203784D01*
X17300285Y-7457784D02*
X17300285Y-7401215D01*
X17243716Y-7401215D01*
X17243716Y-7457784D01*
X17300285Y-7457784D01*
X17300285Y-7711784D02*
X17300285Y-7655215D01*
X17243716Y-7655215D01*
X17243716Y-7711784D01*
X17300285Y-7711784D01*
X17300285Y-7965784D02*
X17300285Y-7909215D01*
X17243716Y-7909215D01*
X17243716Y-7965784D01*
X17300285Y-7965784D01*
X17300285Y-8219784D02*
X17300285Y-8163215D01*
X17243716Y-8163215D01*
X17243716Y-8219784D01*
X17300285Y-8219784D01*
X17300285Y-8473785D02*
X17300285Y-8417216D01*
X17243716Y-8417216D01*
X17243716Y-8473785D01*
X17300285Y-8473785D01*
X17300285Y-8727785D02*
X17300285Y-8671216D01*
X17243716Y-8671216D01*
X17243716Y-8727785D01*
X17300285Y-8727785D01*
X17300285Y-8981785D02*
X17300285Y-8925216D01*
X17243716Y-8925216D01*
X17243716Y-8981785D01*
X17300285Y-8981785D01*
X17300285Y-9434285D02*
X17300285Y-9377716D01*
X17243716Y-9377716D01*
X17243716Y-9434285D01*
X17300285Y-9434285D01*
X17300285Y-9934285D02*
X17300285Y-9877716D01*
X17243716Y-9877716D01*
X17243716Y-9934285D01*
X17300285Y-9934285D01*
X17808285Y-8283284D02*
X17808285Y-8226715D01*
X17751716Y-8226715D01*
X17751716Y-8283284D01*
X17808285Y-8283284D01*
X17808285Y-8533285D02*
X17808285Y-8476716D01*
X17751716Y-8476716D01*
X17751716Y-8533285D01*
X17808285Y-8533285D01*
X17998785Y-9430285D02*
X17998785Y-9373716D01*
X17942216Y-9373716D01*
X17942216Y-9430285D01*
X17998785Y-9430285D01*
X17998785Y-9930285D02*
X17998785Y-9873716D01*
X17942216Y-9873716D01*
X17942216Y-9930285D01*
X17998785Y-9930285D01*
X18316285Y-8283284D02*
X18316285Y-8226715D01*
X18259716Y-8226715D01*
X18259716Y-8283284D01*
X18316285Y-8283284D01*
X18316285Y-8533285D02*
X18316285Y-8476716D01*
X18259716Y-8476716D01*
X18259716Y-8533285D01*
X18316285Y-8533285D01*
D16*
X15248000Y-9636000D02*
X15295500Y-9588500D01*
X15248000Y-9541000D01*
X15200500Y-9588500D01*
X15248000Y-9636000D01*
X15498000Y-9636000D02*
X15545500Y-9588500D01*
X15498000Y-9541000D01*
X15450500Y-9588500D01*
X15498000Y-9636000D01*
X15748000Y-9636000D02*
X15795500Y-9588500D01*
X15748000Y-9541000D01*
X15700500Y-9588500D01*
X15748000Y-9636000D01*
D10*
X10808500Y-12713500D02*
X10908500Y-12813500D01*
X10908500Y-12713500D02*
X10808500Y-12813500D01*
X10908500Y-12763500D02*
G75*
G03*
X10908500Y-12763500I-50000J0D01*
G01*
X10808500Y-12963500D02*
X10908500Y-13063500D01*
X10908500Y-12963500D02*
X10808500Y-13063500D01*
X10908500Y-13013500D02*
G75*
G03*
X10908500Y-13013500I-50000J0D01*
G01*
X11622520Y-12711160D02*
X11722520Y-12811160D01*
X11722520Y-12711160D02*
X11622520Y-12811160D01*
X11722520Y-12761160D02*
G75*
G03*
X11722520Y-12761160I-50000J0D01*
G01*
X11622520Y-12961160D02*
X11722520Y-13061160D01*
X11722520Y-12961160D02*
X11622520Y-13061160D01*
X11722520Y-13011160D02*
G75*
G03*
X11722520Y-13011160I-50000J0D01*
G01*
X12396000Y-12713500D02*
X12496000Y-12813500D01*
X12496000Y-12713500D02*
X12396000Y-12813500D01*
X12496000Y-12763500D02*
G75*
G03*
X12496000Y-12763500I-50000J0D01*
G01*
X12396000Y-12963500D02*
X12496000Y-13063500D01*
X12496000Y-12963500D02*
X12396000Y-13063500D01*
X12496000Y-13013500D02*
G75*
G03*
X12496000Y-13013500I-50000J0D01*
G01*
X13475500Y-12715500D02*
X13575500Y-12815500D01*
X13575500Y-12715500D02*
X13475500Y-12815500D01*
X13575500Y-12765500D02*
G75*
G03*
X13575500Y-12765500I-50000J0D01*
G01*
X13475500Y-12965500D02*
X13575500Y-13065500D01*
X13575500Y-12965500D02*
X13475500Y-13065500D01*
X13575500Y-13015500D02*
G75*
G03*
X13575500Y-13015500I-50000J0D01*
G01*
X13486500Y-11571500D02*
X13586500Y-11671500D01*
X13586500Y-11571500D02*
X13486500Y-11671500D01*
X13586500Y-11621500D02*
G75*
G03*
X13586500Y-11621500I-50000J0D01*
G01*
X13486500Y-11821500D02*
X13586500Y-11921500D01*
X13586500Y-11821500D02*
X13486500Y-11921500D01*
X13586500Y-11871500D02*
G75*
G03*
X13586500Y-11871500I-50000J0D01*
G01*
X14173000Y-7380000D02*
X14273000Y-7480000D01*
X14273000Y-7380000D02*
X14173000Y-7480000D01*
X14273000Y-7430000D02*
G75*
G03*
X14273000Y-7430000I-50000J0D01*
G01*
X14178000Y-9538500D02*
X14278000Y-9638500D01*
X14278000Y-9538500D02*
X14178000Y-9638500D01*
X14278000Y-9588500D02*
G75*
G03*
X14278000Y-9588500I-50000J0D01*
G01*
X14427000Y-7380000D02*
X14527000Y-7480000D01*
X14527000Y-7380000D02*
X14427000Y-7480000D01*
X14527000Y-7430000D02*
G75*
G03*
X14527000Y-7430000I-50000J0D01*
G01*
X14428000Y-9538500D02*
X14528000Y-9638500D01*
X14528000Y-9538500D02*
X14428000Y-9638500D01*
X14528000Y-9588500D02*
G75*
G03*
X14528000Y-9588500I-50000J0D01*
G01*
X14428000Y-10427500D02*
X14528000Y-10527500D01*
X14528000Y-10427500D02*
X14428000Y-10527500D01*
X14528000Y-10477500D02*
G75*
G03*
X14528000Y-10477500I-50000J0D01*
G01*
X14428000Y-10677500D02*
X14528000Y-10777500D01*
X14528000Y-10677500D02*
X14428000Y-10777500D01*
X14528000Y-10727500D02*
G75*
G03*
X14528000Y-10727500I-50000J0D01*
G01*
X14428000Y-11568500D02*
X14528000Y-11668500D01*
X14528000Y-11568500D02*
X14428000Y-11668500D01*
X14528000Y-11618500D02*
G75*
G03*
X14528000Y-11618500I-50000J0D01*
G01*
X14428000Y-11818500D02*
X14528000Y-11918500D01*
X14528000Y-11818500D02*
X14428000Y-11918500D01*
X14528000Y-11868500D02*
G75*
G03*
X14528000Y-11868500I-50000J0D01*
G01*
X14428000Y-12714500D02*
X14528000Y-12814500D01*
X14528000Y-12714500D02*
X14428000Y-12814500D01*
X14528000Y-12764500D02*
G75*
G03*
X14528000Y-12764500I-50000J0D01*
G01*
X14428000Y-12964500D02*
X14528000Y-13064500D01*
X14528000Y-12964500D02*
X14428000Y-13064500D01*
X14528000Y-13014500D02*
G75*
G03*
X14528000Y-13014500I-50000J0D01*
G01*
X14681000Y-7380000D02*
X14781000Y-7480000D01*
X14781000Y-7380000D02*
X14681000Y-7480000D01*
X14781000Y-7430000D02*
G75*
G03*
X14781000Y-7430000I-50000J0D01*
G01*
X15380500Y-10427500D02*
X15480500Y-10527500D01*
X15480500Y-10427500D02*
X15380500Y-10527500D01*
X15480500Y-10477500D02*
G75*
G03*
X15480500Y-10477500I-50000J0D01*
G01*
X15380500Y-10677500D02*
X15480500Y-10777500D01*
X15480500Y-10677500D02*
X15380500Y-10777500D01*
X15480500Y-10727500D02*
G75*
G03*
X15480500Y-10727500I-50000J0D01*
G01*
X15380500Y-11568500D02*
X15480500Y-11668500D01*
X15480500Y-11568500D02*
X15380500Y-11668500D01*
X15480500Y-11618500D02*
G75*
G03*
X15480500Y-11618500I-50000J0D01*
G01*
X15380500Y-11818500D02*
X15480500Y-11918500D01*
X15480500Y-11818500D02*
X15380500Y-11918500D01*
X15480500Y-11868500D02*
G75*
G03*
X15480500Y-11868500I-50000J0D01*
G01*
X15391500Y-12717500D02*
X15491500Y-12817500D01*
X15491500Y-12717500D02*
X15391500Y-12817500D01*
X15491500Y-12767500D02*
G75*
G03*
X15491500Y-12767500I-50000J0D01*
G01*
X15391500Y-12967500D02*
X15491500Y-13067500D01*
X15491500Y-12967500D02*
X15391500Y-13067500D01*
X15491500Y-13017500D02*
G75*
G03*
X15491500Y-13017500I-50000J0D01*
G01*
X16333000Y-10427500D02*
X16433000Y-10527500D01*
X16433000Y-10427500D02*
X16333000Y-10527500D01*
X16433000Y-10477500D02*
G75*
G03*
X16433000Y-10477500I-50000J0D01*
G01*
X16333000Y-10677500D02*
X16433000Y-10777500D01*
X16433000Y-10677500D02*
X16333000Y-10777500D01*
X16433000Y-10727500D02*
G75*
G03*
X16433000Y-10727500I-50000J0D01*
G01*
X16333000Y-11568500D02*
X16433000Y-11668500D01*
X16433000Y-11568500D02*
X16333000Y-11668500D01*
X16433000Y-11618500D02*
G75*
G03*
X16433000Y-11618500I-50000J0D01*
G01*
X16333000Y-11818500D02*
X16433000Y-11918500D01*
X16433000Y-11818500D02*
X16333000Y-11918500D01*
X16433000Y-11868500D02*
G75*
G03*
X16433000Y-11868500I-50000J0D01*
G01*
X16333000Y-12715500D02*
X16433000Y-12815500D01*
X16433000Y-12715500D02*
X16333000Y-12815500D01*
X16433000Y-12765500D02*
G75*
G03*
X16433000Y-12765500I-50000J0D01*
G01*
X16333000Y-12965500D02*
X16433000Y-13065500D01*
X16433000Y-12965500D02*
X16333000Y-13065500D01*
X16433000Y-13015500D02*
G75*
G03*
X16433000Y-13015500I-50000J0D01*
G01*
X16464000Y-9538500D02*
X16564000Y-9638500D01*
X16564000Y-9538500D02*
X16464000Y-9638500D01*
X16564000Y-9588500D02*
G75*
G03*
X16564000Y-9588500I-50000J0D01*
G01*
X16714000Y-9538500D02*
X16814000Y-9638500D01*
X16814000Y-9538500D02*
X16714000Y-9638500D01*
X16814000Y-9588500D02*
G75*
G03*
X16814000Y-9588500I-50000J0D01*
G01*
X17285500Y-10427500D02*
X17385500Y-10527500D01*
X17385500Y-10427500D02*
X17285500Y-10527500D01*
X17385500Y-10477500D02*
G75*
G03*
X17385500Y-10477500I-50000J0D01*
G01*
X17285500Y-10677500D02*
X17385500Y-10777500D01*
X17385500Y-10677500D02*
X17285500Y-10777500D01*
X17385500Y-10727500D02*
G75*
G03*
X17385500Y-10727500I-50000J0D01*
G01*
X17285500Y-11568500D02*
X17385500Y-11668500D01*
X17385500Y-11568500D02*
X17285500Y-11668500D01*
X17385500Y-11618500D02*
G75*
G03*
X17385500Y-11618500I-50000J0D01*
G01*
X17285500Y-11818500D02*
X17385500Y-11918500D01*
X17385500Y-11818500D02*
X17285500Y-11918500D01*
X17385500Y-11868500D02*
G75*
G03*
X17385500Y-11868500I-50000J0D01*
G01*
X17285500Y-12715500D02*
X17385500Y-12815500D01*
X17385500Y-12715500D02*
X17285500Y-12815500D01*
X17385500Y-12765500D02*
G75*
G03*
X17385500Y-12765500I-50000J0D01*
G01*
X17285500Y-12965500D02*
X17385500Y-13065500D01*
X17385500Y-12965500D02*
X17285500Y-13065500D01*
X17385500Y-13015500D02*
G75*
G03*
X17385500Y-13015500I-50000J0D01*
G01*
X18238000Y-10427500D02*
X18338000Y-10527500D01*
X18338000Y-10427500D02*
X18238000Y-10527500D01*
X18338000Y-10477500D02*
G75*
G03*
X18338000Y-10477500I-50000J0D01*
G01*
X18238000Y-10677500D02*
X18338000Y-10777500D01*
X18338000Y-10677500D02*
X18238000Y-10777500D01*
X18338000Y-10727500D02*
G75*
G03*
X18338000Y-10727500I-50000J0D01*
G01*
X18238000Y-11570500D02*
X18338000Y-11670500D01*
X18338000Y-11570500D02*
X18238000Y-11670500D01*
X18338000Y-11620500D02*
G75*
G03*
X18338000Y-11620500I-50000J0D01*
G01*
X18238000Y-11820500D02*
X18338000Y-11920500D01*
X18338000Y-11820500D02*
X18238000Y-11920500D01*
X18338000Y-11870500D02*
G75*
G03*
X18338000Y-11870500I-50000J0D01*
G01*
X18238000Y-12715500D02*
X18338000Y-12815500D01*
X18338000Y-12715500D02*
X18238000Y-12815500D01*
X18338000Y-12765500D02*
G75*
G03*
X18338000Y-12765500I-50000J0D01*
G01*
X18238000Y-12965500D02*
X18338000Y-13065500D01*
X18338000Y-12965500D02*
X18238000Y-13065500D01*
X18338000Y-13015500D02*
G75*
G03*
X18338000Y-13015500I-50000J0D01*
G01*
D17*
X8765000Y-6987000D02*
X9015000Y-7237000D01*
X9015000Y-6987000D02*
X8765000Y-7237000D01*
X8890000Y-6987000D02*
X8890000Y-7237000D01*
X8765000Y-7112000D02*
X9015000Y-7112000D01*
X8765000Y-13083000D02*
X9015000Y-13333000D01*
X9015000Y-13083000D02*
X8765000Y-13333000D01*
X8890000Y-13083000D02*
X8890000Y-13333000D01*
X8765000Y-13208000D02*
X9015000Y-13208000D01*
X18925000Y-6987000D02*
X19175000Y-7237000D01*
X19175000Y-6987000D02*
X18925000Y-7237000D01*
X19050000Y-6987000D02*
X19050000Y-7237000D01*
X18925000Y-7112000D02*
X19175000Y-7112000D01*
X18925000Y-13083000D02*
X19175000Y-13333000D01*
X19175000Y-13083000D02*
X18925000Y-13333000D01*
X19050000Y-13083000D02*
X19050000Y-13333000D01*
X18925000Y-13208000D02*
X19175000Y-13208000D01*
D11*
X8624619Y-14033524D02*
X8624619Y-13833524D01*
X8624619Y-13833524D02*
X8672238Y-13833524D01*
X8672238Y-13833524D02*
X8700810Y-13843048D01*
X8700810Y-13843048D02*
X8719857Y-13862095D01*
X8719857Y-13862095D02*
X8729381Y-13881143D01*
X8729381Y-13881143D02*
X8738905Y-13919238D01*
X8738905Y-13919238D02*
X8738905Y-13947809D01*
X8738905Y-13947809D02*
X8729381Y-13985905D01*
X8729381Y-13985905D02*
X8719857Y-14004952D01*
X8719857Y-14004952D02*
X8700810Y-14024000D01*
X8700810Y-14024000D02*
X8672238Y-14033524D01*
X8672238Y-14033524D02*
X8624619Y-14033524D01*
X8824619Y-14033524D02*
X8824619Y-13900190D01*
X8824619Y-13938286D02*
X8834143Y-13919238D01*
X8834143Y-13919238D02*
X8843667Y-13909714D01*
X8843667Y-13909714D02*
X8862714Y-13900190D01*
X8862714Y-13900190D02*
X8881762Y-13900190D01*
X8948429Y-14033524D02*
X8948429Y-13900190D01*
X8948429Y-13833524D02*
X8938905Y-13843048D01*
X8938905Y-13843048D02*
X8948429Y-13852571D01*
X8948429Y-13852571D02*
X8957952Y-13843048D01*
X8957952Y-13843048D02*
X8948429Y-13833524D01*
X8948429Y-13833524D02*
X8948429Y-13852571D01*
X9072238Y-14033524D02*
X9053190Y-14024000D01*
X9053190Y-14024000D02*
X9043667Y-14004952D01*
X9043667Y-14004952D02*
X9043667Y-13833524D01*
X9177000Y-14033524D02*
X9157952Y-14024000D01*
X9157952Y-14024000D02*
X9148429Y-14004952D01*
X9148429Y-14004952D02*
X9148429Y-13833524D01*
X9405571Y-14033524D02*
X9405571Y-13833524D01*
X9405571Y-13833524D02*
X9472238Y-13976381D01*
X9472238Y-13976381D02*
X9538905Y-13833524D01*
X9538905Y-13833524D02*
X9538905Y-14033524D01*
X9719857Y-14033524D02*
X9719857Y-13928762D01*
X9719857Y-13928762D02*
X9710333Y-13909714D01*
X9710333Y-13909714D02*
X9691286Y-13900190D01*
X9691286Y-13900190D02*
X9653190Y-13900190D01*
X9653190Y-13900190D02*
X9634143Y-13909714D01*
X9719857Y-14024000D02*
X9700810Y-14033524D01*
X9700810Y-14033524D02*
X9653190Y-14033524D01*
X9653190Y-14033524D02*
X9634143Y-14024000D01*
X9634143Y-14024000D02*
X9624619Y-14004952D01*
X9624619Y-14004952D02*
X9624619Y-13985905D01*
X9624619Y-13985905D02*
X9634143Y-13966857D01*
X9634143Y-13966857D02*
X9653190Y-13957333D01*
X9653190Y-13957333D02*
X9700810Y-13957333D01*
X9700810Y-13957333D02*
X9719857Y-13947809D01*
X9815095Y-13900190D02*
X9815095Y-14100190D01*
X9815095Y-13909714D02*
X9834143Y-13900190D01*
X9834143Y-13900190D02*
X9872238Y-13900190D01*
X9872238Y-13900190D02*
X9891286Y-13909714D01*
X9891286Y-13909714D02*
X9900810Y-13919238D01*
X9900810Y-13919238D02*
X9910333Y-13938286D01*
X9910333Y-13938286D02*
X9910333Y-13995428D01*
X9910333Y-13995428D02*
X9900810Y-14014476D01*
X9900810Y-14014476D02*
X9891286Y-14024000D01*
X9891286Y-14024000D02*
X9872238Y-14033524D01*
X9872238Y-14033524D02*
X9834143Y-14033524D01*
X9834143Y-14033524D02*
X9815095Y-14024000D01*
X9996048Y-14014476D02*
X10005571Y-14024000D01*
X10005571Y-14024000D02*
X9996048Y-14033524D01*
X9996048Y-14033524D02*
X9986524Y-14024000D01*
X9986524Y-14024000D02*
X9996048Y-14014476D01*
X9996048Y-14014476D02*
X9996048Y-14033524D01*
X9996048Y-13909714D02*
X10005571Y-13919238D01*
X10005571Y-13919238D02*
X9996048Y-13928762D01*
X9996048Y-13928762D02*
X9986524Y-13919238D01*
X9986524Y-13919238D02*
X9996048Y-13909714D01*
X9996048Y-13909714D02*
X9996048Y-13928762D01*
D12*
X8337000Y-14341000D02*
X8377000Y-14381000D01*
X8377000Y-14341000D02*
X8337000Y-14381000D01*
D11*
X8662714Y-14253524D02*
X8681762Y-14253524D01*
X8681762Y-14253524D02*
X8700810Y-14263048D01*
X8700810Y-14263048D02*
X8710333Y-14272571D01*
X8710333Y-14272571D02*
X8719857Y-14291619D01*
X8719857Y-14291619D02*
X8729381Y-14329714D01*
X8729381Y-14329714D02*
X8729381Y-14377333D01*
X8729381Y-14377333D02*
X8719857Y-14415428D01*
X8719857Y-14415428D02*
X8710333Y-14434476D01*
X8710333Y-14434476D02*
X8700810Y-14444000D01*
X8700810Y-14444000D02*
X8681762Y-14453524D01*
X8681762Y-14453524D02*
X8662714Y-14453524D01*
X8662714Y-14453524D02*
X8643667Y-14444000D01*
X8643667Y-14444000D02*
X8634143Y-14434476D01*
X8634143Y-14434476D02*
X8624619Y-14415428D01*
X8624619Y-14415428D02*
X8615095Y-14377333D01*
X8615095Y-14377333D02*
X8615095Y-14329714D01*
X8615095Y-14329714D02*
X8624619Y-14291619D01*
X8624619Y-14291619D02*
X8634143Y-14272571D01*
X8634143Y-14272571D02*
X8643667Y-14263048D01*
X8643667Y-14263048D02*
X8662714Y-14253524D01*
X8815095Y-14434476D02*
X8824619Y-14444000D01*
X8824619Y-14444000D02*
X8815095Y-14453524D01*
X8815095Y-14453524D02*
X8805571Y-14444000D01*
X8805571Y-14444000D02*
X8815095Y-14434476D01*
X8815095Y-14434476D02*
X8815095Y-14453524D01*
X8996048Y-14320190D02*
X8996048Y-14453524D01*
X8948429Y-14244000D02*
X8900810Y-14386857D01*
X8900810Y-14386857D02*
X9024619Y-14386857D01*
X9138905Y-14253524D02*
X9157952Y-14253524D01*
X9157952Y-14253524D02*
X9177000Y-14263048D01*
X9177000Y-14263048D02*
X9186524Y-14272571D01*
X9186524Y-14272571D02*
X9196048Y-14291619D01*
X9196048Y-14291619D02*
X9205571Y-14329714D01*
X9205571Y-14329714D02*
X9205571Y-14377333D01*
X9205571Y-14377333D02*
X9196048Y-14415428D01*
X9196048Y-14415428D02*
X9186524Y-14434476D01*
X9186524Y-14434476D02*
X9177000Y-14444000D01*
X9177000Y-14444000D02*
X9157952Y-14453524D01*
X9157952Y-14453524D02*
X9138905Y-14453524D01*
X9138905Y-14453524D02*
X9119857Y-14444000D01*
X9119857Y-14444000D02*
X9110333Y-14434476D01*
X9110333Y-14434476D02*
X9100810Y-14415428D01*
X9100810Y-14415428D02*
X9091286Y-14377333D01*
X9091286Y-14377333D02*
X9091286Y-14329714D01*
X9091286Y-14329714D02*
X9100810Y-14291619D01*
X9100810Y-14291619D02*
X9110333Y-14272571D01*
X9110333Y-14272571D02*
X9119857Y-14263048D01*
X9119857Y-14263048D02*
X9138905Y-14253524D01*
X9329381Y-14253524D02*
X9348429Y-14253524D01*
X9348429Y-14253524D02*
X9367476Y-14263048D01*
X9367476Y-14263048D02*
X9377000Y-14272571D01*
X9377000Y-14272571D02*
X9386524Y-14291619D01*
X9386524Y-14291619D02*
X9396048Y-14329714D01*
X9396048Y-14329714D02*
X9396048Y-14377333D01*
X9396048Y-14377333D02*
X9386524Y-14415428D01*
X9386524Y-14415428D02*
X9377000Y-14434476D01*
X9377000Y-14434476D02*
X9367476Y-14444000D01*
X9367476Y-14444000D02*
X9348429Y-14453524D01*
X9348429Y-14453524D02*
X9329381Y-14453524D01*
X9329381Y-14453524D02*
X9310333Y-14444000D01*
X9310333Y-14444000D02*
X9300810Y-14434476D01*
X9300810Y-14434476D02*
X9291286Y-14415428D01*
X9291286Y-14415428D02*
X9281762Y-14377333D01*
X9281762Y-14377333D02*
X9281762Y-14329714D01*
X9281762Y-14329714D02*
X9291286Y-14291619D01*
X9291286Y-14291619D02*
X9300810Y-14272571D01*
X9300810Y-14272571D02*
X9310333Y-14263048D01*
X9310333Y-14263048D02*
X9329381Y-14253524D01*
X9481762Y-14453524D02*
X9481762Y-14320190D01*
X9481762Y-14339238D02*
X9491286Y-14329714D01*
X9491286Y-14329714D02*
X9510333Y-14320190D01*
X9510333Y-14320190D02*
X9538905Y-14320190D01*
X9538905Y-14320190D02*
X9557952Y-14329714D01*
X9557952Y-14329714D02*
X9567476Y-14348762D01*
X9567476Y-14348762D02*
X9567476Y-14453524D01*
X9567476Y-14348762D02*
X9577000Y-14329714D01*
X9577000Y-14329714D02*
X9596048Y-14320190D01*
X9596048Y-14320190D02*
X9624619Y-14320190D01*
X9624619Y-14320190D02*
X9643667Y-14329714D01*
X9643667Y-14329714D02*
X9653191Y-14348762D01*
X9653191Y-14348762D02*
X9653191Y-14453524D01*
X9748429Y-14453524D02*
X9748429Y-14320190D01*
X9748429Y-14339238D02*
X9757952Y-14329714D01*
X9757952Y-14329714D02*
X9777000Y-14320190D01*
X9777000Y-14320190D02*
X9805572Y-14320190D01*
X9805572Y-14320190D02*
X9824619Y-14329714D01*
X9824619Y-14329714D02*
X9834143Y-14348762D01*
X9834143Y-14348762D02*
X9834143Y-14453524D01*
X9834143Y-14348762D02*
X9843667Y-14329714D01*
X9843667Y-14329714D02*
X9862714Y-14320190D01*
X9862714Y-14320190D02*
X9891286Y-14320190D01*
X9891286Y-14320190D02*
X9910333Y-14329714D01*
X9910333Y-14329714D02*
X9919857Y-14348762D01*
X9919857Y-14348762D02*
X9919857Y-14453524D01*
X10310333Y-14244000D02*
X10138905Y-14501143D01*
X10567476Y-14253524D02*
X10586524Y-14253524D01*
X10586524Y-14253524D02*
X10605572Y-14263048D01*
X10605572Y-14263048D02*
X10615095Y-14272571D01*
X10615095Y-14272571D02*
X10624619Y-14291619D01*
X10624619Y-14291619D02*
X10634143Y-14329714D01*
X10634143Y-14329714D02*
X10634143Y-14377333D01*
X10634143Y-14377333D02*
X10624619Y-14415428D01*
X10624619Y-14415428D02*
X10615095Y-14434476D01*
X10615095Y-14434476D02*
X10605572Y-14444000D01*
X10605572Y-14444000D02*
X10586524Y-14453524D01*
X10586524Y-14453524D02*
X10567476Y-14453524D01*
X10567476Y-14453524D02*
X10548429Y-14444000D01*
X10548429Y-14444000D02*
X10538905Y-14434476D01*
X10538905Y-14434476D02*
X10529381Y-14415428D01*
X10529381Y-14415428D02*
X10519857Y-14377333D01*
X10519857Y-14377333D02*
X10519857Y-14329714D01*
X10519857Y-14329714D02*
X10529381Y-14291619D01*
X10529381Y-14291619D02*
X10538905Y-14272571D01*
X10538905Y-14272571D02*
X10548429Y-14263048D01*
X10548429Y-14263048D02*
X10567476Y-14253524D01*
X10719857Y-14434476D02*
X10729381Y-14444000D01*
X10729381Y-14444000D02*
X10719857Y-14453524D01*
X10719857Y-14453524D02*
X10710334Y-14444000D01*
X10710334Y-14444000D02*
X10719857Y-14434476D01*
X10719857Y-14434476D02*
X10719857Y-14453524D01*
X10853191Y-14253524D02*
X10872238Y-14253524D01*
X10872238Y-14253524D02*
X10891286Y-14263048D01*
X10891286Y-14263048D02*
X10900810Y-14272571D01*
X10900810Y-14272571D02*
X10910334Y-14291619D01*
X10910334Y-14291619D02*
X10919857Y-14329714D01*
X10919857Y-14329714D02*
X10919857Y-14377333D01*
X10919857Y-14377333D02*
X10910334Y-14415428D01*
X10910334Y-14415428D02*
X10900810Y-14434476D01*
X10900810Y-14434476D02*
X10891286Y-14444000D01*
X10891286Y-14444000D02*
X10872238Y-14453524D01*
X10872238Y-14453524D02*
X10853191Y-14453524D01*
X10853191Y-14453524D02*
X10834143Y-14444000D01*
X10834143Y-14444000D02*
X10824619Y-14434476D01*
X10824619Y-14434476D02*
X10815095Y-14415428D01*
X10815095Y-14415428D02*
X10805572Y-14377333D01*
X10805572Y-14377333D02*
X10805572Y-14329714D01*
X10805572Y-14329714D02*
X10815095Y-14291619D01*
X10815095Y-14291619D02*
X10824619Y-14272571D01*
X10824619Y-14272571D02*
X10834143Y-14263048D01*
X10834143Y-14263048D02*
X10853191Y-14253524D01*
X11110334Y-14453524D02*
X10996048Y-14453524D01*
X11053191Y-14453524D02*
X11053191Y-14253524D01*
X11053191Y-14253524D02*
X11034143Y-14282095D01*
X11034143Y-14282095D02*
X11015095Y-14301143D01*
X11015095Y-14301143D02*
X10996048Y-14310667D01*
X11291286Y-14253524D02*
X11196048Y-14253524D01*
X11196048Y-14253524D02*
X11186524Y-14348762D01*
X11186524Y-14348762D02*
X11196048Y-14339238D01*
X11196048Y-14339238D02*
X11215095Y-14329714D01*
X11215095Y-14329714D02*
X11262714Y-14329714D01*
X11262714Y-14329714D02*
X11281762Y-14339238D01*
X11281762Y-14339238D02*
X11291286Y-14348762D01*
X11291286Y-14348762D02*
X11300810Y-14367809D01*
X11300810Y-14367809D02*
X11300810Y-14415428D01*
X11300810Y-14415428D02*
X11291286Y-14434476D01*
X11291286Y-14434476D02*
X11281762Y-14444000D01*
X11281762Y-14444000D02*
X11262714Y-14453524D01*
X11262714Y-14453524D02*
X11215095Y-14453524D01*
X11215095Y-14453524D02*
X11196048Y-14444000D01*
X11196048Y-14444000D02*
X11186524Y-14434476D01*
X11367476Y-14253524D02*
X11500810Y-14253524D01*
X11500810Y-14253524D02*
X11415095Y-14453524D01*
X11567476Y-14253524D02*
X11567476Y-14291619D01*
X11643667Y-14253524D02*
X11643667Y-14291619D01*
X11938905Y-14529714D02*
X11929381Y-14520190D01*
X11929381Y-14520190D02*
X11910334Y-14491619D01*
X11910334Y-14491619D02*
X11900810Y-14472571D01*
X11900810Y-14472571D02*
X11891286Y-14444000D01*
X11891286Y-14444000D02*
X11881762Y-14396381D01*
X11881762Y-14396381D02*
X11881762Y-14358286D01*
X11881762Y-14358286D02*
X11891286Y-14310667D01*
X11891286Y-14310667D02*
X11900810Y-14282095D01*
X11900810Y-14282095D02*
X11910334Y-14263048D01*
X11910334Y-14263048D02*
X11929381Y-14234476D01*
X11929381Y-14234476D02*
X11938905Y-14224952D01*
X11996048Y-14253524D02*
X12119857Y-14253524D01*
X12119857Y-14253524D02*
X12053191Y-14329714D01*
X12053191Y-14329714D02*
X12081762Y-14329714D01*
X12081762Y-14329714D02*
X12100810Y-14339238D01*
X12100810Y-14339238D02*
X12110334Y-14348762D01*
X12110334Y-14348762D02*
X12119857Y-14367809D01*
X12119857Y-14367809D02*
X12119857Y-14415428D01*
X12119857Y-14415428D02*
X12110334Y-14434476D01*
X12110334Y-14434476D02*
X12100810Y-14444000D01*
X12100810Y-14444000D02*
X12081762Y-14453524D01*
X12081762Y-14453524D02*
X12024619Y-14453524D01*
X12024619Y-14453524D02*
X12005572Y-14444000D01*
X12005572Y-14444000D02*
X11996048Y-14434476D01*
X12357953Y-14453524D02*
X12357953Y-14253524D01*
X12443667Y-14453524D02*
X12443667Y-14348762D01*
X12443667Y-14348762D02*
X12434143Y-14329714D01*
X12434143Y-14329714D02*
X12415096Y-14320190D01*
X12415096Y-14320190D02*
X12386524Y-14320190D01*
X12386524Y-14320190D02*
X12367476Y-14329714D01*
X12367476Y-14329714D02*
X12357953Y-14339238D01*
X12567476Y-14453524D02*
X12548429Y-14444000D01*
X12548429Y-14444000D02*
X12538905Y-14434476D01*
X12538905Y-14434476D02*
X12529381Y-14415428D01*
X12529381Y-14415428D02*
X12529381Y-14358286D01*
X12529381Y-14358286D02*
X12538905Y-14339238D01*
X12538905Y-14339238D02*
X12548429Y-14329714D01*
X12548429Y-14329714D02*
X12567476Y-14320190D01*
X12567476Y-14320190D02*
X12596048Y-14320190D01*
X12596048Y-14320190D02*
X12615096Y-14329714D01*
X12615096Y-14329714D02*
X12624619Y-14339238D01*
X12624619Y-14339238D02*
X12634143Y-14358286D01*
X12634143Y-14358286D02*
X12634143Y-14415428D01*
X12634143Y-14415428D02*
X12624619Y-14434476D01*
X12624619Y-14434476D02*
X12615096Y-14444000D01*
X12615096Y-14444000D02*
X12596048Y-14453524D01*
X12596048Y-14453524D02*
X12567476Y-14453524D01*
X12748429Y-14453524D02*
X12729381Y-14444000D01*
X12729381Y-14444000D02*
X12719857Y-14424952D01*
X12719857Y-14424952D02*
X12719857Y-14253524D01*
X12900810Y-14444000D02*
X12881762Y-14453524D01*
X12881762Y-14453524D02*
X12843667Y-14453524D01*
X12843667Y-14453524D02*
X12824619Y-14444000D01*
X12824619Y-14444000D02*
X12815096Y-14424952D01*
X12815096Y-14424952D02*
X12815096Y-14348762D01*
X12815096Y-14348762D02*
X12824619Y-14329714D01*
X12824619Y-14329714D02*
X12843667Y-14320190D01*
X12843667Y-14320190D02*
X12881762Y-14320190D01*
X12881762Y-14320190D02*
X12900810Y-14329714D01*
X12900810Y-14329714D02*
X12910334Y-14348762D01*
X12910334Y-14348762D02*
X12910334Y-14367809D01*
X12910334Y-14367809D02*
X12815096Y-14386857D01*
X12986524Y-14444000D02*
X13005572Y-14453524D01*
X13005572Y-14453524D02*
X13043667Y-14453524D01*
X13043667Y-14453524D02*
X13062715Y-14444000D01*
X13062715Y-14444000D02*
X13072238Y-14424952D01*
X13072238Y-14424952D02*
X13072238Y-14415428D01*
X13072238Y-14415428D02*
X13062715Y-14396381D01*
X13062715Y-14396381D02*
X13043667Y-14386857D01*
X13043667Y-14386857D02*
X13015096Y-14386857D01*
X13015096Y-14386857D02*
X12996048Y-14377333D01*
X12996048Y-14377333D02*
X12986524Y-14358286D01*
X12986524Y-14358286D02*
X12986524Y-14348762D01*
X12986524Y-14348762D02*
X12996048Y-14329714D01*
X12996048Y-14329714D02*
X13015096Y-14320190D01*
X13015096Y-14320190D02*
X13043667Y-14320190D01*
X13043667Y-14320190D02*
X13062715Y-14329714D01*
X13138905Y-14529714D02*
X13148429Y-14520190D01*
X13148429Y-14520190D02*
X13167477Y-14491619D01*
X13167477Y-14491619D02*
X13177000Y-14472571D01*
X13177000Y-14472571D02*
X13186524Y-14444000D01*
X13186524Y-14444000D02*
X13196048Y-14396381D01*
X13196048Y-14396381D02*
X13196048Y-14358286D01*
X13196048Y-14358286D02*
X13186524Y-14310667D01*
X13186524Y-14310667D02*
X13177000Y-14282095D01*
X13177000Y-14282095D02*
X13167477Y-14263048D01*
X13167477Y-14263048D02*
X13148429Y-14234476D01*
X13148429Y-14234476D02*
X13138905Y-14224952D01*
D13*
X8377000Y-14625000D02*
G75*
G03*
X8377000Y-14625000I-25000J0D01*
G01*
D11*
X8662714Y-14517524D02*
X8681762Y-14517524D01*
X8681762Y-14517524D02*
X8700810Y-14527048D01*
X8700810Y-14527048D02*
X8710333Y-14536571D01*
X8710333Y-14536571D02*
X8719857Y-14555619D01*
X8719857Y-14555619D02*
X8729381Y-14593714D01*
X8729381Y-14593714D02*
X8729381Y-14641333D01*
X8729381Y-14641333D02*
X8719857Y-14679428D01*
X8719857Y-14679428D02*
X8710333Y-14698476D01*
X8710333Y-14698476D02*
X8700810Y-14708000D01*
X8700810Y-14708000D02*
X8681762Y-14717524D01*
X8681762Y-14717524D02*
X8662714Y-14717524D01*
X8662714Y-14717524D02*
X8643667Y-14708000D01*
X8643667Y-14708000D02*
X8634143Y-14698476D01*
X8634143Y-14698476D02*
X8624619Y-14679428D01*
X8624619Y-14679428D02*
X8615095Y-14641333D01*
X8615095Y-14641333D02*
X8615095Y-14593714D01*
X8615095Y-14593714D02*
X8624619Y-14555619D01*
X8624619Y-14555619D02*
X8634143Y-14536571D01*
X8634143Y-14536571D02*
X8643667Y-14527048D01*
X8643667Y-14527048D02*
X8662714Y-14517524D01*
X8815095Y-14698476D02*
X8824619Y-14708000D01*
X8824619Y-14708000D02*
X8815095Y-14717524D01*
X8815095Y-14717524D02*
X8805571Y-14708000D01*
X8805571Y-14708000D02*
X8815095Y-14698476D01*
X8815095Y-14698476D02*
X8815095Y-14717524D01*
X9005571Y-14517524D02*
X8910333Y-14517524D01*
X8910333Y-14517524D02*
X8900810Y-14612762D01*
X8900810Y-14612762D02*
X8910333Y-14603238D01*
X8910333Y-14603238D02*
X8929381Y-14593714D01*
X8929381Y-14593714D02*
X8977000Y-14593714D01*
X8977000Y-14593714D02*
X8996048Y-14603238D01*
X8996048Y-14603238D02*
X9005571Y-14612762D01*
X9005571Y-14612762D02*
X9015095Y-14631809D01*
X9015095Y-14631809D02*
X9015095Y-14679428D01*
X9015095Y-14679428D02*
X9005571Y-14698476D01*
X9005571Y-14698476D02*
X8996048Y-14708000D01*
X8996048Y-14708000D02*
X8977000Y-14717524D01*
X8977000Y-14717524D02*
X8929381Y-14717524D01*
X8929381Y-14717524D02*
X8910333Y-14708000D01*
X8910333Y-14708000D02*
X8900810Y-14698476D01*
X9138905Y-14517524D02*
X9157952Y-14517524D01*
X9157952Y-14517524D02*
X9177000Y-14527048D01*
X9177000Y-14527048D02*
X9186524Y-14536571D01*
X9186524Y-14536571D02*
X9196048Y-14555619D01*
X9196048Y-14555619D02*
X9205571Y-14593714D01*
X9205571Y-14593714D02*
X9205571Y-14641333D01*
X9205571Y-14641333D02*
X9196048Y-14679428D01*
X9196048Y-14679428D02*
X9186524Y-14698476D01*
X9186524Y-14698476D02*
X9177000Y-14708000D01*
X9177000Y-14708000D02*
X9157952Y-14717524D01*
X9157952Y-14717524D02*
X9138905Y-14717524D01*
X9138905Y-14717524D02*
X9119857Y-14708000D01*
X9119857Y-14708000D02*
X9110333Y-14698476D01*
X9110333Y-14698476D02*
X9100810Y-14679428D01*
X9100810Y-14679428D02*
X9091286Y-14641333D01*
X9091286Y-14641333D02*
X9091286Y-14593714D01*
X9091286Y-14593714D02*
X9100810Y-14555619D01*
X9100810Y-14555619D02*
X9110333Y-14536571D01*
X9110333Y-14536571D02*
X9119857Y-14527048D01*
X9119857Y-14527048D02*
X9138905Y-14517524D01*
X9329381Y-14517524D02*
X9348429Y-14517524D01*
X9348429Y-14517524D02*
X9367476Y-14527048D01*
X9367476Y-14527048D02*
X9377000Y-14536571D01*
X9377000Y-14536571D02*
X9386524Y-14555619D01*
X9386524Y-14555619D02*
X9396048Y-14593714D01*
X9396048Y-14593714D02*
X9396048Y-14641333D01*
X9396048Y-14641333D02*
X9386524Y-14679428D01*
X9386524Y-14679428D02*
X9377000Y-14698476D01*
X9377000Y-14698476D02*
X9367476Y-14708000D01*
X9367476Y-14708000D02*
X9348429Y-14717524D01*
X9348429Y-14717524D02*
X9329381Y-14717524D01*
X9329381Y-14717524D02*
X9310333Y-14708000D01*
X9310333Y-14708000D02*
X9300810Y-14698476D01*
X9300810Y-14698476D02*
X9291286Y-14679428D01*
X9291286Y-14679428D02*
X9281762Y-14641333D01*
X9281762Y-14641333D02*
X9281762Y-14593714D01*
X9281762Y-14593714D02*
X9291286Y-14555619D01*
X9291286Y-14555619D02*
X9300810Y-14536571D01*
X9300810Y-14536571D02*
X9310333Y-14527048D01*
X9310333Y-14527048D02*
X9329381Y-14517524D01*
X9481762Y-14717524D02*
X9481762Y-14584190D01*
X9481762Y-14603238D02*
X9491286Y-14593714D01*
X9491286Y-14593714D02*
X9510333Y-14584190D01*
X9510333Y-14584190D02*
X9538905Y-14584190D01*
X9538905Y-14584190D02*
X9557952Y-14593714D01*
X9557952Y-14593714D02*
X9567476Y-14612762D01*
X9567476Y-14612762D02*
X9567476Y-14717524D01*
X9567476Y-14612762D02*
X9577000Y-14593714D01*
X9577000Y-14593714D02*
X9596048Y-14584190D01*
X9596048Y-14584190D02*
X9624619Y-14584190D01*
X9624619Y-14584190D02*
X9643667Y-14593714D01*
X9643667Y-14593714D02*
X9653191Y-14612762D01*
X9653191Y-14612762D02*
X9653191Y-14717524D01*
X9748429Y-14717524D02*
X9748429Y-14584190D01*
X9748429Y-14603238D02*
X9757952Y-14593714D01*
X9757952Y-14593714D02*
X9777000Y-14584190D01*
X9777000Y-14584190D02*
X9805572Y-14584190D01*
X9805572Y-14584190D02*
X9824619Y-14593714D01*
X9824619Y-14593714D02*
X9834143Y-14612762D01*
X9834143Y-14612762D02*
X9834143Y-14717524D01*
X9834143Y-14612762D02*
X9843667Y-14593714D01*
X9843667Y-14593714D02*
X9862714Y-14584190D01*
X9862714Y-14584190D02*
X9891286Y-14584190D01*
X9891286Y-14584190D02*
X9910333Y-14593714D01*
X9910333Y-14593714D02*
X9919857Y-14612762D01*
X9919857Y-14612762D02*
X9919857Y-14717524D01*
X10310333Y-14508000D02*
X10138905Y-14765143D01*
X10567476Y-14517524D02*
X10586524Y-14517524D01*
X10586524Y-14517524D02*
X10605572Y-14527048D01*
X10605572Y-14527048D02*
X10615095Y-14536571D01*
X10615095Y-14536571D02*
X10624619Y-14555619D01*
X10624619Y-14555619D02*
X10634143Y-14593714D01*
X10634143Y-14593714D02*
X10634143Y-14641333D01*
X10634143Y-14641333D02*
X10624619Y-14679428D01*
X10624619Y-14679428D02*
X10615095Y-14698476D01*
X10615095Y-14698476D02*
X10605572Y-14708000D01*
X10605572Y-14708000D02*
X10586524Y-14717524D01*
X10586524Y-14717524D02*
X10567476Y-14717524D01*
X10567476Y-14717524D02*
X10548429Y-14708000D01*
X10548429Y-14708000D02*
X10538905Y-14698476D01*
X10538905Y-14698476D02*
X10529381Y-14679428D01*
X10529381Y-14679428D02*
X10519857Y-14641333D01*
X10519857Y-14641333D02*
X10519857Y-14593714D01*
X10519857Y-14593714D02*
X10529381Y-14555619D01*
X10529381Y-14555619D02*
X10538905Y-14536571D01*
X10538905Y-14536571D02*
X10548429Y-14527048D01*
X10548429Y-14527048D02*
X10567476Y-14517524D01*
X10719857Y-14698476D02*
X10729381Y-14708000D01*
X10729381Y-14708000D02*
X10719857Y-14717524D01*
X10719857Y-14717524D02*
X10710334Y-14708000D01*
X10710334Y-14708000D02*
X10719857Y-14698476D01*
X10719857Y-14698476D02*
X10719857Y-14717524D01*
X10853191Y-14517524D02*
X10872238Y-14517524D01*
X10872238Y-14517524D02*
X10891286Y-14527048D01*
X10891286Y-14527048D02*
X10900810Y-14536571D01*
X10900810Y-14536571D02*
X10910334Y-14555619D01*
X10910334Y-14555619D02*
X10919857Y-14593714D01*
X10919857Y-14593714D02*
X10919857Y-14641333D01*
X10919857Y-14641333D02*
X10910334Y-14679428D01*
X10910334Y-14679428D02*
X10900810Y-14698476D01*
X10900810Y-14698476D02*
X10891286Y-14708000D01*
X10891286Y-14708000D02*
X10872238Y-14717524D01*
X10872238Y-14717524D02*
X10853191Y-14717524D01*
X10853191Y-14717524D02*
X10834143Y-14708000D01*
X10834143Y-14708000D02*
X10824619Y-14698476D01*
X10824619Y-14698476D02*
X10815095Y-14679428D01*
X10815095Y-14679428D02*
X10805572Y-14641333D01*
X10805572Y-14641333D02*
X10805572Y-14593714D01*
X10805572Y-14593714D02*
X10815095Y-14555619D01*
X10815095Y-14555619D02*
X10824619Y-14536571D01*
X10824619Y-14536571D02*
X10834143Y-14527048D01*
X10834143Y-14527048D02*
X10853191Y-14517524D01*
X11110334Y-14717524D02*
X10996048Y-14717524D01*
X11053191Y-14717524D02*
X11053191Y-14517524D01*
X11053191Y-14517524D02*
X11034143Y-14546095D01*
X11034143Y-14546095D02*
X11015095Y-14565143D01*
X11015095Y-14565143D02*
X10996048Y-14574667D01*
X11205572Y-14717524D02*
X11243667Y-14717524D01*
X11243667Y-14717524D02*
X11262714Y-14708000D01*
X11262714Y-14708000D02*
X11272238Y-14698476D01*
X11272238Y-14698476D02*
X11291286Y-14669905D01*
X11291286Y-14669905D02*
X11300810Y-14631809D01*
X11300810Y-14631809D02*
X11300810Y-14555619D01*
X11300810Y-14555619D02*
X11291286Y-14536571D01*
X11291286Y-14536571D02*
X11281762Y-14527048D01*
X11281762Y-14527048D02*
X11262714Y-14517524D01*
X11262714Y-14517524D02*
X11224619Y-14517524D01*
X11224619Y-14517524D02*
X11205572Y-14527048D01*
X11205572Y-14527048D02*
X11196048Y-14536571D01*
X11196048Y-14536571D02*
X11186524Y-14555619D01*
X11186524Y-14555619D02*
X11186524Y-14603238D01*
X11186524Y-14603238D02*
X11196048Y-14622286D01*
X11196048Y-14622286D02*
X11205572Y-14631809D01*
X11205572Y-14631809D02*
X11224619Y-14641333D01*
X11224619Y-14641333D02*
X11262714Y-14641333D01*
X11262714Y-14641333D02*
X11281762Y-14631809D01*
X11281762Y-14631809D02*
X11291286Y-14622286D01*
X11291286Y-14622286D02*
X11300810Y-14603238D01*
X11367476Y-14517524D02*
X11500810Y-14517524D01*
X11500810Y-14517524D02*
X11415095Y-14717524D01*
X11567476Y-14517524D02*
X11567476Y-14555619D01*
X11643667Y-14517524D02*
X11643667Y-14555619D01*
X11938905Y-14793714D02*
X11929381Y-14784190D01*
X11929381Y-14784190D02*
X11910334Y-14755619D01*
X11910334Y-14755619D02*
X11900810Y-14736571D01*
X11900810Y-14736571D02*
X11891286Y-14708000D01*
X11891286Y-14708000D02*
X11881762Y-14660381D01*
X11881762Y-14660381D02*
X11881762Y-14622286D01*
X11881762Y-14622286D02*
X11891286Y-14574667D01*
X11891286Y-14574667D02*
X11900810Y-14546095D01*
X11900810Y-14546095D02*
X11910334Y-14527048D01*
X11910334Y-14527048D02*
X11929381Y-14498476D01*
X11929381Y-14498476D02*
X11938905Y-14488952D01*
X12005572Y-14536571D02*
X12015095Y-14527048D01*
X12015095Y-14527048D02*
X12034143Y-14517524D01*
X12034143Y-14517524D02*
X12081762Y-14517524D01*
X12081762Y-14517524D02*
X12100810Y-14527048D01*
X12100810Y-14527048D02*
X12110334Y-14536571D01*
X12110334Y-14536571D02*
X12119857Y-14555619D01*
X12119857Y-14555619D02*
X12119857Y-14574667D01*
X12119857Y-14574667D02*
X12110334Y-14603238D01*
X12110334Y-14603238D02*
X11996048Y-14717524D01*
X11996048Y-14717524D02*
X12119857Y-14717524D01*
X12357953Y-14717524D02*
X12357953Y-14517524D01*
X12443667Y-14717524D02*
X12443667Y-14612762D01*
X12443667Y-14612762D02*
X12434143Y-14593714D01*
X12434143Y-14593714D02*
X12415096Y-14584190D01*
X12415096Y-14584190D02*
X12386524Y-14584190D01*
X12386524Y-14584190D02*
X12367476Y-14593714D01*
X12367476Y-14593714D02*
X12357953Y-14603238D01*
X12567476Y-14717524D02*
X12548429Y-14708000D01*
X12548429Y-14708000D02*
X12538905Y-14698476D01*
X12538905Y-14698476D02*
X12529381Y-14679428D01*
X12529381Y-14679428D02*
X12529381Y-14622286D01*
X12529381Y-14622286D02*
X12538905Y-14603238D01*
X12538905Y-14603238D02*
X12548429Y-14593714D01*
X12548429Y-14593714D02*
X12567476Y-14584190D01*
X12567476Y-14584190D02*
X12596048Y-14584190D01*
X12596048Y-14584190D02*
X12615096Y-14593714D01*
X12615096Y-14593714D02*
X12624619Y-14603238D01*
X12624619Y-14603238D02*
X12634143Y-14622286D01*
X12634143Y-14622286D02*
X12634143Y-14679428D01*
X12634143Y-14679428D02*
X12624619Y-14698476D01*
X12624619Y-14698476D02*
X12615096Y-14708000D01*
X12615096Y-14708000D02*
X12596048Y-14717524D01*
X12596048Y-14717524D02*
X12567476Y-14717524D01*
X12748429Y-14717524D02*
X12729381Y-14708000D01*
X12729381Y-14708000D02*
X12719857Y-14688952D01*
X12719857Y-14688952D02*
X12719857Y-14517524D01*
X12900810Y-14708000D02*
X12881762Y-14717524D01*
X12881762Y-14717524D02*
X12843667Y-14717524D01*
X12843667Y-14717524D02*
X12824619Y-14708000D01*
X12824619Y-14708000D02*
X12815096Y-14688952D01*
X12815096Y-14688952D02*
X12815096Y-14612762D01*
X12815096Y-14612762D02*
X12824619Y-14593714D01*
X12824619Y-14593714D02*
X12843667Y-14584190D01*
X12843667Y-14584190D02*
X12881762Y-14584190D01*
X12881762Y-14584190D02*
X12900810Y-14593714D01*
X12900810Y-14593714D02*
X12910334Y-14612762D01*
X12910334Y-14612762D02*
X12910334Y-14631809D01*
X12910334Y-14631809D02*
X12815096Y-14650857D01*
X12986524Y-14708000D02*
X13005572Y-14717524D01*
X13005572Y-14717524D02*
X13043667Y-14717524D01*
X13043667Y-14717524D02*
X13062715Y-14708000D01*
X13062715Y-14708000D02*
X13072238Y-14688952D01*
X13072238Y-14688952D02*
X13072238Y-14679428D01*
X13072238Y-14679428D02*
X13062715Y-14660381D01*
X13062715Y-14660381D02*
X13043667Y-14650857D01*
X13043667Y-14650857D02*
X13015096Y-14650857D01*
X13015096Y-14650857D02*
X12996048Y-14641333D01*
X12996048Y-14641333D02*
X12986524Y-14622286D01*
X12986524Y-14622286D02*
X12986524Y-14612762D01*
X12986524Y-14612762D02*
X12996048Y-14593714D01*
X12996048Y-14593714D02*
X13015096Y-14584190D01*
X13015096Y-14584190D02*
X13043667Y-14584190D01*
X13043667Y-14584190D02*
X13062715Y-14593714D01*
X13138905Y-14793714D02*
X13148429Y-14784190D01*
X13148429Y-14784190D02*
X13167477Y-14755619D01*
X13167477Y-14755619D02*
X13177000Y-14736571D01*
X13177000Y-14736571D02*
X13186524Y-14708000D01*
X13186524Y-14708000D02*
X13196048Y-14660381D01*
X13196048Y-14660381D02*
X13196048Y-14622286D01*
X13196048Y-14622286D02*
X13186524Y-14574667D01*
X13186524Y-14574667D02*
X13177000Y-14546095D01*
X13177000Y-14546095D02*
X13167477Y-14527048D01*
X13167477Y-14527048D02*
X13148429Y-14498476D01*
X13148429Y-14498476D02*
X13138905Y-14488952D01*
D14*
X8342000Y-14854000D02*
X8342000Y-14924000D01*
X8307000Y-14889000D02*
X8377000Y-14889000D01*
D11*
X8662714Y-14781524D02*
X8681762Y-14781524D01*
X8681762Y-14781524D02*
X8700810Y-14791048D01*
X8700810Y-14791048D02*
X8710333Y-14800571D01*
X8710333Y-14800571D02*
X8719857Y-14819619D01*
X8719857Y-14819619D02*
X8729381Y-14857714D01*
X8729381Y-14857714D02*
X8729381Y-14905333D01*
X8729381Y-14905333D02*
X8719857Y-14943428D01*
X8719857Y-14943428D02*
X8710333Y-14962476D01*
X8710333Y-14962476D02*
X8700810Y-14972000D01*
X8700810Y-14972000D02*
X8681762Y-14981524D01*
X8681762Y-14981524D02*
X8662714Y-14981524D01*
X8662714Y-14981524D02*
X8643667Y-14972000D01*
X8643667Y-14972000D02*
X8634143Y-14962476D01*
X8634143Y-14962476D02*
X8624619Y-14943428D01*
X8624619Y-14943428D02*
X8615095Y-14905333D01*
X8615095Y-14905333D02*
X8615095Y-14857714D01*
X8615095Y-14857714D02*
X8624619Y-14819619D01*
X8624619Y-14819619D02*
X8634143Y-14800571D01*
X8634143Y-14800571D02*
X8643667Y-14791048D01*
X8643667Y-14791048D02*
X8662714Y-14781524D01*
X8815095Y-14962476D02*
X8824619Y-14972000D01*
X8824619Y-14972000D02*
X8815095Y-14981524D01*
X8815095Y-14981524D02*
X8805571Y-14972000D01*
X8805571Y-14972000D02*
X8815095Y-14962476D01*
X8815095Y-14962476D02*
X8815095Y-14981524D01*
X8891286Y-14781524D02*
X9024619Y-14781524D01*
X9024619Y-14781524D02*
X8938905Y-14981524D01*
X9138905Y-14781524D02*
X9157952Y-14781524D01*
X9157952Y-14781524D02*
X9177000Y-14791048D01*
X9177000Y-14791048D02*
X9186524Y-14800571D01*
X9186524Y-14800571D02*
X9196048Y-14819619D01*
X9196048Y-14819619D02*
X9205571Y-14857714D01*
X9205571Y-14857714D02*
X9205571Y-14905333D01*
X9205571Y-14905333D02*
X9196048Y-14943428D01*
X9196048Y-14943428D02*
X9186524Y-14962476D01*
X9186524Y-14962476D02*
X9177000Y-14972000D01*
X9177000Y-14972000D02*
X9157952Y-14981524D01*
X9157952Y-14981524D02*
X9138905Y-14981524D01*
X9138905Y-14981524D02*
X9119857Y-14972000D01*
X9119857Y-14972000D02*
X9110333Y-14962476D01*
X9110333Y-14962476D02*
X9100810Y-14943428D01*
X9100810Y-14943428D02*
X9091286Y-14905333D01*
X9091286Y-14905333D02*
X9091286Y-14857714D01*
X9091286Y-14857714D02*
X9100810Y-14819619D01*
X9100810Y-14819619D02*
X9110333Y-14800571D01*
X9110333Y-14800571D02*
X9119857Y-14791048D01*
X9119857Y-14791048D02*
X9138905Y-14781524D01*
X9329381Y-14781524D02*
X9348429Y-14781524D01*
X9348429Y-14781524D02*
X9367476Y-14791048D01*
X9367476Y-14791048D02*
X9377000Y-14800571D01*
X9377000Y-14800571D02*
X9386524Y-14819619D01*
X9386524Y-14819619D02*
X9396048Y-14857714D01*
X9396048Y-14857714D02*
X9396048Y-14905333D01*
X9396048Y-14905333D02*
X9386524Y-14943428D01*
X9386524Y-14943428D02*
X9377000Y-14962476D01*
X9377000Y-14962476D02*
X9367476Y-14972000D01*
X9367476Y-14972000D02*
X9348429Y-14981524D01*
X9348429Y-14981524D02*
X9329381Y-14981524D01*
X9329381Y-14981524D02*
X9310333Y-14972000D01*
X9310333Y-14972000D02*
X9300810Y-14962476D01*
X9300810Y-14962476D02*
X9291286Y-14943428D01*
X9291286Y-14943428D02*
X9281762Y-14905333D01*
X9281762Y-14905333D02*
X9281762Y-14857714D01*
X9281762Y-14857714D02*
X9291286Y-14819619D01*
X9291286Y-14819619D02*
X9300810Y-14800571D01*
X9300810Y-14800571D02*
X9310333Y-14791048D01*
X9310333Y-14791048D02*
X9329381Y-14781524D01*
X9481762Y-14981524D02*
X9481762Y-14848190D01*
X9481762Y-14867238D02*
X9491286Y-14857714D01*
X9491286Y-14857714D02*
X9510333Y-14848190D01*
X9510333Y-14848190D02*
X9538905Y-14848190D01*
X9538905Y-14848190D02*
X9557952Y-14857714D01*
X9557952Y-14857714D02*
X9567476Y-14876762D01*
X9567476Y-14876762D02*
X9567476Y-14981524D01*
X9567476Y-14876762D02*
X9577000Y-14857714D01*
X9577000Y-14857714D02*
X9596048Y-14848190D01*
X9596048Y-14848190D02*
X9624619Y-14848190D01*
X9624619Y-14848190D02*
X9643667Y-14857714D01*
X9643667Y-14857714D02*
X9653191Y-14876762D01*
X9653191Y-14876762D02*
X9653191Y-14981524D01*
X9748429Y-14981524D02*
X9748429Y-14848190D01*
X9748429Y-14867238D02*
X9757952Y-14857714D01*
X9757952Y-14857714D02*
X9777000Y-14848190D01*
X9777000Y-14848190D02*
X9805572Y-14848190D01*
X9805572Y-14848190D02*
X9824619Y-14857714D01*
X9824619Y-14857714D02*
X9834143Y-14876762D01*
X9834143Y-14876762D02*
X9834143Y-14981524D01*
X9834143Y-14876762D02*
X9843667Y-14857714D01*
X9843667Y-14857714D02*
X9862714Y-14848190D01*
X9862714Y-14848190D02*
X9891286Y-14848190D01*
X9891286Y-14848190D02*
X9910333Y-14857714D01*
X9910333Y-14857714D02*
X9919857Y-14876762D01*
X9919857Y-14876762D02*
X9919857Y-14981524D01*
X10310333Y-14772000D02*
X10138905Y-15029143D01*
X10567476Y-14781524D02*
X10586524Y-14781524D01*
X10586524Y-14781524D02*
X10605572Y-14791048D01*
X10605572Y-14791048D02*
X10615095Y-14800571D01*
X10615095Y-14800571D02*
X10624619Y-14819619D01*
X10624619Y-14819619D02*
X10634143Y-14857714D01*
X10634143Y-14857714D02*
X10634143Y-14905333D01*
X10634143Y-14905333D02*
X10624619Y-14943428D01*
X10624619Y-14943428D02*
X10615095Y-14962476D01*
X10615095Y-14962476D02*
X10605572Y-14972000D01*
X10605572Y-14972000D02*
X10586524Y-14981524D01*
X10586524Y-14981524D02*
X10567476Y-14981524D01*
X10567476Y-14981524D02*
X10548429Y-14972000D01*
X10548429Y-14972000D02*
X10538905Y-14962476D01*
X10538905Y-14962476D02*
X10529381Y-14943428D01*
X10529381Y-14943428D02*
X10519857Y-14905333D01*
X10519857Y-14905333D02*
X10519857Y-14857714D01*
X10519857Y-14857714D02*
X10529381Y-14819619D01*
X10529381Y-14819619D02*
X10538905Y-14800571D01*
X10538905Y-14800571D02*
X10548429Y-14791048D01*
X10548429Y-14791048D02*
X10567476Y-14781524D01*
X10719857Y-14962476D02*
X10729381Y-14972000D01*
X10729381Y-14972000D02*
X10719857Y-14981524D01*
X10719857Y-14981524D02*
X10710334Y-14972000D01*
X10710334Y-14972000D02*
X10719857Y-14962476D01*
X10719857Y-14962476D02*
X10719857Y-14981524D01*
X10853191Y-14781524D02*
X10872238Y-14781524D01*
X10872238Y-14781524D02*
X10891286Y-14791048D01*
X10891286Y-14791048D02*
X10900810Y-14800571D01*
X10900810Y-14800571D02*
X10910334Y-14819619D01*
X10910334Y-14819619D02*
X10919857Y-14857714D01*
X10919857Y-14857714D02*
X10919857Y-14905333D01*
X10919857Y-14905333D02*
X10910334Y-14943428D01*
X10910334Y-14943428D02*
X10900810Y-14962476D01*
X10900810Y-14962476D02*
X10891286Y-14972000D01*
X10891286Y-14972000D02*
X10872238Y-14981524D01*
X10872238Y-14981524D02*
X10853191Y-14981524D01*
X10853191Y-14981524D02*
X10834143Y-14972000D01*
X10834143Y-14972000D02*
X10824619Y-14962476D01*
X10824619Y-14962476D02*
X10815095Y-14943428D01*
X10815095Y-14943428D02*
X10805572Y-14905333D01*
X10805572Y-14905333D02*
X10805572Y-14857714D01*
X10805572Y-14857714D02*
X10815095Y-14819619D01*
X10815095Y-14819619D02*
X10824619Y-14800571D01*
X10824619Y-14800571D02*
X10834143Y-14791048D01*
X10834143Y-14791048D02*
X10853191Y-14781524D01*
X10996048Y-14800571D02*
X11005572Y-14791048D01*
X11005572Y-14791048D02*
X11024619Y-14781524D01*
X11024619Y-14781524D02*
X11072238Y-14781524D01*
X11072238Y-14781524D02*
X11091286Y-14791048D01*
X11091286Y-14791048D02*
X11100810Y-14800571D01*
X11100810Y-14800571D02*
X11110334Y-14819619D01*
X11110334Y-14819619D02*
X11110334Y-14838667D01*
X11110334Y-14838667D02*
X11100810Y-14867238D01*
X11100810Y-14867238D02*
X10986524Y-14981524D01*
X10986524Y-14981524D02*
X11110334Y-14981524D01*
X11177000Y-14781524D02*
X11310333Y-14781524D01*
X11310333Y-14781524D02*
X11224619Y-14981524D01*
X11472238Y-14781524D02*
X11434143Y-14781524D01*
X11434143Y-14781524D02*
X11415095Y-14791048D01*
X11415095Y-14791048D02*
X11405572Y-14800571D01*
X11405572Y-14800571D02*
X11386524Y-14829143D01*
X11386524Y-14829143D02*
X11377000Y-14867238D01*
X11377000Y-14867238D02*
X11377000Y-14943428D01*
X11377000Y-14943428D02*
X11386524Y-14962476D01*
X11386524Y-14962476D02*
X11396048Y-14972000D01*
X11396048Y-14972000D02*
X11415095Y-14981524D01*
X11415095Y-14981524D02*
X11453191Y-14981524D01*
X11453191Y-14981524D02*
X11472238Y-14972000D01*
X11472238Y-14972000D02*
X11481762Y-14962476D01*
X11481762Y-14962476D02*
X11491286Y-14943428D01*
X11491286Y-14943428D02*
X11491286Y-14895809D01*
X11491286Y-14895809D02*
X11481762Y-14876762D01*
X11481762Y-14876762D02*
X11472238Y-14867238D01*
X11472238Y-14867238D02*
X11453191Y-14857714D01*
X11453191Y-14857714D02*
X11415095Y-14857714D01*
X11415095Y-14857714D02*
X11396048Y-14867238D01*
X11396048Y-14867238D02*
X11386524Y-14876762D01*
X11386524Y-14876762D02*
X11377000Y-14895809D01*
X11567476Y-14781524D02*
X11567476Y-14819619D01*
X11643667Y-14781524D02*
X11643667Y-14819619D01*
X11938905Y-15057714D02*
X11929381Y-15048190D01*
X11929381Y-15048190D02*
X11910334Y-15019619D01*
X11910334Y-15019619D02*
X11900810Y-15000571D01*
X11900810Y-15000571D02*
X11891286Y-14972000D01*
X11891286Y-14972000D02*
X11881762Y-14924381D01*
X11881762Y-14924381D02*
X11881762Y-14886286D01*
X11881762Y-14886286D02*
X11891286Y-14838667D01*
X11891286Y-14838667D02*
X11900810Y-14810095D01*
X11900810Y-14810095D02*
X11910334Y-14791048D01*
X11910334Y-14791048D02*
X11929381Y-14762476D01*
X11929381Y-14762476D02*
X11938905Y-14752952D01*
X12110334Y-14781524D02*
X12015095Y-14781524D01*
X12015095Y-14781524D02*
X12005572Y-14876762D01*
X12005572Y-14876762D02*
X12015095Y-14867238D01*
X12015095Y-14867238D02*
X12034143Y-14857714D01*
X12034143Y-14857714D02*
X12081762Y-14857714D01*
X12081762Y-14857714D02*
X12100810Y-14867238D01*
X12100810Y-14867238D02*
X12110334Y-14876762D01*
X12110334Y-14876762D02*
X12119857Y-14895809D01*
X12119857Y-14895809D02*
X12119857Y-14943428D01*
X12119857Y-14943428D02*
X12110334Y-14962476D01*
X12110334Y-14962476D02*
X12100810Y-14972000D01*
X12100810Y-14972000D02*
X12081762Y-14981524D01*
X12081762Y-14981524D02*
X12034143Y-14981524D01*
X12034143Y-14981524D02*
X12015095Y-14972000D01*
X12015095Y-14972000D02*
X12005572Y-14962476D01*
X12291286Y-14781524D02*
X12253191Y-14781524D01*
X12253191Y-14781524D02*
X12234143Y-14791048D01*
X12234143Y-14791048D02*
X12224619Y-14800571D01*
X12224619Y-14800571D02*
X12205572Y-14829143D01*
X12205572Y-14829143D02*
X12196048Y-14867238D01*
X12196048Y-14867238D02*
X12196048Y-14943428D01*
X12196048Y-14943428D02*
X12205572Y-14962476D01*
X12205572Y-14962476D02*
X12215095Y-14972000D01*
X12215095Y-14972000D02*
X12234143Y-14981524D01*
X12234143Y-14981524D02*
X12272238Y-14981524D01*
X12272238Y-14981524D02*
X12291286Y-14972000D01*
X12291286Y-14972000D02*
X12300810Y-14962476D01*
X12300810Y-14962476D02*
X12310334Y-14943428D01*
X12310334Y-14943428D02*
X12310334Y-14895809D01*
X12310334Y-14895809D02*
X12300810Y-14876762D01*
X12300810Y-14876762D02*
X12291286Y-14867238D01*
X12291286Y-14867238D02*
X12272238Y-14857714D01*
X12272238Y-14857714D02*
X12234143Y-14857714D01*
X12234143Y-14857714D02*
X12215095Y-14867238D01*
X12215095Y-14867238D02*
X12205572Y-14876762D01*
X12205572Y-14876762D02*
X12196048Y-14895809D01*
X12548429Y-14981524D02*
X12548429Y-14781524D01*
X12634143Y-14981524D02*
X12634143Y-14876762D01*
X12634143Y-14876762D02*
X12624619Y-14857714D01*
X12624619Y-14857714D02*
X12605572Y-14848190D01*
X12605572Y-14848190D02*
X12577000Y-14848190D01*
X12577000Y-14848190D02*
X12557953Y-14857714D01*
X12557953Y-14857714D02*
X12548429Y-14867238D01*
X12757953Y-14981524D02*
X12738905Y-14972000D01*
X12738905Y-14972000D02*
X12729381Y-14962476D01*
X12729381Y-14962476D02*
X12719857Y-14943428D01*
X12719857Y-14943428D02*
X12719857Y-14886286D01*
X12719857Y-14886286D02*
X12729381Y-14867238D01*
X12729381Y-14867238D02*
X12738905Y-14857714D01*
X12738905Y-14857714D02*
X12757953Y-14848190D01*
X12757953Y-14848190D02*
X12786524Y-14848190D01*
X12786524Y-14848190D02*
X12805572Y-14857714D01*
X12805572Y-14857714D02*
X12815096Y-14867238D01*
X12815096Y-14867238D02*
X12824619Y-14886286D01*
X12824619Y-14886286D02*
X12824619Y-14943428D01*
X12824619Y-14943428D02*
X12815096Y-14962476D01*
X12815096Y-14962476D02*
X12805572Y-14972000D01*
X12805572Y-14972000D02*
X12786524Y-14981524D01*
X12786524Y-14981524D02*
X12757953Y-14981524D01*
X12938905Y-14981524D02*
X12919857Y-14972000D01*
X12919857Y-14972000D02*
X12910334Y-14952952D01*
X12910334Y-14952952D02*
X12910334Y-14781524D01*
X13091286Y-14972000D02*
X13072238Y-14981524D01*
X13072238Y-14981524D02*
X13034143Y-14981524D01*
X13034143Y-14981524D02*
X13015096Y-14972000D01*
X13015096Y-14972000D02*
X13005572Y-14952952D01*
X13005572Y-14952952D02*
X13005572Y-14876762D01*
X13005572Y-14876762D02*
X13015096Y-14857714D01*
X13015096Y-14857714D02*
X13034143Y-14848190D01*
X13034143Y-14848190D02*
X13072238Y-14848190D01*
X13072238Y-14848190D02*
X13091286Y-14857714D01*
X13091286Y-14857714D02*
X13100810Y-14876762D01*
X13100810Y-14876762D02*
X13100810Y-14895809D01*
X13100810Y-14895809D02*
X13005572Y-14914857D01*
X13177000Y-14972000D02*
X13196048Y-14981524D01*
X13196048Y-14981524D02*
X13234143Y-14981524D01*
X13234143Y-14981524D02*
X13253191Y-14972000D01*
X13253191Y-14972000D02*
X13262715Y-14952952D01*
X13262715Y-14952952D02*
X13262715Y-14943428D01*
X13262715Y-14943428D02*
X13253191Y-14924381D01*
X13253191Y-14924381D02*
X13234143Y-14914857D01*
X13234143Y-14914857D02*
X13205572Y-14914857D01*
X13205572Y-14914857D02*
X13186524Y-14905333D01*
X13186524Y-14905333D02*
X13177000Y-14886286D01*
X13177000Y-14886286D02*
X13177000Y-14876762D01*
X13177000Y-14876762D02*
X13186524Y-14857714D01*
X13186524Y-14857714D02*
X13205572Y-14848190D01*
X13205572Y-14848190D02*
X13234143Y-14848190D01*
X13234143Y-14848190D02*
X13253191Y-14857714D01*
X13329381Y-15057714D02*
X13338905Y-15048190D01*
X13338905Y-15048190D02*
X13357953Y-15019619D01*
X13357953Y-15019619D02*
X13367477Y-15000571D01*
X13367477Y-15000571D02*
X13377000Y-14972000D01*
X13377000Y-14972000D02*
X13386524Y-14924381D01*
X13386524Y-14924381D02*
X13386524Y-14886286D01*
X13386524Y-14886286D02*
X13377000Y-14838667D01*
X13377000Y-14838667D02*
X13367477Y-14810095D01*
X13367477Y-14810095D02*
X13357953Y-14791048D01*
X13357953Y-14791048D02*
X13338905Y-14762476D01*
X13338905Y-14762476D02*
X13329381Y-14752952D01*
D15*
X8365284Y-15181284D02*
X8365284Y-15124715D01*
X8308715Y-15124715D01*
X8308715Y-15181284D01*
X8365284Y-15181284D01*
D11*
X8662714Y-15045524D02*
X8681762Y-15045524D01*
X8681762Y-15045524D02*
X8700810Y-15055048D01*
X8700810Y-15055048D02*
X8710333Y-15064571D01*
X8710333Y-15064571D02*
X8719857Y-15083619D01*
X8719857Y-15083619D02*
X8729381Y-15121714D01*
X8729381Y-15121714D02*
X8729381Y-15169333D01*
X8729381Y-15169333D02*
X8719857Y-15207428D01*
X8719857Y-15207428D02*
X8710333Y-15226476D01*
X8710333Y-15226476D02*
X8700810Y-15236000D01*
X8700810Y-15236000D02*
X8681762Y-15245524D01*
X8681762Y-15245524D02*
X8662714Y-15245524D01*
X8662714Y-15245524D02*
X8643667Y-15236000D01*
X8643667Y-15236000D02*
X8634143Y-15226476D01*
X8634143Y-15226476D02*
X8624619Y-15207428D01*
X8624619Y-15207428D02*
X8615095Y-15169333D01*
X8615095Y-15169333D02*
X8615095Y-15121714D01*
X8615095Y-15121714D02*
X8624619Y-15083619D01*
X8624619Y-15083619D02*
X8634143Y-15064571D01*
X8634143Y-15064571D02*
X8643667Y-15055048D01*
X8643667Y-15055048D02*
X8662714Y-15045524D01*
X8815095Y-15226476D02*
X8824619Y-15236000D01*
X8824619Y-15236000D02*
X8815095Y-15245524D01*
X8815095Y-15245524D02*
X8805571Y-15236000D01*
X8805571Y-15236000D02*
X8815095Y-15226476D01*
X8815095Y-15226476D02*
X8815095Y-15245524D01*
X8938905Y-15131238D02*
X8919857Y-15121714D01*
X8919857Y-15121714D02*
X8910333Y-15112190D01*
X8910333Y-15112190D02*
X8900810Y-15093143D01*
X8900810Y-15093143D02*
X8900810Y-15083619D01*
X8900810Y-15083619D02*
X8910333Y-15064571D01*
X8910333Y-15064571D02*
X8919857Y-15055048D01*
X8919857Y-15055048D02*
X8938905Y-15045524D01*
X8938905Y-15045524D02*
X8977000Y-15045524D01*
X8977000Y-15045524D02*
X8996048Y-15055048D01*
X8996048Y-15055048D02*
X9005571Y-15064571D01*
X9005571Y-15064571D02*
X9015095Y-15083619D01*
X9015095Y-15083619D02*
X9015095Y-15093143D01*
X9015095Y-15093143D02*
X9005571Y-15112190D01*
X9005571Y-15112190D02*
X8996048Y-15121714D01*
X8996048Y-15121714D02*
X8977000Y-15131238D01*
X8977000Y-15131238D02*
X8938905Y-15131238D01*
X8938905Y-15131238D02*
X8919857Y-15140762D01*
X8919857Y-15140762D02*
X8910333Y-15150286D01*
X8910333Y-15150286D02*
X8900810Y-15169333D01*
X8900810Y-15169333D02*
X8900810Y-15207428D01*
X8900810Y-15207428D02*
X8910333Y-15226476D01*
X8910333Y-15226476D02*
X8919857Y-15236000D01*
X8919857Y-15236000D02*
X8938905Y-15245524D01*
X8938905Y-15245524D02*
X8977000Y-15245524D01*
X8977000Y-15245524D02*
X8996048Y-15236000D01*
X8996048Y-15236000D02*
X9005571Y-15226476D01*
X9005571Y-15226476D02*
X9015095Y-15207428D01*
X9015095Y-15207428D02*
X9015095Y-15169333D01*
X9015095Y-15169333D02*
X9005571Y-15150286D01*
X9005571Y-15150286D02*
X8996048Y-15140762D01*
X8996048Y-15140762D02*
X8977000Y-15131238D01*
X9138905Y-15045524D02*
X9157952Y-15045524D01*
X9157952Y-15045524D02*
X9177000Y-15055048D01*
X9177000Y-15055048D02*
X9186524Y-15064571D01*
X9186524Y-15064571D02*
X9196048Y-15083619D01*
X9196048Y-15083619D02*
X9205571Y-15121714D01*
X9205571Y-15121714D02*
X9205571Y-15169333D01*
X9205571Y-15169333D02*
X9196048Y-15207428D01*
X9196048Y-15207428D02*
X9186524Y-15226476D01*
X9186524Y-15226476D02*
X9177000Y-15236000D01*
X9177000Y-15236000D02*
X9157952Y-15245524D01*
X9157952Y-15245524D02*
X9138905Y-15245524D01*
X9138905Y-15245524D02*
X9119857Y-15236000D01*
X9119857Y-15236000D02*
X9110333Y-15226476D01*
X9110333Y-15226476D02*
X9100810Y-15207428D01*
X9100810Y-15207428D02*
X9091286Y-15169333D01*
X9091286Y-15169333D02*
X9091286Y-15121714D01*
X9091286Y-15121714D02*
X9100810Y-15083619D01*
X9100810Y-15083619D02*
X9110333Y-15064571D01*
X9110333Y-15064571D02*
X9119857Y-15055048D01*
X9119857Y-15055048D02*
X9138905Y-15045524D01*
X9329381Y-15045524D02*
X9348429Y-15045524D01*
X9348429Y-15045524D02*
X9367476Y-15055048D01*
X9367476Y-15055048D02*
X9377000Y-15064571D01*
X9377000Y-15064571D02*
X9386524Y-15083619D01*
X9386524Y-15083619D02*
X9396048Y-15121714D01*
X9396048Y-15121714D02*
X9396048Y-15169333D01*
X9396048Y-15169333D02*
X9386524Y-15207428D01*
X9386524Y-15207428D02*
X9377000Y-15226476D01*
X9377000Y-15226476D02*
X9367476Y-15236000D01*
X9367476Y-15236000D02*
X9348429Y-15245524D01*
X9348429Y-15245524D02*
X9329381Y-15245524D01*
X9329381Y-15245524D02*
X9310333Y-15236000D01*
X9310333Y-15236000D02*
X9300810Y-15226476D01*
X9300810Y-15226476D02*
X9291286Y-15207428D01*
X9291286Y-15207428D02*
X9281762Y-15169333D01*
X9281762Y-15169333D02*
X9281762Y-15121714D01*
X9281762Y-15121714D02*
X9291286Y-15083619D01*
X9291286Y-15083619D02*
X9300810Y-15064571D01*
X9300810Y-15064571D02*
X9310333Y-15055048D01*
X9310333Y-15055048D02*
X9329381Y-15045524D01*
X9481762Y-15245524D02*
X9481762Y-15112190D01*
X9481762Y-15131238D02*
X9491286Y-15121714D01*
X9491286Y-15121714D02*
X9510333Y-15112190D01*
X9510333Y-15112190D02*
X9538905Y-15112190D01*
X9538905Y-15112190D02*
X9557952Y-15121714D01*
X9557952Y-15121714D02*
X9567476Y-15140762D01*
X9567476Y-15140762D02*
X9567476Y-15245524D01*
X9567476Y-15140762D02*
X9577000Y-15121714D01*
X9577000Y-15121714D02*
X9596048Y-15112190D01*
X9596048Y-15112190D02*
X9624619Y-15112190D01*
X9624619Y-15112190D02*
X9643667Y-15121714D01*
X9643667Y-15121714D02*
X9653191Y-15140762D01*
X9653191Y-15140762D02*
X9653191Y-15245524D01*
X9748429Y-15245524D02*
X9748429Y-15112190D01*
X9748429Y-15131238D02*
X9757952Y-15121714D01*
X9757952Y-15121714D02*
X9777000Y-15112190D01*
X9777000Y-15112190D02*
X9805572Y-15112190D01*
X9805572Y-15112190D02*
X9824619Y-15121714D01*
X9824619Y-15121714D02*
X9834143Y-15140762D01*
X9834143Y-15140762D02*
X9834143Y-15245524D01*
X9834143Y-15140762D02*
X9843667Y-15121714D01*
X9843667Y-15121714D02*
X9862714Y-15112190D01*
X9862714Y-15112190D02*
X9891286Y-15112190D01*
X9891286Y-15112190D02*
X9910333Y-15121714D01*
X9910333Y-15121714D02*
X9919857Y-15140762D01*
X9919857Y-15140762D02*
X9919857Y-15245524D01*
X10310333Y-15036000D02*
X10138905Y-15293143D01*
X10567476Y-15045524D02*
X10586524Y-15045524D01*
X10586524Y-15045524D02*
X10605572Y-15055048D01*
X10605572Y-15055048D02*
X10615095Y-15064571D01*
X10615095Y-15064571D02*
X10624619Y-15083619D01*
X10624619Y-15083619D02*
X10634143Y-15121714D01*
X10634143Y-15121714D02*
X10634143Y-15169333D01*
X10634143Y-15169333D02*
X10624619Y-15207428D01*
X10624619Y-15207428D02*
X10615095Y-15226476D01*
X10615095Y-15226476D02*
X10605572Y-15236000D01*
X10605572Y-15236000D02*
X10586524Y-15245524D01*
X10586524Y-15245524D02*
X10567476Y-15245524D01*
X10567476Y-15245524D02*
X10548429Y-15236000D01*
X10548429Y-15236000D02*
X10538905Y-15226476D01*
X10538905Y-15226476D02*
X10529381Y-15207428D01*
X10529381Y-15207428D02*
X10519857Y-15169333D01*
X10519857Y-15169333D02*
X10519857Y-15121714D01*
X10519857Y-15121714D02*
X10529381Y-15083619D01*
X10529381Y-15083619D02*
X10538905Y-15064571D01*
X10538905Y-15064571D02*
X10548429Y-15055048D01*
X10548429Y-15055048D02*
X10567476Y-15045524D01*
X10719857Y-15226476D02*
X10729381Y-15236000D01*
X10729381Y-15236000D02*
X10719857Y-15245524D01*
X10719857Y-15245524D02*
X10710334Y-15236000D01*
X10710334Y-15236000D02*
X10719857Y-15226476D01*
X10719857Y-15226476D02*
X10719857Y-15245524D01*
X10853191Y-15045524D02*
X10872238Y-15045524D01*
X10872238Y-15045524D02*
X10891286Y-15055048D01*
X10891286Y-15055048D02*
X10900810Y-15064571D01*
X10900810Y-15064571D02*
X10910334Y-15083619D01*
X10910334Y-15083619D02*
X10919857Y-15121714D01*
X10919857Y-15121714D02*
X10919857Y-15169333D01*
X10919857Y-15169333D02*
X10910334Y-15207428D01*
X10910334Y-15207428D02*
X10900810Y-15226476D01*
X10900810Y-15226476D02*
X10891286Y-15236000D01*
X10891286Y-15236000D02*
X10872238Y-15245524D01*
X10872238Y-15245524D02*
X10853191Y-15245524D01*
X10853191Y-15245524D02*
X10834143Y-15236000D01*
X10834143Y-15236000D02*
X10824619Y-15226476D01*
X10824619Y-15226476D02*
X10815095Y-15207428D01*
X10815095Y-15207428D02*
X10805572Y-15169333D01*
X10805572Y-15169333D02*
X10805572Y-15121714D01*
X10805572Y-15121714D02*
X10815095Y-15083619D01*
X10815095Y-15083619D02*
X10824619Y-15064571D01*
X10824619Y-15064571D02*
X10834143Y-15055048D01*
X10834143Y-15055048D02*
X10853191Y-15045524D01*
X10986524Y-15045524D02*
X11110334Y-15045524D01*
X11110334Y-15045524D02*
X11043667Y-15121714D01*
X11043667Y-15121714D02*
X11072238Y-15121714D01*
X11072238Y-15121714D02*
X11091286Y-15131238D01*
X11091286Y-15131238D02*
X11100810Y-15140762D01*
X11100810Y-15140762D02*
X11110334Y-15159809D01*
X11110334Y-15159809D02*
X11110334Y-15207428D01*
X11110334Y-15207428D02*
X11100810Y-15226476D01*
X11100810Y-15226476D02*
X11091286Y-15236000D01*
X11091286Y-15236000D02*
X11072238Y-15245524D01*
X11072238Y-15245524D02*
X11015095Y-15245524D01*
X11015095Y-15245524D02*
X10996048Y-15236000D01*
X10996048Y-15236000D02*
X10986524Y-15226476D01*
X11300810Y-15245524D02*
X11186524Y-15245524D01*
X11243667Y-15245524D02*
X11243667Y-15045524D01*
X11243667Y-15045524D02*
X11224619Y-15074095D01*
X11224619Y-15074095D02*
X11205572Y-15093143D01*
X11205572Y-15093143D02*
X11186524Y-15102667D01*
X11481762Y-15045524D02*
X11386524Y-15045524D01*
X11386524Y-15045524D02*
X11377000Y-15140762D01*
X11377000Y-15140762D02*
X11386524Y-15131238D01*
X11386524Y-15131238D02*
X11405572Y-15121714D01*
X11405572Y-15121714D02*
X11453191Y-15121714D01*
X11453191Y-15121714D02*
X11472238Y-15131238D01*
X11472238Y-15131238D02*
X11481762Y-15140762D01*
X11481762Y-15140762D02*
X11491286Y-15159809D01*
X11491286Y-15159809D02*
X11491286Y-15207428D01*
X11491286Y-15207428D02*
X11481762Y-15226476D01*
X11481762Y-15226476D02*
X11472238Y-15236000D01*
X11472238Y-15236000D02*
X11453191Y-15245524D01*
X11453191Y-15245524D02*
X11405572Y-15245524D01*
X11405572Y-15245524D02*
X11386524Y-15236000D01*
X11386524Y-15236000D02*
X11377000Y-15226476D01*
X11567476Y-15045524D02*
X11567476Y-15083619D01*
X11643667Y-15045524D02*
X11643667Y-15083619D01*
X11938905Y-15321714D02*
X11929381Y-15312190D01*
X11929381Y-15312190D02*
X11910334Y-15283619D01*
X11910334Y-15283619D02*
X11900810Y-15264571D01*
X11900810Y-15264571D02*
X11891286Y-15236000D01*
X11891286Y-15236000D02*
X11881762Y-15188381D01*
X11881762Y-15188381D02*
X11881762Y-15150286D01*
X11881762Y-15150286D02*
X11891286Y-15102667D01*
X11891286Y-15102667D02*
X11900810Y-15074095D01*
X11900810Y-15074095D02*
X11910334Y-15055048D01*
X11910334Y-15055048D02*
X11929381Y-15026476D01*
X11929381Y-15026476D02*
X11938905Y-15016952D01*
X12119857Y-15245524D02*
X12005572Y-15245524D01*
X12062714Y-15245524D02*
X12062714Y-15045524D01*
X12062714Y-15045524D02*
X12043667Y-15074095D01*
X12043667Y-15074095D02*
X12024619Y-15093143D01*
X12024619Y-15093143D02*
X12005572Y-15102667D01*
X12186524Y-15045524D02*
X12319857Y-15045524D01*
X12319857Y-15045524D02*
X12234143Y-15245524D01*
X12434143Y-15045524D02*
X12453191Y-15045524D01*
X12453191Y-15045524D02*
X12472238Y-15055048D01*
X12472238Y-15055048D02*
X12481762Y-15064571D01*
X12481762Y-15064571D02*
X12491286Y-15083619D01*
X12491286Y-15083619D02*
X12500810Y-15121714D01*
X12500810Y-15121714D02*
X12500810Y-15169333D01*
X12500810Y-15169333D02*
X12491286Y-15207428D01*
X12491286Y-15207428D02*
X12481762Y-15226476D01*
X12481762Y-15226476D02*
X12472238Y-15236000D01*
X12472238Y-15236000D02*
X12453191Y-15245524D01*
X12453191Y-15245524D02*
X12434143Y-15245524D01*
X12434143Y-15245524D02*
X12415095Y-15236000D01*
X12415095Y-15236000D02*
X12405572Y-15226476D01*
X12405572Y-15226476D02*
X12396048Y-15207428D01*
X12396048Y-15207428D02*
X12386524Y-15169333D01*
X12386524Y-15169333D02*
X12386524Y-15121714D01*
X12386524Y-15121714D02*
X12396048Y-15083619D01*
X12396048Y-15083619D02*
X12405572Y-15064571D01*
X12405572Y-15064571D02*
X12415095Y-15055048D01*
X12415095Y-15055048D02*
X12434143Y-15045524D01*
X12738905Y-15245524D02*
X12738905Y-15045524D01*
X12824619Y-15245524D02*
X12824619Y-15140762D01*
X12824619Y-15140762D02*
X12815096Y-15121714D01*
X12815096Y-15121714D02*
X12796048Y-15112190D01*
X12796048Y-15112190D02*
X12767476Y-15112190D01*
X12767476Y-15112190D02*
X12748429Y-15121714D01*
X12748429Y-15121714D02*
X12738905Y-15131238D01*
X12948429Y-15245524D02*
X12929381Y-15236000D01*
X12929381Y-15236000D02*
X12919857Y-15226476D01*
X12919857Y-15226476D02*
X12910334Y-15207428D01*
X12910334Y-15207428D02*
X12910334Y-15150286D01*
X12910334Y-15150286D02*
X12919857Y-15131238D01*
X12919857Y-15131238D02*
X12929381Y-15121714D01*
X12929381Y-15121714D02*
X12948429Y-15112190D01*
X12948429Y-15112190D02*
X12977000Y-15112190D01*
X12977000Y-15112190D02*
X12996048Y-15121714D01*
X12996048Y-15121714D02*
X13005572Y-15131238D01*
X13005572Y-15131238D02*
X13015096Y-15150286D01*
X13015096Y-15150286D02*
X13015096Y-15207428D01*
X13015096Y-15207428D02*
X13005572Y-15226476D01*
X13005572Y-15226476D02*
X12996048Y-15236000D01*
X12996048Y-15236000D02*
X12977000Y-15245524D01*
X12977000Y-15245524D02*
X12948429Y-15245524D01*
X13129381Y-15245524D02*
X13110334Y-15236000D01*
X13110334Y-15236000D02*
X13100810Y-15216952D01*
X13100810Y-15216952D02*
X13100810Y-15045524D01*
X13281762Y-15236000D02*
X13262715Y-15245524D01*
X13262715Y-15245524D02*
X13224619Y-15245524D01*
X13224619Y-15245524D02*
X13205572Y-15236000D01*
X13205572Y-15236000D02*
X13196048Y-15216952D01*
X13196048Y-15216952D02*
X13196048Y-15140762D01*
X13196048Y-15140762D02*
X13205572Y-15121714D01*
X13205572Y-15121714D02*
X13224619Y-15112190D01*
X13224619Y-15112190D02*
X13262715Y-15112190D01*
X13262715Y-15112190D02*
X13281762Y-15121714D01*
X13281762Y-15121714D02*
X13291286Y-15140762D01*
X13291286Y-15140762D02*
X13291286Y-15159809D01*
X13291286Y-15159809D02*
X13196048Y-15178857D01*
X13367477Y-15236000D02*
X13386524Y-15245524D01*
X13386524Y-15245524D02*
X13424619Y-15245524D01*
X13424619Y-15245524D02*
X13443667Y-15236000D01*
X13443667Y-15236000D02*
X13453191Y-15216952D01*
X13453191Y-15216952D02*
X13453191Y-15207428D01*
X13453191Y-15207428D02*
X13443667Y-15188381D01*
X13443667Y-15188381D02*
X13424619Y-15178857D01*
X13424619Y-15178857D02*
X13396048Y-15178857D01*
X13396048Y-15178857D02*
X13377000Y-15169333D01*
X13377000Y-15169333D02*
X13367477Y-15150286D01*
X13367477Y-15150286D02*
X13367477Y-15140762D01*
X13367477Y-15140762D02*
X13377000Y-15121714D01*
X13377000Y-15121714D02*
X13396048Y-15112190D01*
X13396048Y-15112190D02*
X13424619Y-15112190D01*
X13424619Y-15112190D02*
X13443667Y-15121714D01*
X13519858Y-15321714D02*
X13529381Y-15312190D01*
X13529381Y-15312190D02*
X13548429Y-15283619D01*
X13548429Y-15283619D02*
X13557953Y-15264571D01*
X13557953Y-15264571D02*
X13567477Y-15236000D01*
X13567477Y-15236000D02*
X13577000Y-15188381D01*
X13577000Y-15188381D02*
X13577000Y-15150286D01*
X13577000Y-15150286D02*
X13567477Y-15102667D01*
X13567477Y-15102667D02*
X13557953Y-15074095D01*
X13557953Y-15074095D02*
X13548429Y-15055048D01*
X13548429Y-15055048D02*
X13529381Y-15026476D01*
X13529381Y-15026476D02*
X13519858Y-15016952D01*
D16*
X8329500Y-15464500D02*
X8377000Y-15417000D01*
X8329500Y-15369500D01*
X8282000Y-15417000D01*
X8329500Y-15464500D01*
D11*
X8662714Y-15309524D02*
X8681762Y-15309524D01*
X8681762Y-15309524D02*
X8700810Y-15319048D01*
X8700810Y-15319048D02*
X8710333Y-15328571D01*
X8710333Y-15328571D02*
X8719857Y-15347619D01*
X8719857Y-15347619D02*
X8729381Y-15385714D01*
X8729381Y-15385714D02*
X8729381Y-15433333D01*
X8729381Y-15433333D02*
X8719857Y-15471428D01*
X8719857Y-15471428D02*
X8710333Y-15490476D01*
X8710333Y-15490476D02*
X8700810Y-15500000D01*
X8700810Y-15500000D02*
X8681762Y-15509524D01*
X8681762Y-15509524D02*
X8662714Y-15509524D01*
X8662714Y-15509524D02*
X8643667Y-15500000D01*
X8643667Y-15500000D02*
X8634143Y-15490476D01*
X8634143Y-15490476D02*
X8624619Y-15471428D01*
X8624619Y-15471428D02*
X8615095Y-15433333D01*
X8615095Y-15433333D02*
X8615095Y-15385714D01*
X8615095Y-15385714D02*
X8624619Y-15347619D01*
X8624619Y-15347619D02*
X8634143Y-15328571D01*
X8634143Y-15328571D02*
X8643667Y-15319048D01*
X8643667Y-15319048D02*
X8662714Y-15309524D01*
X8815095Y-15490476D02*
X8824619Y-15500000D01*
X8824619Y-15500000D02*
X8815095Y-15509524D01*
X8815095Y-15509524D02*
X8805571Y-15500000D01*
X8805571Y-15500000D02*
X8815095Y-15490476D01*
X8815095Y-15490476D02*
X8815095Y-15509524D01*
X8919857Y-15509524D02*
X8957952Y-15509524D01*
X8957952Y-15509524D02*
X8977000Y-15500000D01*
X8977000Y-15500000D02*
X8986524Y-15490476D01*
X8986524Y-15490476D02*
X9005571Y-15461905D01*
X9005571Y-15461905D02*
X9015095Y-15423809D01*
X9015095Y-15423809D02*
X9015095Y-15347619D01*
X9015095Y-15347619D02*
X9005571Y-15328571D01*
X9005571Y-15328571D02*
X8996048Y-15319048D01*
X8996048Y-15319048D02*
X8977000Y-15309524D01*
X8977000Y-15309524D02*
X8938905Y-15309524D01*
X8938905Y-15309524D02*
X8919857Y-15319048D01*
X8919857Y-15319048D02*
X8910333Y-15328571D01*
X8910333Y-15328571D02*
X8900810Y-15347619D01*
X8900810Y-15347619D02*
X8900810Y-15395238D01*
X8900810Y-15395238D02*
X8910333Y-15414286D01*
X8910333Y-15414286D02*
X8919857Y-15423809D01*
X8919857Y-15423809D02*
X8938905Y-15433333D01*
X8938905Y-15433333D02*
X8977000Y-15433333D01*
X8977000Y-15433333D02*
X8996048Y-15423809D01*
X8996048Y-15423809D02*
X9005571Y-15414286D01*
X9005571Y-15414286D02*
X9015095Y-15395238D01*
X9196048Y-15309524D02*
X9100810Y-15309524D01*
X9100810Y-15309524D02*
X9091286Y-15404762D01*
X9091286Y-15404762D02*
X9100810Y-15395238D01*
X9100810Y-15395238D02*
X9119857Y-15385714D01*
X9119857Y-15385714D02*
X9167476Y-15385714D01*
X9167476Y-15385714D02*
X9186524Y-15395238D01*
X9186524Y-15395238D02*
X9196048Y-15404762D01*
X9196048Y-15404762D02*
X9205571Y-15423809D01*
X9205571Y-15423809D02*
X9205571Y-15471428D01*
X9205571Y-15471428D02*
X9196048Y-15490476D01*
X9196048Y-15490476D02*
X9186524Y-15500000D01*
X9186524Y-15500000D02*
X9167476Y-15509524D01*
X9167476Y-15509524D02*
X9119857Y-15509524D01*
X9119857Y-15509524D02*
X9100810Y-15500000D01*
X9100810Y-15500000D02*
X9091286Y-15490476D01*
X9329381Y-15309524D02*
X9348429Y-15309524D01*
X9348429Y-15309524D02*
X9367476Y-15319048D01*
X9367476Y-15319048D02*
X9377000Y-15328571D01*
X9377000Y-15328571D02*
X9386524Y-15347619D01*
X9386524Y-15347619D02*
X9396048Y-15385714D01*
X9396048Y-15385714D02*
X9396048Y-15433333D01*
X9396048Y-15433333D02*
X9386524Y-15471428D01*
X9386524Y-15471428D02*
X9377000Y-15490476D01*
X9377000Y-15490476D02*
X9367476Y-15500000D01*
X9367476Y-15500000D02*
X9348429Y-15509524D01*
X9348429Y-15509524D02*
X9329381Y-15509524D01*
X9329381Y-15509524D02*
X9310333Y-15500000D01*
X9310333Y-15500000D02*
X9300810Y-15490476D01*
X9300810Y-15490476D02*
X9291286Y-15471428D01*
X9291286Y-15471428D02*
X9281762Y-15433333D01*
X9281762Y-15433333D02*
X9281762Y-15385714D01*
X9281762Y-15385714D02*
X9291286Y-15347619D01*
X9291286Y-15347619D02*
X9300810Y-15328571D01*
X9300810Y-15328571D02*
X9310333Y-15319048D01*
X9310333Y-15319048D02*
X9329381Y-15309524D01*
X9481762Y-15509524D02*
X9481762Y-15376190D01*
X9481762Y-15395238D02*
X9491286Y-15385714D01*
X9491286Y-15385714D02*
X9510333Y-15376190D01*
X9510333Y-15376190D02*
X9538905Y-15376190D01*
X9538905Y-15376190D02*
X9557952Y-15385714D01*
X9557952Y-15385714D02*
X9567476Y-15404762D01*
X9567476Y-15404762D02*
X9567476Y-15509524D01*
X9567476Y-15404762D02*
X9577000Y-15385714D01*
X9577000Y-15385714D02*
X9596048Y-15376190D01*
X9596048Y-15376190D02*
X9624619Y-15376190D01*
X9624619Y-15376190D02*
X9643667Y-15385714D01*
X9643667Y-15385714D02*
X9653191Y-15404762D01*
X9653191Y-15404762D02*
X9653191Y-15509524D01*
X9748429Y-15509524D02*
X9748429Y-15376190D01*
X9748429Y-15395238D02*
X9757952Y-15385714D01*
X9757952Y-15385714D02*
X9777000Y-15376190D01*
X9777000Y-15376190D02*
X9805572Y-15376190D01*
X9805572Y-15376190D02*
X9824619Y-15385714D01*
X9824619Y-15385714D02*
X9834143Y-15404762D01*
X9834143Y-15404762D02*
X9834143Y-15509524D01*
X9834143Y-15404762D02*
X9843667Y-15385714D01*
X9843667Y-15385714D02*
X9862714Y-15376190D01*
X9862714Y-15376190D02*
X9891286Y-15376190D01*
X9891286Y-15376190D02*
X9910333Y-15385714D01*
X9910333Y-15385714D02*
X9919857Y-15404762D01*
X9919857Y-15404762D02*
X9919857Y-15509524D01*
X10310333Y-15300000D02*
X10138905Y-15557143D01*
X10567476Y-15309524D02*
X10586524Y-15309524D01*
X10586524Y-15309524D02*
X10605572Y-15319048D01*
X10605572Y-15319048D02*
X10615095Y-15328571D01*
X10615095Y-15328571D02*
X10624619Y-15347619D01*
X10624619Y-15347619D02*
X10634143Y-15385714D01*
X10634143Y-15385714D02*
X10634143Y-15433333D01*
X10634143Y-15433333D02*
X10624619Y-15471428D01*
X10624619Y-15471428D02*
X10615095Y-15490476D01*
X10615095Y-15490476D02*
X10605572Y-15500000D01*
X10605572Y-15500000D02*
X10586524Y-15509524D01*
X10586524Y-15509524D02*
X10567476Y-15509524D01*
X10567476Y-15509524D02*
X10548429Y-15500000D01*
X10548429Y-15500000D02*
X10538905Y-15490476D01*
X10538905Y-15490476D02*
X10529381Y-15471428D01*
X10529381Y-15471428D02*
X10519857Y-15433333D01*
X10519857Y-15433333D02*
X10519857Y-15385714D01*
X10519857Y-15385714D02*
X10529381Y-15347619D01*
X10529381Y-15347619D02*
X10538905Y-15328571D01*
X10538905Y-15328571D02*
X10548429Y-15319048D01*
X10548429Y-15319048D02*
X10567476Y-15309524D01*
X10719857Y-15490476D02*
X10729381Y-15500000D01*
X10729381Y-15500000D02*
X10719857Y-15509524D01*
X10719857Y-15509524D02*
X10710334Y-15500000D01*
X10710334Y-15500000D02*
X10719857Y-15490476D01*
X10719857Y-15490476D02*
X10719857Y-15509524D01*
X10853191Y-15309524D02*
X10872238Y-15309524D01*
X10872238Y-15309524D02*
X10891286Y-15319048D01*
X10891286Y-15319048D02*
X10900810Y-15328571D01*
X10900810Y-15328571D02*
X10910334Y-15347619D01*
X10910334Y-15347619D02*
X10919857Y-15385714D01*
X10919857Y-15385714D02*
X10919857Y-15433333D01*
X10919857Y-15433333D02*
X10910334Y-15471428D01*
X10910334Y-15471428D02*
X10900810Y-15490476D01*
X10900810Y-15490476D02*
X10891286Y-15500000D01*
X10891286Y-15500000D02*
X10872238Y-15509524D01*
X10872238Y-15509524D02*
X10853191Y-15509524D01*
X10853191Y-15509524D02*
X10834143Y-15500000D01*
X10834143Y-15500000D02*
X10824619Y-15490476D01*
X10824619Y-15490476D02*
X10815095Y-15471428D01*
X10815095Y-15471428D02*
X10805572Y-15433333D01*
X10805572Y-15433333D02*
X10805572Y-15385714D01*
X10805572Y-15385714D02*
X10815095Y-15347619D01*
X10815095Y-15347619D02*
X10824619Y-15328571D01*
X10824619Y-15328571D02*
X10834143Y-15319048D01*
X10834143Y-15319048D02*
X10853191Y-15309524D01*
X10986524Y-15309524D02*
X11110334Y-15309524D01*
X11110334Y-15309524D02*
X11043667Y-15385714D01*
X11043667Y-15385714D02*
X11072238Y-15385714D01*
X11072238Y-15385714D02*
X11091286Y-15395238D01*
X11091286Y-15395238D02*
X11100810Y-15404762D01*
X11100810Y-15404762D02*
X11110334Y-15423809D01*
X11110334Y-15423809D02*
X11110334Y-15471428D01*
X11110334Y-15471428D02*
X11100810Y-15490476D01*
X11100810Y-15490476D02*
X11091286Y-15500000D01*
X11091286Y-15500000D02*
X11072238Y-15509524D01*
X11072238Y-15509524D02*
X11015095Y-15509524D01*
X11015095Y-15509524D02*
X10996048Y-15500000D01*
X10996048Y-15500000D02*
X10986524Y-15490476D01*
X11177000Y-15309524D02*
X11310333Y-15309524D01*
X11310333Y-15309524D02*
X11224619Y-15509524D01*
X11472238Y-15376190D02*
X11472238Y-15509524D01*
X11424619Y-15300000D02*
X11377000Y-15442857D01*
X11377000Y-15442857D02*
X11500810Y-15442857D01*
X11567476Y-15309524D02*
X11567476Y-15347619D01*
X11643667Y-15309524D02*
X11643667Y-15347619D01*
X11938905Y-15585714D02*
X11929381Y-15576190D01*
X11929381Y-15576190D02*
X11910334Y-15547619D01*
X11910334Y-15547619D02*
X11900810Y-15528571D01*
X11900810Y-15528571D02*
X11891286Y-15500000D01*
X11891286Y-15500000D02*
X11881762Y-15452381D01*
X11881762Y-15452381D02*
X11881762Y-15414286D01*
X11881762Y-15414286D02*
X11891286Y-15366667D01*
X11891286Y-15366667D02*
X11900810Y-15338095D01*
X11900810Y-15338095D02*
X11910334Y-15319048D01*
X11910334Y-15319048D02*
X11929381Y-15290476D01*
X11929381Y-15290476D02*
X11938905Y-15280952D01*
X11996048Y-15309524D02*
X12119857Y-15309524D01*
X12119857Y-15309524D02*
X12053191Y-15385714D01*
X12053191Y-15385714D02*
X12081762Y-15385714D01*
X12081762Y-15385714D02*
X12100810Y-15395238D01*
X12100810Y-15395238D02*
X12110334Y-15404762D01*
X12110334Y-15404762D02*
X12119857Y-15423809D01*
X12119857Y-15423809D02*
X12119857Y-15471428D01*
X12119857Y-15471428D02*
X12110334Y-15490476D01*
X12110334Y-15490476D02*
X12100810Y-15500000D01*
X12100810Y-15500000D02*
X12081762Y-15509524D01*
X12081762Y-15509524D02*
X12024619Y-15509524D01*
X12024619Y-15509524D02*
X12005572Y-15500000D01*
X12005572Y-15500000D02*
X11996048Y-15490476D01*
X12357953Y-15509524D02*
X12357953Y-15309524D01*
X12443667Y-15509524D02*
X12443667Y-15404762D01*
X12443667Y-15404762D02*
X12434143Y-15385714D01*
X12434143Y-15385714D02*
X12415096Y-15376190D01*
X12415096Y-15376190D02*
X12386524Y-15376190D01*
X12386524Y-15376190D02*
X12367476Y-15385714D01*
X12367476Y-15385714D02*
X12357953Y-15395238D01*
X12567476Y-15509524D02*
X12548429Y-15500000D01*
X12548429Y-15500000D02*
X12538905Y-15490476D01*
X12538905Y-15490476D02*
X12529381Y-15471428D01*
X12529381Y-15471428D02*
X12529381Y-15414286D01*
X12529381Y-15414286D02*
X12538905Y-15395238D01*
X12538905Y-15395238D02*
X12548429Y-15385714D01*
X12548429Y-15385714D02*
X12567476Y-15376190D01*
X12567476Y-15376190D02*
X12596048Y-15376190D01*
X12596048Y-15376190D02*
X12615096Y-15385714D01*
X12615096Y-15385714D02*
X12624619Y-15395238D01*
X12624619Y-15395238D02*
X12634143Y-15414286D01*
X12634143Y-15414286D02*
X12634143Y-15471428D01*
X12634143Y-15471428D02*
X12624619Y-15490476D01*
X12624619Y-15490476D02*
X12615096Y-15500000D01*
X12615096Y-15500000D02*
X12596048Y-15509524D01*
X12596048Y-15509524D02*
X12567476Y-15509524D01*
X12748429Y-15509524D02*
X12729381Y-15500000D01*
X12729381Y-15500000D02*
X12719857Y-15480952D01*
X12719857Y-15480952D02*
X12719857Y-15309524D01*
X12900810Y-15500000D02*
X12881762Y-15509524D01*
X12881762Y-15509524D02*
X12843667Y-15509524D01*
X12843667Y-15509524D02*
X12824619Y-15500000D01*
X12824619Y-15500000D02*
X12815096Y-15480952D01*
X12815096Y-15480952D02*
X12815096Y-15404762D01*
X12815096Y-15404762D02*
X12824619Y-15385714D01*
X12824619Y-15385714D02*
X12843667Y-15376190D01*
X12843667Y-15376190D02*
X12881762Y-15376190D01*
X12881762Y-15376190D02*
X12900810Y-15385714D01*
X12900810Y-15385714D02*
X12910334Y-15404762D01*
X12910334Y-15404762D02*
X12910334Y-15423809D01*
X12910334Y-15423809D02*
X12815096Y-15442857D01*
X12986524Y-15500000D02*
X13005572Y-15509524D01*
X13005572Y-15509524D02*
X13043667Y-15509524D01*
X13043667Y-15509524D02*
X13062715Y-15500000D01*
X13062715Y-15500000D02*
X13072238Y-15480952D01*
X13072238Y-15480952D02*
X13072238Y-15471428D01*
X13072238Y-15471428D02*
X13062715Y-15452381D01*
X13062715Y-15452381D02*
X13043667Y-15442857D01*
X13043667Y-15442857D02*
X13015096Y-15442857D01*
X13015096Y-15442857D02*
X12996048Y-15433333D01*
X12996048Y-15433333D02*
X12986524Y-15414286D01*
X12986524Y-15414286D02*
X12986524Y-15404762D01*
X12986524Y-15404762D02*
X12996048Y-15385714D01*
X12996048Y-15385714D02*
X13015096Y-15376190D01*
X13015096Y-15376190D02*
X13043667Y-15376190D01*
X13043667Y-15376190D02*
X13062715Y-15385714D01*
X13138905Y-15585714D02*
X13148429Y-15576190D01*
X13148429Y-15576190D02*
X13167477Y-15547619D01*
X13167477Y-15547619D02*
X13177000Y-15528571D01*
X13177000Y-15528571D02*
X13186524Y-15500000D01*
X13186524Y-15500000D02*
X13196048Y-15452381D01*
X13196048Y-15452381D02*
X13196048Y-15414286D01*
X13196048Y-15414286D02*
X13186524Y-15366667D01*
X13186524Y-15366667D02*
X13177000Y-15338095D01*
X13177000Y-15338095D02*
X13167477Y-15319048D01*
X13167477Y-15319048D02*
X13148429Y-15290476D01*
X13148429Y-15290476D02*
X13138905Y-15280952D01*
D10*
X8277000Y-15631000D02*
X8377000Y-15731000D01*
X8377000Y-15631000D02*
X8277000Y-15731000D01*
X8377000Y-15681000D02*
G75*
G03*
X8377000Y-15681000I-50000J0D01*
G01*
D11*
X8729381Y-15773524D02*
X8615095Y-15773524D01*
X8672238Y-15773524D02*
X8672238Y-15573524D01*
X8672238Y-15573524D02*
X8653190Y-15602095D01*
X8653190Y-15602095D02*
X8634143Y-15621143D01*
X8634143Y-15621143D02*
X8615095Y-15630667D01*
X8815095Y-15754476D02*
X8824619Y-15764000D01*
X8824619Y-15764000D02*
X8815095Y-15773524D01*
X8815095Y-15773524D02*
X8805571Y-15764000D01*
X8805571Y-15764000D02*
X8815095Y-15754476D01*
X8815095Y-15754476D02*
X8815095Y-15773524D01*
X8948429Y-15573524D02*
X8967476Y-15573524D01*
X8967476Y-15573524D02*
X8986524Y-15583048D01*
X8986524Y-15583048D02*
X8996048Y-15592571D01*
X8996048Y-15592571D02*
X9005571Y-15611619D01*
X9005571Y-15611619D02*
X9015095Y-15649714D01*
X9015095Y-15649714D02*
X9015095Y-15697333D01*
X9015095Y-15697333D02*
X9005571Y-15735428D01*
X9005571Y-15735428D02*
X8996048Y-15754476D01*
X8996048Y-15754476D02*
X8986524Y-15764000D01*
X8986524Y-15764000D02*
X8967476Y-15773524D01*
X8967476Y-15773524D02*
X8948429Y-15773524D01*
X8948429Y-15773524D02*
X8929381Y-15764000D01*
X8929381Y-15764000D02*
X8919857Y-15754476D01*
X8919857Y-15754476D02*
X8910333Y-15735428D01*
X8910333Y-15735428D02*
X8900810Y-15697333D01*
X8900810Y-15697333D02*
X8900810Y-15649714D01*
X8900810Y-15649714D02*
X8910333Y-15611619D01*
X8910333Y-15611619D02*
X8919857Y-15592571D01*
X8919857Y-15592571D02*
X8929381Y-15583048D01*
X8929381Y-15583048D02*
X8948429Y-15573524D01*
X9138905Y-15573524D02*
X9157952Y-15573524D01*
X9157952Y-15573524D02*
X9177000Y-15583048D01*
X9177000Y-15583048D02*
X9186524Y-15592571D01*
X9186524Y-15592571D02*
X9196048Y-15611619D01*
X9196048Y-15611619D02*
X9205571Y-15649714D01*
X9205571Y-15649714D02*
X9205571Y-15697333D01*
X9205571Y-15697333D02*
X9196048Y-15735428D01*
X9196048Y-15735428D02*
X9186524Y-15754476D01*
X9186524Y-15754476D02*
X9177000Y-15764000D01*
X9177000Y-15764000D02*
X9157952Y-15773524D01*
X9157952Y-15773524D02*
X9138905Y-15773524D01*
X9138905Y-15773524D02*
X9119857Y-15764000D01*
X9119857Y-15764000D02*
X9110333Y-15754476D01*
X9110333Y-15754476D02*
X9100810Y-15735428D01*
X9100810Y-15735428D02*
X9091286Y-15697333D01*
X9091286Y-15697333D02*
X9091286Y-15649714D01*
X9091286Y-15649714D02*
X9100810Y-15611619D01*
X9100810Y-15611619D02*
X9110333Y-15592571D01*
X9110333Y-15592571D02*
X9119857Y-15583048D01*
X9119857Y-15583048D02*
X9138905Y-15573524D01*
X9329381Y-15573524D02*
X9348429Y-15573524D01*
X9348429Y-15573524D02*
X9367476Y-15583048D01*
X9367476Y-15583048D02*
X9377000Y-15592571D01*
X9377000Y-15592571D02*
X9386524Y-15611619D01*
X9386524Y-15611619D02*
X9396048Y-15649714D01*
X9396048Y-15649714D02*
X9396048Y-15697333D01*
X9396048Y-15697333D02*
X9386524Y-15735428D01*
X9386524Y-15735428D02*
X9377000Y-15754476D01*
X9377000Y-15754476D02*
X9367476Y-15764000D01*
X9367476Y-15764000D02*
X9348429Y-15773524D01*
X9348429Y-15773524D02*
X9329381Y-15773524D01*
X9329381Y-15773524D02*
X9310333Y-15764000D01*
X9310333Y-15764000D02*
X9300810Y-15754476D01*
X9300810Y-15754476D02*
X9291286Y-15735428D01*
X9291286Y-15735428D02*
X9281762Y-15697333D01*
X9281762Y-15697333D02*
X9281762Y-15649714D01*
X9281762Y-15649714D02*
X9291286Y-15611619D01*
X9291286Y-15611619D02*
X9300810Y-15592571D01*
X9300810Y-15592571D02*
X9310333Y-15583048D01*
X9310333Y-15583048D02*
X9329381Y-15573524D01*
X9481762Y-15773524D02*
X9481762Y-15640190D01*
X9481762Y-15659238D02*
X9491286Y-15649714D01*
X9491286Y-15649714D02*
X9510333Y-15640190D01*
X9510333Y-15640190D02*
X9538905Y-15640190D01*
X9538905Y-15640190D02*
X9557952Y-15649714D01*
X9557952Y-15649714D02*
X9567476Y-15668762D01*
X9567476Y-15668762D02*
X9567476Y-15773524D01*
X9567476Y-15668762D02*
X9577000Y-15649714D01*
X9577000Y-15649714D02*
X9596048Y-15640190D01*
X9596048Y-15640190D02*
X9624619Y-15640190D01*
X9624619Y-15640190D02*
X9643667Y-15649714D01*
X9643667Y-15649714D02*
X9653191Y-15668762D01*
X9653191Y-15668762D02*
X9653191Y-15773524D01*
X9748429Y-15773524D02*
X9748429Y-15640190D01*
X9748429Y-15659238D02*
X9757952Y-15649714D01*
X9757952Y-15649714D02*
X9777000Y-15640190D01*
X9777000Y-15640190D02*
X9805572Y-15640190D01*
X9805572Y-15640190D02*
X9824619Y-15649714D01*
X9824619Y-15649714D02*
X9834143Y-15668762D01*
X9834143Y-15668762D02*
X9834143Y-15773524D01*
X9834143Y-15668762D02*
X9843667Y-15649714D01*
X9843667Y-15649714D02*
X9862714Y-15640190D01*
X9862714Y-15640190D02*
X9891286Y-15640190D01*
X9891286Y-15640190D02*
X9910333Y-15649714D01*
X9910333Y-15649714D02*
X9919857Y-15668762D01*
X9919857Y-15668762D02*
X9919857Y-15773524D01*
X10310333Y-15564000D02*
X10138905Y-15821143D01*
X10567476Y-15573524D02*
X10586524Y-15573524D01*
X10586524Y-15573524D02*
X10605572Y-15583048D01*
X10605572Y-15583048D02*
X10615095Y-15592571D01*
X10615095Y-15592571D02*
X10624619Y-15611619D01*
X10624619Y-15611619D02*
X10634143Y-15649714D01*
X10634143Y-15649714D02*
X10634143Y-15697333D01*
X10634143Y-15697333D02*
X10624619Y-15735428D01*
X10624619Y-15735428D02*
X10615095Y-15754476D01*
X10615095Y-15754476D02*
X10605572Y-15764000D01*
X10605572Y-15764000D02*
X10586524Y-15773524D01*
X10586524Y-15773524D02*
X10567476Y-15773524D01*
X10567476Y-15773524D02*
X10548429Y-15764000D01*
X10548429Y-15764000D02*
X10538905Y-15754476D01*
X10538905Y-15754476D02*
X10529381Y-15735428D01*
X10529381Y-15735428D02*
X10519857Y-15697333D01*
X10519857Y-15697333D02*
X10519857Y-15649714D01*
X10519857Y-15649714D02*
X10529381Y-15611619D01*
X10529381Y-15611619D02*
X10538905Y-15592571D01*
X10538905Y-15592571D02*
X10548429Y-15583048D01*
X10548429Y-15583048D02*
X10567476Y-15573524D01*
X10719857Y-15754476D02*
X10729381Y-15764000D01*
X10729381Y-15764000D02*
X10719857Y-15773524D01*
X10719857Y-15773524D02*
X10710334Y-15764000D01*
X10710334Y-15764000D02*
X10719857Y-15754476D01*
X10719857Y-15754476D02*
X10719857Y-15773524D01*
X10853191Y-15573524D02*
X10872238Y-15573524D01*
X10872238Y-15573524D02*
X10891286Y-15583048D01*
X10891286Y-15583048D02*
X10900810Y-15592571D01*
X10900810Y-15592571D02*
X10910334Y-15611619D01*
X10910334Y-15611619D02*
X10919857Y-15649714D01*
X10919857Y-15649714D02*
X10919857Y-15697333D01*
X10919857Y-15697333D02*
X10910334Y-15735428D01*
X10910334Y-15735428D02*
X10900810Y-15754476D01*
X10900810Y-15754476D02*
X10891286Y-15764000D01*
X10891286Y-15764000D02*
X10872238Y-15773524D01*
X10872238Y-15773524D02*
X10853191Y-15773524D01*
X10853191Y-15773524D02*
X10834143Y-15764000D01*
X10834143Y-15764000D02*
X10824619Y-15754476D01*
X10824619Y-15754476D02*
X10815095Y-15735428D01*
X10815095Y-15735428D02*
X10805572Y-15697333D01*
X10805572Y-15697333D02*
X10805572Y-15649714D01*
X10805572Y-15649714D02*
X10815095Y-15611619D01*
X10815095Y-15611619D02*
X10824619Y-15592571D01*
X10824619Y-15592571D02*
X10834143Y-15583048D01*
X10834143Y-15583048D02*
X10853191Y-15573524D01*
X10986524Y-15573524D02*
X11110334Y-15573524D01*
X11110334Y-15573524D02*
X11043667Y-15649714D01*
X11043667Y-15649714D02*
X11072238Y-15649714D01*
X11072238Y-15649714D02*
X11091286Y-15659238D01*
X11091286Y-15659238D02*
X11100810Y-15668762D01*
X11100810Y-15668762D02*
X11110334Y-15687809D01*
X11110334Y-15687809D02*
X11110334Y-15735428D01*
X11110334Y-15735428D02*
X11100810Y-15754476D01*
X11100810Y-15754476D02*
X11091286Y-15764000D01*
X11091286Y-15764000D02*
X11072238Y-15773524D01*
X11072238Y-15773524D02*
X11015095Y-15773524D01*
X11015095Y-15773524D02*
X10996048Y-15764000D01*
X10996048Y-15764000D02*
X10986524Y-15754476D01*
X11205572Y-15773524D02*
X11243667Y-15773524D01*
X11243667Y-15773524D02*
X11262714Y-15764000D01*
X11262714Y-15764000D02*
X11272238Y-15754476D01*
X11272238Y-15754476D02*
X11291286Y-15725905D01*
X11291286Y-15725905D02*
X11300810Y-15687809D01*
X11300810Y-15687809D02*
X11300810Y-15611619D01*
X11300810Y-15611619D02*
X11291286Y-15592571D01*
X11291286Y-15592571D02*
X11281762Y-15583048D01*
X11281762Y-15583048D02*
X11262714Y-15573524D01*
X11262714Y-15573524D02*
X11224619Y-15573524D01*
X11224619Y-15573524D02*
X11205572Y-15583048D01*
X11205572Y-15583048D02*
X11196048Y-15592571D01*
X11196048Y-15592571D02*
X11186524Y-15611619D01*
X11186524Y-15611619D02*
X11186524Y-15659238D01*
X11186524Y-15659238D02*
X11196048Y-15678286D01*
X11196048Y-15678286D02*
X11205572Y-15687809D01*
X11205572Y-15687809D02*
X11224619Y-15697333D01*
X11224619Y-15697333D02*
X11262714Y-15697333D01*
X11262714Y-15697333D02*
X11281762Y-15687809D01*
X11281762Y-15687809D02*
X11291286Y-15678286D01*
X11291286Y-15678286D02*
X11300810Y-15659238D01*
X11472238Y-15640190D02*
X11472238Y-15773524D01*
X11424619Y-15564000D02*
X11377000Y-15706857D01*
X11377000Y-15706857D02*
X11500810Y-15706857D01*
X11567476Y-15573524D02*
X11567476Y-15611619D01*
X11643667Y-15573524D02*
X11643667Y-15611619D01*
X11938905Y-15849714D02*
X11929381Y-15840190D01*
X11929381Y-15840190D02*
X11910334Y-15811619D01*
X11910334Y-15811619D02*
X11900810Y-15792571D01*
X11900810Y-15792571D02*
X11891286Y-15764000D01*
X11891286Y-15764000D02*
X11881762Y-15716381D01*
X11881762Y-15716381D02*
X11881762Y-15678286D01*
X11881762Y-15678286D02*
X11891286Y-15630667D01*
X11891286Y-15630667D02*
X11900810Y-15602095D01*
X11900810Y-15602095D02*
X11910334Y-15583048D01*
X11910334Y-15583048D02*
X11929381Y-15554476D01*
X11929381Y-15554476D02*
X11938905Y-15544952D01*
X12100810Y-15640190D02*
X12100810Y-15773524D01*
X12053191Y-15564000D02*
X12005572Y-15706857D01*
X12005572Y-15706857D02*
X12129381Y-15706857D01*
X12186524Y-15573524D02*
X12319857Y-15573524D01*
X12319857Y-15573524D02*
X12234143Y-15773524D01*
X12548429Y-15773524D02*
X12548429Y-15573524D01*
X12634143Y-15773524D02*
X12634143Y-15668762D01*
X12634143Y-15668762D02*
X12624619Y-15649714D01*
X12624619Y-15649714D02*
X12605572Y-15640190D01*
X12605572Y-15640190D02*
X12577000Y-15640190D01*
X12577000Y-15640190D02*
X12557953Y-15649714D01*
X12557953Y-15649714D02*
X12548429Y-15659238D01*
X12757953Y-15773524D02*
X12738905Y-15764000D01*
X12738905Y-15764000D02*
X12729381Y-15754476D01*
X12729381Y-15754476D02*
X12719857Y-15735428D01*
X12719857Y-15735428D02*
X12719857Y-15678286D01*
X12719857Y-15678286D02*
X12729381Y-15659238D01*
X12729381Y-15659238D02*
X12738905Y-15649714D01*
X12738905Y-15649714D02*
X12757953Y-15640190D01*
X12757953Y-15640190D02*
X12786524Y-15640190D01*
X12786524Y-15640190D02*
X12805572Y-15649714D01*
X12805572Y-15649714D02*
X12815096Y-15659238D01*
X12815096Y-15659238D02*
X12824619Y-15678286D01*
X12824619Y-15678286D02*
X12824619Y-15735428D01*
X12824619Y-15735428D02*
X12815096Y-15754476D01*
X12815096Y-15754476D02*
X12805572Y-15764000D01*
X12805572Y-15764000D02*
X12786524Y-15773524D01*
X12786524Y-15773524D02*
X12757953Y-15773524D01*
X12938905Y-15773524D02*
X12919857Y-15764000D01*
X12919857Y-15764000D02*
X12910334Y-15744952D01*
X12910334Y-15744952D02*
X12910334Y-15573524D01*
X13091286Y-15764000D02*
X13072238Y-15773524D01*
X13072238Y-15773524D02*
X13034143Y-15773524D01*
X13034143Y-15773524D02*
X13015096Y-15764000D01*
X13015096Y-15764000D02*
X13005572Y-15744952D01*
X13005572Y-15744952D02*
X13005572Y-15668762D01*
X13005572Y-15668762D02*
X13015096Y-15649714D01*
X13015096Y-15649714D02*
X13034143Y-15640190D01*
X13034143Y-15640190D02*
X13072238Y-15640190D01*
X13072238Y-15640190D02*
X13091286Y-15649714D01*
X13091286Y-15649714D02*
X13100810Y-15668762D01*
X13100810Y-15668762D02*
X13100810Y-15687809D01*
X13100810Y-15687809D02*
X13005572Y-15706857D01*
X13177000Y-15764000D02*
X13196048Y-15773524D01*
X13196048Y-15773524D02*
X13234143Y-15773524D01*
X13234143Y-15773524D02*
X13253191Y-15764000D01*
X13253191Y-15764000D02*
X13262715Y-15744952D01*
X13262715Y-15744952D02*
X13262715Y-15735428D01*
X13262715Y-15735428D02*
X13253191Y-15716381D01*
X13253191Y-15716381D02*
X13234143Y-15706857D01*
X13234143Y-15706857D02*
X13205572Y-15706857D01*
X13205572Y-15706857D02*
X13186524Y-15697333D01*
X13186524Y-15697333D02*
X13177000Y-15678286D01*
X13177000Y-15678286D02*
X13177000Y-15668762D01*
X13177000Y-15668762D02*
X13186524Y-15649714D01*
X13186524Y-15649714D02*
X13205572Y-15640190D01*
X13205572Y-15640190D02*
X13234143Y-15640190D01*
X13234143Y-15640190D02*
X13253191Y-15649714D01*
X13329381Y-15849714D02*
X13338905Y-15840190D01*
X13338905Y-15840190D02*
X13357953Y-15811619D01*
X13357953Y-15811619D02*
X13367477Y-15792571D01*
X13367477Y-15792571D02*
X13377000Y-15764000D01*
X13377000Y-15764000D02*
X13386524Y-15716381D01*
X13386524Y-15716381D02*
X13386524Y-15678286D01*
X13386524Y-15678286D02*
X13377000Y-15630667D01*
X13377000Y-15630667D02*
X13367477Y-15602095D01*
X13367477Y-15602095D02*
X13357953Y-15583048D01*
X13357953Y-15583048D02*
X13338905Y-15554476D01*
X13338905Y-15554476D02*
X13329381Y-15544952D01*
X8177000Y-15845000D02*
X8377000Y-16045000D01*
X8377000Y-15845000D02*
X8177000Y-16045000D01*
X8277000Y-15845000D02*
X8277000Y-16045000D01*
X8177000Y-15945000D02*
X8377000Y-15945000D01*
X8615095Y-15856571D02*
X8624619Y-15847048D01*
X8624619Y-15847048D02*
X8643667Y-15837524D01*
X8643667Y-15837524D02*
X8691286Y-15837524D01*
X8691286Y-15837524D02*
X8710333Y-15847048D01*
X8710333Y-15847048D02*
X8719857Y-15856571D01*
X8719857Y-15856571D02*
X8729381Y-15875619D01*
X8729381Y-15875619D02*
X8729381Y-15894667D01*
X8729381Y-15894667D02*
X8719857Y-15923238D01*
X8719857Y-15923238D02*
X8605571Y-16037524D01*
X8605571Y-16037524D02*
X8729381Y-16037524D01*
X8815095Y-16018476D02*
X8824619Y-16028000D01*
X8824619Y-16028000D02*
X8815095Y-16037524D01*
X8815095Y-16037524D02*
X8805571Y-16028000D01*
X8805571Y-16028000D02*
X8815095Y-16018476D01*
X8815095Y-16018476D02*
X8815095Y-16037524D01*
X9005571Y-15837524D02*
X8910333Y-15837524D01*
X8910333Y-15837524D02*
X8900810Y-15932762D01*
X8900810Y-15932762D02*
X8910333Y-15923238D01*
X8910333Y-15923238D02*
X8929381Y-15913714D01*
X8929381Y-15913714D02*
X8977000Y-15913714D01*
X8977000Y-15913714D02*
X8996048Y-15923238D01*
X8996048Y-15923238D02*
X9005571Y-15932762D01*
X9005571Y-15932762D02*
X9015095Y-15951809D01*
X9015095Y-15951809D02*
X9015095Y-15999428D01*
X9015095Y-15999428D02*
X9005571Y-16018476D01*
X9005571Y-16018476D02*
X8996048Y-16028000D01*
X8996048Y-16028000D02*
X8977000Y-16037524D01*
X8977000Y-16037524D02*
X8929381Y-16037524D01*
X8929381Y-16037524D02*
X8910333Y-16028000D01*
X8910333Y-16028000D02*
X8900810Y-16018476D01*
X9138905Y-15837524D02*
X9157952Y-15837524D01*
X9157952Y-15837524D02*
X9177000Y-15847048D01*
X9177000Y-15847048D02*
X9186524Y-15856571D01*
X9186524Y-15856571D02*
X9196048Y-15875619D01*
X9196048Y-15875619D02*
X9205571Y-15913714D01*
X9205571Y-15913714D02*
X9205571Y-15961333D01*
X9205571Y-15961333D02*
X9196048Y-15999428D01*
X9196048Y-15999428D02*
X9186524Y-16018476D01*
X9186524Y-16018476D02*
X9177000Y-16028000D01*
X9177000Y-16028000D02*
X9157952Y-16037524D01*
X9157952Y-16037524D02*
X9138905Y-16037524D01*
X9138905Y-16037524D02*
X9119857Y-16028000D01*
X9119857Y-16028000D02*
X9110333Y-16018476D01*
X9110333Y-16018476D02*
X9100810Y-15999428D01*
X9100810Y-15999428D02*
X9091286Y-15961333D01*
X9091286Y-15961333D02*
X9091286Y-15913714D01*
X9091286Y-15913714D02*
X9100810Y-15875619D01*
X9100810Y-15875619D02*
X9110333Y-15856571D01*
X9110333Y-15856571D02*
X9119857Y-15847048D01*
X9119857Y-15847048D02*
X9138905Y-15837524D01*
X9329381Y-15837524D02*
X9348429Y-15837524D01*
X9348429Y-15837524D02*
X9367476Y-15847048D01*
X9367476Y-15847048D02*
X9377000Y-15856571D01*
X9377000Y-15856571D02*
X9386524Y-15875619D01*
X9386524Y-15875619D02*
X9396048Y-15913714D01*
X9396048Y-15913714D02*
X9396048Y-15961333D01*
X9396048Y-15961333D02*
X9386524Y-15999428D01*
X9386524Y-15999428D02*
X9377000Y-16018476D01*
X9377000Y-16018476D02*
X9367476Y-16028000D01*
X9367476Y-16028000D02*
X9348429Y-16037524D01*
X9348429Y-16037524D02*
X9329381Y-16037524D01*
X9329381Y-16037524D02*
X9310333Y-16028000D01*
X9310333Y-16028000D02*
X9300810Y-16018476D01*
X9300810Y-16018476D02*
X9291286Y-15999428D01*
X9291286Y-15999428D02*
X9281762Y-15961333D01*
X9281762Y-15961333D02*
X9281762Y-15913714D01*
X9281762Y-15913714D02*
X9291286Y-15875619D01*
X9291286Y-15875619D02*
X9300810Y-15856571D01*
X9300810Y-15856571D02*
X9310333Y-15847048D01*
X9310333Y-15847048D02*
X9329381Y-15837524D01*
X9481762Y-16037524D02*
X9481762Y-15904190D01*
X9481762Y-15923238D02*
X9491286Y-15913714D01*
X9491286Y-15913714D02*
X9510333Y-15904190D01*
X9510333Y-15904190D02*
X9538905Y-15904190D01*
X9538905Y-15904190D02*
X9557952Y-15913714D01*
X9557952Y-15913714D02*
X9567476Y-15932762D01*
X9567476Y-15932762D02*
X9567476Y-16037524D01*
X9567476Y-15932762D02*
X9577000Y-15913714D01*
X9577000Y-15913714D02*
X9596048Y-15904190D01*
X9596048Y-15904190D02*
X9624619Y-15904190D01*
X9624619Y-15904190D02*
X9643667Y-15913714D01*
X9643667Y-15913714D02*
X9653191Y-15932762D01*
X9653191Y-15932762D02*
X9653191Y-16037524D01*
X9748429Y-16037524D02*
X9748429Y-15904190D01*
X9748429Y-15923238D02*
X9757952Y-15913714D01*
X9757952Y-15913714D02*
X9777000Y-15904190D01*
X9777000Y-15904190D02*
X9805572Y-15904190D01*
X9805572Y-15904190D02*
X9824619Y-15913714D01*
X9824619Y-15913714D02*
X9834143Y-15932762D01*
X9834143Y-15932762D02*
X9834143Y-16037524D01*
X9834143Y-15932762D02*
X9843667Y-15913714D01*
X9843667Y-15913714D02*
X9862714Y-15904190D01*
X9862714Y-15904190D02*
X9891286Y-15904190D01*
X9891286Y-15904190D02*
X9910333Y-15913714D01*
X9910333Y-15913714D02*
X9919857Y-15932762D01*
X9919857Y-15932762D02*
X9919857Y-16037524D01*
X10310333Y-15828000D02*
X10138905Y-16085143D01*
X10567476Y-15837524D02*
X10586524Y-15837524D01*
X10586524Y-15837524D02*
X10605572Y-15847048D01*
X10605572Y-15847048D02*
X10615095Y-15856571D01*
X10615095Y-15856571D02*
X10624619Y-15875619D01*
X10624619Y-15875619D02*
X10634143Y-15913714D01*
X10634143Y-15913714D02*
X10634143Y-15961333D01*
X10634143Y-15961333D02*
X10624619Y-15999428D01*
X10624619Y-15999428D02*
X10615095Y-16018476D01*
X10615095Y-16018476D02*
X10605572Y-16028000D01*
X10605572Y-16028000D02*
X10586524Y-16037524D01*
X10586524Y-16037524D02*
X10567476Y-16037524D01*
X10567476Y-16037524D02*
X10548429Y-16028000D01*
X10548429Y-16028000D02*
X10538905Y-16018476D01*
X10538905Y-16018476D02*
X10529381Y-15999428D01*
X10529381Y-15999428D02*
X10519857Y-15961333D01*
X10519857Y-15961333D02*
X10519857Y-15913714D01*
X10519857Y-15913714D02*
X10529381Y-15875619D01*
X10529381Y-15875619D02*
X10538905Y-15856571D01*
X10538905Y-15856571D02*
X10548429Y-15847048D01*
X10548429Y-15847048D02*
X10567476Y-15837524D01*
X10719857Y-16018476D02*
X10729381Y-16028000D01*
X10729381Y-16028000D02*
X10719857Y-16037524D01*
X10719857Y-16037524D02*
X10710334Y-16028000D01*
X10710334Y-16028000D02*
X10719857Y-16018476D01*
X10719857Y-16018476D02*
X10719857Y-16037524D01*
X10853191Y-15837524D02*
X10872238Y-15837524D01*
X10872238Y-15837524D02*
X10891286Y-15847048D01*
X10891286Y-15847048D02*
X10900810Y-15856571D01*
X10900810Y-15856571D02*
X10910334Y-15875619D01*
X10910334Y-15875619D02*
X10919857Y-15913714D01*
X10919857Y-15913714D02*
X10919857Y-15961333D01*
X10919857Y-15961333D02*
X10910334Y-15999428D01*
X10910334Y-15999428D02*
X10900810Y-16018476D01*
X10900810Y-16018476D02*
X10891286Y-16028000D01*
X10891286Y-16028000D02*
X10872238Y-16037524D01*
X10872238Y-16037524D02*
X10853191Y-16037524D01*
X10853191Y-16037524D02*
X10834143Y-16028000D01*
X10834143Y-16028000D02*
X10824619Y-16018476D01*
X10824619Y-16018476D02*
X10815095Y-15999428D01*
X10815095Y-15999428D02*
X10805572Y-15961333D01*
X10805572Y-15961333D02*
X10805572Y-15913714D01*
X10805572Y-15913714D02*
X10815095Y-15875619D01*
X10815095Y-15875619D02*
X10824619Y-15856571D01*
X10824619Y-15856571D02*
X10834143Y-15847048D01*
X10834143Y-15847048D02*
X10853191Y-15837524D01*
X11015095Y-16037524D02*
X11053191Y-16037524D01*
X11053191Y-16037524D02*
X11072238Y-16028000D01*
X11072238Y-16028000D02*
X11081762Y-16018476D01*
X11081762Y-16018476D02*
X11100810Y-15989905D01*
X11100810Y-15989905D02*
X11110334Y-15951809D01*
X11110334Y-15951809D02*
X11110334Y-15875619D01*
X11110334Y-15875619D02*
X11100810Y-15856571D01*
X11100810Y-15856571D02*
X11091286Y-15847048D01*
X11091286Y-15847048D02*
X11072238Y-15837524D01*
X11072238Y-15837524D02*
X11034143Y-15837524D01*
X11034143Y-15837524D02*
X11015095Y-15847048D01*
X11015095Y-15847048D02*
X11005572Y-15856571D01*
X11005572Y-15856571D02*
X10996048Y-15875619D01*
X10996048Y-15875619D02*
X10996048Y-15923238D01*
X10996048Y-15923238D02*
X11005572Y-15942286D01*
X11005572Y-15942286D02*
X11015095Y-15951809D01*
X11015095Y-15951809D02*
X11034143Y-15961333D01*
X11034143Y-15961333D02*
X11072238Y-15961333D01*
X11072238Y-15961333D02*
X11091286Y-15951809D01*
X11091286Y-15951809D02*
X11100810Y-15942286D01*
X11100810Y-15942286D02*
X11110334Y-15923238D01*
X11224619Y-15923238D02*
X11205572Y-15913714D01*
X11205572Y-15913714D02*
X11196048Y-15904190D01*
X11196048Y-15904190D02*
X11186524Y-15885143D01*
X11186524Y-15885143D02*
X11186524Y-15875619D01*
X11186524Y-15875619D02*
X11196048Y-15856571D01*
X11196048Y-15856571D02*
X11205572Y-15847048D01*
X11205572Y-15847048D02*
X11224619Y-15837524D01*
X11224619Y-15837524D02*
X11262714Y-15837524D01*
X11262714Y-15837524D02*
X11281762Y-15847048D01*
X11281762Y-15847048D02*
X11291286Y-15856571D01*
X11291286Y-15856571D02*
X11300810Y-15875619D01*
X11300810Y-15875619D02*
X11300810Y-15885143D01*
X11300810Y-15885143D02*
X11291286Y-15904190D01*
X11291286Y-15904190D02*
X11281762Y-15913714D01*
X11281762Y-15913714D02*
X11262714Y-15923238D01*
X11262714Y-15923238D02*
X11224619Y-15923238D01*
X11224619Y-15923238D02*
X11205572Y-15932762D01*
X11205572Y-15932762D02*
X11196048Y-15942286D01*
X11196048Y-15942286D02*
X11186524Y-15961333D01*
X11186524Y-15961333D02*
X11186524Y-15999428D01*
X11186524Y-15999428D02*
X11196048Y-16018476D01*
X11196048Y-16018476D02*
X11205572Y-16028000D01*
X11205572Y-16028000D02*
X11224619Y-16037524D01*
X11224619Y-16037524D02*
X11262714Y-16037524D01*
X11262714Y-16037524D02*
X11281762Y-16028000D01*
X11281762Y-16028000D02*
X11291286Y-16018476D01*
X11291286Y-16018476D02*
X11300810Y-15999428D01*
X11300810Y-15999428D02*
X11300810Y-15961333D01*
X11300810Y-15961333D02*
X11291286Y-15942286D01*
X11291286Y-15942286D02*
X11281762Y-15932762D01*
X11281762Y-15932762D02*
X11262714Y-15923238D01*
X11472238Y-15904190D02*
X11472238Y-16037524D01*
X11424619Y-15828000D02*
X11377000Y-15970857D01*
X11377000Y-15970857D02*
X11500810Y-15970857D01*
X11567476Y-15837524D02*
X11567476Y-15875619D01*
X11643667Y-15837524D02*
X11643667Y-15875619D01*
X11938905Y-16113714D02*
X11929381Y-16104190D01*
X11929381Y-16104190D02*
X11910334Y-16075619D01*
X11910334Y-16075619D02*
X11900810Y-16056571D01*
X11900810Y-16056571D02*
X11891286Y-16028000D01*
X11891286Y-16028000D02*
X11881762Y-15980381D01*
X11881762Y-15980381D02*
X11881762Y-15942286D01*
X11881762Y-15942286D02*
X11891286Y-15894667D01*
X11891286Y-15894667D02*
X11900810Y-15866095D01*
X11900810Y-15866095D02*
X11910334Y-15847048D01*
X11910334Y-15847048D02*
X11929381Y-15818476D01*
X11929381Y-15818476D02*
X11938905Y-15808952D01*
X12100810Y-15904190D02*
X12100810Y-16037524D01*
X12053191Y-15828000D02*
X12005572Y-15970857D01*
X12005572Y-15970857D02*
X12129381Y-15970857D01*
X12357953Y-16037524D02*
X12357953Y-15837524D01*
X12443667Y-16037524D02*
X12443667Y-15932762D01*
X12443667Y-15932762D02*
X12434143Y-15913714D01*
X12434143Y-15913714D02*
X12415096Y-15904190D01*
X12415096Y-15904190D02*
X12386524Y-15904190D01*
X12386524Y-15904190D02*
X12367476Y-15913714D01*
X12367476Y-15913714D02*
X12357953Y-15923238D01*
X12567476Y-16037524D02*
X12548429Y-16028000D01*
X12548429Y-16028000D02*
X12538905Y-16018476D01*
X12538905Y-16018476D02*
X12529381Y-15999428D01*
X12529381Y-15999428D02*
X12529381Y-15942286D01*
X12529381Y-15942286D02*
X12538905Y-15923238D01*
X12538905Y-15923238D02*
X12548429Y-15913714D01*
X12548429Y-15913714D02*
X12567476Y-15904190D01*
X12567476Y-15904190D02*
X12596048Y-15904190D01*
X12596048Y-15904190D02*
X12615096Y-15913714D01*
X12615096Y-15913714D02*
X12624619Y-15923238D01*
X12624619Y-15923238D02*
X12634143Y-15942286D01*
X12634143Y-15942286D02*
X12634143Y-15999428D01*
X12634143Y-15999428D02*
X12624619Y-16018476D01*
X12624619Y-16018476D02*
X12615096Y-16028000D01*
X12615096Y-16028000D02*
X12596048Y-16037524D01*
X12596048Y-16037524D02*
X12567476Y-16037524D01*
X12748429Y-16037524D02*
X12729381Y-16028000D01*
X12729381Y-16028000D02*
X12719857Y-16008952D01*
X12719857Y-16008952D02*
X12719857Y-15837524D01*
X12900810Y-16028000D02*
X12881762Y-16037524D01*
X12881762Y-16037524D02*
X12843667Y-16037524D01*
X12843667Y-16037524D02*
X12824619Y-16028000D01*
X12824619Y-16028000D02*
X12815096Y-16008952D01*
X12815096Y-16008952D02*
X12815096Y-15932762D01*
X12815096Y-15932762D02*
X12824619Y-15913714D01*
X12824619Y-15913714D02*
X12843667Y-15904190D01*
X12843667Y-15904190D02*
X12881762Y-15904190D01*
X12881762Y-15904190D02*
X12900810Y-15913714D01*
X12900810Y-15913714D02*
X12910334Y-15932762D01*
X12910334Y-15932762D02*
X12910334Y-15951809D01*
X12910334Y-15951809D02*
X12815096Y-15970857D01*
X12986524Y-16028000D02*
X13005572Y-16037524D01*
X13005572Y-16037524D02*
X13043667Y-16037524D01*
X13043667Y-16037524D02*
X13062715Y-16028000D01*
X13062715Y-16028000D02*
X13072238Y-16008952D01*
X13072238Y-16008952D02*
X13072238Y-15999428D01*
X13072238Y-15999428D02*
X13062715Y-15980381D01*
X13062715Y-15980381D02*
X13043667Y-15970857D01*
X13043667Y-15970857D02*
X13015096Y-15970857D01*
X13015096Y-15970857D02*
X12996048Y-15961333D01*
X12996048Y-15961333D02*
X12986524Y-15942286D01*
X12986524Y-15942286D02*
X12986524Y-15932762D01*
X12986524Y-15932762D02*
X12996048Y-15913714D01*
X12996048Y-15913714D02*
X13015096Y-15904190D01*
X13015096Y-15904190D02*
X13043667Y-15904190D01*
X13043667Y-15904190D02*
X13062715Y-15913714D01*
X13138905Y-16113714D02*
X13148429Y-16104190D01*
X13148429Y-16104190D02*
X13167477Y-16075619D01*
X13167477Y-16075619D02*
X13177000Y-16056571D01*
X13177000Y-16056571D02*
X13186524Y-16028000D01*
X13186524Y-16028000D02*
X13196048Y-15980381D01*
X13196048Y-15980381D02*
X13196048Y-15942286D01*
X13196048Y-15942286D02*
X13186524Y-15894667D01*
X13186524Y-15894667D02*
X13177000Y-15866095D01*
X13177000Y-15866095D02*
X13167477Y-15847048D01*
X13167477Y-15847048D02*
X13148429Y-15818476D01*
X13148429Y-15818476D02*
X13138905Y-15808952D01*
M02*
