G04 #@! TF.GenerationSoftware,KiCad,Pcbnew,7.0.1*
G04 #@! TF.CreationDate,2023-04-19T15:00:59-05:00*
G04 #@! TF.ProjectId,binary_clock,62696e61-7279-45f6-936c-6f636b2e6b69,rev?*
G04 #@! TF.SameCoordinates,Original*
G04 #@! TF.FileFunction,Copper,L1,Top*
G04 #@! TF.FilePolarity,Positive*
%FSLAX46Y46*%
G04 Gerber Fmt 4.6, Leading zero omitted, Abs format (unit mm)*
G04 Created by KiCad (PCBNEW 7.0.1) date 2023-04-19 15:00:59*
%MOMM*%
%LPD*%
G01*
G04 APERTURE LIST*
G04 Aperture macros list*
%AMRoundRect*
0 Rectangle with rounded corners*
0 $1 Rounding radius*
0 $2 $3 $4 $5 $6 $7 $8 $9 X,Y pos of 4 corners*
0 Add a 4 corners polygon primitive as box body*
4,1,4,$2,$3,$4,$5,$6,$7,$8,$9,$2,$3,0*
0 Add four circle primitives for the rounded corners*
1,1,$1+$1,$2,$3*
1,1,$1+$1,$4,$5*
1,1,$1+$1,$6,$7*
1,1,$1+$1,$8,$9*
0 Add four rect primitives between the rounded corners*
20,1,$1+$1,$2,$3,$4,$5,0*
20,1,$1+$1,$4,$5,$6,$7,0*
20,1,$1+$1,$6,$7,$8,$9,0*
20,1,$1+$1,$8,$9,$2,$3,0*%
G04 Aperture macros list end*
G04 #@! TA.AperFunction,ComponentPad*
%ADD10RoundRect,0.250000X0.750000X-0.600000X0.750000X0.600000X-0.750000X0.600000X-0.750000X-0.600000X0*%
G04 #@! TD*
G04 #@! TA.AperFunction,ComponentPad*
%ADD11O,2.000000X1.700000*%
G04 #@! TD*
G04 #@! TA.AperFunction,ComponentPad*
%ADD12C,1.400000*%
G04 #@! TD*
G04 #@! TA.AperFunction,ComponentPad*
%ADD13O,1.400000X1.400000*%
G04 #@! TD*
G04 #@! TA.AperFunction,ComponentPad*
%ADD14R,1.600000X1.600000*%
G04 #@! TD*
G04 #@! TA.AperFunction,ComponentPad*
%ADD15O,1.600000X1.600000*%
G04 #@! TD*
G04 #@! TA.AperFunction,ComponentPad*
%ADD16C,5.000000*%
G04 #@! TD*
G04 #@! TA.AperFunction,ComponentPad*
%ADD17C,1.600000*%
G04 #@! TD*
G04 #@! TA.AperFunction,ComponentPad*
%ADD18RoundRect,0.250000X-0.600000X-0.750000X0.600000X-0.750000X0.600000X0.750000X-0.600000X0.750000X0*%
G04 #@! TD*
G04 #@! TA.AperFunction,ComponentPad*
%ADD19O,1.700000X2.000000*%
G04 #@! TD*
G04 #@! TA.AperFunction,ComponentPad*
%ADD20R,1.800000X1.800000*%
G04 #@! TD*
G04 #@! TA.AperFunction,ComponentPad*
%ADD21C,1.800000*%
G04 #@! TD*
G04 #@! TA.AperFunction,ComponentPad*
%ADD22RoundRect,0.250000X-0.600000X-0.725000X0.600000X-0.725000X0.600000X0.725000X-0.600000X0.725000X0*%
G04 #@! TD*
G04 #@! TA.AperFunction,ComponentPad*
%ADD23O,1.700000X1.950000*%
G04 #@! TD*
G04 #@! TA.AperFunction,ComponentPad*
%ADD24C,1.000000*%
G04 #@! TD*
G04 #@! TA.AperFunction,ViaPad*
%ADD25C,0.800000*%
G04 #@! TD*
G04 #@! TA.AperFunction,Conductor*
%ADD26C,0.250000*%
G04 #@! TD*
G04 APERTURE END LIST*
D10*
G04 #@! TO.P,D11,1,K*
G04 #@! TO.N,GND*
X144780000Y-118685000D03*
D11*
G04 #@! TO.P,D11,2,A*
G04 #@! TO.N,Net-(D11-A)*
X144780000Y-116185000D03*
G04 #@! TD*
D12*
G04 #@! TO.P,R11,1*
G04 #@! TO.N,Net-(R10-Pad2)*
X133110900Y-107555200D03*
D13*
G04 #@! TO.P,R11,2*
G04 #@! TO.N,Net-(C7-Pad1)*
X133110900Y-99935200D03*
G04 #@! TD*
D14*
G04 #@! TO.P,U2,1,Q12*
G04 #@! TO.N,unconnected-(U2-Q12-Pad1)*
X153035000Y-71755000D03*
D15*
G04 #@! TO.P,U2,2,Q13*
G04 #@! TO.N,unconnected-(U2-Q13-Pad2)*
X153035000Y-74295000D03*
G04 #@! TO.P,U2,3,Q14*
G04 #@! TO.N,/Clock_1hz/CLK_2Hz*
X153035000Y-76835000D03*
G04 #@! TO.P,U2,4,Q6*
G04 #@! TO.N,unconnected-(U2-Q6-Pad4)*
X153035000Y-79375000D03*
G04 #@! TO.P,U2,5,Q5*
G04 #@! TO.N,unconnected-(U2-Q5-Pad5)*
X153035000Y-81915000D03*
G04 #@! TO.P,U2,6,Q7*
G04 #@! TO.N,unconnected-(U2-Q7-Pad6)*
X153035000Y-84455000D03*
G04 #@! TO.P,U2,7,Q4*
G04 #@! TO.N,unconnected-(U2-Q4-Pad7)*
X153035000Y-86995000D03*
G04 #@! TO.P,U2,8,VSS*
G04 #@! TO.N,GND*
X153035000Y-89535000D03*
G04 #@! TO.P,U2,9,(PHI)O*
G04 #@! TO.N,unconnected-(U2-(PHI)O-Pad9)*
X160655000Y-89535000D03*
G04 #@! TO.P,U2,10,~{(PHI)O}*
G04 #@! TO.N,Net-(U2-~{(PHI)O})*
X160655000Y-86995000D03*
G04 #@! TO.P,U2,11,(PHI)I*
G04 #@! TO.N,Net-(U2-(PHI)I)*
X160655000Y-84455000D03*
G04 #@! TO.P,U2,12,RESET*
G04 #@! TO.N,GND*
X160655000Y-81915000D03*
G04 #@! TO.P,U2,13,Q9*
G04 #@! TO.N,unconnected-(U2-Q9-Pad13)*
X160655000Y-79375000D03*
G04 #@! TO.P,U2,14,Q8*
G04 #@! TO.N,unconnected-(U2-Q8-Pad14)*
X160655000Y-76835000D03*
G04 #@! TO.P,U2,15,Q10*
G04 #@! TO.N,unconnected-(U2-Q10-Pad15)*
X160655000Y-74295000D03*
G04 #@! TO.P,U2,16,VDD*
G04 #@! TO.N,+3.3V*
X160655000Y-71755000D03*
G04 #@! TD*
D12*
G04 #@! TO.P,R13,1*
G04 #@! TO.N,Net-(D2-A)*
X168910000Y-132715000D03*
D13*
G04 #@! TO.P,R13,2*
G04 #@! TO.N,Net-(U5-Q1)*
X168910000Y-125095000D03*
G04 #@! TD*
D16*
G04 #@! TO.P,H2,1,1*
G04 #@! TO.N,GND*
X88900000Y-71120000D03*
G04 #@! TD*
D12*
G04 #@! TO.P,R2,1*
G04 #@! TO.N,Net-(U2-~{(PHI)O})*
X184150000Y-75785000D03*
D13*
G04 #@! TO.P,R2,2*
G04 #@! TO.N,Net-(U2-(PHI)I)*
X176530000Y-75785000D03*
G04 #@! TD*
D12*
G04 #@! TO.P,R1,1*
G04 #@! TO.N,Net-(C1-Pad1)*
X176530000Y-71975000D03*
D13*
G04 #@! TO.P,R1,2*
G04 #@! TO.N,Net-(U2-~{(PHI)O})*
X184150000Y-71975000D03*
G04 #@! TD*
D12*
G04 #@! TO.P,R23,1*
G04 #@! TO.N,Net-(D12-A)*
X130810000Y-121265000D03*
D13*
G04 #@! TO.P,R23,2*
G04 #@! TO.N,Net-(U7-Q5)*
X130810000Y-113645000D03*
G04 #@! TD*
D12*
G04 #@! TO.P,R18,1*
G04 #@! TO.N,Net-(D7-A)*
X178435000Y-113645000D03*
D13*
G04 #@! TO.P,R18,2*
G04 #@! TO.N,Net-(U7-Q0)*
X178435000Y-121265000D03*
G04 #@! TD*
D17*
G04 #@! TO.P,C2,1*
G04 #@! TO.N,Net-(U2-(PHI)I)*
X177800000Y-82550000D03*
G04 #@! TO.P,C2,2*
G04 #@! TO.N,GND*
X177800000Y-85050000D03*
G04 #@! TD*
D12*
G04 #@! TO.P,R16,1*
G04 #@! TO.N,Net-(D5-A)*
X140335000Y-132715000D03*
D13*
G04 #@! TO.P,R16,2*
G04 #@! TO.N,Net-(U5-Q4)*
X140335000Y-125095000D03*
G04 #@! TD*
D16*
G04 #@! TO.P,H1,1,1*
G04 #@! TO.N,GND*
X88900000Y-132080000D03*
G04 #@! TD*
G04 #@! TO.P,H4,1,1*
G04 #@! TO.N,GND*
X190500000Y-71120000D03*
G04 #@! TD*
D18*
G04 #@! TO.P,J1,1,Pin_1*
G04 #@! TO.N,+5V*
X165140000Y-95885000D03*
D19*
G04 #@! TO.P,J1,2,Pin_2*
G04 #@! TO.N,GND*
X167640000Y-95885000D03*
G04 #@! TD*
D10*
G04 #@! TO.P,D13,1,K*
G04 #@! TO.N,GND*
X182880000Y-107275000D03*
D11*
G04 #@! TO.P,D13,2,A*
G04 #@! TO.N,Net-(D13-A)*
X182880000Y-104775000D03*
G04 #@! TD*
D17*
G04 #@! TO.P,C1,1*
G04 #@! TO.N,Net-(C1-Pad1)*
X182880000Y-85050000D03*
G04 #@! TO.P,C1,2*
G04 #@! TO.N,GND*
X182880000Y-82550000D03*
G04 #@! TD*
D16*
G04 #@! TO.P,H3,1,1*
G04 #@! TO.N,GND*
X190500000Y-132080000D03*
G04 #@! TD*
D14*
G04 #@! TO.P,U3,1,Q11*
G04 #@! TO.N,unconnected-(U3-Q11-Pad1)*
X165100000Y-71755000D03*
D15*
G04 #@! TO.P,U3,2,Q5*
G04 #@! TO.N,unconnected-(U3-Q5-Pad2)*
X165100000Y-74295000D03*
G04 #@! TO.P,U3,3,Q4*
G04 #@! TO.N,unconnected-(U3-Q4-Pad3)*
X165100000Y-76835000D03*
G04 #@! TO.P,U3,4,Q6*
G04 #@! TO.N,unconnected-(U3-Q6-Pad4)*
X165100000Y-79375000D03*
G04 #@! TO.P,U3,5,Q3*
G04 #@! TO.N,unconnected-(U3-Q3-Pad5)*
X165100000Y-81915000D03*
G04 #@! TO.P,U3,6,Q2*
G04 #@! TO.N,unconnected-(U3-Q2-Pad6)*
X165100000Y-84455000D03*
G04 #@! TO.P,U3,7,Q1*
G04 #@! TO.N,unconnected-(U3-Q1-Pad7)*
X165100000Y-86995000D03*
G04 #@! TO.P,U3,8,VSS*
G04 #@! TO.N,GND*
X165100000Y-89535000D03*
G04 #@! TO.P,U3,9,Q0*
G04 #@! TO.N,/Clock_1hz/CLK_1Hz*
X172720000Y-89535000D03*
G04 #@! TO.P,U3,10,CLK*
G04 #@! TO.N,/Clock_1hz/CLK_2Hz*
X172720000Y-86995000D03*
G04 #@! TO.P,U3,11,Reset*
G04 #@! TO.N,GND*
X172720000Y-84455000D03*
G04 #@! TO.P,U3,12,Q8*
G04 #@! TO.N,unconnected-(U3-Q8-Pad12)*
X172720000Y-81915000D03*
G04 #@! TO.P,U3,13,Q7*
G04 #@! TO.N,unconnected-(U3-Q7-Pad13)*
X172720000Y-79375000D03*
G04 #@! TO.P,U3,14,Q9*
G04 #@! TO.N,unconnected-(U3-Q9-Pad14)*
X172720000Y-76835000D03*
G04 #@! TO.P,U3,15,Q10*
G04 #@! TO.N,unconnected-(U3-Q10-Pad15)*
X172720000Y-74295000D03*
G04 #@! TO.P,U3,16,VDD*
G04 #@! TO.N,+3.3V*
X172720000Y-71755000D03*
G04 #@! TD*
D10*
G04 #@! TO.P,D8,1,K*
G04 #@! TO.N,GND*
X173355000Y-118685000D03*
D11*
G04 #@! TO.P,D8,2,A*
G04 #@! TO.N,Net-(D8-A)*
X173355000Y-116185000D03*
G04 #@! TD*
D10*
G04 #@! TO.P,D5,1,K*
G04 #@! TO.N,GND*
X144780000Y-130145000D03*
D11*
G04 #@! TO.P,D5,2,A*
G04 #@! TO.N,Net-(D5-A)*
X144780000Y-127645000D03*
G04 #@! TD*
D10*
G04 #@! TO.P,D4,1,K*
G04 #@! TO.N,GND*
X154415000Y-130175000D03*
D11*
G04 #@! TO.P,D4,2,A*
G04 #@! TO.N,Net-(D4-A)*
X154415000Y-127675000D03*
G04 #@! TD*
D12*
G04 #@! TO.P,R3,1*
G04 #@! TO.N,+3.3V*
X185420000Y-99060000D03*
D13*
G04 #@! TO.P,R3,2*
G04 #@! TO.N,Net-(R3-Pad2)*
X185420000Y-91440000D03*
G04 #@! TD*
D10*
G04 #@! TO.P,D2,1,K*
G04 #@! TO.N,GND*
X173355000Y-130155000D03*
D11*
G04 #@! TO.P,D2,2,A*
G04 #@! TO.N,Net-(D2-A)*
X173355000Y-127655000D03*
G04 #@! TD*
D10*
G04 #@! TO.P,D15,1,K*
G04 #@! TO.N,GND*
X163830000Y-107275000D03*
D11*
G04 #@! TO.P,D15,2,A*
G04 #@! TO.N,Net-(D15-A)*
X163830000Y-104775000D03*
G04 #@! TD*
D17*
G04 #@! TO.P,C9,1*
G04 #@! TO.N,/Clock_Binary/RESET_MIN*
X105903200Y-109673500D03*
G04 #@! TO.P,C9,2*
G04 #@! TO.N,GND*
X105903200Y-104673500D03*
G04 #@! TD*
D12*
G04 #@! TO.P,R15,1*
G04 #@! TO.N,Net-(D4-A)*
X149860000Y-132715000D03*
D13*
G04 #@! TO.P,R15,2*
G04 #@! TO.N,Net-(U5-Q3)*
X149860000Y-125095000D03*
G04 #@! TD*
D12*
G04 #@! TO.P,R20,1*
G04 #@! TO.N,Net-(D9-A)*
X159385000Y-121265000D03*
D13*
G04 #@! TO.P,R20,2*
G04 #@! TO.N,Net-(U7-Q2)*
X159385000Y-113645000D03*
G04 #@! TD*
D20*
G04 #@! TO.P,U1,1,IN*
G04 #@! TO.N,+5V*
X142230000Y-74300000D03*
D21*
G04 #@! TO.P,U1,2,OUT*
G04 #@! TO.N,+3.3V*
X144770000Y-74300000D03*
G04 #@! TO.P,U1,3,GND*
G04 #@! TO.N,GND*
X147310000Y-74300000D03*
G04 #@! TD*
D17*
G04 #@! TO.P,C10,1*
G04 #@! TO.N,/Clock_Binary/RESET_HOUR*
X105903200Y-98220500D03*
G04 #@! TO.P,C10,2*
G04 #@! TO.N,GND*
X105903200Y-93220500D03*
G04 #@! TD*
D10*
G04 #@! TO.P,D9,1,K*
G04 #@! TO.N,GND*
X163830000Y-118685000D03*
D11*
G04 #@! TO.P,D9,2,A*
G04 #@! TO.N,Net-(D9-A)*
X163830000Y-116185000D03*
G04 #@! TD*
D12*
G04 #@! TO.P,R24,1*
G04 #@! TO.N,Net-(D13-A)*
X178435000Y-102195000D03*
D13*
G04 #@! TO.P,R24,2*
G04 #@! TO.N,Net-(U8-Q0)*
X178435000Y-109815000D03*
G04 #@! TD*
D14*
G04 #@! TO.P,U5,1,Q11*
G04 #@! TO.N,unconnected-(U5-Q11-Pad1)*
X109534700Y-122516000D03*
D15*
G04 #@! TO.P,U5,2,Q5*
G04 #@! TO.N,Net-(U5-Q5)*
X112074700Y-122516000D03*
G04 #@! TO.P,U5,3,Q4*
G04 #@! TO.N,Net-(U5-Q4)*
X114614700Y-122516000D03*
G04 #@! TO.P,U5,4,Q6*
G04 #@! TO.N,unconnected-(U5-Q6-Pad4)*
X117154700Y-122516000D03*
G04 #@! TO.P,U5,5,Q3*
G04 #@! TO.N,Net-(U5-Q3)*
X119694700Y-122516000D03*
G04 #@! TO.P,U5,6,Q2*
G04 #@! TO.N,Net-(U5-Q2)*
X122234700Y-122516000D03*
G04 #@! TO.P,U5,7,Q1*
G04 #@! TO.N,Net-(U5-Q1)*
X124774700Y-122516000D03*
G04 #@! TO.P,U5,8,VSS*
G04 #@! TO.N,GND*
X127314700Y-122516000D03*
G04 #@! TO.P,U5,9,Q0*
G04 #@! TO.N,Net-(U5-Q0)*
X127314700Y-114896000D03*
G04 #@! TO.P,U5,10,CLK*
G04 #@! TO.N,/Clock_Binary/CLOCK_SEC*
X124774700Y-114896000D03*
G04 #@! TO.P,U5,11,Reset*
G04 #@! TO.N,/Clock_Binary/RESET_SEC*
X122234700Y-114896000D03*
G04 #@! TO.P,U5,12,Q8*
G04 #@! TO.N,unconnected-(U5-Q8-Pad12)*
X119694700Y-114896000D03*
G04 #@! TO.P,U5,13,Q7*
G04 #@! TO.N,unconnected-(U5-Q7-Pad13)*
X117154700Y-114896000D03*
G04 #@! TO.P,U5,14,Q9*
G04 #@! TO.N,unconnected-(U5-Q9-Pad14)*
X114614700Y-114896000D03*
G04 #@! TO.P,U5,15,Q10*
G04 #@! TO.N,unconnected-(U5-Q10-Pad15)*
X112074700Y-114896000D03*
G04 #@! TO.P,U5,16,VDD*
G04 #@! TO.N,+3.3V*
X109534700Y-114896000D03*
G04 #@! TD*
D12*
G04 #@! TO.P,R21,1*
G04 #@! TO.N,Net-(D10-A)*
X149860000Y-121265000D03*
D13*
G04 #@! TO.P,R21,2*
G04 #@! TO.N,Net-(U7-Q3)*
X149860000Y-113645000D03*
G04 #@! TD*
D10*
G04 #@! TO.P,SW5,1,1*
G04 #@! TO.N,/Interface/SWITCH_PAUSE_NOT*
X124460000Y-130135000D03*
D11*
G04 #@! TO.P,SW5,2,2*
G04 #@! TO.N,Net-(R10-Pad2)*
X124460000Y-127635000D03*
G04 #@! TD*
D10*
G04 #@! TO.P,D10,1,K*
G04 #@! TO.N,GND*
X154305000Y-118685000D03*
D11*
G04 #@! TO.P,D10,2,A*
G04 #@! TO.N,Net-(D10-A)*
X154305000Y-116185000D03*
G04 #@! TD*
D12*
G04 #@! TO.P,R5,1*
G04 #@! TO.N,/Interface/SWITCH_PAUSE_NOT*
X175895000Y-91440000D03*
D13*
G04 #@! TO.P,R5,2*
G04 #@! TO.N,GND*
X175895000Y-99060000D03*
G04 #@! TD*
D17*
G04 #@! TO.P,C6,1*
G04 #@! TO.N,Net-(C6-Pad1)*
X136147300Y-88334200D03*
G04 #@! TO.P,C6,2*
G04 #@! TO.N,GND*
X136147300Y-93334200D03*
G04 #@! TD*
D10*
G04 #@! TO.P,D3,1,K*
G04 #@! TO.N,GND*
X163830000Y-130155000D03*
D11*
G04 #@! TO.P,D3,2,A*
G04 #@! TO.N,Net-(D3-A)*
X163830000Y-127655000D03*
G04 #@! TD*
D14*
G04 #@! TO.P,U7,1,Q11*
G04 #@! TO.N,unconnected-(U7-Q11-Pad1)*
X109534700Y-111086000D03*
D15*
G04 #@! TO.P,U7,2,Q5*
G04 #@! TO.N,Net-(U7-Q5)*
X112074700Y-111086000D03*
G04 #@! TO.P,U7,3,Q4*
G04 #@! TO.N,Net-(U7-Q4)*
X114614700Y-111086000D03*
G04 #@! TO.P,U7,4,Q6*
G04 #@! TO.N,unconnected-(U7-Q6-Pad4)*
X117154700Y-111086000D03*
G04 #@! TO.P,U7,5,Q3*
G04 #@! TO.N,Net-(U7-Q3)*
X119694700Y-111086000D03*
G04 #@! TO.P,U7,6,Q2*
G04 #@! TO.N,Net-(U7-Q2)*
X122234700Y-111086000D03*
G04 #@! TO.P,U7,7,Q1*
G04 #@! TO.N,Net-(U7-Q1)*
X124774700Y-111086000D03*
G04 #@! TO.P,U7,8,VSS*
G04 #@! TO.N,GND*
X127314700Y-111086000D03*
G04 #@! TO.P,U7,9,Q0*
G04 #@! TO.N,Net-(U7-Q0)*
X127314700Y-103466000D03*
G04 #@! TO.P,U7,10,CLK*
G04 #@! TO.N,/Clock_Binary/CLOCK_MIN*
X124774700Y-103466000D03*
G04 #@! TO.P,U7,11,Reset*
G04 #@! TO.N,/Clock_Binary/RESET_MIN*
X122234700Y-103466000D03*
G04 #@! TO.P,U7,12,Q8*
G04 #@! TO.N,unconnected-(U7-Q8-Pad12)*
X119694700Y-103466000D03*
G04 #@! TO.P,U7,13,Q7*
G04 #@! TO.N,unconnected-(U7-Q7-Pad13)*
X117154700Y-103466000D03*
G04 #@! TO.P,U7,14,Q9*
G04 #@! TO.N,unconnected-(U7-Q9-Pad14)*
X114614700Y-103466000D03*
G04 #@! TO.P,U7,15,Q10*
G04 #@! TO.N,unconnected-(U7-Q10-Pad15)*
X112074700Y-103466000D03*
G04 #@! TO.P,U7,16,VDD*
G04 #@! TO.N,+3.3V*
X109534700Y-103466000D03*
G04 #@! TD*
D12*
G04 #@! TO.P,R27,1*
G04 #@! TO.N,Net-(D16-A)*
X149860000Y-109815000D03*
D13*
G04 #@! TO.P,R27,2*
G04 #@! TO.N,Net-(U8-Q3)*
X149860000Y-102195000D03*
G04 #@! TD*
D12*
G04 #@! TO.P,R17,1*
G04 #@! TO.N,Net-(D6-A)*
X130810000Y-132715000D03*
D13*
G04 #@! TO.P,R17,2*
G04 #@! TO.N,Net-(U5-Q5)*
X130810000Y-125095000D03*
G04 #@! TD*
D12*
G04 #@! TO.P,R7,1*
G04 #@! TO.N,Net-(R6-Pad2)*
X133012800Y-82623200D03*
D13*
G04 #@! TO.P,R7,2*
G04 #@! TO.N,Net-(C5-Pad1)*
X133012800Y-75003200D03*
G04 #@! TD*
D17*
G04 #@! TO.P,C7,1*
G04 #@! TO.N,Net-(C7-Pad1)*
X136505900Y-101245200D03*
G04 #@! TO.P,C7,2*
G04 #@! TO.N,/Interface/SWITCH_PAUSE_NOT*
X136505900Y-106245200D03*
G04 #@! TD*
D14*
G04 #@! TO.P,U11,1*
G04 #@! TO.N,Net-(U11-Pad1)*
X94625000Y-73020000D03*
D15*
G04 #@! TO.P,U11,2*
G04 #@! TO.N,/Clock_Binary/CARRY_SEC*
X94625000Y-75560000D03*
G04 #@! TO.P,U11,3*
G04 #@! TO.N,/Clock_Binary/RESET_SEC*
X94625000Y-78100000D03*
G04 #@! TO.P,U11,4*
G04 #@! TO.N,/Clock_Binary/RESET_MIN*
X94625000Y-80640000D03*
G04 #@! TO.P,U11,5*
G04 #@! TO.N,Net-(U11-Pad1)*
X94625000Y-83180000D03*
G04 #@! TO.P,U11,6*
G04 #@! TO.N,/Clock_Binary/CARRY_MIN*
X94625000Y-85720000D03*
G04 #@! TO.P,U11,7,Vss*
G04 #@! TO.N,GND*
X94625000Y-88260000D03*
G04 #@! TO.P,U11,8*
G04 #@! TO.N,Net-(U11-Pad1)*
X102245000Y-88260000D03*
G04 #@! TO.P,U11,9*
G04 #@! TO.N,/Clock_Binary/CARRY_HOUR*
X102245000Y-85720000D03*
G04 #@! TO.P,U11,10*
G04 #@! TO.N,/Clock_Binary/RESET_HOUR*
X102245000Y-83180000D03*
G04 #@! TO.P,U11,11*
G04 #@! TO.N,N/C*
X102245000Y-80640000D03*
G04 #@! TO.P,U11,12*
X102245000Y-78100000D03*
G04 #@! TO.P,U11,13*
X102245000Y-75560000D03*
G04 #@! TO.P,U11,14,Vdd*
G04 #@! TO.N,+3.3V*
X102245000Y-73020000D03*
G04 #@! TD*
D12*
G04 #@! TO.P,R22,1*
G04 #@! TO.N,Net-(D11-A)*
X140335000Y-121265000D03*
D13*
G04 #@! TO.P,R22,2*
G04 #@! TO.N,Net-(U7-Q4)*
X140335000Y-113645000D03*
G04 #@! TD*
D14*
G04 #@! TO.P,U4,1*
G04 #@! TO.N,/Interface/SWITCH_PAUSE_NOT*
X117485000Y-73025000D03*
D15*
G04 #@! TO.P,U4,2*
G04 #@! TO.N,/Interface/SWITCH_PAUSE*
X117485000Y-75565000D03*
G04 #@! TO.P,U4,3*
G04 #@! TO.N,Net-(C6-Pad1)*
X117485000Y-78105000D03*
G04 #@! TO.P,U4,4*
G04 #@! TO.N,/Interface/BUTTON_RESET*
X117485000Y-80645000D03*
G04 #@! TO.P,U4,5*
G04 #@! TO.N,N/C*
X117485000Y-83185000D03*
G04 #@! TO.P,U4,6*
X117485000Y-85725000D03*
G04 #@! TO.P,U4,7,Vss*
G04 #@! TO.N,GND*
X117485000Y-88265000D03*
G04 #@! TO.P,U4,8*
G04 #@! TO.N,/Interface/BUTTON_SEC*
X125105000Y-88265000D03*
G04 #@! TO.P,U4,9*
G04 #@! TO.N,Net-(C3-Pad1)*
X125105000Y-85725000D03*
G04 #@! TO.P,U4,10*
G04 #@! TO.N,/Interface/BUTTON_MIN*
X125105000Y-83185000D03*
G04 #@! TO.P,U4,11*
G04 #@! TO.N,Net-(C5-Pad1)*
X125105000Y-80645000D03*
G04 #@! TO.P,U4,12*
G04 #@! TO.N,/Interface/BUTTON_HOUR*
X125105000Y-78105000D03*
G04 #@! TO.P,U4,13*
G04 #@! TO.N,Net-(C7-Pad1)*
X125105000Y-75565000D03*
G04 #@! TO.P,U4,14,Vdd*
G04 #@! TO.N,+3.3V*
X125105000Y-73025000D03*
G04 #@! TD*
D17*
G04 #@! TO.P,C3,1*
G04 #@! TO.N,Net-(C3-Pad1)*
X179705000Y-99020000D03*
G04 #@! TO.P,C3,2*
G04 #@! TO.N,/Interface/SWITCH_PAUSE_NOT*
X179705000Y-94020000D03*
G04 #@! TD*
D12*
G04 #@! TO.P,R26,1*
G04 #@! TO.N,Net-(D15-A)*
X159385000Y-109815000D03*
D13*
G04 #@! TO.P,R26,2*
G04 #@! TO.N,Net-(U8-Q2)*
X159385000Y-102195000D03*
G04 #@! TD*
D10*
G04 #@! TO.P,D14,1,K*
G04 #@! TO.N,GND*
X173355000Y-107275000D03*
D11*
G04 #@! TO.P,D14,2,A*
G04 #@! TO.N,Net-(D14-A)*
X173355000Y-104775000D03*
G04 #@! TD*
D12*
G04 #@! TO.P,R14,1*
G04 #@! TO.N,Net-(D3-A)*
X159385000Y-132715000D03*
D13*
G04 #@! TO.P,R14,2*
G04 #@! TO.N,Net-(U5-Q2)*
X159385000Y-125095000D03*
G04 #@! TD*
D14*
G04 #@! TO.P,U6,1*
G04 #@! TO.N,/Clock_Binary/CARRY_SEC*
X94635000Y-114295000D03*
D15*
G04 #@! TO.P,U6,2*
G04 #@! TO.N,Net-(U5-Q2)*
X94635000Y-116835000D03*
G04 #@! TO.P,U6,3*
G04 #@! TO.N,Net-(U5-Q3)*
X94635000Y-119375000D03*
G04 #@! TO.P,U6,4*
G04 #@! TO.N,Net-(U5-Q4)*
X94635000Y-121915000D03*
G04 #@! TO.P,U6,5*
G04 #@! TO.N,Net-(U5-Q5)*
X94635000Y-124455000D03*
G04 #@! TO.P,U6,6*
G04 #@! TO.N,N/C*
X94635000Y-126995000D03*
G04 #@! TO.P,U6,7,Vss*
G04 #@! TO.N,GND*
X94635000Y-129535000D03*
G04 #@! TO.P,U6,8*
G04 #@! TO.N,N/C*
X102255000Y-129535000D03*
G04 #@! TO.P,U6,9*
G04 #@! TO.N,Net-(U7-Q2)*
X102255000Y-126995000D03*
G04 #@! TO.P,U6,10*
G04 #@! TO.N,Net-(U7-Q3)*
X102255000Y-124455000D03*
G04 #@! TO.P,U6,11*
G04 #@! TO.N,Net-(U7-Q4)*
X102255000Y-121915000D03*
G04 #@! TO.P,U6,12*
G04 #@! TO.N,Net-(U7-Q5)*
X102255000Y-119375000D03*
G04 #@! TO.P,U6,13*
G04 #@! TO.N,/Clock_Binary/CARRY_MIN*
X102255000Y-116835000D03*
G04 #@! TO.P,U6,14,Vdd*
G04 #@! TO.N,+3.3V*
X102255000Y-114295000D03*
G04 #@! TD*
D10*
G04 #@! TO.P,D12,1,K*
G04 #@! TO.N,GND*
X135365000Y-118715000D03*
D11*
G04 #@! TO.P,D12,2,A*
G04 #@! TO.N,Net-(D12-A)*
X135365000Y-116215000D03*
G04 #@! TD*
D14*
G04 #@! TO.P,U8,1,Q11*
G04 #@! TO.N,unconnected-(U8-Q11-Pad1)*
X109534700Y-99656000D03*
D15*
G04 #@! TO.P,U8,2,Q5*
G04 #@! TO.N,unconnected-(U8-Q5-Pad2)*
X112074700Y-99656000D03*
G04 #@! TO.P,U8,3,Q4*
G04 #@! TO.N,Net-(U8-Q4)*
X114614700Y-99656000D03*
G04 #@! TO.P,U8,4,Q6*
G04 #@! TO.N,unconnected-(U8-Q6-Pad4)*
X117154700Y-99656000D03*
G04 #@! TO.P,U8,5,Q3*
G04 #@! TO.N,Net-(U8-Q3)*
X119694700Y-99656000D03*
G04 #@! TO.P,U8,6,Q2*
G04 #@! TO.N,Net-(U8-Q2)*
X122234700Y-99656000D03*
G04 #@! TO.P,U8,7,Q1*
G04 #@! TO.N,Net-(U8-Q1)*
X124774700Y-99656000D03*
G04 #@! TO.P,U8,8,VSS*
G04 #@! TO.N,GND*
X127314700Y-99656000D03*
G04 #@! TO.P,U8,9,Q0*
G04 #@! TO.N,Net-(U8-Q0)*
X127314700Y-92036000D03*
G04 #@! TO.P,U8,10,CLK*
G04 #@! TO.N,/Clock_Binary/CLOCK_HOUR*
X124774700Y-92036000D03*
G04 #@! TO.P,U8,11,Reset*
G04 #@! TO.N,/Clock_Binary/RESET_HOUR*
X122234700Y-92036000D03*
G04 #@! TO.P,U8,12,Q8*
G04 #@! TO.N,unconnected-(U8-Q8-Pad12)*
X119694700Y-92036000D03*
G04 #@! TO.P,U8,13,Q7*
G04 #@! TO.N,unconnected-(U8-Q7-Pad13)*
X117154700Y-92036000D03*
G04 #@! TO.P,U8,14,Q9*
G04 #@! TO.N,unconnected-(U8-Q9-Pad14)*
X114614700Y-92036000D03*
G04 #@! TO.P,U8,15,Q10*
G04 #@! TO.N,unconnected-(U8-Q10-Pad15)*
X112074700Y-92036000D03*
G04 #@! TO.P,U8,16,VDD*
G04 #@! TO.N,+3.3V*
X109534700Y-92036000D03*
G04 #@! TD*
D10*
G04 #@! TO.P,D16,1,K*
G04 #@! TO.N,GND*
X154305000Y-107275000D03*
D11*
G04 #@! TO.P,D16,2,A*
G04 #@! TO.N,Net-(D16-A)*
X154305000Y-104775000D03*
G04 #@! TD*
D10*
G04 #@! TO.P,SW3,1,1*
G04 #@! TO.N,/Interface/SWITCH_PAUSE_NOT*
X108585000Y-130135000D03*
D11*
G04 #@! TO.P,SW3,2,2*
G04 #@! TO.N,Net-(R3-Pad2)*
X108585000Y-127635000D03*
G04 #@! TD*
D10*
G04 #@! TO.P,D7,1,K*
G04 #@! TO.N,GND*
X182880000Y-118705000D03*
D11*
G04 #@! TO.P,D7,2,A*
G04 #@! TO.N,Net-(D7-A)*
X182880000Y-116205000D03*
G04 #@! TD*
D12*
G04 #@! TO.P,R25,1*
G04 #@! TO.N,Net-(D14-A)*
X168910000Y-109815000D03*
D13*
G04 #@! TO.P,R25,2*
G04 #@! TO.N,Net-(U8-Q1)*
X168910000Y-102195000D03*
G04 #@! TD*
D22*
G04 #@! TO.P,SW1,1,1*
G04 #@! TO.N,+3.3V*
X152480000Y-95885000D03*
D23*
G04 #@! TO.P,SW1,2,2*
G04 #@! TO.N,/Interface/SWITCH_PAUSE_NOT*
X154980000Y-95885000D03*
G04 #@! TO.P,SW1,3,K*
G04 #@! TO.N,GND*
X157480000Y-95885000D03*
G04 #@! TD*
D10*
G04 #@! TO.P,D17,1,K*
G04 #@! TO.N,GND*
X144780000Y-107275000D03*
D11*
G04 #@! TO.P,D17,2,A*
G04 #@! TO.N,Net-(D17-A)*
X144780000Y-104775000D03*
G04 #@! TD*
D17*
G04 #@! TO.P,C8,1*
G04 #@! TO.N,/Clock_Binary/RESET_SEC*
X105903200Y-116169700D03*
G04 #@! TO.P,C8,2*
G04 #@! TO.N,GND*
X105903200Y-121169700D03*
G04 #@! TD*
D10*
G04 #@! TO.P,D1,1,K*
G04 #@! TO.N,GND*
X182880000Y-130155000D03*
D11*
G04 #@! TO.P,D1,2,A*
G04 #@! TO.N,Net-(D1-A)*
X182880000Y-127655000D03*
G04 #@! TD*
D17*
G04 #@! TO.P,C5,1*
G04 #@! TO.N,Net-(C5-Pad1)*
X136187800Y-76313200D03*
G04 #@! TO.P,C5,2*
G04 #@! TO.N,/Interface/SWITCH_PAUSE_NOT*
X136187800Y-81313200D03*
G04 #@! TD*
D10*
G04 #@! TO.P,SW4,1,1*
G04 #@! TO.N,/Interface/SWITCH_PAUSE_NOT*
X116725200Y-130111600D03*
D11*
G04 #@! TO.P,SW4,2,2*
G04 #@! TO.N,Net-(R6-Pad2)*
X116725200Y-127611600D03*
G04 #@! TD*
D24*
G04 #@! TO.P,Y1,1,1*
G04 #@! TO.N,Net-(C1-Pad1)*
X176090000Y-80380100D03*
G04 #@! TO.P,Y1,2,2*
G04 #@! TO.N,Net-(U2-(PHI)I)*
X176090000Y-78480100D03*
G04 #@! TD*
D12*
G04 #@! TO.P,R10,1*
G04 #@! TO.N,+3.3V*
X130790900Y-99935200D03*
D13*
G04 #@! TO.P,R10,2*
G04 #@! TO.N,Net-(R10-Pad2)*
X130790900Y-107555200D03*
G04 #@! TD*
D12*
G04 #@! TO.P,R28,1*
G04 #@! TO.N,Net-(D17-A)*
X140335000Y-109815000D03*
D13*
G04 #@! TO.P,R28,2*
G04 #@! TO.N,Net-(U8-Q4)*
X140335000Y-102195000D03*
G04 #@! TD*
D12*
G04 #@! TO.P,R9,1*
G04 #@! TO.N,Net-(R8-Pad2)*
X132972300Y-94644200D03*
D13*
G04 #@! TO.P,R9,2*
G04 #@! TO.N,Net-(C6-Pad1)*
X132972300Y-87024200D03*
G04 #@! TD*
D14*
G04 #@! TO.P,U10,1*
G04 #@! TO.N,Net-(U10-Pad1)*
X106045000Y-73030000D03*
D15*
G04 #@! TO.P,U10,2*
G04 #@! TO.N,/Interface/BUTTON_SEC*
X106045000Y-75570000D03*
G04 #@! TO.P,U10,3*
G04 #@! TO.N,/Clock_Binary/CLOCK_SEC*
X106045000Y-78110000D03*
G04 #@! TO.P,U10,4*
G04 #@! TO.N,/Clock_Binary/CLOCK_MIN*
X106045000Y-80650000D03*
G04 #@! TO.P,U10,5*
G04 #@! TO.N,/Clock_Binary/CARRY_SEC*
X106045000Y-83190000D03*
G04 #@! TO.P,U10,6*
G04 #@! TO.N,/Interface/BUTTON_MIN*
X106045000Y-85730000D03*
G04 #@! TO.P,U10,7,Vss*
G04 #@! TO.N,GND*
X106045000Y-88270000D03*
G04 #@! TO.P,U10,8*
G04 #@! TO.N,/Clock_Binary/CARRY_MIN*
X113665000Y-88270000D03*
G04 #@! TO.P,U10,9*
G04 #@! TO.N,/Interface/BUTTON_HOUR*
X113665000Y-85730000D03*
G04 #@! TO.P,U10,10*
G04 #@! TO.N,/Clock_Binary/CLOCK_HOUR*
X113665000Y-83190000D03*
G04 #@! TO.P,U10,11*
G04 #@! TO.N,N/C*
X113665000Y-80650000D03*
G04 #@! TO.P,U10,12*
X113665000Y-78110000D03*
G04 #@! TO.P,U10,13*
X113665000Y-75570000D03*
G04 #@! TO.P,U10,14,Vdd*
G04 #@! TO.N,+3.3V*
X113665000Y-73030000D03*
G04 #@! TD*
D12*
G04 #@! TO.P,R8,1*
G04 #@! TO.N,+3.3V*
X130432300Y-87024200D03*
D13*
G04 #@! TO.P,R8,2*
G04 #@! TO.N,Net-(R8-Pad2)*
X130432300Y-94644200D03*
G04 #@! TD*
D17*
G04 #@! TO.P,C4,1*
G04 #@! TO.N,/Interface/SWITCH_PAUSE_NOT*
X172720000Y-94060000D03*
G04 #@! TO.P,C4,2*
G04 #@! TO.N,GND*
X172720000Y-99060000D03*
G04 #@! TD*
D12*
G04 #@! TO.P,R12,1*
G04 #@! TO.N,Net-(D1-A)*
X178435000Y-132715000D03*
D13*
G04 #@! TO.P,R12,2*
G04 #@! TO.N,Net-(U5-Q0)*
X178435000Y-125095000D03*
G04 #@! TD*
D12*
G04 #@! TO.P,R4,1*
G04 #@! TO.N,Net-(R3-Pad2)*
X182880000Y-91440000D03*
D13*
G04 #@! TO.P,R4,2*
G04 #@! TO.N,Net-(C3-Pad1)*
X182880000Y-99060000D03*
G04 #@! TD*
D10*
G04 #@! TO.P,D6,1,K*
G04 #@! TO.N,GND*
X135255000Y-130155000D03*
D11*
G04 #@! TO.P,D6,2,A*
G04 #@! TO.N,Net-(D6-A)*
X135255000Y-127655000D03*
G04 #@! TD*
D18*
G04 #@! TO.P,SW2,1,1*
G04 #@! TO.N,GND*
X142280000Y-95885000D03*
D19*
G04 #@! TO.P,SW2,2,2*
G04 #@! TO.N,Net-(R8-Pad2)*
X144780000Y-95885000D03*
G04 #@! TD*
D12*
G04 #@! TO.P,R19,1*
G04 #@! TO.N,Net-(D8-A)*
X168910000Y-121285000D03*
D13*
G04 #@! TO.P,R19,2*
G04 #@! TO.N,Net-(U7-Q1)*
X168910000Y-113665000D03*
G04 #@! TD*
D12*
G04 #@! TO.P,R6,1*
G04 #@! TO.N,+3.3V*
X130472800Y-75003200D03*
D13*
G04 #@! TO.P,R6,2*
G04 #@! TO.N,Net-(R6-Pad2)*
X130472800Y-82623200D03*
G04 #@! TD*
D14*
G04 #@! TO.P,U9,1*
G04 #@! TO.N,/Interface/SWITCH_PAUSE_NOT*
X94635000Y-93980000D03*
D15*
G04 #@! TO.P,U9,2*
G04 #@! TO.N,/Clock_1hz/CLK_1Hz*
X94635000Y-96520000D03*
G04 #@! TO.P,U9,3*
G04 #@! TO.N,Net-(U10-Pad1)*
X94635000Y-99060000D03*
G04 #@! TO.P,U9,4*
G04 #@! TO.N,Net-(U11-Pad1)*
X94635000Y-101600000D03*
G04 #@! TO.P,U9,5*
G04 #@! TO.N,/Interface/SWITCH_PAUSE*
X94635000Y-104140000D03*
G04 #@! TO.P,U9,6*
G04 #@! TO.N,/Interface/BUTTON_RESET*
X94635000Y-106680000D03*
G04 #@! TO.P,U9,7,Vss*
G04 #@! TO.N,GND*
X94635000Y-109220000D03*
G04 #@! TO.P,U9,8*
G04 #@! TO.N,Net-(U8-Q3)*
X102255000Y-109220000D03*
G04 #@! TO.P,U9,9*
G04 #@! TO.N,Net-(U8-Q4)*
X102255000Y-106680000D03*
G04 #@! TO.P,U9,10*
G04 #@! TO.N,/Clock_Binary/CARRY_HOUR*
X102255000Y-104140000D03*
G04 #@! TO.P,U9,11*
G04 #@! TO.N,N/C*
X102255000Y-101600000D03*
G04 #@! TO.P,U9,12*
X102255000Y-99060000D03*
G04 #@! TO.P,U9,13*
X102255000Y-96520000D03*
G04 #@! TO.P,U9,14,Vdd*
G04 #@! TO.N,+3.3V*
X102255000Y-93980000D03*
G04 #@! TD*
D25*
G04 #@! TO.N,Net-(U8-Q4)*
X137559900Y-104794900D03*
G04 #@! TO.N,/Interface/BUTTON_HOUR*
X128223300Y-87294800D03*
G04 #@! TO.N,/Clock_Binary/CLOCK_SEC*
X111248800Y-84968500D03*
G04 #@! TD*
D26*
G04 #@! TO.N,+3.3V*
X146189800Y-72880200D02*
X158404700Y-72880200D01*
X122854800Y-74150100D02*
X115910200Y-74150100D01*
X110659800Y-91802800D02*
X110659800Y-92036000D01*
X102255000Y-93980000D02*
X102255000Y-95105100D01*
X102536400Y-95105100D02*
X103380100Y-95948800D01*
X104505300Y-74155200D02*
X103370100Y-73020000D01*
X130432300Y-87024200D02*
X127445800Y-90010700D01*
X160655000Y-71755000D02*
X159529900Y-71755000D01*
X102255000Y-95105100D02*
X102536400Y-95105100D01*
X131250400Y-73058000D02*
X130472800Y-73835600D01*
X172720000Y-71755000D02*
X171594900Y-71755000D01*
X144770000Y-74300000D02*
X143528000Y-73058000D01*
X127445800Y-90010700D02*
X112451900Y-90010700D01*
X102255000Y-114295000D02*
X103380100Y-114295000D01*
X109534700Y-114896000D02*
X108409600Y-114896000D01*
X102245000Y-73020000D02*
X103370100Y-73020000D01*
X130472800Y-73835600D02*
X130472800Y-75003200D01*
X144770000Y-74300000D02*
X146189800Y-72880200D01*
X109534700Y-92036000D02*
X110659800Y-92036000D01*
X143528000Y-73058000D02*
X131250400Y-73058000D01*
X103380100Y-114295000D02*
X103981100Y-114896000D01*
X171594900Y-71755000D02*
X170469700Y-72880200D01*
X112451900Y-90010700D02*
X110659800Y-91802800D01*
X162905300Y-72880200D02*
X161780100Y-71755000D01*
X125105000Y-73025000D02*
X123979900Y-73025000D01*
X158404700Y-72880200D02*
X159529900Y-71755000D01*
X125105000Y-73025000D02*
X126230100Y-73025000D01*
X103380100Y-97311400D02*
X108409600Y-102340900D01*
X160655000Y-71755000D02*
X161780100Y-71755000D01*
X170469700Y-72880200D02*
X162905300Y-72880200D01*
X113665000Y-73030000D02*
X114790100Y-73030000D01*
X111414700Y-74155200D02*
X104505300Y-74155200D01*
X112539900Y-73030000D02*
X111414700Y-74155200D01*
X108409600Y-102340900D02*
X109534700Y-102340900D01*
X130472800Y-73835600D02*
X127040700Y-73835600D01*
X109534700Y-103466000D02*
X109534700Y-102340900D01*
X113665000Y-73030000D02*
X112539900Y-73030000D01*
X103981100Y-114896000D02*
X108409600Y-114896000D01*
X127040700Y-73835600D02*
X126230100Y-73025000D01*
X115910200Y-74150100D02*
X114790100Y-73030000D01*
X103380100Y-95948800D02*
X103380100Y-97311400D01*
X123979900Y-73025000D02*
X122854800Y-74150100D01*
G04 #@! TO.N,GND*
X163830000Y-118685000D02*
X170048200Y-118685000D01*
X94635000Y-109220000D02*
X94635000Y-110345100D01*
X151115000Y-78105000D02*
X147310000Y-74300000D01*
X133555900Y-97113100D02*
X136147300Y-94521700D01*
X182880000Y-82550000D02*
X190500000Y-74930000D01*
X132916300Y-114260600D02*
X129741700Y-111086000D01*
X97174900Y-107805200D02*
X95760100Y-109220000D01*
X190500000Y-74930000D02*
X190500000Y-71120000D01*
X144780000Y-107275000D02*
X154305000Y-107275000D01*
X93043100Y-128972400D02*
X92007600Y-128972400D01*
X106045000Y-88270000D02*
X107170100Y-88270000D01*
X108299500Y-89399400D02*
X115225500Y-89399400D01*
X107170100Y-88270000D02*
X108299500Y-89399400D01*
X163830000Y-118685000D02*
X154305000Y-118685000D01*
X181545000Y-120040000D02*
X181545000Y-128820000D01*
X115225500Y-89399400D02*
X116359900Y-88265000D01*
X101744700Y-92824000D02*
X101097100Y-93471600D01*
X180210000Y-130155000D02*
X173355000Y-130155000D01*
X101097100Y-93471600D02*
X101097100Y-107805200D01*
X127314700Y-99656000D02*
X128439800Y-99656000D01*
X154385000Y-130145000D02*
X144780000Y-130145000D01*
X129741700Y-111086000D02*
X127314700Y-111086000D01*
X95750100Y-88260000D02*
X97346300Y-89856200D01*
X181545000Y-128820000D02*
X182880000Y-130155000D01*
X181545000Y-128820000D02*
X180210000Y-130155000D01*
X177800000Y-85050000D02*
X174440100Y-85050000D01*
X135395000Y-118685000D02*
X135365000Y-118715000D01*
X130982700Y-97113100D02*
X133555900Y-97113100D01*
X102771500Y-107805200D02*
X101097100Y-107805200D01*
X105903200Y-93220500D02*
X105506700Y-92824000D01*
X94635000Y-129535000D02*
X94635000Y-128972400D01*
X172720000Y-84455000D02*
X173845100Y-84455000D01*
X180380000Y-85050000D02*
X182880000Y-82550000D01*
X154415000Y-130175000D02*
X154385000Y-130145000D01*
X94635000Y-110345100D02*
X93043100Y-111937000D01*
X95187600Y-88260000D02*
X88900000Y-81972400D01*
X101097100Y-107805200D02*
X97174900Y-107805200D01*
X173355000Y-107275000D02*
X170048200Y-107275000D01*
X94635000Y-109220000D02*
X95760100Y-109220000D01*
X158655100Y-95885000D02*
X160029800Y-94510300D01*
X97346300Y-89856200D02*
X104458800Y-89856200D01*
X88900000Y-81972400D02*
X88900000Y-71120000D01*
X132916300Y-116206300D02*
X132916300Y-114260600D01*
X93043100Y-111937000D02*
X93043100Y-128972400D01*
X136147300Y-93334200D02*
X136147300Y-94521700D01*
X94625000Y-88260000D02*
X95187600Y-88260000D01*
X105903200Y-104673500D02*
X102771500Y-107805200D01*
X172720000Y-99060000D02*
X175895000Y-99060000D01*
X167640000Y-95885000D02*
X166464900Y-95885000D01*
X135395000Y-118685000D02*
X132916300Y-116206300D01*
X163830000Y-130155000D02*
X154435000Y-130155000D01*
X95187600Y-88260000D02*
X95750100Y-88260000D01*
X160655000Y-81915000D02*
X159529900Y-81915000D01*
X166464900Y-94979000D02*
X166464900Y-95885000D01*
X154305000Y-118685000D02*
X144780000Y-118685000D01*
X94635000Y-128972400D02*
X93043100Y-128972400D01*
X182880000Y-118705000D02*
X181545000Y-120040000D01*
X173355000Y-130155000D02*
X163830000Y-130155000D01*
X154305000Y-107275000D02*
X163830000Y-107275000D01*
X170048200Y-118685000D02*
X173355000Y-118685000D01*
X177800000Y-85050000D02*
X180380000Y-85050000D01*
X136147300Y-94521700D02*
X140916700Y-94521700D01*
X104458800Y-89856200D02*
X106045000Y-88270000D01*
X160029800Y-94510300D02*
X165996200Y-94510300D01*
X92007600Y-128972400D02*
X88900000Y-132080000D01*
X117485000Y-88265000D02*
X116359900Y-88265000D01*
X159529900Y-81915000D02*
X155719900Y-78105000D01*
X144780000Y-118685000D02*
X135395000Y-118685000D01*
X140916700Y-94521700D02*
X142280000Y-95885000D01*
X154435000Y-130155000D02*
X154415000Y-130175000D01*
X170048200Y-107275000D02*
X170048200Y-118685000D01*
X105506700Y-92824000D02*
X101744700Y-92824000D01*
X165996200Y-94510300D02*
X166464900Y-94979000D01*
X170048200Y-107275000D02*
X163830000Y-107275000D01*
X155719900Y-78105000D02*
X151115000Y-78105000D01*
X157480000Y-95885000D02*
X158655100Y-95885000D01*
X182880000Y-130155000D02*
X188575000Y-130155000D01*
X128439800Y-99656000D02*
X130982700Y-97113100D01*
X188575000Y-130155000D02*
X190500000Y-132080000D01*
X174440100Y-85050000D02*
X173845100Y-84455000D01*
G04 #@! TO.N,Net-(D5-A)*
X144780000Y-127645000D02*
X144780000Y-128820100D01*
X140335000Y-132359000D02*
X143873900Y-128820100D01*
X143873900Y-128820100D02*
X144780000Y-128820100D01*
X140335000Y-132715000D02*
X140335000Y-132359000D01*
G04 #@! TO.N,Net-(C5-Pad1)*
X136187800Y-76313200D02*
X135347900Y-76313200D01*
X133012800Y-75003200D02*
X131987700Y-75003200D01*
X135347900Y-76313200D02*
X134037900Y-75003200D01*
X126345900Y-80645000D02*
X131987700Y-75003200D01*
X125105000Y-80645000D02*
X126345900Y-80645000D01*
X133012800Y-75003200D02*
X134037900Y-75003200D01*
G04 #@! TO.N,Net-(C7-Pad1)*
X133110900Y-99935200D02*
X134136000Y-99935200D01*
X135446000Y-101245200D02*
X134136000Y-99935200D01*
X136505900Y-101245200D02*
X135446000Y-101245200D01*
G04 #@! TO.N,Net-(U2-(PHI)I)*
X163050100Y-83185000D02*
X161780100Y-84455000D01*
X177165000Y-83185000D02*
X163050100Y-83185000D01*
X160655000Y-84455000D02*
X161780100Y-84455000D01*
X177800000Y-80190100D02*
X176090000Y-78480100D01*
X177800000Y-82550000D02*
X177165000Y-83185000D01*
X177800000Y-82550000D02*
X177800000Y-80190100D01*
G04 #@! TO.N,Net-(C3-Pad1)*
X126230100Y-85725000D02*
X126457900Y-85497200D01*
X179705000Y-99020000D02*
X181814900Y-99020000D01*
X125105000Y-85725000D02*
X126230100Y-85725000D01*
X173845200Y-93160200D02*
X179705000Y-99020000D01*
X142223400Y-85497200D02*
X144991200Y-88265000D01*
X173845200Y-89024300D02*
X173845200Y-93160200D01*
X173085900Y-88265000D02*
X173845200Y-89024300D01*
X181814900Y-99020000D02*
X181854900Y-99060000D01*
X182880000Y-99060000D02*
X181854900Y-99060000D01*
X126457900Y-85497200D02*
X142223400Y-85497200D01*
X144991200Y-88265000D02*
X173085900Y-88265000D01*
G04 #@! TO.N,Net-(U7-Q0)*
X174681100Y-116486000D02*
X178435000Y-120239900D01*
X174681100Y-106426200D02*
X174681100Y-116486000D01*
X178435000Y-121265000D02*
X178435000Y-120239900D01*
X128696500Y-103722700D02*
X138575300Y-103722700D01*
X127314700Y-103466000D02*
X128439800Y-103466000D01*
X140939700Y-106087100D02*
X174342000Y-106087100D01*
X128439800Y-103466000D02*
X128696500Y-103722700D01*
X138575300Y-103722700D02*
X140939700Y-106087100D01*
X174342000Y-106087100D02*
X174681100Y-106426200D01*
G04 #@! TO.N,Net-(U8-Q0)*
X168290300Y-97898100D02*
X178435000Y-108042800D01*
X150874500Y-97898100D02*
X168290300Y-97898100D01*
X178435000Y-108042800D02*
X178435000Y-109815000D01*
X127314700Y-92036000D02*
X128439800Y-92036000D01*
X128439800Y-92036000D02*
X128721300Y-91754500D01*
X144730900Y-91754500D02*
X150874500Y-97898100D01*
X128721300Y-91754500D02*
X144730900Y-91754500D01*
G04 #@! TO.N,Net-(U7-Q1)*
X126747300Y-109957200D02*
X134336000Y-109957200D01*
X125899800Y-111086000D02*
X125899800Y-110804700D01*
X166879800Y-114670100D02*
X167884900Y-113665000D01*
X125899800Y-110804700D02*
X126747300Y-109957200D01*
X134336000Y-109957200D02*
X139048900Y-114670100D01*
X139048900Y-114670100D02*
X166879800Y-114670100D01*
X168910000Y-113665000D02*
X167884900Y-113665000D01*
X124774700Y-111086000D02*
X125899800Y-111086000D01*
G04 #@! TO.N,Net-(U8-Q1)*
X129878900Y-98900300D02*
X164590200Y-98900300D01*
X126786100Y-100823600D02*
X127955600Y-100823600D01*
X164590200Y-98900300D02*
X167884900Y-102195000D01*
X168910000Y-102195000D02*
X167884900Y-102195000D01*
X125899800Y-99656000D02*
X125899800Y-99937300D01*
X125899800Y-99937300D02*
X126786100Y-100823600D01*
X127955600Y-100823600D02*
X129878900Y-98900300D01*
X124774700Y-99656000D02*
X125899800Y-99656000D01*
G04 #@! TO.N,/Interface/SWITCH_PAUSE_NOT*
X156155100Y-95370900D02*
X157466000Y-94060000D01*
X154980000Y-95885000D02*
X156155100Y-95885000D01*
X157466000Y-94060000D02*
X172720000Y-94060000D01*
X156155100Y-95885000D02*
X156155100Y-95370900D01*
X108585000Y-130135000D02*
X116701800Y-130135000D01*
X116701800Y-130135000D02*
X116725200Y-130111600D01*
G04 #@! TO.N,/Clock_Binary/CARRY_SEC*
X103639900Y-81910000D02*
X101866900Y-81910000D01*
X101866900Y-81910000D02*
X95750100Y-75793200D01*
X106045000Y-83190000D02*
X104919900Y-83190000D01*
X95750100Y-75793200D02*
X95750100Y-75560000D01*
X94625000Y-75560000D02*
X95750100Y-75560000D01*
X104919900Y-83190000D02*
X103639900Y-81910000D01*
G04 #@! TO.N,Net-(U2-~{(PHI)O})*
X163869600Y-80645000D02*
X161403500Y-83111100D01*
X159528900Y-83977400D02*
X159528900Y-84977000D01*
X159528900Y-84977000D02*
X160421800Y-85869900D01*
X160421800Y-85869900D02*
X160655000Y-85869900D01*
X174218000Y-78105000D02*
X169699200Y-78105000D01*
X161403500Y-83111100D02*
X160395200Y-83111100D01*
X167159200Y-80645000D02*
X163869600Y-80645000D01*
X175512800Y-76810200D02*
X174218000Y-78105000D01*
X160395200Y-83111100D02*
X159528900Y-83977400D01*
X183124800Y-76810200D02*
X175512800Y-76810200D01*
X160655000Y-86995000D02*
X160655000Y-85869900D01*
X169699200Y-78105000D02*
X167159200Y-80645000D01*
X184150000Y-75785000D02*
X183124800Y-76810200D01*
G04 #@! TO.N,Net-(U7-Q2)*
X120560800Y-108599500D02*
X153314400Y-108599500D01*
X159385000Y-113645000D02*
X158359900Y-113645000D01*
X122234700Y-111086000D02*
X121104600Y-112216100D01*
X153314400Y-108599500D02*
X158359900Y-113645000D01*
X119223600Y-112216100D02*
X118513300Y-111505800D01*
X118513300Y-111505800D02*
X118513300Y-110647000D01*
X121104600Y-112216100D02*
X119223600Y-112216100D01*
X118513300Y-110647000D02*
X120560800Y-108599500D01*
G04 #@! TO.N,Net-(U8-Q2)*
X123359800Y-99656000D02*
X123359800Y-99937300D01*
X128472000Y-101440600D02*
X129405800Y-102374400D01*
X159385000Y-102195000D02*
X158359900Y-102195000D01*
X124863100Y-101440600D02*
X128472000Y-101440600D01*
X122234700Y-99656000D02*
X123359800Y-99656000D01*
X137053600Y-102374400D02*
X138321900Y-101106100D01*
X157271000Y-101106100D02*
X158359900Y-102195000D01*
X123359800Y-99937300D02*
X124863100Y-101440600D01*
X138321900Y-101106100D02*
X157271000Y-101106100D01*
X129405800Y-102374400D02*
X137053600Y-102374400D01*
G04 #@! TO.N,Net-(U7-Q3)*
X120819800Y-110804700D02*
X122574800Y-109049700D01*
X122574800Y-109049700D02*
X137970800Y-109049700D01*
X119694700Y-111086000D02*
X120819800Y-111086000D01*
X142566100Y-113645000D02*
X149860000Y-113645000D01*
X120819800Y-111086000D02*
X120819800Y-110804700D01*
X137970800Y-109049700D02*
X142566100Y-113645000D01*
G04 #@! TO.N,Net-(U8-Q3)*
X149860000Y-102195000D02*
X148834900Y-102195000D01*
X129401600Y-103244000D02*
X128114200Y-101956600D01*
X106232900Y-108424400D02*
X110804700Y-103852600D01*
X110804700Y-103852600D02*
X110804700Y-103124200D01*
X122640400Y-101506500D02*
X121145800Y-101506500D01*
X148834900Y-102195000D02*
X147785900Y-103244000D01*
X110804700Y-103124200D02*
X113344700Y-100584200D01*
X113344700Y-100584200D02*
X113344700Y-99324500D01*
X102255000Y-109220000D02*
X103380100Y-109220000D01*
X119694700Y-99656000D02*
X119295300Y-99656000D01*
X118569600Y-99422900D02*
X118569600Y-99656000D01*
X104175700Y-108424400D02*
X106232900Y-108424400D01*
X103380100Y-109220000D02*
X104175700Y-108424400D01*
X128114200Y-101956600D02*
X123090500Y-101956600D01*
X114168800Y-98500400D02*
X117647100Y-98500400D01*
X147785900Y-103244000D02*
X129401600Y-103244000D01*
X113344700Y-99324500D02*
X114168800Y-98500400D01*
X119295300Y-99656000D02*
X118569600Y-99656000D01*
X123090500Y-101956600D02*
X122640400Y-101506500D01*
X117647100Y-98500400D02*
X118569600Y-99422900D01*
X121145800Y-101506500D02*
X119295300Y-99656000D01*
G04 #@! TO.N,Net-(U7-Q4)*
X140335000Y-113645000D02*
X139309900Y-113645000D01*
X115739800Y-111367300D02*
X117038700Y-112666200D01*
X114614700Y-111086000D02*
X115739800Y-111086000D01*
X117038700Y-112666200D02*
X122271600Y-112666200D01*
X124753900Y-109507000D02*
X135171900Y-109507000D01*
X115739800Y-111086000D02*
X115739800Y-111367300D01*
X122271600Y-112666200D02*
X123504700Y-111433100D01*
X135171900Y-109507000D02*
X139309900Y-113645000D01*
X123504700Y-110756200D02*
X124753900Y-109507000D01*
X123504700Y-111433100D02*
X123504700Y-110756200D01*
G04 #@! TO.N,Net-(U8-Q4)*
X124431600Y-104794900D02*
X137559900Y-104794900D01*
X115739800Y-99937300D02*
X118121400Y-102318900D01*
X123504700Y-103868000D02*
X124431600Y-104794900D01*
X115739800Y-99656000D02*
X115739800Y-99937300D01*
X122678900Y-102318900D02*
X123504700Y-103144700D01*
X123504700Y-103144700D02*
X123504700Y-103868000D01*
X114614700Y-99656000D02*
X115739800Y-99656000D01*
X118121400Y-102318900D02*
X122678900Y-102318900D01*
G04 #@! TO.N,Net-(U7-Q5)*
X113199800Y-111086000D02*
X113199800Y-111367300D01*
X112074700Y-111086000D02*
X113199800Y-111086000D01*
X115477500Y-113645000D02*
X130810000Y-113645000D01*
X113199800Y-111367300D02*
X115477500Y-113645000D01*
G04 #@! TO.N,Net-(C6-Pad1)*
X117766400Y-79230100D02*
X118610100Y-80073800D01*
X135307400Y-88334200D02*
X133997400Y-87024200D01*
X118610100Y-80073800D02*
X118610100Y-80825800D01*
X127405500Y-86857600D02*
X128313100Y-85950000D01*
X117485000Y-78105000D02*
X117485000Y-79230100D01*
X130873000Y-85950000D02*
X131947200Y-87024200D01*
X132972300Y-87024200D02*
X131947200Y-87024200D01*
X117485000Y-79230100D02*
X117766400Y-79230100D01*
X118610100Y-80825800D02*
X124641900Y-86857600D01*
X136147300Y-88334200D02*
X135307400Y-88334200D01*
X124641900Y-86857600D02*
X127405500Y-86857600D01*
X128313100Y-85950000D02*
X130873000Y-85950000D01*
X132972300Y-87024200D02*
X133997400Y-87024200D01*
G04 #@! TO.N,Net-(R3-Pad2)*
X182880000Y-91440000D02*
X185420000Y-91440000D01*
G04 #@! TO.N,Net-(R6-Pad2)*
X130472800Y-82623200D02*
X133012800Y-82623200D01*
G04 #@! TO.N,Net-(R8-Pad2)*
X135411800Y-92204700D02*
X140830600Y-92204700D01*
X140830600Y-92204700D02*
X143604900Y-94979000D01*
X144780000Y-95885000D02*
X143604900Y-95885000D01*
X143604900Y-94979000D02*
X143604900Y-95885000D01*
X132972300Y-94644200D02*
X135411800Y-92204700D01*
X130432300Y-94644200D02*
X132972300Y-94644200D01*
G04 #@! TO.N,Net-(U5-Q0)*
X172209400Y-119894500D02*
X177409900Y-125095000D01*
X133438300Y-119894500D02*
X172209400Y-119894500D01*
X128439800Y-114896000D02*
X133438300Y-119894500D01*
X178435000Y-125095000D02*
X177409900Y-125095000D01*
X127314700Y-114896000D02*
X128439800Y-114896000D01*
G04 #@! TO.N,Net-(U5-Q1)*
X124774700Y-122516000D02*
X125899800Y-122516000D01*
X125899800Y-122234700D02*
X126787000Y-121347500D01*
X165492200Y-122702300D02*
X167884900Y-125095000D01*
X126787000Y-121347500D02*
X129069600Y-121347500D01*
X130424400Y-122702300D02*
X165492200Y-122702300D01*
X129069600Y-121347500D02*
X130424400Y-122702300D01*
X125899800Y-122516000D02*
X125899800Y-122234700D01*
X168910000Y-125095000D02*
X167884900Y-125095000D01*
G04 #@! TO.N,Net-(U5-Q2)*
X96909800Y-115685300D02*
X102733200Y-115685300D01*
X104557700Y-117509800D02*
X117087300Y-117509800D01*
X102733200Y-115685300D02*
X104557700Y-117509800D01*
X128810800Y-123682500D02*
X123260000Y-123682500D01*
X158359900Y-125095000D02*
X156417300Y-123152400D01*
X117087300Y-117509800D02*
X122093500Y-122516000D01*
X123260000Y-123682500D02*
X122093500Y-122516000D01*
X159385000Y-125095000D02*
X158359900Y-125095000D01*
X94635000Y-116835000D02*
X95760100Y-116835000D01*
X129340900Y-123152400D02*
X128810800Y-123682500D01*
X95760100Y-116835000D02*
X96909800Y-115685300D01*
X156417300Y-123152400D02*
X129340900Y-123152400D01*
X122234700Y-122516000D02*
X122093500Y-122516000D01*
G04 #@! TO.N,Net-(U5-Q3)*
X118569600Y-122282900D02*
X118569600Y-122516000D01*
X119694700Y-122516000D02*
X120819800Y-122516000D01*
X114528900Y-118242200D02*
X118569600Y-122282900D01*
X128990400Y-124139600D02*
X129527500Y-123602500D01*
X96892900Y-118242200D02*
X114528900Y-118242200D01*
X95760100Y-119375000D02*
X96892900Y-118242200D01*
X120819800Y-122516000D02*
X120819800Y-122797300D01*
X147342400Y-123602500D02*
X148834900Y-125095000D01*
X119694700Y-122516000D02*
X118569600Y-122516000D01*
X94635000Y-119375000D02*
X95760100Y-119375000D01*
X129527500Y-123602500D02*
X147342400Y-123602500D01*
X120819800Y-122797300D02*
X122162100Y-124139600D01*
X122162100Y-124139600D02*
X128990400Y-124139600D01*
X149860000Y-125095000D02*
X148834900Y-125095000D01*
G04 #@! TO.N,Net-(U5-Q4)*
X114052200Y-122516000D02*
X116125900Y-124589700D01*
X116125900Y-124589700D02*
X129507200Y-124589700D01*
X111247700Y-120041000D02*
X113489600Y-122282900D01*
X114614700Y-122516000D02*
X114052200Y-122516000D01*
X104702400Y-120041000D02*
X111247700Y-120041000D01*
X140335000Y-125095000D02*
X139309900Y-125095000D01*
X138267600Y-124052700D02*
X139309900Y-125095000D01*
X103953500Y-120789900D02*
X104702400Y-120041000D01*
X113489600Y-122282900D02*
X113489600Y-122516000D01*
X114052200Y-122516000D02*
X113489600Y-122516000D01*
X130044200Y-124052700D02*
X138267600Y-124052700D01*
X96885200Y-120789900D02*
X103953500Y-120789900D01*
X129507200Y-124589700D02*
X130044200Y-124052700D01*
X95760100Y-121915000D02*
X96885200Y-120789900D01*
X94635000Y-121915000D02*
X95760100Y-121915000D01*
G04 #@! TO.N,Net-(U5-Q5)*
X106403200Y-123641200D02*
X110537700Y-123641200D01*
X112815300Y-125095000D02*
X129784900Y-125095000D01*
X130810000Y-125095000D02*
X129784900Y-125095000D01*
X106061000Y-123299000D02*
X106403200Y-123641200D01*
X96916100Y-123299000D02*
X106061000Y-123299000D01*
X94635000Y-124455000D02*
X95760100Y-124455000D01*
X110537700Y-123641200D02*
X110949600Y-123229300D01*
X110949600Y-123229300D02*
X112815300Y-125095000D01*
X110949600Y-123229300D02*
X110949600Y-122516000D01*
X112074700Y-122516000D02*
X110949600Y-122516000D01*
X95760100Y-124455000D02*
X96916100Y-123299000D01*
G04 #@! TO.N,/Clock_1hz/CLK_1Hz*
X106913800Y-92092400D02*
X107991000Y-93169600D01*
X113344700Y-92367200D02*
X113344700Y-91638900D01*
X112542300Y-93169600D02*
X113344700Y-92367200D01*
X95760100Y-96520000D02*
X100187700Y-92092400D01*
X113344700Y-91638900D02*
X114083000Y-90900600D01*
X107991000Y-93169600D02*
X112542300Y-93169600D01*
X100187700Y-92092400D02*
X106913800Y-92092400D01*
X170229300Y-90900600D02*
X171594900Y-89535000D01*
X94635000Y-96520000D02*
X95760100Y-96520000D01*
X172720000Y-89535000D02*
X171594900Y-89535000D01*
X114083000Y-90900600D02*
X170229300Y-90900600D01*
G04 #@! TO.N,/Interface/BUTTON_SEC*
X107170100Y-75570000D02*
X107170100Y-75851300D01*
X113233800Y-81915000D02*
X117863000Y-81915000D01*
X125105000Y-88265000D02*
X123979900Y-88265000D01*
X117863000Y-81915000D02*
X123979900Y-88031900D01*
X106045000Y-75570000D02*
X107170100Y-75570000D01*
X123979900Y-88031900D02*
X123979900Y-88265000D01*
X107170100Y-75851300D02*
X113233800Y-81915000D01*
G04 #@! TO.N,/Interface/BUTTON_HOUR*
X113665000Y-85730000D02*
X114790100Y-85730000D01*
X126127900Y-89390200D02*
X128223300Y-87294800D01*
X115915200Y-86855100D02*
X118470300Y-86855100D01*
X121005400Y-89390200D02*
X126127900Y-89390200D01*
X118470300Y-86855100D02*
X121005400Y-89390200D01*
X114790100Y-85730000D02*
X115915200Y-86855100D01*
G04 #@! TO.N,/Clock_Binary/CLOCK_SEC*
X106326300Y-79235100D02*
X111248800Y-84157600D01*
X111248800Y-84157600D02*
X111248800Y-84968500D01*
X106045000Y-78110000D02*
X106045000Y-79235100D01*
X106045000Y-79235100D02*
X106326300Y-79235100D01*
G04 #@! TO.N,/Clock_Binary/RESET_SEC*
X121109600Y-115129100D02*
X121109600Y-114896000D01*
X120069000Y-116169700D02*
X121109600Y-115129100D01*
X122234700Y-114896000D02*
X121109600Y-114896000D01*
X105903200Y-116169700D02*
X120069000Y-116169700D01*
G04 #@! TO.N,/Clock_Binary/CARRY_MIN*
X113665000Y-88270000D02*
X112539900Y-88270000D01*
X111367400Y-87097500D02*
X105600800Y-87097500D01*
X112539900Y-88270000D02*
X111367400Y-87097500D01*
X99436100Y-89406000D02*
X95750100Y-85720000D01*
X105600800Y-87097500D02*
X103292300Y-89406000D01*
X103292300Y-89406000D02*
X99436100Y-89406000D01*
X94625000Y-85720000D02*
X95750100Y-85720000D01*
G04 #@! TO.N,/Clock_Binary/RESET_HOUR*
X122234700Y-92036000D02*
X121109600Y-92036000D01*
X115344700Y-98034000D02*
X106089700Y-98034000D01*
X121109600Y-92269100D02*
X115344700Y-98034000D01*
X121109600Y-92036000D02*
X121109600Y-92269100D01*
X106089700Y-98034000D02*
X105903200Y-98220500D01*
G04 #@! TO.N,Net-(U11-Pad1)*
X93499900Y-81211100D02*
X93499900Y-74988800D01*
X94343700Y-82054900D02*
X93499900Y-81211100D01*
X94625000Y-83180000D02*
X94625000Y-82054900D01*
X94625000Y-73020000D02*
X94625000Y-74145100D01*
X102245000Y-88260000D02*
X101119900Y-88260000D01*
X96039900Y-83180000D02*
X94625000Y-83180000D01*
X94343600Y-74145100D02*
X94625000Y-74145100D01*
X93499900Y-74988800D02*
X94343600Y-74145100D01*
X94625000Y-82054900D02*
X94343700Y-82054900D01*
X101119900Y-88260000D02*
X96039900Y-83180000D01*
G04 #@! TO.N,/Clock_Binary/RESET_MIN*
X121109600Y-103699100D02*
X121109600Y-103466000D01*
X122234700Y-103466000D02*
X121109600Y-103466000D01*
X105903200Y-109673500D02*
X115135200Y-109673500D01*
X115135200Y-109673500D02*
X121109600Y-103699100D01*
G04 #@! TD*
M02*
