%TF.GenerationSoftware,KiCad,Pcbnew,7.0.1*%
%TF.CreationDate,2023-04-19T00:28:23-05:00*%
%TF.ProjectId,binary_clock,62696e61-7279-45f6-936c-6f636b2e6b69,rev?*%
%TF.SameCoordinates,Original*%
%TF.FileFunction,Drillmap*%
%TF.FilePolarity,Positive*%
%FSLAX45Y45*%
G04 Gerber Fmt 4.5, Leading zero omitted, Abs format (unit mm)*
G04 Created by KiCad (PCBNEW 7.0.1) date 2023-04-19 00:28:23*
%MOMM*%
%LPD*%
G01*
G04 APERTURE LIST*
%ADD10C,0.100000*%
%ADD11C,0.200000*%
%ADD12C,0.050000*%
%ADD13C,0.070000*%
%ADD14C,0.080000*%
%ADD15C,0.095000*%
%ADD16C,0.250000*%
G04 APERTURE END LIST*
D10*
X19058000Y-13716000D02*
G75*
G03*
X19558000Y-13216000I0J500000D01*
G01*
X19558000Y-7104000D02*
X19558000Y-13216000D01*
X8882000Y-6604000D02*
X19058000Y-6604000D01*
X8382000Y-13216000D02*
X8382000Y-7104000D01*
X8382000Y-13216000D02*
G75*
G03*
X8882000Y-13716000I500000J0D01*
G01*
X19058000Y-13716000D02*
X8882000Y-13716000D01*
X8882000Y-6604000D02*
G75*
G03*
X8382000Y-7104000I0J-500000D01*
G01*
X19558000Y-7104000D02*
G75*
G03*
X19058000Y-6604000I-500000J0D01*
G01*
D11*
D12*
X17584000Y-7823010D02*
X17634000Y-7873010D01*
X17634000Y-7823010D02*
X17584000Y-7873010D01*
X17584000Y-8013010D02*
X17634000Y-8063010D01*
X17634000Y-8013010D02*
X17584000Y-8063010D01*
D13*
X12989000Y-7556500D02*
G75*
G03*
X12989000Y-7556500I-35000J0D01*
G01*
X12989000Y-8318500D02*
G75*
G03*
X12989000Y-8318500I-35000J0D01*
G01*
X12989000Y-8763000D02*
G75*
G03*
X12989000Y-8763000I-35000J0D01*
G01*
X12989000Y-9525000D02*
G75*
G03*
X12989000Y-9525000I-35000J0D01*
G01*
X12989000Y-9973500D02*
G75*
G03*
X12989000Y-9973500I-35000J0D01*
G01*
X12989000Y-10735500D02*
G75*
G03*
X12989000Y-10735500I-35000J0D01*
G01*
X13052500Y-11364500D02*
G75*
G03*
X13052500Y-11364500I-35000J0D01*
G01*
X13052500Y-12126500D02*
G75*
G03*
X13052500Y-12126500I-35000J0D01*
G01*
X13052500Y-12509500D02*
G75*
G03*
X13052500Y-12509500I-35000J0D01*
G01*
X13052500Y-13271500D02*
G75*
G03*
X13052500Y-13271500I-35000J0D01*
G01*
X13221000Y-9973500D02*
G75*
G03*
X13221000Y-9973500I-35000J0D01*
G01*
X13221000Y-10735500D02*
G75*
G03*
X13221000Y-10735500I-35000J0D01*
G01*
X13243000Y-7556500D02*
G75*
G03*
X13243000Y-7556500I-35000J0D01*
G01*
X13243000Y-8318500D02*
G75*
G03*
X13243000Y-8318500I-35000J0D01*
G01*
X13243000Y-8763000D02*
G75*
G03*
X13243000Y-8763000I-35000J0D01*
G01*
X13243000Y-9525000D02*
G75*
G03*
X13243000Y-9525000I-35000J0D01*
G01*
X14005000Y-10219500D02*
G75*
G03*
X14005000Y-10219500I-35000J0D01*
G01*
X14005000Y-10981500D02*
G75*
G03*
X14005000Y-10981500I-35000J0D01*
G01*
X14005000Y-11364500D02*
G75*
G03*
X14005000Y-11364500I-35000J0D01*
G01*
X14005000Y-12126500D02*
G75*
G03*
X14005000Y-12126500I-35000J0D01*
G01*
X14005000Y-12509500D02*
G75*
G03*
X14005000Y-12509500I-35000J0D01*
G01*
X14005000Y-13271500D02*
G75*
G03*
X14005000Y-13271500I-35000J0D01*
G01*
X14957500Y-10219500D02*
G75*
G03*
X14957500Y-10219500I-35000J0D01*
G01*
X14957500Y-10981500D02*
G75*
G03*
X14957500Y-10981500I-35000J0D01*
G01*
X14957500Y-11364500D02*
G75*
G03*
X14957500Y-11364500I-35000J0D01*
G01*
X14957500Y-12126500D02*
G75*
G03*
X14957500Y-12126500I-35000J0D01*
G01*
X14957500Y-12509500D02*
G75*
G03*
X14957500Y-12509500I-35000J0D01*
G01*
X14957500Y-13271500D02*
G75*
G03*
X14957500Y-13271500I-35000J0D01*
G01*
X15910000Y-10219500D02*
G75*
G03*
X15910000Y-10219500I-35000J0D01*
G01*
X15910000Y-10981500D02*
G75*
G03*
X15910000Y-10981500I-35000J0D01*
G01*
X15910000Y-11364500D02*
G75*
G03*
X15910000Y-11364500I-35000J0D01*
G01*
X15910000Y-12126500D02*
G75*
G03*
X15910000Y-12126500I-35000J0D01*
G01*
X15910000Y-12509500D02*
G75*
G03*
X15910000Y-12509500I-35000J0D01*
G01*
X15910000Y-13271500D02*
G75*
G03*
X15910000Y-13271500I-35000J0D01*
G01*
X16862500Y-10219500D02*
G75*
G03*
X16862500Y-10219500I-35000J0D01*
G01*
X16862500Y-10981500D02*
G75*
G03*
X16862500Y-10981500I-35000J0D01*
G01*
X16862500Y-11366500D02*
G75*
G03*
X16862500Y-11366500I-35000J0D01*
G01*
X16862500Y-12128500D02*
G75*
G03*
X16862500Y-12128500I-35000J0D01*
G01*
X16862500Y-12509500D02*
G75*
G03*
X16862500Y-12509500I-35000J0D01*
G01*
X16862500Y-13271500D02*
G75*
G03*
X16862500Y-13271500I-35000J0D01*
G01*
X17624500Y-9144000D02*
G75*
G03*
X17624500Y-9144000I-35000J0D01*
G01*
X17624500Y-9906000D02*
G75*
G03*
X17624500Y-9906000I-35000J0D01*
G01*
X17688000Y-7197500D02*
G75*
G03*
X17688000Y-7197500I-35000J0D01*
G01*
X17688000Y-7578500D02*
G75*
G03*
X17688000Y-7578500I-35000J0D01*
G01*
X17815000Y-10219500D02*
G75*
G03*
X17815000Y-10219500I-35000J0D01*
G01*
X17815000Y-10981500D02*
G75*
G03*
X17815000Y-10981500I-35000J0D01*
G01*
X17815000Y-11364500D02*
G75*
G03*
X17815000Y-11364500I-35000J0D01*
G01*
X17815000Y-12126500D02*
G75*
G03*
X17815000Y-12126500I-35000J0D01*
G01*
X17815000Y-12509500D02*
G75*
G03*
X17815000Y-12509500I-35000J0D01*
G01*
X17815000Y-13271500D02*
G75*
G03*
X17815000Y-13271500I-35000J0D01*
G01*
X18323000Y-9144000D02*
G75*
G03*
X18323000Y-9144000I-35000J0D01*
G01*
X18323000Y-9906000D02*
G75*
G03*
X18323000Y-9906000I-35000J0D01*
G01*
X18450000Y-7197500D02*
G75*
G03*
X18450000Y-7197500I-35000J0D01*
G01*
X18450000Y-7578500D02*
G75*
G03*
X18450000Y-7578500I-35000J0D01*
G01*
X18577000Y-9144000D02*
G75*
G03*
X18577000Y-9144000I-35000J0D01*
G01*
X18577000Y-9906000D02*
G75*
G03*
X18577000Y-9906000I-35000J0D01*
G01*
D14*
X9462500Y-7262000D02*
X9462500Y-7342000D01*
X9422500Y-7302000D02*
X9502500Y-7302000D01*
X9462500Y-7516000D02*
X9462500Y-7596000D01*
X9422500Y-7556000D02*
X9502500Y-7556000D01*
X9462500Y-7770000D02*
X9462500Y-7850000D01*
X9422500Y-7810000D02*
X9502500Y-7810000D01*
X9462500Y-8024000D02*
X9462500Y-8104000D01*
X9422500Y-8064000D02*
X9502500Y-8064000D01*
X9462500Y-8278000D02*
X9462500Y-8358000D01*
X9422500Y-8318000D02*
X9502500Y-8318000D01*
X9462500Y-8532000D02*
X9462500Y-8612000D01*
X9422500Y-8572000D02*
X9502500Y-8572000D01*
X9462500Y-8786000D02*
X9462500Y-8866000D01*
X9422500Y-8826000D02*
X9502500Y-8826000D01*
X9463500Y-9358000D02*
X9463500Y-9438000D01*
X9423500Y-9398000D02*
X9503500Y-9398000D01*
X9463500Y-9612000D02*
X9463500Y-9692000D01*
X9423500Y-9652000D02*
X9503500Y-9652000D01*
X9463500Y-9866000D02*
X9463500Y-9946000D01*
X9423500Y-9906000D02*
X9503500Y-9906000D01*
X9463500Y-10120000D02*
X9463500Y-10200000D01*
X9423500Y-10160000D02*
X9503500Y-10160000D01*
X9463500Y-10374000D02*
X9463500Y-10454000D01*
X9423500Y-10414000D02*
X9503500Y-10414000D01*
X9463500Y-10628000D02*
X9463500Y-10708000D01*
X9423500Y-10668000D02*
X9503500Y-10668000D01*
X9463500Y-10882000D02*
X9463500Y-10962000D01*
X9423500Y-10922000D02*
X9503500Y-10922000D01*
X9463500Y-11389500D02*
X9463500Y-11469500D01*
X9423500Y-11429500D02*
X9503500Y-11429500D01*
X9463500Y-11643500D02*
X9463500Y-11723500D01*
X9423500Y-11683500D02*
X9503500Y-11683500D01*
X9463500Y-11897500D02*
X9463500Y-11977500D01*
X9423500Y-11937500D02*
X9503500Y-11937500D01*
X9463500Y-12151500D02*
X9463500Y-12231500D01*
X9423500Y-12191500D02*
X9503500Y-12191500D01*
X9463500Y-12405500D02*
X9463500Y-12485500D01*
X9423500Y-12445500D02*
X9503500Y-12445500D01*
X9463500Y-12659500D02*
X9463500Y-12739500D01*
X9423500Y-12699500D02*
X9503500Y-12699500D01*
X9463500Y-12913500D02*
X9463500Y-12993500D01*
X9423500Y-12953500D02*
X9503500Y-12953500D01*
X9579190Y-13277690D02*
X9579190Y-13357690D01*
X9539190Y-13317690D02*
X9619190Y-13317690D01*
X10079190Y-13277690D02*
X10079190Y-13357690D01*
X10039190Y-13317690D02*
X10119190Y-13317690D01*
X10224500Y-7262000D02*
X10224500Y-7342000D01*
X10184500Y-7302000D02*
X10264500Y-7302000D01*
X10224500Y-7516000D02*
X10224500Y-7596000D01*
X10184500Y-7556000D02*
X10264500Y-7556000D01*
X10224500Y-7770000D02*
X10224500Y-7850000D01*
X10184500Y-7810000D02*
X10264500Y-7810000D01*
X10224500Y-8024000D02*
X10224500Y-8104000D01*
X10184500Y-8064000D02*
X10264500Y-8064000D01*
X10224500Y-8278000D02*
X10224500Y-8358000D01*
X10184500Y-8318000D02*
X10264500Y-8318000D01*
X10224500Y-8532000D02*
X10224500Y-8612000D01*
X10184500Y-8572000D02*
X10264500Y-8572000D01*
X10224500Y-8786000D02*
X10224500Y-8866000D01*
X10184500Y-8826000D02*
X10264500Y-8826000D01*
X10225500Y-9358000D02*
X10225500Y-9438000D01*
X10185500Y-9398000D02*
X10265500Y-9398000D01*
X10225500Y-9612000D02*
X10225500Y-9692000D01*
X10185500Y-9652000D02*
X10265500Y-9652000D01*
X10225500Y-9866000D02*
X10225500Y-9946000D01*
X10185500Y-9906000D02*
X10265500Y-9906000D01*
X10225500Y-10120000D02*
X10225500Y-10200000D01*
X10185500Y-10160000D02*
X10265500Y-10160000D01*
X10225500Y-10374000D02*
X10225500Y-10454000D01*
X10185500Y-10414000D02*
X10265500Y-10414000D01*
X10225500Y-10628000D02*
X10225500Y-10708000D01*
X10185500Y-10668000D02*
X10265500Y-10668000D01*
X10225500Y-10882000D02*
X10225500Y-10962000D01*
X10185500Y-10922000D02*
X10265500Y-10922000D01*
X10225500Y-11389500D02*
X10225500Y-11469500D01*
X10185500Y-11429500D02*
X10265500Y-11429500D01*
X10225500Y-11643500D02*
X10225500Y-11723500D01*
X10185500Y-11683500D02*
X10265500Y-11683500D01*
X10225500Y-11897500D02*
X10225500Y-11977500D01*
X10185500Y-11937500D02*
X10265500Y-11937500D01*
X10225500Y-12151500D02*
X10225500Y-12231500D01*
X10185500Y-12191500D02*
X10265500Y-12191500D01*
X10225500Y-12405500D02*
X10225500Y-12485500D01*
X10185500Y-12445500D02*
X10265500Y-12445500D01*
X10225500Y-12659500D02*
X10225500Y-12739500D01*
X10185500Y-12699500D02*
X10265500Y-12699500D01*
X10225500Y-12913500D02*
X10225500Y-12993500D01*
X10185500Y-12953500D02*
X10265500Y-12953500D01*
X10604500Y-7263000D02*
X10604500Y-7343000D01*
X10564500Y-7303000D02*
X10644500Y-7303000D01*
X10604500Y-7517000D02*
X10604500Y-7597000D01*
X10564500Y-7557000D02*
X10644500Y-7557000D01*
X10604500Y-7771000D02*
X10604500Y-7851000D01*
X10564500Y-7811000D02*
X10644500Y-7811000D01*
X10604500Y-8025000D02*
X10604500Y-8105000D01*
X10564500Y-8065000D02*
X10644500Y-8065000D01*
X10604500Y-8279000D02*
X10604500Y-8359000D01*
X10564500Y-8319000D02*
X10644500Y-8319000D01*
X10604500Y-8533000D02*
X10604500Y-8613000D01*
X10564500Y-8573000D02*
X10644500Y-8573000D01*
X10604500Y-8787000D02*
X10604500Y-8867000D01*
X10564500Y-8827000D02*
X10644500Y-8827000D01*
X10730500Y-9166500D02*
X10730500Y-9246500D01*
X10690500Y-9206500D02*
X10770500Y-9206500D01*
X10730500Y-9928500D02*
X10730500Y-10008500D01*
X10690500Y-9968500D02*
X10770500Y-9968500D01*
X10730500Y-10309500D02*
X10730500Y-10389500D01*
X10690500Y-10349500D02*
X10770500Y-10349500D01*
X10730500Y-11071500D02*
X10730500Y-11151500D01*
X10690500Y-11111500D02*
X10770500Y-11111500D01*
X10730500Y-11452500D02*
X10730500Y-11532500D01*
X10690500Y-11492500D02*
X10770500Y-11492500D01*
X10730500Y-12214500D02*
X10730500Y-12294500D01*
X10690500Y-12254500D02*
X10770500Y-12254500D01*
X10984500Y-9166500D02*
X10984500Y-9246500D01*
X10944500Y-9206500D02*
X11024500Y-9206500D01*
X10984500Y-9928500D02*
X10984500Y-10008500D01*
X10944500Y-9968500D02*
X11024500Y-9968500D01*
X10984500Y-10309500D02*
X10984500Y-10389500D01*
X10944500Y-10349500D02*
X11024500Y-10349500D01*
X10984500Y-11071500D02*
X10984500Y-11151500D01*
X10944500Y-11111500D02*
X11024500Y-11111500D01*
X10984500Y-11452500D02*
X10984500Y-11532500D01*
X10944500Y-11492500D02*
X11024500Y-11492500D01*
X10984500Y-12214500D02*
X10984500Y-12294500D01*
X10944500Y-12254500D02*
X11024500Y-12254500D01*
X11238500Y-9166500D02*
X11238500Y-9246500D01*
X11198500Y-9206500D02*
X11278500Y-9206500D01*
X11238500Y-9928500D02*
X11238500Y-10008500D01*
X11198500Y-9968500D02*
X11278500Y-9968500D01*
X11238500Y-10309500D02*
X11238500Y-10389500D01*
X11198500Y-10349500D02*
X11278500Y-10349500D01*
X11238500Y-11071500D02*
X11238500Y-11151500D01*
X11198500Y-11111500D02*
X11278500Y-11111500D01*
X11238500Y-11452500D02*
X11238500Y-11532500D01*
X11198500Y-11492500D02*
X11278500Y-11492500D01*
X11238500Y-12214500D02*
X11238500Y-12294500D01*
X11198500Y-12254500D02*
X11278500Y-12254500D01*
X11366500Y-7263000D02*
X11366500Y-7343000D01*
X11326500Y-7303000D02*
X11406500Y-7303000D01*
X11366500Y-7517000D02*
X11366500Y-7597000D01*
X11326500Y-7557000D02*
X11406500Y-7557000D01*
X11366500Y-7771000D02*
X11366500Y-7851000D01*
X11326500Y-7811000D02*
X11406500Y-7811000D01*
X11366500Y-8025000D02*
X11366500Y-8105000D01*
X11326500Y-8065000D02*
X11406500Y-8065000D01*
X11366500Y-8279000D02*
X11366500Y-8359000D01*
X11326500Y-8319000D02*
X11406500Y-8319000D01*
X11366500Y-8533000D02*
X11366500Y-8613000D01*
X11326500Y-8573000D02*
X11406500Y-8573000D01*
X11366500Y-8787000D02*
X11366500Y-8867000D01*
X11326500Y-8827000D02*
X11406500Y-8827000D01*
X11492500Y-9166500D02*
X11492500Y-9246500D01*
X11452500Y-9206500D02*
X11532500Y-9206500D01*
X11492500Y-9928500D02*
X11492500Y-10008500D01*
X11452500Y-9968500D02*
X11532500Y-9968500D01*
X11492500Y-10309500D02*
X11492500Y-10389500D01*
X11452500Y-10349500D02*
X11532500Y-10349500D01*
X11492500Y-11071500D02*
X11492500Y-11151500D01*
X11452500Y-11111500D02*
X11532500Y-11111500D01*
X11492500Y-11452500D02*
X11492500Y-11532500D01*
X11452500Y-11492500D02*
X11532500Y-11492500D01*
X11492500Y-12214500D02*
X11492500Y-12294500D01*
X11452500Y-12254500D02*
X11532500Y-12254500D01*
X11746500Y-9166500D02*
X11746500Y-9246500D01*
X11706500Y-9206500D02*
X11786500Y-9206500D01*
X11746500Y-9928500D02*
X11746500Y-10008500D01*
X11706500Y-9968500D02*
X11786500Y-9968500D01*
X11746500Y-10309500D02*
X11746500Y-10389500D01*
X11706500Y-10349500D02*
X11786500Y-10349500D01*
X11746500Y-11071500D02*
X11746500Y-11151500D01*
X11706500Y-11111500D02*
X11786500Y-11111500D01*
X11746500Y-11452500D02*
X11746500Y-11532500D01*
X11706500Y-11492500D02*
X11786500Y-11492500D01*
X11746500Y-12214500D02*
X11746500Y-12294500D01*
X11706500Y-12254500D02*
X11786500Y-12254500D01*
X11748500Y-7262500D02*
X11748500Y-7342500D01*
X11708500Y-7302500D02*
X11788500Y-7302500D01*
X11748500Y-7516500D02*
X11748500Y-7596500D01*
X11708500Y-7556500D02*
X11788500Y-7556500D01*
X11748500Y-7770500D02*
X11748500Y-7850500D01*
X11708500Y-7810500D02*
X11788500Y-7810500D01*
X11748500Y-8024500D02*
X11748500Y-8104500D01*
X11708500Y-8064500D02*
X11788500Y-8064500D01*
X11748500Y-8278500D02*
X11748500Y-8358500D01*
X11708500Y-8318500D02*
X11788500Y-8318500D01*
X11748500Y-8532500D02*
X11748500Y-8612500D01*
X11708500Y-8572500D02*
X11788500Y-8572500D01*
X11748500Y-8786500D02*
X11748500Y-8866500D01*
X11708500Y-8826500D02*
X11788500Y-8826500D01*
X12000500Y-9166500D02*
X12000500Y-9246500D01*
X11960500Y-9206500D02*
X12040500Y-9206500D01*
X12000500Y-9928500D02*
X12000500Y-10008500D01*
X11960500Y-9968500D02*
X12040500Y-9968500D01*
X12000500Y-10309500D02*
X12000500Y-10389500D01*
X11960500Y-10349500D02*
X12040500Y-10349500D01*
X12000500Y-11071500D02*
X12000500Y-11151500D01*
X11960500Y-11111500D02*
X12040500Y-11111500D01*
X12000500Y-11452500D02*
X12000500Y-11532500D01*
X11960500Y-11492500D02*
X12040500Y-11492500D01*
X12000500Y-12214500D02*
X12000500Y-12294500D01*
X11960500Y-12254500D02*
X12040500Y-12254500D01*
X12254500Y-9166500D02*
X12254500Y-9246500D01*
X12214500Y-9206500D02*
X12294500Y-9206500D01*
X12254500Y-9928500D02*
X12254500Y-10008500D01*
X12214500Y-9968500D02*
X12294500Y-9968500D01*
X12254500Y-10309500D02*
X12254500Y-10389500D01*
X12214500Y-10349500D02*
X12294500Y-10349500D01*
X12254500Y-11071500D02*
X12254500Y-11151500D01*
X12214500Y-11111500D02*
X12294500Y-11111500D01*
X12254500Y-11452500D02*
X12254500Y-11532500D01*
X12214500Y-11492500D02*
X12294500Y-11492500D01*
X12254500Y-12214500D02*
X12254500Y-12294500D01*
X12214500Y-12254500D02*
X12294500Y-12254500D01*
X12508500Y-9166500D02*
X12508500Y-9246500D01*
X12468500Y-9206500D02*
X12548500Y-9206500D01*
X12508500Y-9928500D02*
X12508500Y-10008500D01*
X12468500Y-9968500D02*
X12548500Y-9968500D01*
X12508500Y-10309500D02*
X12508500Y-10389500D01*
X12468500Y-10349500D02*
X12548500Y-10349500D01*
X12508500Y-11071500D02*
X12508500Y-11151500D01*
X12468500Y-11111500D02*
X12548500Y-11111500D01*
X12508500Y-11452500D02*
X12508500Y-11532500D01*
X12468500Y-11492500D02*
X12548500Y-11492500D01*
X12508500Y-12214500D02*
X12508500Y-12294500D01*
X12468500Y-12254500D02*
X12548500Y-12254500D01*
X12510500Y-7262500D02*
X12510500Y-7342500D01*
X12470500Y-7302500D02*
X12550500Y-7302500D01*
X12510500Y-7516500D02*
X12510500Y-7596500D01*
X12470500Y-7556500D02*
X12550500Y-7556500D01*
X12510500Y-7770500D02*
X12510500Y-7850500D01*
X12470500Y-7810500D02*
X12550500Y-7810500D01*
X12510500Y-8024500D02*
X12510500Y-8104500D01*
X12470500Y-8064500D02*
X12550500Y-8064500D01*
X12510500Y-8278500D02*
X12510500Y-8358500D01*
X12470500Y-8318500D02*
X12550500Y-8318500D01*
X12510500Y-8532500D02*
X12510500Y-8612500D01*
X12470500Y-8572500D02*
X12550500Y-8572500D01*
X12510500Y-8786500D02*
X12510500Y-8866500D01*
X12470500Y-8826500D02*
X12550500Y-8826500D01*
X13525500Y-7647500D02*
X13525500Y-7727500D01*
X13485500Y-7687500D02*
X13565500Y-7687500D01*
X13525500Y-8147500D02*
X13525500Y-8227500D01*
X13485500Y-8187500D02*
X13565500Y-8187500D01*
X13525500Y-8854000D02*
X13525500Y-8934000D01*
X13485500Y-8894000D02*
X13565500Y-8894000D01*
X13525500Y-9354000D02*
X13525500Y-9434000D01*
X13485500Y-9394000D02*
X13565500Y-9394000D01*
X13525500Y-10064500D02*
X13525500Y-10144500D01*
X13485500Y-10104500D02*
X13565500Y-10104500D01*
X13525500Y-10564500D02*
X13525500Y-10644500D01*
X13485500Y-10604500D02*
X13565500Y-10604500D01*
X15303500Y-7135500D02*
X15303500Y-7215500D01*
X15263500Y-7175500D02*
X15343500Y-7175500D01*
X15303500Y-7389500D02*
X15303500Y-7469500D01*
X15263500Y-7429500D02*
X15343500Y-7429500D01*
X15303500Y-7643500D02*
X15303500Y-7723500D01*
X15263500Y-7683500D02*
X15343500Y-7683500D01*
X15303500Y-7897500D02*
X15303500Y-7977500D01*
X15263500Y-7937500D02*
X15343500Y-7937500D01*
X15303500Y-8151500D02*
X15303500Y-8231500D01*
X15263500Y-8191500D02*
X15343500Y-8191500D01*
X15303500Y-8405500D02*
X15303500Y-8485500D01*
X15263500Y-8445500D02*
X15343500Y-8445500D01*
X15303500Y-8659500D02*
X15303500Y-8739500D01*
X15263500Y-8699500D02*
X15343500Y-8699500D01*
X15303500Y-8913500D02*
X15303500Y-8993500D01*
X15263500Y-8953500D02*
X15343500Y-8953500D01*
X16065500Y-7135500D02*
X16065500Y-7215500D01*
X16025500Y-7175500D02*
X16105500Y-7175500D01*
X16065500Y-7389500D02*
X16065500Y-7469500D01*
X16025500Y-7429500D02*
X16105500Y-7429500D01*
X16065500Y-7643500D02*
X16065500Y-7723500D01*
X16025500Y-7683500D02*
X16105500Y-7683500D01*
X16065500Y-7897500D02*
X16065500Y-7977500D01*
X16025500Y-7937500D02*
X16105500Y-7937500D01*
X16065500Y-8151500D02*
X16065500Y-8231500D01*
X16025500Y-8191500D02*
X16105500Y-8191500D01*
X16065500Y-8405500D02*
X16065500Y-8485500D01*
X16025500Y-8445500D02*
X16105500Y-8445500D01*
X16065500Y-8659500D02*
X16065500Y-8739500D01*
X16025500Y-8699500D02*
X16105500Y-8699500D01*
X16065500Y-8913500D02*
X16065500Y-8993500D01*
X16025500Y-8953500D02*
X16105500Y-8953500D01*
X16510000Y-7135500D02*
X16510000Y-7215500D01*
X16470000Y-7175500D02*
X16550000Y-7175500D01*
X16510000Y-7389500D02*
X16510000Y-7469500D01*
X16470000Y-7429500D02*
X16550000Y-7429500D01*
X16510000Y-7643500D02*
X16510000Y-7723500D01*
X16470000Y-7683500D02*
X16550000Y-7683500D01*
X16510000Y-7897500D02*
X16510000Y-7977500D01*
X16470000Y-7937500D02*
X16550000Y-7937500D01*
X16510000Y-8151500D02*
X16510000Y-8231500D01*
X16470000Y-8191500D02*
X16550000Y-8191500D01*
X16510000Y-8405500D02*
X16510000Y-8485500D01*
X16470000Y-8445500D02*
X16550000Y-8445500D01*
X16510000Y-8659500D02*
X16510000Y-8739500D01*
X16470000Y-8699500D02*
X16550000Y-8699500D01*
X16510000Y-8913500D02*
X16510000Y-8993500D01*
X16470000Y-8953500D02*
X16550000Y-8953500D01*
X17272000Y-7135500D02*
X17272000Y-7215500D01*
X17232000Y-7175500D02*
X17312000Y-7175500D01*
X17272000Y-7389500D02*
X17272000Y-7469500D01*
X17232000Y-7429500D02*
X17312000Y-7429500D01*
X17272000Y-7643500D02*
X17272000Y-7723500D01*
X17232000Y-7683500D02*
X17312000Y-7683500D01*
X17272000Y-7897500D02*
X17272000Y-7977500D01*
X17232000Y-7937500D02*
X17312000Y-7937500D01*
X17272000Y-8151500D02*
X17272000Y-8231500D01*
X17232000Y-8191500D02*
X17312000Y-8191500D01*
X17272000Y-8405500D02*
X17272000Y-8485500D01*
X17232000Y-8445500D02*
X17312000Y-8445500D01*
X17272000Y-8659500D02*
X17272000Y-8739500D01*
X17232000Y-8699500D02*
X17312000Y-8699500D01*
X17272000Y-8913500D02*
X17272000Y-8993500D01*
X17232000Y-8953500D02*
X17312000Y-8953500D01*
X17272000Y-9366000D02*
X17272000Y-9446000D01*
X17232000Y-9406000D02*
X17312000Y-9406000D01*
X17272000Y-9866000D02*
X17272000Y-9946000D01*
X17232000Y-9906000D02*
X17312000Y-9906000D01*
X17780000Y-8215000D02*
X17780000Y-8295000D01*
X17740000Y-8255000D02*
X17820000Y-8255000D01*
X17780000Y-8465000D02*
X17780000Y-8545000D01*
X17740000Y-8505000D02*
X17820000Y-8505000D01*
X17970500Y-9362000D02*
X17970500Y-9442000D01*
X17930500Y-9402000D02*
X18010500Y-9402000D01*
X17970500Y-9862000D02*
X17970500Y-9942000D01*
X17930500Y-9902000D02*
X18010500Y-9902000D01*
X18288000Y-8215000D02*
X18288000Y-8295000D01*
X18248000Y-8255000D02*
X18328000Y-8255000D01*
X18288000Y-8465000D02*
X18288000Y-8545000D01*
X18248000Y-8505000D02*
X18328000Y-8505000D01*
D15*
X15281588Y-9622088D02*
X15281588Y-9554912D01*
X15214412Y-9554912D01*
X15214412Y-9622088D01*
X15281588Y-9622088D01*
X15531588Y-9622088D02*
X15531588Y-9554912D01*
X15464412Y-9554912D01*
X15464412Y-9622088D01*
X15531588Y-9622088D01*
X15781588Y-9622088D02*
X15781588Y-9554912D01*
X15714412Y-9554912D01*
X15714412Y-9622088D01*
X15781588Y-9622088D01*
D10*
X10858500Y-12813500D02*
X10908500Y-12763500D01*
X10858500Y-12713500D01*
X10808500Y-12763500D01*
X10858500Y-12813500D01*
X10858500Y-13063500D02*
X10908500Y-13013500D01*
X10858500Y-12963500D01*
X10808500Y-13013500D01*
X10858500Y-13063500D01*
X11672520Y-12811160D02*
X11722520Y-12761160D01*
X11672520Y-12711160D01*
X11622520Y-12761160D01*
X11672520Y-12811160D01*
X11672520Y-13061160D02*
X11722520Y-13011160D01*
X11672520Y-12961160D01*
X11622520Y-13011160D01*
X11672520Y-13061160D01*
X12446000Y-12813500D02*
X12496000Y-12763500D01*
X12446000Y-12713500D01*
X12396000Y-12763500D01*
X12446000Y-12813500D01*
X12446000Y-13063500D02*
X12496000Y-13013500D01*
X12446000Y-12963500D01*
X12396000Y-13013500D01*
X12446000Y-13063500D01*
X13462000Y-12815500D02*
X13512000Y-12765500D01*
X13462000Y-12715500D01*
X13412000Y-12765500D01*
X13462000Y-12815500D01*
X13462000Y-13065500D02*
X13512000Y-13015500D01*
X13462000Y-12965500D01*
X13412000Y-13015500D01*
X13462000Y-13065500D01*
X13473000Y-11671500D02*
X13523000Y-11621500D01*
X13473000Y-11571500D01*
X13423000Y-11621500D01*
X13473000Y-11671500D01*
X13473000Y-11921500D02*
X13523000Y-11871500D01*
X13473000Y-11821500D01*
X13423000Y-11871500D01*
X13473000Y-11921500D01*
X14223000Y-7480000D02*
X14273000Y-7430000D01*
X14223000Y-7380000D01*
X14173000Y-7430000D01*
X14223000Y-7480000D01*
X14228000Y-9638500D02*
X14278000Y-9588500D01*
X14228000Y-9538500D01*
X14178000Y-9588500D01*
X14228000Y-9638500D01*
X14414500Y-10527500D02*
X14464500Y-10477500D01*
X14414500Y-10427500D01*
X14364500Y-10477500D01*
X14414500Y-10527500D01*
X14414500Y-10777500D02*
X14464500Y-10727500D01*
X14414500Y-10677500D01*
X14364500Y-10727500D01*
X14414500Y-10777500D01*
X14414500Y-11668500D02*
X14464500Y-11618500D01*
X14414500Y-11568500D01*
X14364500Y-11618500D01*
X14414500Y-11668500D01*
X14414500Y-11918500D02*
X14464500Y-11868500D01*
X14414500Y-11818500D01*
X14364500Y-11868500D01*
X14414500Y-11918500D01*
X14414500Y-12814500D02*
X14464500Y-12764500D01*
X14414500Y-12714500D01*
X14364500Y-12764500D01*
X14414500Y-12814500D01*
X14414500Y-13064500D02*
X14464500Y-13014500D01*
X14414500Y-12964500D01*
X14364500Y-13014500D01*
X14414500Y-13064500D01*
X14477000Y-7480000D02*
X14527000Y-7430000D01*
X14477000Y-7380000D01*
X14427000Y-7430000D01*
X14477000Y-7480000D01*
X14478000Y-9638500D02*
X14528000Y-9588500D01*
X14478000Y-9538500D01*
X14428000Y-9588500D01*
X14478000Y-9638500D01*
X14731000Y-7480000D02*
X14781000Y-7430000D01*
X14731000Y-7380000D01*
X14681000Y-7430000D01*
X14731000Y-7480000D01*
X15367000Y-10527500D02*
X15417000Y-10477500D01*
X15367000Y-10427500D01*
X15317000Y-10477500D01*
X15367000Y-10527500D01*
X15367000Y-10777500D02*
X15417000Y-10727500D01*
X15367000Y-10677500D01*
X15317000Y-10727500D01*
X15367000Y-10777500D01*
X15367000Y-11668500D02*
X15417000Y-11618500D01*
X15367000Y-11568500D01*
X15317000Y-11618500D01*
X15367000Y-11668500D01*
X15367000Y-11918500D02*
X15417000Y-11868500D01*
X15367000Y-11818500D01*
X15317000Y-11868500D01*
X15367000Y-11918500D01*
X15378000Y-12817500D02*
X15428000Y-12767500D01*
X15378000Y-12717500D01*
X15328000Y-12767500D01*
X15378000Y-12817500D01*
X15378000Y-13067500D02*
X15428000Y-13017500D01*
X15378000Y-12967500D01*
X15328000Y-13017500D01*
X15378000Y-13067500D01*
X16319500Y-10527500D02*
X16369500Y-10477500D01*
X16319500Y-10427500D01*
X16269500Y-10477500D01*
X16319500Y-10527500D01*
X16319500Y-10777500D02*
X16369500Y-10727500D01*
X16319500Y-10677500D01*
X16269500Y-10727500D01*
X16319500Y-10777500D01*
X16319500Y-11668500D02*
X16369500Y-11618500D01*
X16319500Y-11568500D01*
X16269500Y-11618500D01*
X16319500Y-11668500D01*
X16319500Y-11918500D02*
X16369500Y-11868500D01*
X16319500Y-11818500D01*
X16269500Y-11868500D01*
X16319500Y-11918500D01*
X16319500Y-12815500D02*
X16369500Y-12765500D01*
X16319500Y-12715500D01*
X16269500Y-12765500D01*
X16319500Y-12815500D01*
X16319500Y-13065500D02*
X16369500Y-13015500D01*
X16319500Y-12965500D01*
X16269500Y-13015500D01*
X16319500Y-13065500D01*
X16514000Y-9638500D02*
X16564000Y-9588500D01*
X16514000Y-9538500D01*
X16464000Y-9588500D01*
X16514000Y-9638500D01*
X16764000Y-9638500D02*
X16814000Y-9588500D01*
X16764000Y-9538500D01*
X16714000Y-9588500D01*
X16764000Y-9638500D01*
X17272000Y-10527500D02*
X17322000Y-10477500D01*
X17272000Y-10427500D01*
X17222000Y-10477500D01*
X17272000Y-10527500D01*
X17272000Y-10777500D02*
X17322000Y-10727500D01*
X17272000Y-10677500D01*
X17222000Y-10727500D01*
X17272000Y-10777500D01*
X17272000Y-11668500D02*
X17322000Y-11618500D01*
X17272000Y-11568500D01*
X17222000Y-11618500D01*
X17272000Y-11668500D01*
X17272000Y-11918500D02*
X17322000Y-11868500D01*
X17272000Y-11818500D01*
X17222000Y-11868500D01*
X17272000Y-11918500D01*
X17272000Y-12815500D02*
X17322000Y-12765500D01*
X17272000Y-12715500D01*
X17222000Y-12765500D01*
X17272000Y-12815500D01*
X17272000Y-13065500D02*
X17322000Y-13015500D01*
X17272000Y-12965500D01*
X17222000Y-13015500D01*
X17272000Y-13065500D01*
X18224500Y-10527500D02*
X18274500Y-10477500D01*
X18224500Y-10427500D01*
X18174500Y-10477500D01*
X18224500Y-10527500D01*
X18224500Y-10777500D02*
X18274500Y-10727500D01*
X18224500Y-10677500D01*
X18174500Y-10727500D01*
X18224500Y-10777500D01*
X18224500Y-11670500D02*
X18274500Y-11620500D01*
X18224500Y-11570500D01*
X18174500Y-11620500D01*
X18224500Y-11670500D01*
X18224500Y-11920500D02*
X18274500Y-11870500D01*
X18224500Y-11820500D01*
X18174500Y-11870500D01*
X18224500Y-11920500D01*
X18224500Y-12815500D02*
X18274500Y-12765500D01*
X18224500Y-12715500D01*
X18174500Y-12765500D01*
X18224500Y-12815500D01*
X18224500Y-13065500D02*
X18274500Y-13015500D01*
X18224500Y-12965500D01*
X18174500Y-13015500D01*
X18224500Y-13065500D01*
D16*
X8765000Y-6987000D02*
X9015000Y-7237000D01*
X9015000Y-6987000D02*
X8765000Y-7237000D01*
X9015000Y-7112000D02*
G75*
G03*
X9015000Y-7112000I-125000J0D01*
G01*
X8765000Y-13083000D02*
X9015000Y-13333000D01*
X9015000Y-13083000D02*
X8765000Y-13333000D01*
X9015000Y-13208000D02*
G75*
G03*
X9015000Y-13208000I-125000J0D01*
G01*
X18925000Y-6987000D02*
X19175000Y-7237000D01*
X19175000Y-6987000D02*
X18925000Y-7237000D01*
X19175000Y-7112000D02*
G75*
G03*
X19175000Y-7112000I-125000J0D01*
G01*
X18925000Y-13083000D02*
X19175000Y-13333000D01*
X19175000Y-13083000D02*
X18925000Y-13333000D01*
X19175000Y-13208000D02*
G75*
G03*
X19175000Y-13208000I-125000J0D01*
G01*
D11*
X8624619Y-14033524D02*
X8624619Y-13833524D01*
X8624619Y-13833524D02*
X8672238Y-13833524D01*
X8672238Y-13833524D02*
X8700810Y-13843048D01*
X8700810Y-13843048D02*
X8719857Y-13862095D01*
X8719857Y-13862095D02*
X8729381Y-13881143D01*
X8729381Y-13881143D02*
X8738905Y-13919238D01*
X8738905Y-13919238D02*
X8738905Y-13947809D01*
X8738905Y-13947809D02*
X8729381Y-13985905D01*
X8729381Y-13985905D02*
X8719857Y-14004952D01*
X8719857Y-14004952D02*
X8700810Y-14024000D01*
X8700810Y-14024000D02*
X8672238Y-14033524D01*
X8672238Y-14033524D02*
X8624619Y-14033524D01*
X8824619Y-14033524D02*
X8824619Y-13900190D01*
X8824619Y-13938286D02*
X8834143Y-13919238D01*
X8834143Y-13919238D02*
X8843667Y-13909714D01*
X8843667Y-13909714D02*
X8862714Y-13900190D01*
X8862714Y-13900190D02*
X8881762Y-13900190D01*
X8948429Y-14033524D02*
X8948429Y-13900190D01*
X8948429Y-13833524D02*
X8938905Y-13843048D01*
X8938905Y-13843048D02*
X8948429Y-13852571D01*
X8948429Y-13852571D02*
X8957952Y-13843048D01*
X8957952Y-13843048D02*
X8948429Y-13833524D01*
X8948429Y-13833524D02*
X8948429Y-13852571D01*
X9072238Y-14033524D02*
X9053190Y-14024000D01*
X9053190Y-14024000D02*
X9043667Y-14004952D01*
X9043667Y-14004952D02*
X9043667Y-13833524D01*
X9177000Y-14033524D02*
X9157952Y-14024000D01*
X9157952Y-14024000D02*
X9148429Y-14004952D01*
X9148429Y-14004952D02*
X9148429Y-13833524D01*
X9405571Y-14033524D02*
X9405571Y-13833524D01*
X9405571Y-13833524D02*
X9472238Y-13976381D01*
X9472238Y-13976381D02*
X9538905Y-13833524D01*
X9538905Y-13833524D02*
X9538905Y-14033524D01*
X9719857Y-14033524D02*
X9719857Y-13928762D01*
X9719857Y-13928762D02*
X9710333Y-13909714D01*
X9710333Y-13909714D02*
X9691286Y-13900190D01*
X9691286Y-13900190D02*
X9653190Y-13900190D01*
X9653190Y-13900190D02*
X9634143Y-13909714D01*
X9719857Y-14024000D02*
X9700810Y-14033524D01*
X9700810Y-14033524D02*
X9653190Y-14033524D01*
X9653190Y-14033524D02*
X9634143Y-14024000D01*
X9634143Y-14024000D02*
X9624619Y-14004952D01*
X9624619Y-14004952D02*
X9624619Y-13985905D01*
X9624619Y-13985905D02*
X9634143Y-13966857D01*
X9634143Y-13966857D02*
X9653190Y-13957333D01*
X9653190Y-13957333D02*
X9700810Y-13957333D01*
X9700810Y-13957333D02*
X9719857Y-13947809D01*
X9815095Y-13900190D02*
X9815095Y-14100190D01*
X9815095Y-13909714D02*
X9834143Y-13900190D01*
X9834143Y-13900190D02*
X9872238Y-13900190D01*
X9872238Y-13900190D02*
X9891286Y-13909714D01*
X9891286Y-13909714D02*
X9900810Y-13919238D01*
X9900810Y-13919238D02*
X9910333Y-13938286D01*
X9910333Y-13938286D02*
X9910333Y-13995428D01*
X9910333Y-13995428D02*
X9900810Y-14014476D01*
X9900810Y-14014476D02*
X9891286Y-14024000D01*
X9891286Y-14024000D02*
X9872238Y-14033524D01*
X9872238Y-14033524D02*
X9834143Y-14033524D01*
X9834143Y-14033524D02*
X9815095Y-14024000D01*
X9996048Y-14014476D02*
X10005571Y-14024000D01*
X10005571Y-14024000D02*
X9996048Y-14033524D01*
X9996048Y-14033524D02*
X9986524Y-14024000D01*
X9986524Y-14024000D02*
X9996048Y-14014476D01*
X9996048Y-14014476D02*
X9996048Y-14033524D01*
X9996048Y-13909714D02*
X10005571Y-13919238D01*
X10005571Y-13919238D02*
X9996048Y-13928762D01*
X9996048Y-13928762D02*
X9986524Y-13919238D01*
X9986524Y-13919238D02*
X9996048Y-13909714D01*
X9996048Y-13909714D02*
X9996048Y-13928762D01*
D12*
X8327000Y-14336000D02*
X8377000Y-14386000D01*
X8377000Y-14336000D02*
X8327000Y-14386000D01*
D11*
X8662714Y-14253524D02*
X8681762Y-14253524D01*
X8681762Y-14253524D02*
X8700810Y-14263048D01*
X8700810Y-14263048D02*
X8710333Y-14272571D01*
X8710333Y-14272571D02*
X8719857Y-14291619D01*
X8719857Y-14291619D02*
X8729381Y-14329714D01*
X8729381Y-14329714D02*
X8729381Y-14377333D01*
X8729381Y-14377333D02*
X8719857Y-14415428D01*
X8719857Y-14415428D02*
X8710333Y-14434476D01*
X8710333Y-14434476D02*
X8700810Y-14444000D01*
X8700810Y-14444000D02*
X8681762Y-14453524D01*
X8681762Y-14453524D02*
X8662714Y-14453524D01*
X8662714Y-14453524D02*
X8643667Y-14444000D01*
X8643667Y-14444000D02*
X8634143Y-14434476D01*
X8634143Y-14434476D02*
X8624619Y-14415428D01*
X8624619Y-14415428D02*
X8615095Y-14377333D01*
X8615095Y-14377333D02*
X8615095Y-14329714D01*
X8615095Y-14329714D02*
X8624619Y-14291619D01*
X8624619Y-14291619D02*
X8634143Y-14272571D01*
X8634143Y-14272571D02*
X8643667Y-14263048D01*
X8643667Y-14263048D02*
X8662714Y-14253524D01*
X8815095Y-14434476D02*
X8824619Y-14444000D01*
X8824619Y-14444000D02*
X8815095Y-14453524D01*
X8815095Y-14453524D02*
X8805571Y-14444000D01*
X8805571Y-14444000D02*
X8815095Y-14434476D01*
X8815095Y-14434476D02*
X8815095Y-14453524D01*
X9005571Y-14253524D02*
X8910333Y-14253524D01*
X8910333Y-14253524D02*
X8900810Y-14348762D01*
X8900810Y-14348762D02*
X8910333Y-14339238D01*
X8910333Y-14339238D02*
X8929381Y-14329714D01*
X8929381Y-14329714D02*
X8977000Y-14329714D01*
X8977000Y-14329714D02*
X8996048Y-14339238D01*
X8996048Y-14339238D02*
X9005571Y-14348762D01*
X9005571Y-14348762D02*
X9015095Y-14367809D01*
X9015095Y-14367809D02*
X9015095Y-14415428D01*
X9015095Y-14415428D02*
X9005571Y-14434476D01*
X9005571Y-14434476D02*
X8996048Y-14444000D01*
X8996048Y-14444000D02*
X8977000Y-14453524D01*
X8977000Y-14453524D02*
X8929381Y-14453524D01*
X8929381Y-14453524D02*
X8910333Y-14444000D01*
X8910333Y-14444000D02*
X8900810Y-14434476D01*
X9138905Y-14253524D02*
X9157952Y-14253524D01*
X9157952Y-14253524D02*
X9177000Y-14263048D01*
X9177000Y-14263048D02*
X9186524Y-14272571D01*
X9186524Y-14272571D02*
X9196048Y-14291619D01*
X9196048Y-14291619D02*
X9205571Y-14329714D01*
X9205571Y-14329714D02*
X9205571Y-14377333D01*
X9205571Y-14377333D02*
X9196048Y-14415428D01*
X9196048Y-14415428D02*
X9186524Y-14434476D01*
X9186524Y-14434476D02*
X9177000Y-14444000D01*
X9177000Y-14444000D02*
X9157952Y-14453524D01*
X9157952Y-14453524D02*
X9138905Y-14453524D01*
X9138905Y-14453524D02*
X9119857Y-14444000D01*
X9119857Y-14444000D02*
X9110333Y-14434476D01*
X9110333Y-14434476D02*
X9100810Y-14415428D01*
X9100810Y-14415428D02*
X9091286Y-14377333D01*
X9091286Y-14377333D02*
X9091286Y-14329714D01*
X9091286Y-14329714D02*
X9100810Y-14291619D01*
X9100810Y-14291619D02*
X9110333Y-14272571D01*
X9110333Y-14272571D02*
X9119857Y-14263048D01*
X9119857Y-14263048D02*
X9138905Y-14253524D01*
X9329381Y-14253524D02*
X9348429Y-14253524D01*
X9348429Y-14253524D02*
X9367476Y-14263048D01*
X9367476Y-14263048D02*
X9377000Y-14272571D01*
X9377000Y-14272571D02*
X9386524Y-14291619D01*
X9386524Y-14291619D02*
X9396048Y-14329714D01*
X9396048Y-14329714D02*
X9396048Y-14377333D01*
X9396048Y-14377333D02*
X9386524Y-14415428D01*
X9386524Y-14415428D02*
X9377000Y-14434476D01*
X9377000Y-14434476D02*
X9367476Y-14444000D01*
X9367476Y-14444000D02*
X9348429Y-14453524D01*
X9348429Y-14453524D02*
X9329381Y-14453524D01*
X9329381Y-14453524D02*
X9310333Y-14444000D01*
X9310333Y-14444000D02*
X9300810Y-14434476D01*
X9300810Y-14434476D02*
X9291286Y-14415428D01*
X9291286Y-14415428D02*
X9281762Y-14377333D01*
X9281762Y-14377333D02*
X9281762Y-14329714D01*
X9281762Y-14329714D02*
X9291286Y-14291619D01*
X9291286Y-14291619D02*
X9300810Y-14272571D01*
X9300810Y-14272571D02*
X9310333Y-14263048D01*
X9310333Y-14263048D02*
X9329381Y-14253524D01*
X9481762Y-14453524D02*
X9481762Y-14320190D01*
X9481762Y-14339238D02*
X9491286Y-14329714D01*
X9491286Y-14329714D02*
X9510333Y-14320190D01*
X9510333Y-14320190D02*
X9538905Y-14320190D01*
X9538905Y-14320190D02*
X9557952Y-14329714D01*
X9557952Y-14329714D02*
X9567476Y-14348762D01*
X9567476Y-14348762D02*
X9567476Y-14453524D01*
X9567476Y-14348762D02*
X9577000Y-14329714D01*
X9577000Y-14329714D02*
X9596048Y-14320190D01*
X9596048Y-14320190D02*
X9624619Y-14320190D01*
X9624619Y-14320190D02*
X9643667Y-14329714D01*
X9643667Y-14329714D02*
X9653191Y-14348762D01*
X9653191Y-14348762D02*
X9653191Y-14453524D01*
X9748429Y-14453524D02*
X9748429Y-14320190D01*
X9748429Y-14339238D02*
X9757952Y-14329714D01*
X9757952Y-14329714D02*
X9777000Y-14320190D01*
X9777000Y-14320190D02*
X9805572Y-14320190D01*
X9805572Y-14320190D02*
X9824619Y-14329714D01*
X9824619Y-14329714D02*
X9834143Y-14348762D01*
X9834143Y-14348762D02*
X9834143Y-14453524D01*
X9834143Y-14348762D02*
X9843667Y-14329714D01*
X9843667Y-14329714D02*
X9862714Y-14320190D01*
X9862714Y-14320190D02*
X9891286Y-14320190D01*
X9891286Y-14320190D02*
X9910333Y-14329714D01*
X9910333Y-14329714D02*
X9919857Y-14348762D01*
X9919857Y-14348762D02*
X9919857Y-14453524D01*
X10310333Y-14244000D02*
X10138905Y-14501143D01*
X10567476Y-14253524D02*
X10586524Y-14253524D01*
X10586524Y-14253524D02*
X10605572Y-14263048D01*
X10605572Y-14263048D02*
X10615095Y-14272571D01*
X10615095Y-14272571D02*
X10624619Y-14291619D01*
X10624619Y-14291619D02*
X10634143Y-14329714D01*
X10634143Y-14329714D02*
X10634143Y-14377333D01*
X10634143Y-14377333D02*
X10624619Y-14415428D01*
X10624619Y-14415428D02*
X10615095Y-14434476D01*
X10615095Y-14434476D02*
X10605572Y-14444000D01*
X10605572Y-14444000D02*
X10586524Y-14453524D01*
X10586524Y-14453524D02*
X10567476Y-14453524D01*
X10567476Y-14453524D02*
X10548429Y-14444000D01*
X10548429Y-14444000D02*
X10538905Y-14434476D01*
X10538905Y-14434476D02*
X10529381Y-14415428D01*
X10529381Y-14415428D02*
X10519857Y-14377333D01*
X10519857Y-14377333D02*
X10519857Y-14329714D01*
X10519857Y-14329714D02*
X10529381Y-14291619D01*
X10529381Y-14291619D02*
X10538905Y-14272571D01*
X10538905Y-14272571D02*
X10548429Y-14263048D01*
X10548429Y-14263048D02*
X10567476Y-14253524D01*
X10719857Y-14434476D02*
X10729381Y-14444000D01*
X10729381Y-14444000D02*
X10719857Y-14453524D01*
X10719857Y-14453524D02*
X10710334Y-14444000D01*
X10710334Y-14444000D02*
X10719857Y-14434476D01*
X10719857Y-14434476D02*
X10719857Y-14453524D01*
X10853191Y-14253524D02*
X10872238Y-14253524D01*
X10872238Y-14253524D02*
X10891286Y-14263048D01*
X10891286Y-14263048D02*
X10900810Y-14272571D01*
X10900810Y-14272571D02*
X10910334Y-14291619D01*
X10910334Y-14291619D02*
X10919857Y-14329714D01*
X10919857Y-14329714D02*
X10919857Y-14377333D01*
X10919857Y-14377333D02*
X10910334Y-14415428D01*
X10910334Y-14415428D02*
X10900810Y-14434476D01*
X10900810Y-14434476D02*
X10891286Y-14444000D01*
X10891286Y-14444000D02*
X10872238Y-14453524D01*
X10872238Y-14453524D02*
X10853191Y-14453524D01*
X10853191Y-14453524D02*
X10834143Y-14444000D01*
X10834143Y-14444000D02*
X10824619Y-14434476D01*
X10824619Y-14434476D02*
X10815095Y-14415428D01*
X10815095Y-14415428D02*
X10805572Y-14377333D01*
X10805572Y-14377333D02*
X10805572Y-14329714D01*
X10805572Y-14329714D02*
X10815095Y-14291619D01*
X10815095Y-14291619D02*
X10824619Y-14272571D01*
X10824619Y-14272571D02*
X10834143Y-14263048D01*
X10834143Y-14263048D02*
X10853191Y-14253524D01*
X11110334Y-14453524D02*
X10996048Y-14453524D01*
X11053191Y-14453524D02*
X11053191Y-14253524D01*
X11053191Y-14253524D02*
X11034143Y-14282095D01*
X11034143Y-14282095D02*
X11015095Y-14301143D01*
X11015095Y-14301143D02*
X10996048Y-14310667D01*
X11205572Y-14453524D02*
X11243667Y-14453524D01*
X11243667Y-14453524D02*
X11262714Y-14444000D01*
X11262714Y-14444000D02*
X11272238Y-14434476D01*
X11272238Y-14434476D02*
X11291286Y-14405905D01*
X11291286Y-14405905D02*
X11300810Y-14367809D01*
X11300810Y-14367809D02*
X11300810Y-14291619D01*
X11300810Y-14291619D02*
X11291286Y-14272571D01*
X11291286Y-14272571D02*
X11281762Y-14263048D01*
X11281762Y-14263048D02*
X11262714Y-14253524D01*
X11262714Y-14253524D02*
X11224619Y-14253524D01*
X11224619Y-14253524D02*
X11205572Y-14263048D01*
X11205572Y-14263048D02*
X11196048Y-14272571D01*
X11196048Y-14272571D02*
X11186524Y-14291619D01*
X11186524Y-14291619D02*
X11186524Y-14339238D01*
X11186524Y-14339238D02*
X11196048Y-14358286D01*
X11196048Y-14358286D02*
X11205572Y-14367809D01*
X11205572Y-14367809D02*
X11224619Y-14377333D01*
X11224619Y-14377333D02*
X11262714Y-14377333D01*
X11262714Y-14377333D02*
X11281762Y-14367809D01*
X11281762Y-14367809D02*
X11291286Y-14358286D01*
X11291286Y-14358286D02*
X11300810Y-14339238D01*
X11367476Y-14253524D02*
X11500810Y-14253524D01*
X11500810Y-14253524D02*
X11415095Y-14453524D01*
X11567476Y-14253524D02*
X11567476Y-14291619D01*
X11643667Y-14253524D02*
X11643667Y-14291619D01*
X11938905Y-14529714D02*
X11929381Y-14520190D01*
X11929381Y-14520190D02*
X11910334Y-14491619D01*
X11910334Y-14491619D02*
X11900810Y-14472571D01*
X11900810Y-14472571D02*
X11891286Y-14444000D01*
X11891286Y-14444000D02*
X11881762Y-14396381D01*
X11881762Y-14396381D02*
X11881762Y-14358286D01*
X11881762Y-14358286D02*
X11891286Y-14310667D01*
X11891286Y-14310667D02*
X11900810Y-14282095D01*
X11900810Y-14282095D02*
X11910334Y-14263048D01*
X11910334Y-14263048D02*
X11929381Y-14234476D01*
X11929381Y-14234476D02*
X11938905Y-14224952D01*
X12005572Y-14272571D02*
X12015095Y-14263048D01*
X12015095Y-14263048D02*
X12034143Y-14253524D01*
X12034143Y-14253524D02*
X12081762Y-14253524D01*
X12081762Y-14253524D02*
X12100810Y-14263048D01*
X12100810Y-14263048D02*
X12110334Y-14272571D01*
X12110334Y-14272571D02*
X12119857Y-14291619D01*
X12119857Y-14291619D02*
X12119857Y-14310667D01*
X12119857Y-14310667D02*
X12110334Y-14339238D01*
X12110334Y-14339238D02*
X11996048Y-14453524D01*
X11996048Y-14453524D02*
X12119857Y-14453524D01*
X12357953Y-14453524D02*
X12357953Y-14253524D01*
X12443667Y-14453524D02*
X12443667Y-14348762D01*
X12443667Y-14348762D02*
X12434143Y-14329714D01*
X12434143Y-14329714D02*
X12415096Y-14320190D01*
X12415096Y-14320190D02*
X12386524Y-14320190D01*
X12386524Y-14320190D02*
X12367476Y-14329714D01*
X12367476Y-14329714D02*
X12357953Y-14339238D01*
X12567476Y-14453524D02*
X12548429Y-14444000D01*
X12548429Y-14444000D02*
X12538905Y-14434476D01*
X12538905Y-14434476D02*
X12529381Y-14415428D01*
X12529381Y-14415428D02*
X12529381Y-14358286D01*
X12529381Y-14358286D02*
X12538905Y-14339238D01*
X12538905Y-14339238D02*
X12548429Y-14329714D01*
X12548429Y-14329714D02*
X12567476Y-14320190D01*
X12567476Y-14320190D02*
X12596048Y-14320190D01*
X12596048Y-14320190D02*
X12615096Y-14329714D01*
X12615096Y-14329714D02*
X12624619Y-14339238D01*
X12624619Y-14339238D02*
X12634143Y-14358286D01*
X12634143Y-14358286D02*
X12634143Y-14415428D01*
X12634143Y-14415428D02*
X12624619Y-14434476D01*
X12624619Y-14434476D02*
X12615096Y-14444000D01*
X12615096Y-14444000D02*
X12596048Y-14453524D01*
X12596048Y-14453524D02*
X12567476Y-14453524D01*
X12748429Y-14453524D02*
X12729381Y-14444000D01*
X12729381Y-14444000D02*
X12719857Y-14424952D01*
X12719857Y-14424952D02*
X12719857Y-14253524D01*
X12900810Y-14444000D02*
X12881762Y-14453524D01*
X12881762Y-14453524D02*
X12843667Y-14453524D01*
X12843667Y-14453524D02*
X12824619Y-14444000D01*
X12824619Y-14444000D02*
X12815096Y-14424952D01*
X12815096Y-14424952D02*
X12815096Y-14348762D01*
X12815096Y-14348762D02*
X12824619Y-14329714D01*
X12824619Y-14329714D02*
X12843667Y-14320190D01*
X12843667Y-14320190D02*
X12881762Y-14320190D01*
X12881762Y-14320190D02*
X12900810Y-14329714D01*
X12900810Y-14329714D02*
X12910334Y-14348762D01*
X12910334Y-14348762D02*
X12910334Y-14367809D01*
X12910334Y-14367809D02*
X12815096Y-14386857D01*
X12986524Y-14444000D02*
X13005572Y-14453524D01*
X13005572Y-14453524D02*
X13043667Y-14453524D01*
X13043667Y-14453524D02*
X13062715Y-14444000D01*
X13062715Y-14444000D02*
X13072238Y-14424952D01*
X13072238Y-14424952D02*
X13072238Y-14415428D01*
X13072238Y-14415428D02*
X13062715Y-14396381D01*
X13062715Y-14396381D02*
X13043667Y-14386857D01*
X13043667Y-14386857D02*
X13015096Y-14386857D01*
X13015096Y-14386857D02*
X12996048Y-14377333D01*
X12996048Y-14377333D02*
X12986524Y-14358286D01*
X12986524Y-14358286D02*
X12986524Y-14348762D01*
X12986524Y-14348762D02*
X12996048Y-14329714D01*
X12996048Y-14329714D02*
X13015096Y-14320190D01*
X13015096Y-14320190D02*
X13043667Y-14320190D01*
X13043667Y-14320190D02*
X13062715Y-14329714D01*
X13138905Y-14529714D02*
X13148429Y-14520190D01*
X13148429Y-14520190D02*
X13167477Y-14491619D01*
X13167477Y-14491619D02*
X13177000Y-14472571D01*
X13177000Y-14472571D02*
X13186524Y-14444000D01*
X13186524Y-14444000D02*
X13196048Y-14396381D01*
X13196048Y-14396381D02*
X13196048Y-14358286D01*
X13196048Y-14358286D02*
X13186524Y-14310667D01*
X13186524Y-14310667D02*
X13177000Y-14282095D01*
X13177000Y-14282095D02*
X13167477Y-14263048D01*
X13167477Y-14263048D02*
X13148429Y-14234476D01*
X13148429Y-14234476D02*
X13138905Y-14224952D01*
D13*
X8377000Y-14625000D02*
G75*
G03*
X8377000Y-14625000I-35000J0D01*
G01*
D11*
X8662714Y-14517524D02*
X8681762Y-14517524D01*
X8681762Y-14517524D02*
X8700810Y-14527048D01*
X8700810Y-14527048D02*
X8710333Y-14536571D01*
X8710333Y-14536571D02*
X8719857Y-14555619D01*
X8719857Y-14555619D02*
X8729381Y-14593714D01*
X8729381Y-14593714D02*
X8729381Y-14641333D01*
X8729381Y-14641333D02*
X8719857Y-14679428D01*
X8719857Y-14679428D02*
X8710333Y-14698476D01*
X8710333Y-14698476D02*
X8700810Y-14708000D01*
X8700810Y-14708000D02*
X8681762Y-14717524D01*
X8681762Y-14717524D02*
X8662714Y-14717524D01*
X8662714Y-14717524D02*
X8643667Y-14708000D01*
X8643667Y-14708000D02*
X8634143Y-14698476D01*
X8634143Y-14698476D02*
X8624619Y-14679428D01*
X8624619Y-14679428D02*
X8615095Y-14641333D01*
X8615095Y-14641333D02*
X8615095Y-14593714D01*
X8615095Y-14593714D02*
X8624619Y-14555619D01*
X8624619Y-14555619D02*
X8634143Y-14536571D01*
X8634143Y-14536571D02*
X8643667Y-14527048D01*
X8643667Y-14527048D02*
X8662714Y-14517524D01*
X8815095Y-14698476D02*
X8824619Y-14708000D01*
X8824619Y-14708000D02*
X8815095Y-14717524D01*
X8815095Y-14717524D02*
X8805571Y-14708000D01*
X8805571Y-14708000D02*
X8815095Y-14698476D01*
X8815095Y-14698476D02*
X8815095Y-14717524D01*
X8891286Y-14517524D02*
X9024619Y-14517524D01*
X9024619Y-14517524D02*
X8938905Y-14717524D01*
X9138905Y-14517524D02*
X9157952Y-14517524D01*
X9157952Y-14517524D02*
X9177000Y-14527048D01*
X9177000Y-14527048D02*
X9186524Y-14536571D01*
X9186524Y-14536571D02*
X9196048Y-14555619D01*
X9196048Y-14555619D02*
X9205571Y-14593714D01*
X9205571Y-14593714D02*
X9205571Y-14641333D01*
X9205571Y-14641333D02*
X9196048Y-14679428D01*
X9196048Y-14679428D02*
X9186524Y-14698476D01*
X9186524Y-14698476D02*
X9177000Y-14708000D01*
X9177000Y-14708000D02*
X9157952Y-14717524D01*
X9157952Y-14717524D02*
X9138905Y-14717524D01*
X9138905Y-14717524D02*
X9119857Y-14708000D01*
X9119857Y-14708000D02*
X9110333Y-14698476D01*
X9110333Y-14698476D02*
X9100810Y-14679428D01*
X9100810Y-14679428D02*
X9091286Y-14641333D01*
X9091286Y-14641333D02*
X9091286Y-14593714D01*
X9091286Y-14593714D02*
X9100810Y-14555619D01*
X9100810Y-14555619D02*
X9110333Y-14536571D01*
X9110333Y-14536571D02*
X9119857Y-14527048D01*
X9119857Y-14527048D02*
X9138905Y-14517524D01*
X9329381Y-14517524D02*
X9348429Y-14517524D01*
X9348429Y-14517524D02*
X9367476Y-14527048D01*
X9367476Y-14527048D02*
X9377000Y-14536571D01*
X9377000Y-14536571D02*
X9386524Y-14555619D01*
X9386524Y-14555619D02*
X9396048Y-14593714D01*
X9396048Y-14593714D02*
X9396048Y-14641333D01*
X9396048Y-14641333D02*
X9386524Y-14679428D01*
X9386524Y-14679428D02*
X9377000Y-14698476D01*
X9377000Y-14698476D02*
X9367476Y-14708000D01*
X9367476Y-14708000D02*
X9348429Y-14717524D01*
X9348429Y-14717524D02*
X9329381Y-14717524D01*
X9329381Y-14717524D02*
X9310333Y-14708000D01*
X9310333Y-14708000D02*
X9300810Y-14698476D01*
X9300810Y-14698476D02*
X9291286Y-14679428D01*
X9291286Y-14679428D02*
X9281762Y-14641333D01*
X9281762Y-14641333D02*
X9281762Y-14593714D01*
X9281762Y-14593714D02*
X9291286Y-14555619D01*
X9291286Y-14555619D02*
X9300810Y-14536571D01*
X9300810Y-14536571D02*
X9310333Y-14527048D01*
X9310333Y-14527048D02*
X9329381Y-14517524D01*
X9481762Y-14717524D02*
X9481762Y-14584190D01*
X9481762Y-14603238D02*
X9491286Y-14593714D01*
X9491286Y-14593714D02*
X9510333Y-14584190D01*
X9510333Y-14584190D02*
X9538905Y-14584190D01*
X9538905Y-14584190D02*
X9557952Y-14593714D01*
X9557952Y-14593714D02*
X9567476Y-14612762D01*
X9567476Y-14612762D02*
X9567476Y-14717524D01*
X9567476Y-14612762D02*
X9577000Y-14593714D01*
X9577000Y-14593714D02*
X9596048Y-14584190D01*
X9596048Y-14584190D02*
X9624619Y-14584190D01*
X9624619Y-14584190D02*
X9643667Y-14593714D01*
X9643667Y-14593714D02*
X9653191Y-14612762D01*
X9653191Y-14612762D02*
X9653191Y-14717524D01*
X9748429Y-14717524D02*
X9748429Y-14584190D01*
X9748429Y-14603238D02*
X9757952Y-14593714D01*
X9757952Y-14593714D02*
X9777000Y-14584190D01*
X9777000Y-14584190D02*
X9805572Y-14584190D01*
X9805572Y-14584190D02*
X9824619Y-14593714D01*
X9824619Y-14593714D02*
X9834143Y-14612762D01*
X9834143Y-14612762D02*
X9834143Y-14717524D01*
X9834143Y-14612762D02*
X9843667Y-14593714D01*
X9843667Y-14593714D02*
X9862714Y-14584190D01*
X9862714Y-14584190D02*
X9891286Y-14584190D01*
X9891286Y-14584190D02*
X9910333Y-14593714D01*
X9910333Y-14593714D02*
X9919857Y-14612762D01*
X9919857Y-14612762D02*
X9919857Y-14717524D01*
X10310333Y-14508000D02*
X10138905Y-14765143D01*
X10567476Y-14517524D02*
X10586524Y-14517524D01*
X10586524Y-14517524D02*
X10605572Y-14527048D01*
X10605572Y-14527048D02*
X10615095Y-14536571D01*
X10615095Y-14536571D02*
X10624619Y-14555619D01*
X10624619Y-14555619D02*
X10634143Y-14593714D01*
X10634143Y-14593714D02*
X10634143Y-14641333D01*
X10634143Y-14641333D02*
X10624619Y-14679428D01*
X10624619Y-14679428D02*
X10615095Y-14698476D01*
X10615095Y-14698476D02*
X10605572Y-14708000D01*
X10605572Y-14708000D02*
X10586524Y-14717524D01*
X10586524Y-14717524D02*
X10567476Y-14717524D01*
X10567476Y-14717524D02*
X10548429Y-14708000D01*
X10548429Y-14708000D02*
X10538905Y-14698476D01*
X10538905Y-14698476D02*
X10529381Y-14679428D01*
X10529381Y-14679428D02*
X10519857Y-14641333D01*
X10519857Y-14641333D02*
X10519857Y-14593714D01*
X10519857Y-14593714D02*
X10529381Y-14555619D01*
X10529381Y-14555619D02*
X10538905Y-14536571D01*
X10538905Y-14536571D02*
X10548429Y-14527048D01*
X10548429Y-14527048D02*
X10567476Y-14517524D01*
X10719857Y-14698476D02*
X10729381Y-14708000D01*
X10729381Y-14708000D02*
X10719857Y-14717524D01*
X10719857Y-14717524D02*
X10710334Y-14708000D01*
X10710334Y-14708000D02*
X10719857Y-14698476D01*
X10719857Y-14698476D02*
X10719857Y-14717524D01*
X10853191Y-14517524D02*
X10872238Y-14517524D01*
X10872238Y-14517524D02*
X10891286Y-14527048D01*
X10891286Y-14527048D02*
X10900810Y-14536571D01*
X10900810Y-14536571D02*
X10910334Y-14555619D01*
X10910334Y-14555619D02*
X10919857Y-14593714D01*
X10919857Y-14593714D02*
X10919857Y-14641333D01*
X10919857Y-14641333D02*
X10910334Y-14679428D01*
X10910334Y-14679428D02*
X10900810Y-14698476D01*
X10900810Y-14698476D02*
X10891286Y-14708000D01*
X10891286Y-14708000D02*
X10872238Y-14717524D01*
X10872238Y-14717524D02*
X10853191Y-14717524D01*
X10853191Y-14717524D02*
X10834143Y-14708000D01*
X10834143Y-14708000D02*
X10824619Y-14698476D01*
X10824619Y-14698476D02*
X10815095Y-14679428D01*
X10815095Y-14679428D02*
X10805572Y-14641333D01*
X10805572Y-14641333D02*
X10805572Y-14593714D01*
X10805572Y-14593714D02*
X10815095Y-14555619D01*
X10815095Y-14555619D02*
X10824619Y-14536571D01*
X10824619Y-14536571D02*
X10834143Y-14527048D01*
X10834143Y-14527048D02*
X10853191Y-14517524D01*
X10996048Y-14536571D02*
X11005572Y-14527048D01*
X11005572Y-14527048D02*
X11024619Y-14517524D01*
X11024619Y-14517524D02*
X11072238Y-14517524D01*
X11072238Y-14517524D02*
X11091286Y-14527048D01*
X11091286Y-14527048D02*
X11100810Y-14536571D01*
X11100810Y-14536571D02*
X11110334Y-14555619D01*
X11110334Y-14555619D02*
X11110334Y-14574667D01*
X11110334Y-14574667D02*
X11100810Y-14603238D01*
X11100810Y-14603238D02*
X10986524Y-14717524D01*
X10986524Y-14717524D02*
X11110334Y-14717524D01*
X11177000Y-14517524D02*
X11310333Y-14517524D01*
X11310333Y-14517524D02*
X11224619Y-14717524D01*
X11472238Y-14517524D02*
X11434143Y-14517524D01*
X11434143Y-14517524D02*
X11415095Y-14527048D01*
X11415095Y-14527048D02*
X11405572Y-14536571D01*
X11405572Y-14536571D02*
X11386524Y-14565143D01*
X11386524Y-14565143D02*
X11377000Y-14603238D01*
X11377000Y-14603238D02*
X11377000Y-14679428D01*
X11377000Y-14679428D02*
X11386524Y-14698476D01*
X11386524Y-14698476D02*
X11396048Y-14708000D01*
X11396048Y-14708000D02*
X11415095Y-14717524D01*
X11415095Y-14717524D02*
X11453191Y-14717524D01*
X11453191Y-14717524D02*
X11472238Y-14708000D01*
X11472238Y-14708000D02*
X11481762Y-14698476D01*
X11481762Y-14698476D02*
X11491286Y-14679428D01*
X11491286Y-14679428D02*
X11491286Y-14631809D01*
X11491286Y-14631809D02*
X11481762Y-14612762D01*
X11481762Y-14612762D02*
X11472238Y-14603238D01*
X11472238Y-14603238D02*
X11453191Y-14593714D01*
X11453191Y-14593714D02*
X11415095Y-14593714D01*
X11415095Y-14593714D02*
X11396048Y-14603238D01*
X11396048Y-14603238D02*
X11386524Y-14612762D01*
X11386524Y-14612762D02*
X11377000Y-14631809D01*
X11567476Y-14517524D02*
X11567476Y-14555619D01*
X11643667Y-14517524D02*
X11643667Y-14555619D01*
X11938905Y-14793714D02*
X11929381Y-14784190D01*
X11929381Y-14784190D02*
X11910334Y-14755619D01*
X11910334Y-14755619D02*
X11900810Y-14736571D01*
X11900810Y-14736571D02*
X11891286Y-14708000D01*
X11891286Y-14708000D02*
X11881762Y-14660381D01*
X11881762Y-14660381D02*
X11881762Y-14622286D01*
X11881762Y-14622286D02*
X11891286Y-14574667D01*
X11891286Y-14574667D02*
X11900810Y-14546095D01*
X11900810Y-14546095D02*
X11910334Y-14527048D01*
X11910334Y-14527048D02*
X11929381Y-14498476D01*
X11929381Y-14498476D02*
X11938905Y-14488952D01*
X12110334Y-14517524D02*
X12015095Y-14517524D01*
X12015095Y-14517524D02*
X12005572Y-14612762D01*
X12005572Y-14612762D02*
X12015095Y-14603238D01*
X12015095Y-14603238D02*
X12034143Y-14593714D01*
X12034143Y-14593714D02*
X12081762Y-14593714D01*
X12081762Y-14593714D02*
X12100810Y-14603238D01*
X12100810Y-14603238D02*
X12110334Y-14612762D01*
X12110334Y-14612762D02*
X12119857Y-14631809D01*
X12119857Y-14631809D02*
X12119857Y-14679428D01*
X12119857Y-14679428D02*
X12110334Y-14698476D01*
X12110334Y-14698476D02*
X12100810Y-14708000D01*
X12100810Y-14708000D02*
X12081762Y-14717524D01*
X12081762Y-14717524D02*
X12034143Y-14717524D01*
X12034143Y-14717524D02*
X12015095Y-14708000D01*
X12015095Y-14708000D02*
X12005572Y-14698476D01*
X12291286Y-14517524D02*
X12253191Y-14517524D01*
X12253191Y-14517524D02*
X12234143Y-14527048D01*
X12234143Y-14527048D02*
X12224619Y-14536571D01*
X12224619Y-14536571D02*
X12205572Y-14565143D01*
X12205572Y-14565143D02*
X12196048Y-14603238D01*
X12196048Y-14603238D02*
X12196048Y-14679428D01*
X12196048Y-14679428D02*
X12205572Y-14698476D01*
X12205572Y-14698476D02*
X12215095Y-14708000D01*
X12215095Y-14708000D02*
X12234143Y-14717524D01*
X12234143Y-14717524D02*
X12272238Y-14717524D01*
X12272238Y-14717524D02*
X12291286Y-14708000D01*
X12291286Y-14708000D02*
X12300810Y-14698476D01*
X12300810Y-14698476D02*
X12310334Y-14679428D01*
X12310334Y-14679428D02*
X12310334Y-14631809D01*
X12310334Y-14631809D02*
X12300810Y-14612762D01*
X12300810Y-14612762D02*
X12291286Y-14603238D01*
X12291286Y-14603238D02*
X12272238Y-14593714D01*
X12272238Y-14593714D02*
X12234143Y-14593714D01*
X12234143Y-14593714D02*
X12215095Y-14603238D01*
X12215095Y-14603238D02*
X12205572Y-14612762D01*
X12205572Y-14612762D02*
X12196048Y-14631809D01*
X12548429Y-14717524D02*
X12548429Y-14517524D01*
X12634143Y-14717524D02*
X12634143Y-14612762D01*
X12634143Y-14612762D02*
X12624619Y-14593714D01*
X12624619Y-14593714D02*
X12605572Y-14584190D01*
X12605572Y-14584190D02*
X12577000Y-14584190D01*
X12577000Y-14584190D02*
X12557953Y-14593714D01*
X12557953Y-14593714D02*
X12548429Y-14603238D01*
X12757953Y-14717524D02*
X12738905Y-14708000D01*
X12738905Y-14708000D02*
X12729381Y-14698476D01*
X12729381Y-14698476D02*
X12719857Y-14679428D01*
X12719857Y-14679428D02*
X12719857Y-14622286D01*
X12719857Y-14622286D02*
X12729381Y-14603238D01*
X12729381Y-14603238D02*
X12738905Y-14593714D01*
X12738905Y-14593714D02*
X12757953Y-14584190D01*
X12757953Y-14584190D02*
X12786524Y-14584190D01*
X12786524Y-14584190D02*
X12805572Y-14593714D01*
X12805572Y-14593714D02*
X12815096Y-14603238D01*
X12815096Y-14603238D02*
X12824619Y-14622286D01*
X12824619Y-14622286D02*
X12824619Y-14679428D01*
X12824619Y-14679428D02*
X12815096Y-14698476D01*
X12815096Y-14698476D02*
X12805572Y-14708000D01*
X12805572Y-14708000D02*
X12786524Y-14717524D01*
X12786524Y-14717524D02*
X12757953Y-14717524D01*
X12938905Y-14717524D02*
X12919857Y-14708000D01*
X12919857Y-14708000D02*
X12910334Y-14688952D01*
X12910334Y-14688952D02*
X12910334Y-14517524D01*
X13091286Y-14708000D02*
X13072238Y-14717524D01*
X13072238Y-14717524D02*
X13034143Y-14717524D01*
X13034143Y-14717524D02*
X13015096Y-14708000D01*
X13015096Y-14708000D02*
X13005572Y-14688952D01*
X13005572Y-14688952D02*
X13005572Y-14612762D01*
X13005572Y-14612762D02*
X13015096Y-14593714D01*
X13015096Y-14593714D02*
X13034143Y-14584190D01*
X13034143Y-14584190D02*
X13072238Y-14584190D01*
X13072238Y-14584190D02*
X13091286Y-14593714D01*
X13091286Y-14593714D02*
X13100810Y-14612762D01*
X13100810Y-14612762D02*
X13100810Y-14631809D01*
X13100810Y-14631809D02*
X13005572Y-14650857D01*
X13177000Y-14708000D02*
X13196048Y-14717524D01*
X13196048Y-14717524D02*
X13234143Y-14717524D01*
X13234143Y-14717524D02*
X13253191Y-14708000D01*
X13253191Y-14708000D02*
X13262715Y-14688952D01*
X13262715Y-14688952D02*
X13262715Y-14679428D01*
X13262715Y-14679428D02*
X13253191Y-14660381D01*
X13253191Y-14660381D02*
X13234143Y-14650857D01*
X13234143Y-14650857D02*
X13205572Y-14650857D01*
X13205572Y-14650857D02*
X13186524Y-14641333D01*
X13186524Y-14641333D02*
X13177000Y-14622286D01*
X13177000Y-14622286D02*
X13177000Y-14612762D01*
X13177000Y-14612762D02*
X13186524Y-14593714D01*
X13186524Y-14593714D02*
X13205572Y-14584190D01*
X13205572Y-14584190D02*
X13234143Y-14584190D01*
X13234143Y-14584190D02*
X13253191Y-14593714D01*
X13329381Y-14793714D02*
X13338905Y-14784190D01*
X13338905Y-14784190D02*
X13357953Y-14755619D01*
X13357953Y-14755619D02*
X13367477Y-14736571D01*
X13367477Y-14736571D02*
X13377000Y-14708000D01*
X13377000Y-14708000D02*
X13386524Y-14660381D01*
X13386524Y-14660381D02*
X13386524Y-14622286D01*
X13386524Y-14622286D02*
X13377000Y-14574667D01*
X13377000Y-14574667D02*
X13367477Y-14546095D01*
X13367477Y-14546095D02*
X13357953Y-14527048D01*
X13357953Y-14527048D02*
X13338905Y-14498476D01*
X13338905Y-14498476D02*
X13329381Y-14488952D01*
D14*
X8337000Y-14849000D02*
X8337000Y-14929000D01*
X8297000Y-14889000D02*
X8377000Y-14889000D01*
D11*
X8662714Y-14781524D02*
X8681762Y-14781524D01*
X8681762Y-14781524D02*
X8700810Y-14791048D01*
X8700810Y-14791048D02*
X8710333Y-14800571D01*
X8710333Y-14800571D02*
X8719857Y-14819619D01*
X8719857Y-14819619D02*
X8729381Y-14857714D01*
X8729381Y-14857714D02*
X8729381Y-14905333D01*
X8729381Y-14905333D02*
X8719857Y-14943428D01*
X8719857Y-14943428D02*
X8710333Y-14962476D01*
X8710333Y-14962476D02*
X8700810Y-14972000D01*
X8700810Y-14972000D02*
X8681762Y-14981524D01*
X8681762Y-14981524D02*
X8662714Y-14981524D01*
X8662714Y-14981524D02*
X8643667Y-14972000D01*
X8643667Y-14972000D02*
X8634143Y-14962476D01*
X8634143Y-14962476D02*
X8624619Y-14943428D01*
X8624619Y-14943428D02*
X8615095Y-14905333D01*
X8615095Y-14905333D02*
X8615095Y-14857714D01*
X8615095Y-14857714D02*
X8624619Y-14819619D01*
X8624619Y-14819619D02*
X8634143Y-14800571D01*
X8634143Y-14800571D02*
X8643667Y-14791048D01*
X8643667Y-14791048D02*
X8662714Y-14781524D01*
X8815095Y-14962476D02*
X8824619Y-14972000D01*
X8824619Y-14972000D02*
X8815095Y-14981524D01*
X8815095Y-14981524D02*
X8805571Y-14972000D01*
X8805571Y-14972000D02*
X8815095Y-14962476D01*
X8815095Y-14962476D02*
X8815095Y-14981524D01*
X8938905Y-14867238D02*
X8919857Y-14857714D01*
X8919857Y-14857714D02*
X8910333Y-14848190D01*
X8910333Y-14848190D02*
X8900810Y-14829143D01*
X8900810Y-14829143D02*
X8900810Y-14819619D01*
X8900810Y-14819619D02*
X8910333Y-14800571D01*
X8910333Y-14800571D02*
X8919857Y-14791048D01*
X8919857Y-14791048D02*
X8938905Y-14781524D01*
X8938905Y-14781524D02*
X8977000Y-14781524D01*
X8977000Y-14781524D02*
X8996048Y-14791048D01*
X8996048Y-14791048D02*
X9005571Y-14800571D01*
X9005571Y-14800571D02*
X9015095Y-14819619D01*
X9015095Y-14819619D02*
X9015095Y-14829143D01*
X9015095Y-14829143D02*
X9005571Y-14848190D01*
X9005571Y-14848190D02*
X8996048Y-14857714D01*
X8996048Y-14857714D02*
X8977000Y-14867238D01*
X8977000Y-14867238D02*
X8938905Y-14867238D01*
X8938905Y-14867238D02*
X8919857Y-14876762D01*
X8919857Y-14876762D02*
X8910333Y-14886286D01*
X8910333Y-14886286D02*
X8900810Y-14905333D01*
X8900810Y-14905333D02*
X8900810Y-14943428D01*
X8900810Y-14943428D02*
X8910333Y-14962476D01*
X8910333Y-14962476D02*
X8919857Y-14972000D01*
X8919857Y-14972000D02*
X8938905Y-14981524D01*
X8938905Y-14981524D02*
X8977000Y-14981524D01*
X8977000Y-14981524D02*
X8996048Y-14972000D01*
X8996048Y-14972000D02*
X9005571Y-14962476D01*
X9005571Y-14962476D02*
X9015095Y-14943428D01*
X9015095Y-14943428D02*
X9015095Y-14905333D01*
X9015095Y-14905333D02*
X9005571Y-14886286D01*
X9005571Y-14886286D02*
X8996048Y-14876762D01*
X8996048Y-14876762D02*
X8977000Y-14867238D01*
X9138905Y-14781524D02*
X9157952Y-14781524D01*
X9157952Y-14781524D02*
X9177000Y-14791048D01*
X9177000Y-14791048D02*
X9186524Y-14800571D01*
X9186524Y-14800571D02*
X9196048Y-14819619D01*
X9196048Y-14819619D02*
X9205571Y-14857714D01*
X9205571Y-14857714D02*
X9205571Y-14905333D01*
X9205571Y-14905333D02*
X9196048Y-14943428D01*
X9196048Y-14943428D02*
X9186524Y-14962476D01*
X9186524Y-14962476D02*
X9177000Y-14972000D01*
X9177000Y-14972000D02*
X9157952Y-14981524D01*
X9157952Y-14981524D02*
X9138905Y-14981524D01*
X9138905Y-14981524D02*
X9119857Y-14972000D01*
X9119857Y-14972000D02*
X9110333Y-14962476D01*
X9110333Y-14962476D02*
X9100810Y-14943428D01*
X9100810Y-14943428D02*
X9091286Y-14905333D01*
X9091286Y-14905333D02*
X9091286Y-14857714D01*
X9091286Y-14857714D02*
X9100810Y-14819619D01*
X9100810Y-14819619D02*
X9110333Y-14800571D01*
X9110333Y-14800571D02*
X9119857Y-14791048D01*
X9119857Y-14791048D02*
X9138905Y-14781524D01*
X9329381Y-14781524D02*
X9348429Y-14781524D01*
X9348429Y-14781524D02*
X9367476Y-14791048D01*
X9367476Y-14791048D02*
X9377000Y-14800571D01*
X9377000Y-14800571D02*
X9386524Y-14819619D01*
X9386524Y-14819619D02*
X9396048Y-14857714D01*
X9396048Y-14857714D02*
X9396048Y-14905333D01*
X9396048Y-14905333D02*
X9386524Y-14943428D01*
X9386524Y-14943428D02*
X9377000Y-14962476D01*
X9377000Y-14962476D02*
X9367476Y-14972000D01*
X9367476Y-14972000D02*
X9348429Y-14981524D01*
X9348429Y-14981524D02*
X9329381Y-14981524D01*
X9329381Y-14981524D02*
X9310333Y-14972000D01*
X9310333Y-14972000D02*
X9300810Y-14962476D01*
X9300810Y-14962476D02*
X9291286Y-14943428D01*
X9291286Y-14943428D02*
X9281762Y-14905333D01*
X9281762Y-14905333D02*
X9281762Y-14857714D01*
X9281762Y-14857714D02*
X9291286Y-14819619D01*
X9291286Y-14819619D02*
X9300810Y-14800571D01*
X9300810Y-14800571D02*
X9310333Y-14791048D01*
X9310333Y-14791048D02*
X9329381Y-14781524D01*
X9481762Y-14981524D02*
X9481762Y-14848190D01*
X9481762Y-14867238D02*
X9491286Y-14857714D01*
X9491286Y-14857714D02*
X9510333Y-14848190D01*
X9510333Y-14848190D02*
X9538905Y-14848190D01*
X9538905Y-14848190D02*
X9557952Y-14857714D01*
X9557952Y-14857714D02*
X9567476Y-14876762D01*
X9567476Y-14876762D02*
X9567476Y-14981524D01*
X9567476Y-14876762D02*
X9577000Y-14857714D01*
X9577000Y-14857714D02*
X9596048Y-14848190D01*
X9596048Y-14848190D02*
X9624619Y-14848190D01*
X9624619Y-14848190D02*
X9643667Y-14857714D01*
X9643667Y-14857714D02*
X9653191Y-14876762D01*
X9653191Y-14876762D02*
X9653191Y-14981524D01*
X9748429Y-14981524D02*
X9748429Y-14848190D01*
X9748429Y-14867238D02*
X9757952Y-14857714D01*
X9757952Y-14857714D02*
X9777000Y-14848190D01*
X9777000Y-14848190D02*
X9805572Y-14848190D01*
X9805572Y-14848190D02*
X9824619Y-14857714D01*
X9824619Y-14857714D02*
X9834143Y-14876762D01*
X9834143Y-14876762D02*
X9834143Y-14981524D01*
X9834143Y-14876762D02*
X9843667Y-14857714D01*
X9843667Y-14857714D02*
X9862714Y-14848190D01*
X9862714Y-14848190D02*
X9891286Y-14848190D01*
X9891286Y-14848190D02*
X9910333Y-14857714D01*
X9910333Y-14857714D02*
X9919857Y-14876762D01*
X9919857Y-14876762D02*
X9919857Y-14981524D01*
X10310333Y-14772000D02*
X10138905Y-15029143D01*
X10567476Y-14781524D02*
X10586524Y-14781524D01*
X10586524Y-14781524D02*
X10605572Y-14791048D01*
X10605572Y-14791048D02*
X10615095Y-14800571D01*
X10615095Y-14800571D02*
X10624619Y-14819619D01*
X10624619Y-14819619D02*
X10634143Y-14857714D01*
X10634143Y-14857714D02*
X10634143Y-14905333D01*
X10634143Y-14905333D02*
X10624619Y-14943428D01*
X10624619Y-14943428D02*
X10615095Y-14962476D01*
X10615095Y-14962476D02*
X10605572Y-14972000D01*
X10605572Y-14972000D02*
X10586524Y-14981524D01*
X10586524Y-14981524D02*
X10567476Y-14981524D01*
X10567476Y-14981524D02*
X10548429Y-14972000D01*
X10548429Y-14972000D02*
X10538905Y-14962476D01*
X10538905Y-14962476D02*
X10529381Y-14943428D01*
X10529381Y-14943428D02*
X10519857Y-14905333D01*
X10519857Y-14905333D02*
X10519857Y-14857714D01*
X10519857Y-14857714D02*
X10529381Y-14819619D01*
X10529381Y-14819619D02*
X10538905Y-14800571D01*
X10538905Y-14800571D02*
X10548429Y-14791048D01*
X10548429Y-14791048D02*
X10567476Y-14781524D01*
X10719857Y-14962476D02*
X10729381Y-14972000D01*
X10729381Y-14972000D02*
X10719857Y-14981524D01*
X10719857Y-14981524D02*
X10710334Y-14972000D01*
X10710334Y-14972000D02*
X10719857Y-14962476D01*
X10719857Y-14962476D02*
X10719857Y-14981524D01*
X10853191Y-14781524D02*
X10872238Y-14781524D01*
X10872238Y-14781524D02*
X10891286Y-14791048D01*
X10891286Y-14791048D02*
X10900810Y-14800571D01*
X10900810Y-14800571D02*
X10910334Y-14819619D01*
X10910334Y-14819619D02*
X10919857Y-14857714D01*
X10919857Y-14857714D02*
X10919857Y-14905333D01*
X10919857Y-14905333D02*
X10910334Y-14943428D01*
X10910334Y-14943428D02*
X10900810Y-14962476D01*
X10900810Y-14962476D02*
X10891286Y-14972000D01*
X10891286Y-14972000D02*
X10872238Y-14981524D01*
X10872238Y-14981524D02*
X10853191Y-14981524D01*
X10853191Y-14981524D02*
X10834143Y-14972000D01*
X10834143Y-14972000D02*
X10824619Y-14962476D01*
X10824619Y-14962476D02*
X10815095Y-14943428D01*
X10815095Y-14943428D02*
X10805572Y-14905333D01*
X10805572Y-14905333D02*
X10805572Y-14857714D01*
X10805572Y-14857714D02*
X10815095Y-14819619D01*
X10815095Y-14819619D02*
X10824619Y-14800571D01*
X10824619Y-14800571D02*
X10834143Y-14791048D01*
X10834143Y-14791048D02*
X10853191Y-14781524D01*
X10986524Y-14781524D02*
X11110334Y-14781524D01*
X11110334Y-14781524D02*
X11043667Y-14857714D01*
X11043667Y-14857714D02*
X11072238Y-14857714D01*
X11072238Y-14857714D02*
X11091286Y-14867238D01*
X11091286Y-14867238D02*
X11100810Y-14876762D01*
X11100810Y-14876762D02*
X11110334Y-14895809D01*
X11110334Y-14895809D02*
X11110334Y-14943428D01*
X11110334Y-14943428D02*
X11100810Y-14962476D01*
X11100810Y-14962476D02*
X11091286Y-14972000D01*
X11091286Y-14972000D02*
X11072238Y-14981524D01*
X11072238Y-14981524D02*
X11015095Y-14981524D01*
X11015095Y-14981524D02*
X10996048Y-14972000D01*
X10996048Y-14972000D02*
X10986524Y-14962476D01*
X11300810Y-14981524D02*
X11186524Y-14981524D01*
X11243667Y-14981524D02*
X11243667Y-14781524D01*
X11243667Y-14781524D02*
X11224619Y-14810095D01*
X11224619Y-14810095D02*
X11205572Y-14829143D01*
X11205572Y-14829143D02*
X11186524Y-14838667D01*
X11481762Y-14781524D02*
X11386524Y-14781524D01*
X11386524Y-14781524D02*
X11377000Y-14876762D01*
X11377000Y-14876762D02*
X11386524Y-14867238D01*
X11386524Y-14867238D02*
X11405572Y-14857714D01*
X11405572Y-14857714D02*
X11453191Y-14857714D01*
X11453191Y-14857714D02*
X11472238Y-14867238D01*
X11472238Y-14867238D02*
X11481762Y-14876762D01*
X11481762Y-14876762D02*
X11491286Y-14895809D01*
X11491286Y-14895809D02*
X11491286Y-14943428D01*
X11491286Y-14943428D02*
X11481762Y-14962476D01*
X11481762Y-14962476D02*
X11472238Y-14972000D01*
X11472238Y-14972000D02*
X11453191Y-14981524D01*
X11453191Y-14981524D02*
X11405572Y-14981524D01*
X11405572Y-14981524D02*
X11386524Y-14972000D01*
X11386524Y-14972000D02*
X11377000Y-14962476D01*
X11567476Y-14781524D02*
X11567476Y-14819619D01*
X11643667Y-14781524D02*
X11643667Y-14819619D01*
X11938905Y-15057714D02*
X11929381Y-15048190D01*
X11929381Y-15048190D02*
X11910334Y-15019619D01*
X11910334Y-15019619D02*
X11900810Y-15000571D01*
X11900810Y-15000571D02*
X11891286Y-14972000D01*
X11891286Y-14972000D02*
X11881762Y-14924381D01*
X11881762Y-14924381D02*
X11881762Y-14886286D01*
X11881762Y-14886286D02*
X11891286Y-14838667D01*
X11891286Y-14838667D02*
X11900810Y-14810095D01*
X11900810Y-14810095D02*
X11910334Y-14791048D01*
X11910334Y-14791048D02*
X11929381Y-14762476D01*
X11929381Y-14762476D02*
X11938905Y-14752952D01*
X12119857Y-14981524D02*
X12005572Y-14981524D01*
X12062714Y-14981524D02*
X12062714Y-14781524D01*
X12062714Y-14781524D02*
X12043667Y-14810095D01*
X12043667Y-14810095D02*
X12024619Y-14829143D01*
X12024619Y-14829143D02*
X12005572Y-14838667D01*
X12291286Y-14781524D02*
X12253191Y-14781524D01*
X12253191Y-14781524D02*
X12234143Y-14791048D01*
X12234143Y-14791048D02*
X12224619Y-14800571D01*
X12224619Y-14800571D02*
X12205572Y-14829143D01*
X12205572Y-14829143D02*
X12196048Y-14867238D01*
X12196048Y-14867238D02*
X12196048Y-14943428D01*
X12196048Y-14943428D02*
X12205572Y-14962476D01*
X12205572Y-14962476D02*
X12215095Y-14972000D01*
X12215095Y-14972000D02*
X12234143Y-14981524D01*
X12234143Y-14981524D02*
X12272238Y-14981524D01*
X12272238Y-14981524D02*
X12291286Y-14972000D01*
X12291286Y-14972000D02*
X12300810Y-14962476D01*
X12300810Y-14962476D02*
X12310334Y-14943428D01*
X12310334Y-14943428D02*
X12310334Y-14895809D01*
X12310334Y-14895809D02*
X12300810Y-14876762D01*
X12300810Y-14876762D02*
X12291286Y-14867238D01*
X12291286Y-14867238D02*
X12272238Y-14857714D01*
X12272238Y-14857714D02*
X12234143Y-14857714D01*
X12234143Y-14857714D02*
X12215095Y-14867238D01*
X12215095Y-14867238D02*
X12205572Y-14876762D01*
X12205572Y-14876762D02*
X12196048Y-14895809D01*
X12481762Y-14781524D02*
X12443667Y-14781524D01*
X12443667Y-14781524D02*
X12424619Y-14791048D01*
X12424619Y-14791048D02*
X12415095Y-14800571D01*
X12415095Y-14800571D02*
X12396048Y-14829143D01*
X12396048Y-14829143D02*
X12386524Y-14867238D01*
X12386524Y-14867238D02*
X12386524Y-14943428D01*
X12386524Y-14943428D02*
X12396048Y-14962476D01*
X12396048Y-14962476D02*
X12405572Y-14972000D01*
X12405572Y-14972000D02*
X12424619Y-14981524D01*
X12424619Y-14981524D02*
X12462715Y-14981524D01*
X12462715Y-14981524D02*
X12481762Y-14972000D01*
X12481762Y-14972000D02*
X12491286Y-14962476D01*
X12491286Y-14962476D02*
X12500810Y-14943428D01*
X12500810Y-14943428D02*
X12500810Y-14895809D01*
X12500810Y-14895809D02*
X12491286Y-14876762D01*
X12491286Y-14876762D02*
X12481762Y-14867238D01*
X12481762Y-14867238D02*
X12462715Y-14857714D01*
X12462715Y-14857714D02*
X12424619Y-14857714D01*
X12424619Y-14857714D02*
X12405572Y-14867238D01*
X12405572Y-14867238D02*
X12396048Y-14876762D01*
X12396048Y-14876762D02*
X12386524Y-14895809D01*
X12738905Y-14981524D02*
X12738905Y-14781524D01*
X12824619Y-14981524D02*
X12824619Y-14876762D01*
X12824619Y-14876762D02*
X12815096Y-14857714D01*
X12815096Y-14857714D02*
X12796048Y-14848190D01*
X12796048Y-14848190D02*
X12767476Y-14848190D01*
X12767476Y-14848190D02*
X12748429Y-14857714D01*
X12748429Y-14857714D02*
X12738905Y-14867238D01*
X12948429Y-14981524D02*
X12929381Y-14972000D01*
X12929381Y-14972000D02*
X12919857Y-14962476D01*
X12919857Y-14962476D02*
X12910334Y-14943428D01*
X12910334Y-14943428D02*
X12910334Y-14886286D01*
X12910334Y-14886286D02*
X12919857Y-14867238D01*
X12919857Y-14867238D02*
X12929381Y-14857714D01*
X12929381Y-14857714D02*
X12948429Y-14848190D01*
X12948429Y-14848190D02*
X12977000Y-14848190D01*
X12977000Y-14848190D02*
X12996048Y-14857714D01*
X12996048Y-14857714D02*
X13005572Y-14867238D01*
X13005572Y-14867238D02*
X13015096Y-14886286D01*
X13015096Y-14886286D02*
X13015096Y-14943428D01*
X13015096Y-14943428D02*
X13005572Y-14962476D01*
X13005572Y-14962476D02*
X12996048Y-14972000D01*
X12996048Y-14972000D02*
X12977000Y-14981524D01*
X12977000Y-14981524D02*
X12948429Y-14981524D01*
X13129381Y-14981524D02*
X13110334Y-14972000D01*
X13110334Y-14972000D02*
X13100810Y-14952952D01*
X13100810Y-14952952D02*
X13100810Y-14781524D01*
X13281762Y-14972000D02*
X13262715Y-14981524D01*
X13262715Y-14981524D02*
X13224619Y-14981524D01*
X13224619Y-14981524D02*
X13205572Y-14972000D01*
X13205572Y-14972000D02*
X13196048Y-14952952D01*
X13196048Y-14952952D02*
X13196048Y-14876762D01*
X13196048Y-14876762D02*
X13205572Y-14857714D01*
X13205572Y-14857714D02*
X13224619Y-14848190D01*
X13224619Y-14848190D02*
X13262715Y-14848190D01*
X13262715Y-14848190D02*
X13281762Y-14857714D01*
X13281762Y-14857714D02*
X13291286Y-14876762D01*
X13291286Y-14876762D02*
X13291286Y-14895809D01*
X13291286Y-14895809D02*
X13196048Y-14914857D01*
X13367477Y-14972000D02*
X13386524Y-14981524D01*
X13386524Y-14981524D02*
X13424619Y-14981524D01*
X13424619Y-14981524D02*
X13443667Y-14972000D01*
X13443667Y-14972000D02*
X13453191Y-14952952D01*
X13453191Y-14952952D02*
X13453191Y-14943428D01*
X13453191Y-14943428D02*
X13443667Y-14924381D01*
X13443667Y-14924381D02*
X13424619Y-14914857D01*
X13424619Y-14914857D02*
X13396048Y-14914857D01*
X13396048Y-14914857D02*
X13377000Y-14905333D01*
X13377000Y-14905333D02*
X13367477Y-14886286D01*
X13367477Y-14886286D02*
X13367477Y-14876762D01*
X13367477Y-14876762D02*
X13377000Y-14857714D01*
X13377000Y-14857714D02*
X13396048Y-14848190D01*
X13396048Y-14848190D02*
X13424619Y-14848190D01*
X13424619Y-14848190D02*
X13443667Y-14857714D01*
X13519858Y-15057714D02*
X13529381Y-15048190D01*
X13529381Y-15048190D02*
X13548429Y-15019619D01*
X13548429Y-15019619D02*
X13557953Y-15000571D01*
X13557953Y-15000571D02*
X13567477Y-14972000D01*
X13567477Y-14972000D02*
X13577000Y-14924381D01*
X13577000Y-14924381D02*
X13577000Y-14886286D01*
X13577000Y-14886286D02*
X13567477Y-14838667D01*
X13567477Y-14838667D02*
X13557953Y-14810095D01*
X13557953Y-14810095D02*
X13548429Y-14791048D01*
X13548429Y-14791048D02*
X13529381Y-14762476D01*
X13529381Y-14762476D02*
X13519858Y-14752952D01*
D15*
X8363088Y-15186588D02*
X8363088Y-15119412D01*
X8295912Y-15119412D01*
X8295912Y-15186588D01*
X8363088Y-15186588D01*
D11*
X8662714Y-15045524D02*
X8681762Y-15045524D01*
X8681762Y-15045524D02*
X8700810Y-15055048D01*
X8700810Y-15055048D02*
X8710333Y-15064571D01*
X8710333Y-15064571D02*
X8719857Y-15083619D01*
X8719857Y-15083619D02*
X8729381Y-15121714D01*
X8729381Y-15121714D02*
X8729381Y-15169333D01*
X8729381Y-15169333D02*
X8719857Y-15207428D01*
X8719857Y-15207428D02*
X8710333Y-15226476D01*
X8710333Y-15226476D02*
X8700810Y-15236000D01*
X8700810Y-15236000D02*
X8681762Y-15245524D01*
X8681762Y-15245524D02*
X8662714Y-15245524D01*
X8662714Y-15245524D02*
X8643667Y-15236000D01*
X8643667Y-15236000D02*
X8634143Y-15226476D01*
X8634143Y-15226476D02*
X8624619Y-15207428D01*
X8624619Y-15207428D02*
X8615095Y-15169333D01*
X8615095Y-15169333D02*
X8615095Y-15121714D01*
X8615095Y-15121714D02*
X8624619Y-15083619D01*
X8624619Y-15083619D02*
X8634143Y-15064571D01*
X8634143Y-15064571D02*
X8643667Y-15055048D01*
X8643667Y-15055048D02*
X8662714Y-15045524D01*
X8815095Y-15226476D02*
X8824619Y-15236000D01*
X8824619Y-15236000D02*
X8815095Y-15245524D01*
X8815095Y-15245524D02*
X8805571Y-15236000D01*
X8805571Y-15236000D02*
X8815095Y-15226476D01*
X8815095Y-15226476D02*
X8815095Y-15245524D01*
X8919857Y-15245524D02*
X8957952Y-15245524D01*
X8957952Y-15245524D02*
X8977000Y-15236000D01*
X8977000Y-15236000D02*
X8986524Y-15226476D01*
X8986524Y-15226476D02*
X9005571Y-15197905D01*
X9005571Y-15197905D02*
X9015095Y-15159809D01*
X9015095Y-15159809D02*
X9015095Y-15083619D01*
X9015095Y-15083619D02*
X9005571Y-15064571D01*
X9005571Y-15064571D02*
X8996048Y-15055048D01*
X8996048Y-15055048D02*
X8977000Y-15045524D01*
X8977000Y-15045524D02*
X8938905Y-15045524D01*
X8938905Y-15045524D02*
X8919857Y-15055048D01*
X8919857Y-15055048D02*
X8910333Y-15064571D01*
X8910333Y-15064571D02*
X8900810Y-15083619D01*
X8900810Y-15083619D02*
X8900810Y-15131238D01*
X8900810Y-15131238D02*
X8910333Y-15150286D01*
X8910333Y-15150286D02*
X8919857Y-15159809D01*
X8919857Y-15159809D02*
X8938905Y-15169333D01*
X8938905Y-15169333D02*
X8977000Y-15169333D01*
X8977000Y-15169333D02*
X8996048Y-15159809D01*
X8996048Y-15159809D02*
X9005571Y-15150286D01*
X9005571Y-15150286D02*
X9015095Y-15131238D01*
X9196048Y-15045524D02*
X9100810Y-15045524D01*
X9100810Y-15045524D02*
X9091286Y-15140762D01*
X9091286Y-15140762D02*
X9100810Y-15131238D01*
X9100810Y-15131238D02*
X9119857Y-15121714D01*
X9119857Y-15121714D02*
X9167476Y-15121714D01*
X9167476Y-15121714D02*
X9186524Y-15131238D01*
X9186524Y-15131238D02*
X9196048Y-15140762D01*
X9196048Y-15140762D02*
X9205571Y-15159809D01*
X9205571Y-15159809D02*
X9205571Y-15207428D01*
X9205571Y-15207428D02*
X9196048Y-15226476D01*
X9196048Y-15226476D02*
X9186524Y-15236000D01*
X9186524Y-15236000D02*
X9167476Y-15245524D01*
X9167476Y-15245524D02*
X9119857Y-15245524D01*
X9119857Y-15245524D02*
X9100810Y-15236000D01*
X9100810Y-15236000D02*
X9091286Y-15226476D01*
X9329381Y-15045524D02*
X9348429Y-15045524D01*
X9348429Y-15045524D02*
X9367476Y-15055048D01*
X9367476Y-15055048D02*
X9377000Y-15064571D01*
X9377000Y-15064571D02*
X9386524Y-15083619D01*
X9386524Y-15083619D02*
X9396048Y-15121714D01*
X9396048Y-15121714D02*
X9396048Y-15169333D01*
X9396048Y-15169333D02*
X9386524Y-15207428D01*
X9386524Y-15207428D02*
X9377000Y-15226476D01*
X9377000Y-15226476D02*
X9367476Y-15236000D01*
X9367476Y-15236000D02*
X9348429Y-15245524D01*
X9348429Y-15245524D02*
X9329381Y-15245524D01*
X9329381Y-15245524D02*
X9310333Y-15236000D01*
X9310333Y-15236000D02*
X9300810Y-15226476D01*
X9300810Y-15226476D02*
X9291286Y-15207428D01*
X9291286Y-15207428D02*
X9281762Y-15169333D01*
X9281762Y-15169333D02*
X9281762Y-15121714D01*
X9281762Y-15121714D02*
X9291286Y-15083619D01*
X9291286Y-15083619D02*
X9300810Y-15064571D01*
X9300810Y-15064571D02*
X9310333Y-15055048D01*
X9310333Y-15055048D02*
X9329381Y-15045524D01*
X9481762Y-15245524D02*
X9481762Y-15112190D01*
X9481762Y-15131238D02*
X9491286Y-15121714D01*
X9491286Y-15121714D02*
X9510333Y-15112190D01*
X9510333Y-15112190D02*
X9538905Y-15112190D01*
X9538905Y-15112190D02*
X9557952Y-15121714D01*
X9557952Y-15121714D02*
X9567476Y-15140762D01*
X9567476Y-15140762D02*
X9567476Y-15245524D01*
X9567476Y-15140762D02*
X9577000Y-15121714D01*
X9577000Y-15121714D02*
X9596048Y-15112190D01*
X9596048Y-15112190D02*
X9624619Y-15112190D01*
X9624619Y-15112190D02*
X9643667Y-15121714D01*
X9643667Y-15121714D02*
X9653191Y-15140762D01*
X9653191Y-15140762D02*
X9653191Y-15245524D01*
X9748429Y-15245524D02*
X9748429Y-15112190D01*
X9748429Y-15131238D02*
X9757952Y-15121714D01*
X9757952Y-15121714D02*
X9777000Y-15112190D01*
X9777000Y-15112190D02*
X9805572Y-15112190D01*
X9805572Y-15112190D02*
X9824619Y-15121714D01*
X9824619Y-15121714D02*
X9834143Y-15140762D01*
X9834143Y-15140762D02*
X9834143Y-15245524D01*
X9834143Y-15140762D02*
X9843667Y-15121714D01*
X9843667Y-15121714D02*
X9862714Y-15112190D01*
X9862714Y-15112190D02*
X9891286Y-15112190D01*
X9891286Y-15112190D02*
X9910333Y-15121714D01*
X9910333Y-15121714D02*
X9919857Y-15140762D01*
X9919857Y-15140762D02*
X9919857Y-15245524D01*
X10310333Y-15036000D02*
X10138905Y-15293143D01*
X10567476Y-15045524D02*
X10586524Y-15045524D01*
X10586524Y-15045524D02*
X10605572Y-15055048D01*
X10605572Y-15055048D02*
X10615095Y-15064571D01*
X10615095Y-15064571D02*
X10624619Y-15083619D01*
X10624619Y-15083619D02*
X10634143Y-15121714D01*
X10634143Y-15121714D02*
X10634143Y-15169333D01*
X10634143Y-15169333D02*
X10624619Y-15207428D01*
X10624619Y-15207428D02*
X10615095Y-15226476D01*
X10615095Y-15226476D02*
X10605572Y-15236000D01*
X10605572Y-15236000D02*
X10586524Y-15245524D01*
X10586524Y-15245524D02*
X10567476Y-15245524D01*
X10567476Y-15245524D02*
X10548429Y-15236000D01*
X10548429Y-15236000D02*
X10538905Y-15226476D01*
X10538905Y-15226476D02*
X10529381Y-15207428D01*
X10529381Y-15207428D02*
X10519857Y-15169333D01*
X10519857Y-15169333D02*
X10519857Y-15121714D01*
X10519857Y-15121714D02*
X10529381Y-15083619D01*
X10529381Y-15083619D02*
X10538905Y-15064571D01*
X10538905Y-15064571D02*
X10548429Y-15055048D01*
X10548429Y-15055048D02*
X10567476Y-15045524D01*
X10719857Y-15226476D02*
X10729381Y-15236000D01*
X10729381Y-15236000D02*
X10719857Y-15245524D01*
X10719857Y-15245524D02*
X10710334Y-15236000D01*
X10710334Y-15236000D02*
X10719857Y-15226476D01*
X10719857Y-15226476D02*
X10719857Y-15245524D01*
X10853191Y-15045524D02*
X10872238Y-15045524D01*
X10872238Y-15045524D02*
X10891286Y-15055048D01*
X10891286Y-15055048D02*
X10900810Y-15064571D01*
X10900810Y-15064571D02*
X10910334Y-15083619D01*
X10910334Y-15083619D02*
X10919857Y-15121714D01*
X10919857Y-15121714D02*
X10919857Y-15169333D01*
X10919857Y-15169333D02*
X10910334Y-15207428D01*
X10910334Y-15207428D02*
X10900810Y-15226476D01*
X10900810Y-15226476D02*
X10891286Y-15236000D01*
X10891286Y-15236000D02*
X10872238Y-15245524D01*
X10872238Y-15245524D02*
X10853191Y-15245524D01*
X10853191Y-15245524D02*
X10834143Y-15236000D01*
X10834143Y-15236000D02*
X10824619Y-15226476D01*
X10824619Y-15226476D02*
X10815095Y-15207428D01*
X10815095Y-15207428D02*
X10805572Y-15169333D01*
X10805572Y-15169333D02*
X10805572Y-15121714D01*
X10805572Y-15121714D02*
X10815095Y-15083619D01*
X10815095Y-15083619D02*
X10824619Y-15064571D01*
X10824619Y-15064571D02*
X10834143Y-15055048D01*
X10834143Y-15055048D02*
X10853191Y-15045524D01*
X10986524Y-15045524D02*
X11110334Y-15045524D01*
X11110334Y-15045524D02*
X11043667Y-15121714D01*
X11043667Y-15121714D02*
X11072238Y-15121714D01*
X11072238Y-15121714D02*
X11091286Y-15131238D01*
X11091286Y-15131238D02*
X11100810Y-15140762D01*
X11100810Y-15140762D02*
X11110334Y-15159809D01*
X11110334Y-15159809D02*
X11110334Y-15207428D01*
X11110334Y-15207428D02*
X11100810Y-15226476D01*
X11100810Y-15226476D02*
X11091286Y-15236000D01*
X11091286Y-15236000D02*
X11072238Y-15245524D01*
X11072238Y-15245524D02*
X11015095Y-15245524D01*
X11015095Y-15245524D02*
X10996048Y-15236000D01*
X10996048Y-15236000D02*
X10986524Y-15226476D01*
X11177000Y-15045524D02*
X11310333Y-15045524D01*
X11310333Y-15045524D02*
X11224619Y-15245524D01*
X11472238Y-15112190D02*
X11472238Y-15245524D01*
X11424619Y-15036000D02*
X11377000Y-15178857D01*
X11377000Y-15178857D02*
X11500810Y-15178857D01*
X11567476Y-15045524D02*
X11567476Y-15083619D01*
X11643667Y-15045524D02*
X11643667Y-15083619D01*
X11938905Y-15321714D02*
X11929381Y-15312190D01*
X11929381Y-15312190D02*
X11910334Y-15283619D01*
X11910334Y-15283619D02*
X11900810Y-15264571D01*
X11900810Y-15264571D02*
X11891286Y-15236000D01*
X11891286Y-15236000D02*
X11881762Y-15188381D01*
X11881762Y-15188381D02*
X11881762Y-15150286D01*
X11881762Y-15150286D02*
X11891286Y-15102667D01*
X11891286Y-15102667D02*
X11900810Y-15074095D01*
X11900810Y-15074095D02*
X11910334Y-15055048D01*
X11910334Y-15055048D02*
X11929381Y-15026476D01*
X11929381Y-15026476D02*
X11938905Y-15016952D01*
X11996048Y-15045524D02*
X12119857Y-15045524D01*
X12119857Y-15045524D02*
X12053191Y-15121714D01*
X12053191Y-15121714D02*
X12081762Y-15121714D01*
X12081762Y-15121714D02*
X12100810Y-15131238D01*
X12100810Y-15131238D02*
X12110334Y-15140762D01*
X12110334Y-15140762D02*
X12119857Y-15159809D01*
X12119857Y-15159809D02*
X12119857Y-15207428D01*
X12119857Y-15207428D02*
X12110334Y-15226476D01*
X12110334Y-15226476D02*
X12100810Y-15236000D01*
X12100810Y-15236000D02*
X12081762Y-15245524D01*
X12081762Y-15245524D02*
X12024619Y-15245524D01*
X12024619Y-15245524D02*
X12005572Y-15236000D01*
X12005572Y-15236000D02*
X11996048Y-15226476D01*
X12357953Y-15245524D02*
X12357953Y-15045524D01*
X12443667Y-15245524D02*
X12443667Y-15140762D01*
X12443667Y-15140762D02*
X12434143Y-15121714D01*
X12434143Y-15121714D02*
X12415096Y-15112190D01*
X12415096Y-15112190D02*
X12386524Y-15112190D01*
X12386524Y-15112190D02*
X12367476Y-15121714D01*
X12367476Y-15121714D02*
X12357953Y-15131238D01*
X12567476Y-15245524D02*
X12548429Y-15236000D01*
X12548429Y-15236000D02*
X12538905Y-15226476D01*
X12538905Y-15226476D02*
X12529381Y-15207428D01*
X12529381Y-15207428D02*
X12529381Y-15150286D01*
X12529381Y-15150286D02*
X12538905Y-15131238D01*
X12538905Y-15131238D02*
X12548429Y-15121714D01*
X12548429Y-15121714D02*
X12567476Y-15112190D01*
X12567476Y-15112190D02*
X12596048Y-15112190D01*
X12596048Y-15112190D02*
X12615096Y-15121714D01*
X12615096Y-15121714D02*
X12624619Y-15131238D01*
X12624619Y-15131238D02*
X12634143Y-15150286D01*
X12634143Y-15150286D02*
X12634143Y-15207428D01*
X12634143Y-15207428D02*
X12624619Y-15226476D01*
X12624619Y-15226476D02*
X12615096Y-15236000D01*
X12615096Y-15236000D02*
X12596048Y-15245524D01*
X12596048Y-15245524D02*
X12567476Y-15245524D01*
X12748429Y-15245524D02*
X12729381Y-15236000D01*
X12729381Y-15236000D02*
X12719857Y-15216952D01*
X12719857Y-15216952D02*
X12719857Y-15045524D01*
X12900810Y-15236000D02*
X12881762Y-15245524D01*
X12881762Y-15245524D02*
X12843667Y-15245524D01*
X12843667Y-15245524D02*
X12824619Y-15236000D01*
X12824619Y-15236000D02*
X12815096Y-15216952D01*
X12815096Y-15216952D02*
X12815096Y-15140762D01*
X12815096Y-15140762D02*
X12824619Y-15121714D01*
X12824619Y-15121714D02*
X12843667Y-15112190D01*
X12843667Y-15112190D02*
X12881762Y-15112190D01*
X12881762Y-15112190D02*
X12900810Y-15121714D01*
X12900810Y-15121714D02*
X12910334Y-15140762D01*
X12910334Y-15140762D02*
X12910334Y-15159809D01*
X12910334Y-15159809D02*
X12815096Y-15178857D01*
X12986524Y-15236000D02*
X13005572Y-15245524D01*
X13005572Y-15245524D02*
X13043667Y-15245524D01*
X13043667Y-15245524D02*
X13062715Y-15236000D01*
X13062715Y-15236000D02*
X13072238Y-15216952D01*
X13072238Y-15216952D02*
X13072238Y-15207428D01*
X13072238Y-15207428D02*
X13062715Y-15188381D01*
X13062715Y-15188381D02*
X13043667Y-15178857D01*
X13043667Y-15178857D02*
X13015096Y-15178857D01*
X13015096Y-15178857D02*
X12996048Y-15169333D01*
X12996048Y-15169333D02*
X12986524Y-15150286D01*
X12986524Y-15150286D02*
X12986524Y-15140762D01*
X12986524Y-15140762D02*
X12996048Y-15121714D01*
X12996048Y-15121714D02*
X13015096Y-15112190D01*
X13015096Y-15112190D02*
X13043667Y-15112190D01*
X13043667Y-15112190D02*
X13062715Y-15121714D01*
X13138905Y-15321714D02*
X13148429Y-15312190D01*
X13148429Y-15312190D02*
X13167477Y-15283619D01*
X13167477Y-15283619D02*
X13177000Y-15264571D01*
X13177000Y-15264571D02*
X13186524Y-15236000D01*
X13186524Y-15236000D02*
X13196048Y-15188381D01*
X13196048Y-15188381D02*
X13196048Y-15150286D01*
X13196048Y-15150286D02*
X13186524Y-15102667D01*
X13186524Y-15102667D02*
X13177000Y-15074095D01*
X13177000Y-15074095D02*
X13167477Y-15055048D01*
X13167477Y-15055048D02*
X13148429Y-15026476D01*
X13148429Y-15026476D02*
X13138905Y-15016952D01*
D10*
X8327000Y-15467000D02*
X8377000Y-15417000D01*
X8327000Y-15367000D01*
X8277000Y-15417000D01*
X8327000Y-15467000D01*
D11*
X8729381Y-15509524D02*
X8615095Y-15509524D01*
X8672238Y-15509524D02*
X8672238Y-15309524D01*
X8672238Y-15309524D02*
X8653190Y-15338095D01*
X8653190Y-15338095D02*
X8634143Y-15357143D01*
X8634143Y-15357143D02*
X8615095Y-15366667D01*
X8815095Y-15490476D02*
X8824619Y-15500000D01*
X8824619Y-15500000D02*
X8815095Y-15509524D01*
X8815095Y-15509524D02*
X8805571Y-15500000D01*
X8805571Y-15500000D02*
X8815095Y-15490476D01*
X8815095Y-15490476D02*
X8815095Y-15509524D01*
X8948429Y-15309524D02*
X8967476Y-15309524D01*
X8967476Y-15309524D02*
X8986524Y-15319048D01*
X8986524Y-15319048D02*
X8996048Y-15328571D01*
X8996048Y-15328571D02*
X9005571Y-15347619D01*
X9005571Y-15347619D02*
X9015095Y-15385714D01*
X9015095Y-15385714D02*
X9015095Y-15433333D01*
X9015095Y-15433333D02*
X9005571Y-15471428D01*
X9005571Y-15471428D02*
X8996048Y-15490476D01*
X8996048Y-15490476D02*
X8986524Y-15500000D01*
X8986524Y-15500000D02*
X8967476Y-15509524D01*
X8967476Y-15509524D02*
X8948429Y-15509524D01*
X8948429Y-15509524D02*
X8929381Y-15500000D01*
X8929381Y-15500000D02*
X8919857Y-15490476D01*
X8919857Y-15490476D02*
X8910333Y-15471428D01*
X8910333Y-15471428D02*
X8900810Y-15433333D01*
X8900810Y-15433333D02*
X8900810Y-15385714D01*
X8900810Y-15385714D02*
X8910333Y-15347619D01*
X8910333Y-15347619D02*
X8919857Y-15328571D01*
X8919857Y-15328571D02*
X8929381Y-15319048D01*
X8929381Y-15319048D02*
X8948429Y-15309524D01*
X9138905Y-15309524D02*
X9157952Y-15309524D01*
X9157952Y-15309524D02*
X9177000Y-15319048D01*
X9177000Y-15319048D02*
X9186524Y-15328571D01*
X9186524Y-15328571D02*
X9196048Y-15347619D01*
X9196048Y-15347619D02*
X9205571Y-15385714D01*
X9205571Y-15385714D02*
X9205571Y-15433333D01*
X9205571Y-15433333D02*
X9196048Y-15471428D01*
X9196048Y-15471428D02*
X9186524Y-15490476D01*
X9186524Y-15490476D02*
X9177000Y-15500000D01*
X9177000Y-15500000D02*
X9157952Y-15509524D01*
X9157952Y-15509524D02*
X9138905Y-15509524D01*
X9138905Y-15509524D02*
X9119857Y-15500000D01*
X9119857Y-15500000D02*
X9110333Y-15490476D01*
X9110333Y-15490476D02*
X9100810Y-15471428D01*
X9100810Y-15471428D02*
X9091286Y-15433333D01*
X9091286Y-15433333D02*
X9091286Y-15385714D01*
X9091286Y-15385714D02*
X9100810Y-15347619D01*
X9100810Y-15347619D02*
X9110333Y-15328571D01*
X9110333Y-15328571D02*
X9119857Y-15319048D01*
X9119857Y-15319048D02*
X9138905Y-15309524D01*
X9329381Y-15309524D02*
X9348429Y-15309524D01*
X9348429Y-15309524D02*
X9367476Y-15319048D01*
X9367476Y-15319048D02*
X9377000Y-15328571D01*
X9377000Y-15328571D02*
X9386524Y-15347619D01*
X9386524Y-15347619D02*
X9396048Y-15385714D01*
X9396048Y-15385714D02*
X9396048Y-15433333D01*
X9396048Y-15433333D02*
X9386524Y-15471428D01*
X9386524Y-15471428D02*
X9377000Y-15490476D01*
X9377000Y-15490476D02*
X9367476Y-15500000D01*
X9367476Y-15500000D02*
X9348429Y-15509524D01*
X9348429Y-15509524D02*
X9329381Y-15509524D01*
X9329381Y-15509524D02*
X9310333Y-15500000D01*
X9310333Y-15500000D02*
X9300810Y-15490476D01*
X9300810Y-15490476D02*
X9291286Y-15471428D01*
X9291286Y-15471428D02*
X9281762Y-15433333D01*
X9281762Y-15433333D02*
X9281762Y-15385714D01*
X9281762Y-15385714D02*
X9291286Y-15347619D01*
X9291286Y-15347619D02*
X9300810Y-15328571D01*
X9300810Y-15328571D02*
X9310333Y-15319048D01*
X9310333Y-15319048D02*
X9329381Y-15309524D01*
X9481762Y-15509524D02*
X9481762Y-15376190D01*
X9481762Y-15395238D02*
X9491286Y-15385714D01*
X9491286Y-15385714D02*
X9510333Y-15376190D01*
X9510333Y-15376190D02*
X9538905Y-15376190D01*
X9538905Y-15376190D02*
X9557952Y-15385714D01*
X9557952Y-15385714D02*
X9567476Y-15404762D01*
X9567476Y-15404762D02*
X9567476Y-15509524D01*
X9567476Y-15404762D02*
X9577000Y-15385714D01*
X9577000Y-15385714D02*
X9596048Y-15376190D01*
X9596048Y-15376190D02*
X9624619Y-15376190D01*
X9624619Y-15376190D02*
X9643667Y-15385714D01*
X9643667Y-15385714D02*
X9653191Y-15404762D01*
X9653191Y-15404762D02*
X9653191Y-15509524D01*
X9748429Y-15509524D02*
X9748429Y-15376190D01*
X9748429Y-15395238D02*
X9757952Y-15385714D01*
X9757952Y-15385714D02*
X9777000Y-15376190D01*
X9777000Y-15376190D02*
X9805572Y-15376190D01*
X9805572Y-15376190D02*
X9824619Y-15385714D01*
X9824619Y-15385714D02*
X9834143Y-15404762D01*
X9834143Y-15404762D02*
X9834143Y-15509524D01*
X9834143Y-15404762D02*
X9843667Y-15385714D01*
X9843667Y-15385714D02*
X9862714Y-15376190D01*
X9862714Y-15376190D02*
X9891286Y-15376190D01*
X9891286Y-15376190D02*
X9910333Y-15385714D01*
X9910333Y-15385714D02*
X9919857Y-15404762D01*
X9919857Y-15404762D02*
X9919857Y-15509524D01*
X10310333Y-15300000D02*
X10138905Y-15557143D01*
X10567476Y-15309524D02*
X10586524Y-15309524D01*
X10586524Y-15309524D02*
X10605572Y-15319048D01*
X10605572Y-15319048D02*
X10615095Y-15328571D01*
X10615095Y-15328571D02*
X10624619Y-15347619D01*
X10624619Y-15347619D02*
X10634143Y-15385714D01*
X10634143Y-15385714D02*
X10634143Y-15433333D01*
X10634143Y-15433333D02*
X10624619Y-15471428D01*
X10624619Y-15471428D02*
X10615095Y-15490476D01*
X10615095Y-15490476D02*
X10605572Y-15500000D01*
X10605572Y-15500000D02*
X10586524Y-15509524D01*
X10586524Y-15509524D02*
X10567476Y-15509524D01*
X10567476Y-15509524D02*
X10548429Y-15500000D01*
X10548429Y-15500000D02*
X10538905Y-15490476D01*
X10538905Y-15490476D02*
X10529381Y-15471428D01*
X10529381Y-15471428D02*
X10519857Y-15433333D01*
X10519857Y-15433333D02*
X10519857Y-15385714D01*
X10519857Y-15385714D02*
X10529381Y-15347619D01*
X10529381Y-15347619D02*
X10538905Y-15328571D01*
X10538905Y-15328571D02*
X10548429Y-15319048D01*
X10548429Y-15319048D02*
X10567476Y-15309524D01*
X10719857Y-15490476D02*
X10729381Y-15500000D01*
X10729381Y-15500000D02*
X10719857Y-15509524D01*
X10719857Y-15509524D02*
X10710334Y-15500000D01*
X10710334Y-15500000D02*
X10719857Y-15490476D01*
X10719857Y-15490476D02*
X10719857Y-15509524D01*
X10853191Y-15309524D02*
X10872238Y-15309524D01*
X10872238Y-15309524D02*
X10891286Y-15319048D01*
X10891286Y-15319048D02*
X10900810Y-15328571D01*
X10900810Y-15328571D02*
X10910334Y-15347619D01*
X10910334Y-15347619D02*
X10919857Y-15385714D01*
X10919857Y-15385714D02*
X10919857Y-15433333D01*
X10919857Y-15433333D02*
X10910334Y-15471428D01*
X10910334Y-15471428D02*
X10900810Y-15490476D01*
X10900810Y-15490476D02*
X10891286Y-15500000D01*
X10891286Y-15500000D02*
X10872238Y-15509524D01*
X10872238Y-15509524D02*
X10853191Y-15509524D01*
X10853191Y-15509524D02*
X10834143Y-15500000D01*
X10834143Y-15500000D02*
X10824619Y-15490476D01*
X10824619Y-15490476D02*
X10815095Y-15471428D01*
X10815095Y-15471428D02*
X10805572Y-15433333D01*
X10805572Y-15433333D02*
X10805572Y-15385714D01*
X10805572Y-15385714D02*
X10815095Y-15347619D01*
X10815095Y-15347619D02*
X10824619Y-15328571D01*
X10824619Y-15328571D02*
X10834143Y-15319048D01*
X10834143Y-15319048D02*
X10853191Y-15309524D01*
X10986524Y-15309524D02*
X11110334Y-15309524D01*
X11110334Y-15309524D02*
X11043667Y-15385714D01*
X11043667Y-15385714D02*
X11072238Y-15385714D01*
X11072238Y-15385714D02*
X11091286Y-15395238D01*
X11091286Y-15395238D02*
X11100810Y-15404762D01*
X11100810Y-15404762D02*
X11110334Y-15423809D01*
X11110334Y-15423809D02*
X11110334Y-15471428D01*
X11110334Y-15471428D02*
X11100810Y-15490476D01*
X11100810Y-15490476D02*
X11091286Y-15500000D01*
X11091286Y-15500000D02*
X11072238Y-15509524D01*
X11072238Y-15509524D02*
X11015095Y-15509524D01*
X11015095Y-15509524D02*
X10996048Y-15500000D01*
X10996048Y-15500000D02*
X10986524Y-15490476D01*
X11205572Y-15509524D02*
X11243667Y-15509524D01*
X11243667Y-15509524D02*
X11262714Y-15500000D01*
X11262714Y-15500000D02*
X11272238Y-15490476D01*
X11272238Y-15490476D02*
X11291286Y-15461905D01*
X11291286Y-15461905D02*
X11300810Y-15423809D01*
X11300810Y-15423809D02*
X11300810Y-15347619D01*
X11300810Y-15347619D02*
X11291286Y-15328571D01*
X11291286Y-15328571D02*
X11281762Y-15319048D01*
X11281762Y-15319048D02*
X11262714Y-15309524D01*
X11262714Y-15309524D02*
X11224619Y-15309524D01*
X11224619Y-15309524D02*
X11205572Y-15319048D01*
X11205572Y-15319048D02*
X11196048Y-15328571D01*
X11196048Y-15328571D02*
X11186524Y-15347619D01*
X11186524Y-15347619D02*
X11186524Y-15395238D01*
X11186524Y-15395238D02*
X11196048Y-15414286D01*
X11196048Y-15414286D02*
X11205572Y-15423809D01*
X11205572Y-15423809D02*
X11224619Y-15433333D01*
X11224619Y-15433333D02*
X11262714Y-15433333D01*
X11262714Y-15433333D02*
X11281762Y-15423809D01*
X11281762Y-15423809D02*
X11291286Y-15414286D01*
X11291286Y-15414286D02*
X11300810Y-15395238D01*
X11472238Y-15376190D02*
X11472238Y-15509524D01*
X11424619Y-15300000D02*
X11377000Y-15442857D01*
X11377000Y-15442857D02*
X11500810Y-15442857D01*
X11567476Y-15309524D02*
X11567476Y-15347619D01*
X11643667Y-15309524D02*
X11643667Y-15347619D01*
X11938905Y-15585714D02*
X11929381Y-15576190D01*
X11929381Y-15576190D02*
X11910334Y-15547619D01*
X11910334Y-15547619D02*
X11900810Y-15528571D01*
X11900810Y-15528571D02*
X11891286Y-15500000D01*
X11891286Y-15500000D02*
X11881762Y-15452381D01*
X11881762Y-15452381D02*
X11881762Y-15414286D01*
X11881762Y-15414286D02*
X11891286Y-15366667D01*
X11891286Y-15366667D02*
X11900810Y-15338095D01*
X11900810Y-15338095D02*
X11910334Y-15319048D01*
X11910334Y-15319048D02*
X11929381Y-15290476D01*
X11929381Y-15290476D02*
X11938905Y-15280952D01*
X12100810Y-15376190D02*
X12100810Y-15509524D01*
X12053191Y-15300000D02*
X12005572Y-15442857D01*
X12005572Y-15442857D02*
X12129381Y-15442857D01*
X12186524Y-15309524D02*
X12319857Y-15309524D01*
X12319857Y-15309524D02*
X12234143Y-15509524D01*
X12548429Y-15509524D02*
X12548429Y-15309524D01*
X12634143Y-15509524D02*
X12634143Y-15404762D01*
X12634143Y-15404762D02*
X12624619Y-15385714D01*
X12624619Y-15385714D02*
X12605572Y-15376190D01*
X12605572Y-15376190D02*
X12577000Y-15376190D01*
X12577000Y-15376190D02*
X12557953Y-15385714D01*
X12557953Y-15385714D02*
X12548429Y-15395238D01*
X12757953Y-15509524D02*
X12738905Y-15500000D01*
X12738905Y-15500000D02*
X12729381Y-15490476D01*
X12729381Y-15490476D02*
X12719857Y-15471428D01*
X12719857Y-15471428D02*
X12719857Y-15414286D01*
X12719857Y-15414286D02*
X12729381Y-15395238D01*
X12729381Y-15395238D02*
X12738905Y-15385714D01*
X12738905Y-15385714D02*
X12757953Y-15376190D01*
X12757953Y-15376190D02*
X12786524Y-15376190D01*
X12786524Y-15376190D02*
X12805572Y-15385714D01*
X12805572Y-15385714D02*
X12815096Y-15395238D01*
X12815096Y-15395238D02*
X12824619Y-15414286D01*
X12824619Y-15414286D02*
X12824619Y-15471428D01*
X12824619Y-15471428D02*
X12815096Y-15490476D01*
X12815096Y-15490476D02*
X12805572Y-15500000D01*
X12805572Y-15500000D02*
X12786524Y-15509524D01*
X12786524Y-15509524D02*
X12757953Y-15509524D01*
X12938905Y-15509524D02*
X12919857Y-15500000D01*
X12919857Y-15500000D02*
X12910334Y-15480952D01*
X12910334Y-15480952D02*
X12910334Y-15309524D01*
X13091286Y-15500000D02*
X13072238Y-15509524D01*
X13072238Y-15509524D02*
X13034143Y-15509524D01*
X13034143Y-15509524D02*
X13015096Y-15500000D01*
X13015096Y-15500000D02*
X13005572Y-15480952D01*
X13005572Y-15480952D02*
X13005572Y-15404762D01*
X13005572Y-15404762D02*
X13015096Y-15385714D01*
X13015096Y-15385714D02*
X13034143Y-15376190D01*
X13034143Y-15376190D02*
X13072238Y-15376190D01*
X13072238Y-15376190D02*
X13091286Y-15385714D01*
X13091286Y-15385714D02*
X13100810Y-15404762D01*
X13100810Y-15404762D02*
X13100810Y-15423809D01*
X13100810Y-15423809D02*
X13005572Y-15442857D01*
X13177000Y-15500000D02*
X13196048Y-15509524D01*
X13196048Y-15509524D02*
X13234143Y-15509524D01*
X13234143Y-15509524D02*
X13253191Y-15500000D01*
X13253191Y-15500000D02*
X13262715Y-15480952D01*
X13262715Y-15480952D02*
X13262715Y-15471428D01*
X13262715Y-15471428D02*
X13253191Y-15452381D01*
X13253191Y-15452381D02*
X13234143Y-15442857D01*
X13234143Y-15442857D02*
X13205572Y-15442857D01*
X13205572Y-15442857D02*
X13186524Y-15433333D01*
X13186524Y-15433333D02*
X13177000Y-15414286D01*
X13177000Y-15414286D02*
X13177000Y-15404762D01*
X13177000Y-15404762D02*
X13186524Y-15385714D01*
X13186524Y-15385714D02*
X13205572Y-15376190D01*
X13205572Y-15376190D02*
X13234143Y-15376190D01*
X13234143Y-15376190D02*
X13253191Y-15385714D01*
X13329381Y-15585714D02*
X13338905Y-15576190D01*
X13338905Y-15576190D02*
X13357953Y-15547619D01*
X13357953Y-15547619D02*
X13367477Y-15528571D01*
X13367477Y-15528571D02*
X13377000Y-15500000D01*
X13377000Y-15500000D02*
X13386524Y-15452381D01*
X13386524Y-15452381D02*
X13386524Y-15414286D01*
X13386524Y-15414286D02*
X13377000Y-15366667D01*
X13377000Y-15366667D02*
X13367477Y-15338095D01*
X13367477Y-15338095D02*
X13357953Y-15319048D01*
X13357953Y-15319048D02*
X13338905Y-15290476D01*
X13338905Y-15290476D02*
X13329381Y-15280952D01*
X8177000Y-15581000D02*
X8377000Y-15781000D01*
X8377000Y-15581000D02*
X8177000Y-15781000D01*
X8377000Y-15681000D02*
G75*
G03*
X8377000Y-15681000I-100000J0D01*
G01*
X8615095Y-15592571D02*
X8624619Y-15583048D01*
X8624619Y-15583048D02*
X8643667Y-15573524D01*
X8643667Y-15573524D02*
X8691286Y-15573524D01*
X8691286Y-15573524D02*
X8710333Y-15583048D01*
X8710333Y-15583048D02*
X8719857Y-15592571D01*
X8719857Y-15592571D02*
X8729381Y-15611619D01*
X8729381Y-15611619D02*
X8729381Y-15630667D01*
X8729381Y-15630667D02*
X8719857Y-15659238D01*
X8719857Y-15659238D02*
X8605571Y-15773524D01*
X8605571Y-15773524D02*
X8729381Y-15773524D01*
X8815095Y-15754476D02*
X8824619Y-15764000D01*
X8824619Y-15764000D02*
X8815095Y-15773524D01*
X8815095Y-15773524D02*
X8805571Y-15764000D01*
X8805571Y-15764000D02*
X8815095Y-15754476D01*
X8815095Y-15754476D02*
X8815095Y-15773524D01*
X9005571Y-15573524D02*
X8910333Y-15573524D01*
X8910333Y-15573524D02*
X8900810Y-15668762D01*
X8900810Y-15668762D02*
X8910333Y-15659238D01*
X8910333Y-15659238D02*
X8929381Y-15649714D01*
X8929381Y-15649714D02*
X8977000Y-15649714D01*
X8977000Y-15649714D02*
X8996048Y-15659238D01*
X8996048Y-15659238D02*
X9005571Y-15668762D01*
X9005571Y-15668762D02*
X9015095Y-15687809D01*
X9015095Y-15687809D02*
X9015095Y-15735428D01*
X9015095Y-15735428D02*
X9005571Y-15754476D01*
X9005571Y-15754476D02*
X8996048Y-15764000D01*
X8996048Y-15764000D02*
X8977000Y-15773524D01*
X8977000Y-15773524D02*
X8929381Y-15773524D01*
X8929381Y-15773524D02*
X8910333Y-15764000D01*
X8910333Y-15764000D02*
X8900810Y-15754476D01*
X9138905Y-15573524D02*
X9157952Y-15573524D01*
X9157952Y-15573524D02*
X9177000Y-15583048D01*
X9177000Y-15583048D02*
X9186524Y-15592571D01*
X9186524Y-15592571D02*
X9196048Y-15611619D01*
X9196048Y-15611619D02*
X9205571Y-15649714D01*
X9205571Y-15649714D02*
X9205571Y-15697333D01*
X9205571Y-15697333D02*
X9196048Y-15735428D01*
X9196048Y-15735428D02*
X9186524Y-15754476D01*
X9186524Y-15754476D02*
X9177000Y-15764000D01*
X9177000Y-15764000D02*
X9157952Y-15773524D01*
X9157952Y-15773524D02*
X9138905Y-15773524D01*
X9138905Y-15773524D02*
X9119857Y-15764000D01*
X9119857Y-15764000D02*
X9110333Y-15754476D01*
X9110333Y-15754476D02*
X9100810Y-15735428D01*
X9100810Y-15735428D02*
X9091286Y-15697333D01*
X9091286Y-15697333D02*
X9091286Y-15649714D01*
X9091286Y-15649714D02*
X9100810Y-15611619D01*
X9100810Y-15611619D02*
X9110333Y-15592571D01*
X9110333Y-15592571D02*
X9119857Y-15583048D01*
X9119857Y-15583048D02*
X9138905Y-15573524D01*
X9329381Y-15573524D02*
X9348429Y-15573524D01*
X9348429Y-15573524D02*
X9367476Y-15583048D01*
X9367476Y-15583048D02*
X9377000Y-15592571D01*
X9377000Y-15592571D02*
X9386524Y-15611619D01*
X9386524Y-15611619D02*
X9396048Y-15649714D01*
X9396048Y-15649714D02*
X9396048Y-15697333D01*
X9396048Y-15697333D02*
X9386524Y-15735428D01*
X9386524Y-15735428D02*
X9377000Y-15754476D01*
X9377000Y-15754476D02*
X9367476Y-15764000D01*
X9367476Y-15764000D02*
X9348429Y-15773524D01*
X9348429Y-15773524D02*
X9329381Y-15773524D01*
X9329381Y-15773524D02*
X9310333Y-15764000D01*
X9310333Y-15764000D02*
X9300810Y-15754476D01*
X9300810Y-15754476D02*
X9291286Y-15735428D01*
X9291286Y-15735428D02*
X9281762Y-15697333D01*
X9281762Y-15697333D02*
X9281762Y-15649714D01*
X9281762Y-15649714D02*
X9291286Y-15611619D01*
X9291286Y-15611619D02*
X9300810Y-15592571D01*
X9300810Y-15592571D02*
X9310333Y-15583048D01*
X9310333Y-15583048D02*
X9329381Y-15573524D01*
X9481762Y-15773524D02*
X9481762Y-15640190D01*
X9481762Y-15659238D02*
X9491286Y-15649714D01*
X9491286Y-15649714D02*
X9510333Y-15640190D01*
X9510333Y-15640190D02*
X9538905Y-15640190D01*
X9538905Y-15640190D02*
X9557952Y-15649714D01*
X9557952Y-15649714D02*
X9567476Y-15668762D01*
X9567476Y-15668762D02*
X9567476Y-15773524D01*
X9567476Y-15668762D02*
X9577000Y-15649714D01*
X9577000Y-15649714D02*
X9596048Y-15640190D01*
X9596048Y-15640190D02*
X9624619Y-15640190D01*
X9624619Y-15640190D02*
X9643667Y-15649714D01*
X9643667Y-15649714D02*
X9653191Y-15668762D01*
X9653191Y-15668762D02*
X9653191Y-15773524D01*
X9748429Y-15773524D02*
X9748429Y-15640190D01*
X9748429Y-15659238D02*
X9757952Y-15649714D01*
X9757952Y-15649714D02*
X9777000Y-15640190D01*
X9777000Y-15640190D02*
X9805572Y-15640190D01*
X9805572Y-15640190D02*
X9824619Y-15649714D01*
X9824619Y-15649714D02*
X9834143Y-15668762D01*
X9834143Y-15668762D02*
X9834143Y-15773524D01*
X9834143Y-15668762D02*
X9843667Y-15649714D01*
X9843667Y-15649714D02*
X9862714Y-15640190D01*
X9862714Y-15640190D02*
X9891286Y-15640190D01*
X9891286Y-15640190D02*
X9910333Y-15649714D01*
X9910333Y-15649714D02*
X9919857Y-15668762D01*
X9919857Y-15668762D02*
X9919857Y-15773524D01*
X10310333Y-15564000D02*
X10138905Y-15821143D01*
X10567476Y-15573524D02*
X10586524Y-15573524D01*
X10586524Y-15573524D02*
X10605572Y-15583048D01*
X10605572Y-15583048D02*
X10615095Y-15592571D01*
X10615095Y-15592571D02*
X10624619Y-15611619D01*
X10624619Y-15611619D02*
X10634143Y-15649714D01*
X10634143Y-15649714D02*
X10634143Y-15697333D01*
X10634143Y-15697333D02*
X10624619Y-15735428D01*
X10624619Y-15735428D02*
X10615095Y-15754476D01*
X10615095Y-15754476D02*
X10605572Y-15764000D01*
X10605572Y-15764000D02*
X10586524Y-15773524D01*
X10586524Y-15773524D02*
X10567476Y-15773524D01*
X10567476Y-15773524D02*
X10548429Y-15764000D01*
X10548429Y-15764000D02*
X10538905Y-15754476D01*
X10538905Y-15754476D02*
X10529381Y-15735428D01*
X10529381Y-15735428D02*
X10519857Y-15697333D01*
X10519857Y-15697333D02*
X10519857Y-15649714D01*
X10519857Y-15649714D02*
X10529381Y-15611619D01*
X10529381Y-15611619D02*
X10538905Y-15592571D01*
X10538905Y-15592571D02*
X10548429Y-15583048D01*
X10548429Y-15583048D02*
X10567476Y-15573524D01*
X10719857Y-15754476D02*
X10729381Y-15764000D01*
X10729381Y-15764000D02*
X10719857Y-15773524D01*
X10719857Y-15773524D02*
X10710334Y-15764000D01*
X10710334Y-15764000D02*
X10719857Y-15754476D01*
X10719857Y-15754476D02*
X10719857Y-15773524D01*
X10853191Y-15573524D02*
X10872238Y-15573524D01*
X10872238Y-15573524D02*
X10891286Y-15583048D01*
X10891286Y-15583048D02*
X10900810Y-15592571D01*
X10900810Y-15592571D02*
X10910334Y-15611619D01*
X10910334Y-15611619D02*
X10919857Y-15649714D01*
X10919857Y-15649714D02*
X10919857Y-15697333D01*
X10919857Y-15697333D02*
X10910334Y-15735428D01*
X10910334Y-15735428D02*
X10900810Y-15754476D01*
X10900810Y-15754476D02*
X10891286Y-15764000D01*
X10891286Y-15764000D02*
X10872238Y-15773524D01*
X10872238Y-15773524D02*
X10853191Y-15773524D01*
X10853191Y-15773524D02*
X10834143Y-15764000D01*
X10834143Y-15764000D02*
X10824619Y-15754476D01*
X10824619Y-15754476D02*
X10815095Y-15735428D01*
X10815095Y-15735428D02*
X10805572Y-15697333D01*
X10805572Y-15697333D02*
X10805572Y-15649714D01*
X10805572Y-15649714D02*
X10815095Y-15611619D01*
X10815095Y-15611619D02*
X10824619Y-15592571D01*
X10824619Y-15592571D02*
X10834143Y-15583048D01*
X10834143Y-15583048D02*
X10853191Y-15573524D01*
X11015095Y-15773524D02*
X11053191Y-15773524D01*
X11053191Y-15773524D02*
X11072238Y-15764000D01*
X11072238Y-15764000D02*
X11081762Y-15754476D01*
X11081762Y-15754476D02*
X11100810Y-15725905D01*
X11100810Y-15725905D02*
X11110334Y-15687809D01*
X11110334Y-15687809D02*
X11110334Y-15611619D01*
X11110334Y-15611619D02*
X11100810Y-15592571D01*
X11100810Y-15592571D02*
X11091286Y-15583048D01*
X11091286Y-15583048D02*
X11072238Y-15573524D01*
X11072238Y-15573524D02*
X11034143Y-15573524D01*
X11034143Y-15573524D02*
X11015095Y-15583048D01*
X11015095Y-15583048D02*
X11005572Y-15592571D01*
X11005572Y-15592571D02*
X10996048Y-15611619D01*
X10996048Y-15611619D02*
X10996048Y-15659238D01*
X10996048Y-15659238D02*
X11005572Y-15678286D01*
X11005572Y-15678286D02*
X11015095Y-15687809D01*
X11015095Y-15687809D02*
X11034143Y-15697333D01*
X11034143Y-15697333D02*
X11072238Y-15697333D01*
X11072238Y-15697333D02*
X11091286Y-15687809D01*
X11091286Y-15687809D02*
X11100810Y-15678286D01*
X11100810Y-15678286D02*
X11110334Y-15659238D01*
X11224619Y-15659238D02*
X11205572Y-15649714D01*
X11205572Y-15649714D02*
X11196048Y-15640190D01*
X11196048Y-15640190D02*
X11186524Y-15621143D01*
X11186524Y-15621143D02*
X11186524Y-15611619D01*
X11186524Y-15611619D02*
X11196048Y-15592571D01*
X11196048Y-15592571D02*
X11205572Y-15583048D01*
X11205572Y-15583048D02*
X11224619Y-15573524D01*
X11224619Y-15573524D02*
X11262714Y-15573524D01*
X11262714Y-15573524D02*
X11281762Y-15583048D01*
X11281762Y-15583048D02*
X11291286Y-15592571D01*
X11291286Y-15592571D02*
X11300810Y-15611619D01*
X11300810Y-15611619D02*
X11300810Y-15621143D01*
X11300810Y-15621143D02*
X11291286Y-15640190D01*
X11291286Y-15640190D02*
X11281762Y-15649714D01*
X11281762Y-15649714D02*
X11262714Y-15659238D01*
X11262714Y-15659238D02*
X11224619Y-15659238D01*
X11224619Y-15659238D02*
X11205572Y-15668762D01*
X11205572Y-15668762D02*
X11196048Y-15678286D01*
X11196048Y-15678286D02*
X11186524Y-15697333D01*
X11186524Y-15697333D02*
X11186524Y-15735428D01*
X11186524Y-15735428D02*
X11196048Y-15754476D01*
X11196048Y-15754476D02*
X11205572Y-15764000D01*
X11205572Y-15764000D02*
X11224619Y-15773524D01*
X11224619Y-15773524D02*
X11262714Y-15773524D01*
X11262714Y-15773524D02*
X11281762Y-15764000D01*
X11281762Y-15764000D02*
X11291286Y-15754476D01*
X11291286Y-15754476D02*
X11300810Y-15735428D01*
X11300810Y-15735428D02*
X11300810Y-15697333D01*
X11300810Y-15697333D02*
X11291286Y-15678286D01*
X11291286Y-15678286D02*
X11281762Y-15668762D01*
X11281762Y-15668762D02*
X11262714Y-15659238D01*
X11472238Y-15640190D02*
X11472238Y-15773524D01*
X11424619Y-15564000D02*
X11377000Y-15706857D01*
X11377000Y-15706857D02*
X11500810Y-15706857D01*
X11567476Y-15573524D02*
X11567476Y-15611619D01*
X11643667Y-15573524D02*
X11643667Y-15611619D01*
X11938905Y-15849714D02*
X11929381Y-15840190D01*
X11929381Y-15840190D02*
X11910334Y-15811619D01*
X11910334Y-15811619D02*
X11900810Y-15792571D01*
X11900810Y-15792571D02*
X11891286Y-15764000D01*
X11891286Y-15764000D02*
X11881762Y-15716381D01*
X11881762Y-15716381D02*
X11881762Y-15678286D01*
X11881762Y-15678286D02*
X11891286Y-15630667D01*
X11891286Y-15630667D02*
X11900810Y-15602095D01*
X11900810Y-15602095D02*
X11910334Y-15583048D01*
X11910334Y-15583048D02*
X11929381Y-15554476D01*
X11929381Y-15554476D02*
X11938905Y-15544952D01*
X12100810Y-15640190D02*
X12100810Y-15773524D01*
X12053191Y-15564000D02*
X12005572Y-15706857D01*
X12005572Y-15706857D02*
X12129381Y-15706857D01*
X12357953Y-15773524D02*
X12357953Y-15573524D01*
X12443667Y-15773524D02*
X12443667Y-15668762D01*
X12443667Y-15668762D02*
X12434143Y-15649714D01*
X12434143Y-15649714D02*
X12415096Y-15640190D01*
X12415096Y-15640190D02*
X12386524Y-15640190D01*
X12386524Y-15640190D02*
X12367476Y-15649714D01*
X12367476Y-15649714D02*
X12357953Y-15659238D01*
X12567476Y-15773524D02*
X12548429Y-15764000D01*
X12548429Y-15764000D02*
X12538905Y-15754476D01*
X12538905Y-15754476D02*
X12529381Y-15735428D01*
X12529381Y-15735428D02*
X12529381Y-15678286D01*
X12529381Y-15678286D02*
X12538905Y-15659238D01*
X12538905Y-15659238D02*
X12548429Y-15649714D01*
X12548429Y-15649714D02*
X12567476Y-15640190D01*
X12567476Y-15640190D02*
X12596048Y-15640190D01*
X12596048Y-15640190D02*
X12615096Y-15649714D01*
X12615096Y-15649714D02*
X12624619Y-15659238D01*
X12624619Y-15659238D02*
X12634143Y-15678286D01*
X12634143Y-15678286D02*
X12634143Y-15735428D01*
X12634143Y-15735428D02*
X12624619Y-15754476D01*
X12624619Y-15754476D02*
X12615096Y-15764000D01*
X12615096Y-15764000D02*
X12596048Y-15773524D01*
X12596048Y-15773524D02*
X12567476Y-15773524D01*
X12748429Y-15773524D02*
X12729381Y-15764000D01*
X12729381Y-15764000D02*
X12719857Y-15744952D01*
X12719857Y-15744952D02*
X12719857Y-15573524D01*
X12900810Y-15764000D02*
X12881762Y-15773524D01*
X12881762Y-15773524D02*
X12843667Y-15773524D01*
X12843667Y-15773524D02*
X12824619Y-15764000D01*
X12824619Y-15764000D02*
X12815096Y-15744952D01*
X12815096Y-15744952D02*
X12815096Y-15668762D01*
X12815096Y-15668762D02*
X12824619Y-15649714D01*
X12824619Y-15649714D02*
X12843667Y-15640190D01*
X12843667Y-15640190D02*
X12881762Y-15640190D01*
X12881762Y-15640190D02*
X12900810Y-15649714D01*
X12900810Y-15649714D02*
X12910334Y-15668762D01*
X12910334Y-15668762D02*
X12910334Y-15687809D01*
X12910334Y-15687809D02*
X12815096Y-15706857D01*
X12986524Y-15764000D02*
X13005572Y-15773524D01*
X13005572Y-15773524D02*
X13043667Y-15773524D01*
X13043667Y-15773524D02*
X13062715Y-15764000D01*
X13062715Y-15764000D02*
X13072238Y-15744952D01*
X13072238Y-15744952D02*
X13072238Y-15735428D01*
X13072238Y-15735428D02*
X13062715Y-15716381D01*
X13062715Y-15716381D02*
X13043667Y-15706857D01*
X13043667Y-15706857D02*
X13015096Y-15706857D01*
X13015096Y-15706857D02*
X12996048Y-15697333D01*
X12996048Y-15697333D02*
X12986524Y-15678286D01*
X12986524Y-15678286D02*
X12986524Y-15668762D01*
X12986524Y-15668762D02*
X12996048Y-15649714D01*
X12996048Y-15649714D02*
X13015096Y-15640190D01*
X13015096Y-15640190D02*
X13043667Y-15640190D01*
X13043667Y-15640190D02*
X13062715Y-15649714D01*
X13138905Y-15849714D02*
X13148429Y-15840190D01*
X13148429Y-15840190D02*
X13167477Y-15811619D01*
X13167477Y-15811619D02*
X13177000Y-15792571D01*
X13177000Y-15792571D02*
X13186524Y-15764000D01*
X13186524Y-15764000D02*
X13196048Y-15716381D01*
X13196048Y-15716381D02*
X13196048Y-15678286D01*
X13196048Y-15678286D02*
X13186524Y-15630667D01*
X13186524Y-15630667D02*
X13177000Y-15602095D01*
X13177000Y-15602095D02*
X13167477Y-15583048D01*
X13167477Y-15583048D02*
X13148429Y-15554476D01*
X13148429Y-15554476D02*
X13138905Y-15544952D01*
M02*
