M48
; DRILL file {KiCad 7.0.1} date Wed Apr 12 01:48:52 2023
; FORMAT={-:-/ absolute / inch / decimal}
; #@! TF.CreationDate,2023-04-12T01:48:52-05:00
; #@! TF.GenerationSoftware,Kicad,Pcbnew,7.0.1
; #@! TF.FileFunction,Plated,1,2,PTH
FMAT,2
INCH
; #@! TA.AperFunction,Plated,PTH,ComponentDrill
T1C0.0197
; #@! TA.AperFunction,Plated,PTH,ComponentDrill
T2C0.0276
; #@! TA.AperFunction,Plated,PTH,ComponentDrill
T3C0.0315
; #@! TA.AperFunction,Plated,PTH,ComponentDrill
T4C0.0374
; #@! TA.AperFunction,Plated,PTH,ComponentDrill
T5C0.0394
; #@! TA.AperFunction,Plated,PTH,ComponentDrill
T6C0.0984
%
G90
G05
T1
X6.9327Y-3.0898
X6.9327Y-3.1646
T2
X5.1Y-2.975
X5.1Y-3.275
X5.1Y-3.45
X5.1Y-3.75
X5.1Y-3.9266
X5.1Y-4.2266
X5.125Y-4.4742
X5.125Y-4.7742
X5.125Y-4.925
X5.125Y-5.225
X5.1913Y-3.9266
X5.1913Y-4.2266
X5.2Y-2.975
X5.2Y-3.275
X5.2Y-3.45
X5.2Y-3.75
X5.5Y-4.0234
X5.5Y-4.3234
X5.5Y-4.4742
X5.5Y-4.7742
X5.5Y-4.925
X5.5Y-5.225
X5.875Y-4.0234
X5.875Y-4.3234
X5.875Y-4.4742
X5.875Y-4.7742
X5.875Y-4.925
X5.875Y-5.225
X6.25Y-4.0234
X6.25Y-4.3234
X6.25Y-4.4742
X6.25Y-4.7742
X6.25Y-4.925
X6.25Y-5.225
X6.625Y-4.0234
X6.625Y-4.3234
X6.625Y-4.475
X6.625Y-4.775
X6.625Y-4.925
X6.625Y-5.225
X6.925Y-3.6
X6.925Y-3.9
X6.95Y-2.8337
X6.95Y-2.9837
X7.0Y-4.0234
X7.0Y-4.3234
X7.0Y-4.4742
X7.0Y-4.7742
X7.0Y-4.925
X7.0Y-5.225
X7.2Y-3.6
X7.2Y-3.9
X7.25Y-2.8337
X7.25Y-2.9837
X7.3Y-3.6
X7.3Y-3.9
T3
X3.7254Y-2.8748
X3.7254Y-2.9748
X3.7254Y-3.0748
X3.7254Y-3.1748
X3.7254Y-3.2748
X3.7254Y-3.3748
X3.7254Y-3.4748
X3.7258Y-3.7
X3.7258Y-3.8
X3.7258Y-3.9
X3.7258Y-4.0
X3.7258Y-4.1
X3.7258Y-4.2
X3.7258Y-4.3
X3.7258Y-4.4998
X3.7258Y-4.5998
X3.7258Y-4.6998
X3.7258Y-4.7998
X3.7258Y-4.8998
X3.7258Y-4.9998
X3.7258Y-5.0998
X3.7713Y-5.2432
X3.9682Y-5.2432
X4.0254Y-2.8748
X4.0254Y-2.9748
X4.0254Y-3.0748
X4.0254Y-3.1748
X4.0254Y-3.2748
X4.0254Y-3.3748
X4.0254Y-3.4748
X4.0258Y-3.7
X4.0258Y-3.8
X4.0258Y-3.9
X4.0258Y-4.0
X4.0258Y-4.1
X4.0258Y-4.2
X4.0258Y-4.3
X4.0258Y-4.4998
X4.0258Y-4.5998
X4.0258Y-4.6998
X4.0258Y-4.7998
X4.0258Y-4.8998
X4.0258Y-4.9998
X4.0258Y-5.0998
X4.175Y-2.8752
X4.175Y-2.9752
X4.175Y-3.0752
X4.175Y-3.1752
X4.175Y-3.2752
X4.175Y-3.3752
X4.175Y-3.4752
X4.2246Y-3.6246
X4.2246Y-3.9246
X4.2246Y-4.0746
X4.2246Y-4.3746
X4.2246Y-4.5246
X4.2246Y-4.8246
X4.3246Y-3.6246
X4.3246Y-3.9246
X4.3246Y-4.0746
X4.3246Y-4.3746
X4.3246Y-4.5246
X4.3246Y-4.8246
X4.4246Y-3.6246
X4.4246Y-3.9246
X4.4246Y-4.0746
X4.4246Y-4.3746
X4.4246Y-4.5246
X4.4246Y-4.8246
X4.475Y-2.8752
X4.475Y-2.9752
X4.475Y-3.0752
X4.475Y-3.1752
X4.475Y-3.2752
X4.475Y-3.3752
X4.475Y-3.4752
X4.5246Y-3.6246
X4.5246Y-3.9246
X4.5246Y-4.0746
X4.5246Y-4.3746
X4.5246Y-4.5246
X4.5246Y-4.8246
X4.6246Y-3.6246
X4.6246Y-3.9246
X4.6246Y-4.0746
X4.6246Y-4.3746
X4.6246Y-4.5246
X4.6246Y-4.8246
X4.6254Y-2.875
X4.6254Y-2.975
X4.6254Y-3.075
X4.6254Y-3.175
X4.6254Y-3.275
X4.6254Y-3.375
X4.6254Y-3.475
X4.7246Y-3.6246
X4.7246Y-3.9246
X4.7246Y-4.0746
X4.7246Y-4.3746
X4.7246Y-4.5246
X4.7246Y-4.8246
X4.8246Y-3.6246
X4.8246Y-3.9246
X4.8246Y-4.0746
X4.8246Y-4.3746
X4.8246Y-4.5246
X4.8246Y-4.8246
X4.9246Y-3.6246
X4.9246Y-3.9246
X4.9246Y-4.0746
X4.9246Y-4.3746
X4.9246Y-4.5246
X4.9246Y-4.8246
X4.9254Y-2.875
X4.9254Y-2.975
X4.9254Y-3.075
X4.9254Y-3.175
X4.9254Y-3.275
X4.9254Y-3.375
X4.9254Y-3.475
X5.325Y-3.0266
X5.325Y-3.2234
X5.325Y-3.5016
X5.325Y-3.6984
X5.325Y-3.9781
X5.325Y-4.175
X6.025Y-2.825
X6.025Y-2.925
X6.025Y-3.025
X6.025Y-3.125
X6.025Y-3.225
X6.025Y-3.325
X6.025Y-3.425
X6.025Y-3.525
X6.325Y-2.825
X6.325Y-2.925
X6.325Y-3.025
X6.325Y-3.125
X6.325Y-3.225
X6.325Y-3.325
X6.325Y-3.425
X6.325Y-3.525
X6.5Y-2.825
X6.5Y-2.925
X6.5Y-3.025
X6.5Y-3.125
X6.5Y-3.225
X6.5Y-3.325
X6.5Y-3.425
X6.5Y-3.525
X6.8Y-2.825
X6.8Y-2.925
X6.8Y-3.025
X6.8Y-3.125
X6.8Y-3.225
X6.8Y-3.325
X6.8Y-3.425
X6.8Y-3.525
X6.8Y-3.7031
X6.8Y-3.9
X7.0Y-3.2766
X7.0Y-3.4734
X7.075Y-3.7016
X7.075Y-3.8984
X7.2Y-3.275
X7.2Y-3.4719
T4
X6.0031Y-3.775
X6.1016Y-3.775
X6.2Y-3.775
T5
X4.275Y-5.025
X4.275Y-5.1234
X4.5955Y-5.0241
X4.5955Y-5.1225
X4.9Y-5.025
X4.9Y-5.1234
X5.3Y-5.0258
X5.3Y-5.1242
X5.3043Y-4.5754
X5.3043Y-4.6738
X5.5996Y-2.9252
X5.6016Y-3.775
X5.675Y-4.125
X5.675Y-4.2234
X5.675Y-4.5742
X5.675Y-4.6726
X5.675Y-5.0254
X5.675Y-5.1238
X5.6996Y-2.9252
X5.7Y-3.775
X5.7996Y-2.9252
X6.05Y-4.125
X6.05Y-4.2234
X6.05Y-4.5742
X6.05Y-4.6726
X6.0543Y-5.0266
X6.0543Y-5.125
X6.425Y-4.125
X6.425Y-4.2234
X6.425Y-4.5742
X6.425Y-4.6726
X6.425Y-5.0258
X6.425Y-5.1242
X6.5016Y-3.775
X6.6Y-3.775
X6.8Y-4.125
X6.8Y-4.2234
X6.8Y-4.5742
X6.8Y-4.6726
X6.8Y-5.0258
X6.8Y-5.1242
X7.175Y-4.125
X7.175Y-4.2234
X7.175Y-4.575
X7.175Y-4.6734
X7.175Y-5.0258
X7.175Y-5.1242
T6
X3.5Y-2.8
X3.5Y-5.2
X7.5Y-2.8
X7.5Y-5.2
T0
M30
