G04 #@! TF.GenerationSoftware,KiCad,Pcbnew,7.0.1*
G04 #@! TF.CreationDate,2023-04-19T00:28:21-05:00*
G04 #@! TF.ProjectId,binary_clock,62696e61-7279-45f6-936c-6f636b2e6b69,rev?*
G04 #@! TF.SameCoordinates,Original*
G04 #@! TF.FileFunction,Copper,L1,Top*
G04 #@! TF.FilePolarity,Positive*
%FSLAX46Y46*%
G04 Gerber Fmt 4.6, Leading zero omitted, Abs format (unit mm)*
G04 Created by KiCad (PCBNEW 7.0.1) date 2023-04-19 00:28:21*
%MOMM*%
%LPD*%
G01*
G04 APERTURE LIST*
G04 Aperture macros list*
%AMRoundRect*
0 Rectangle with rounded corners*
0 $1 Rounding radius*
0 $2 $3 $4 $5 $6 $7 $8 $9 X,Y pos of 4 corners*
0 Add a 4 corners polygon primitive as box body*
4,1,4,$2,$3,$4,$5,$6,$7,$8,$9,$2,$3,0*
0 Add four circle primitives for the rounded corners*
1,1,$1+$1,$2,$3*
1,1,$1+$1,$4,$5*
1,1,$1+$1,$6,$7*
1,1,$1+$1,$8,$9*
0 Add four rect primitives between the rounded corners*
20,1,$1+$1,$2,$3,$4,$5,0*
20,1,$1+$1,$4,$5,$6,$7,0*
20,1,$1+$1,$6,$7,$8,$9,0*
20,1,$1+$1,$8,$9,$2,$3,0*%
G04 Aperture macros list end*
G04 #@! TA.AperFunction,ComponentPad*
%ADD10C,1.600000*%
G04 #@! TD*
G04 #@! TA.AperFunction,ComponentPad*
%ADD11RoundRect,0.250000X-0.600000X-0.750000X0.600000X-0.750000X0.600000X0.750000X-0.600000X0.750000X0*%
G04 #@! TD*
G04 #@! TA.AperFunction,ComponentPad*
%ADD12O,1.700000X2.000000*%
G04 #@! TD*
G04 #@! TA.AperFunction,ComponentPad*
%ADD13RoundRect,0.250000X0.750000X-0.600000X0.750000X0.600000X-0.750000X0.600000X-0.750000X-0.600000X0*%
G04 #@! TD*
G04 #@! TA.AperFunction,ComponentPad*
%ADD14O,2.000000X1.700000*%
G04 #@! TD*
G04 #@! TA.AperFunction,ComponentPad*
%ADD15C,1.400000*%
G04 #@! TD*
G04 #@! TA.AperFunction,ComponentPad*
%ADD16O,1.400000X1.400000*%
G04 #@! TD*
G04 #@! TA.AperFunction,ComponentPad*
%ADD17R,1.600000X1.600000*%
G04 #@! TD*
G04 #@! TA.AperFunction,ComponentPad*
%ADD18O,1.600000X1.600000*%
G04 #@! TD*
G04 #@! TA.AperFunction,ComponentPad*
%ADD19C,5.000000*%
G04 #@! TD*
G04 #@! TA.AperFunction,ComponentPad*
%ADD20R,1.800000X1.800000*%
G04 #@! TD*
G04 #@! TA.AperFunction,ComponentPad*
%ADD21C,1.800000*%
G04 #@! TD*
G04 #@! TA.AperFunction,ComponentPad*
%ADD22RoundRect,0.250000X-0.600000X-0.725000X0.600000X-0.725000X0.600000X0.725000X-0.600000X0.725000X0*%
G04 #@! TD*
G04 #@! TA.AperFunction,ComponentPad*
%ADD23O,1.700000X1.950000*%
G04 #@! TD*
G04 #@! TA.AperFunction,ComponentPad*
%ADD24C,1.000000*%
G04 #@! TD*
G04 #@! TA.AperFunction,Conductor*
%ADD25C,0.250000*%
G04 #@! TD*
G04 APERTURE END LIST*
D10*
G04 #@! TO.P,C2,1*
G04 #@! TO.N,Net-(U2-(PHI)I)*
X177800000Y-82550000D03*
G04 #@! TO.P,C2,2*
G04 #@! TO.N,GND*
X177800000Y-85050000D03*
G04 #@! TD*
G04 #@! TO.P,C1,1*
G04 #@! TO.N,Net-(C1-Pad1)*
X182880000Y-85050000D03*
G04 #@! TO.P,C1,2*
G04 #@! TO.N,GND*
X182880000Y-82550000D03*
G04 #@! TD*
D11*
G04 #@! TO.P,J1,1,Pin_1*
G04 #@! TO.N,+5V*
X165140000Y-95885000D03*
D12*
G04 #@! TO.P,J1,2,Pin_2*
G04 #@! TO.N,GND*
X167640000Y-95885000D03*
G04 #@! TD*
D13*
G04 #@! TO.P,D11,1,K*
G04 #@! TO.N,GND*
X144145000Y-118685000D03*
D14*
G04 #@! TO.P,D11,2,A*
G04 #@! TO.N,Net-(D11-A)*
X144145000Y-116185000D03*
G04 #@! TD*
D15*
G04 #@! TO.P,R11,1*
G04 #@! TO.N,Net-(R10-Pad2)*
X131860000Y-107355000D03*
D16*
G04 #@! TO.P,R11,2*
G04 #@! TO.N,Net-(C7-Pad1)*
X131860000Y-99735000D03*
G04 #@! TD*
D17*
G04 #@! TO.P,U2,1,Q12*
G04 #@! TO.N,unconnected-(U2-Q12-Pad1)*
X153035000Y-71755000D03*
D18*
G04 #@! TO.P,U2,2,Q13*
G04 #@! TO.N,unconnected-(U2-Q13-Pad2)*
X153035000Y-74295000D03*
G04 #@! TO.P,U2,3,Q14*
G04 #@! TO.N,/Clock_1hz/CLK_2Hz*
X153035000Y-76835000D03*
G04 #@! TO.P,U2,4,Q6*
G04 #@! TO.N,unconnected-(U2-Q6-Pad4)*
X153035000Y-79375000D03*
G04 #@! TO.P,U2,5,Q5*
G04 #@! TO.N,unconnected-(U2-Q5-Pad5)*
X153035000Y-81915000D03*
G04 #@! TO.P,U2,6,Q7*
G04 #@! TO.N,unconnected-(U2-Q7-Pad6)*
X153035000Y-84455000D03*
G04 #@! TO.P,U2,7,Q4*
G04 #@! TO.N,unconnected-(U2-Q4-Pad7)*
X153035000Y-86995000D03*
G04 #@! TO.P,U2,8,VSS*
G04 #@! TO.N,GND*
X153035000Y-89535000D03*
G04 #@! TO.P,U2,9,(PHI)O*
G04 #@! TO.N,unconnected-(U2-(PHI)O-Pad9)*
X160655000Y-89535000D03*
G04 #@! TO.P,U2,10,~{(PHI)O}*
G04 #@! TO.N,Net-(U2-~{(PHI)O})*
X160655000Y-86995000D03*
G04 #@! TO.P,U2,11,(PHI)I*
G04 #@! TO.N,Net-(U2-(PHI)I)*
X160655000Y-84455000D03*
G04 #@! TO.P,U2,12,RESET*
G04 #@! TO.N,GND*
X160655000Y-81915000D03*
G04 #@! TO.P,U2,13,Q9*
G04 #@! TO.N,unconnected-(U2-Q9-Pad13)*
X160655000Y-79375000D03*
G04 #@! TO.P,U2,14,Q8*
G04 #@! TO.N,unconnected-(U2-Q8-Pad14)*
X160655000Y-76835000D03*
G04 #@! TO.P,U2,15,Q10*
G04 #@! TO.N,unconnected-(U2-Q10-Pad15)*
X160655000Y-74295000D03*
G04 #@! TO.P,U2,16,VDD*
G04 #@! TO.N,+3.3V*
X160655000Y-71755000D03*
G04 #@! TD*
D15*
G04 #@! TO.P,R13,1*
G04 #@! TO.N,Net-(D2-A)*
X168275000Y-132715000D03*
D16*
G04 #@! TO.P,R13,2*
G04 #@! TO.N,Net-(U5-Q1)*
X168275000Y-125095000D03*
G04 #@! TD*
D19*
G04 #@! TO.P,H2,1,1*
G04 #@! TO.N,GND*
X88900000Y-71120000D03*
G04 #@! TD*
D15*
G04 #@! TO.P,R2,1*
G04 #@! TO.N,Net-(U2-~{(PHI)O})*
X184150000Y-75785000D03*
D16*
G04 #@! TO.P,R2,2*
G04 #@! TO.N,Net-(U2-(PHI)I)*
X176530000Y-75785000D03*
G04 #@! TD*
D15*
G04 #@! TO.P,R1,1*
G04 #@! TO.N,Net-(C1-Pad1)*
X176530000Y-71975000D03*
D16*
G04 #@! TO.P,R1,2*
G04 #@! TO.N,Net-(U2-~{(PHI)O})*
X184150000Y-71975000D03*
G04 #@! TD*
D15*
G04 #@! TO.P,R23,1*
G04 #@! TO.N,Net-(D12-A)*
X130175000Y-121265000D03*
D16*
G04 #@! TO.P,R23,2*
G04 #@! TO.N,Net-(U7-Q5)*
X130175000Y-113645000D03*
G04 #@! TD*
D15*
G04 #@! TO.P,R18,1*
G04 #@! TO.N,Net-(D7-A)*
X177800000Y-113645000D03*
D16*
G04 #@! TO.P,R18,2*
G04 #@! TO.N,Net-(U7-Q0)*
X177800000Y-121265000D03*
G04 #@! TD*
D15*
G04 #@! TO.P,R16,1*
G04 #@! TO.N,Net-(D5-A)*
X139700000Y-132715000D03*
D16*
G04 #@! TO.P,R16,2*
G04 #@! TO.N,Net-(U5-Q4)*
X139700000Y-125095000D03*
G04 #@! TD*
D19*
G04 #@! TO.P,H1,1,1*
G04 #@! TO.N,GND*
X88900000Y-132080000D03*
G04 #@! TD*
G04 #@! TO.P,H4,1,1*
G04 #@! TO.N,GND*
X190500000Y-71120000D03*
G04 #@! TD*
D13*
G04 #@! TO.P,D13,1,K*
G04 #@! TO.N,GND*
X182245000Y-107275000D03*
D14*
G04 #@! TO.P,D13,2,A*
G04 #@! TO.N,Net-(D13-A)*
X182245000Y-104775000D03*
G04 #@! TD*
D19*
G04 #@! TO.P,H3,1,1*
G04 #@! TO.N,GND*
X190500000Y-132080000D03*
G04 #@! TD*
D17*
G04 #@! TO.P,U3,1,Q11*
G04 #@! TO.N,unconnected-(U3-Q11-Pad1)*
X165100000Y-71755000D03*
D18*
G04 #@! TO.P,U3,2,Q5*
G04 #@! TO.N,unconnected-(U3-Q5-Pad2)*
X165100000Y-74295000D03*
G04 #@! TO.P,U3,3,Q4*
G04 #@! TO.N,unconnected-(U3-Q4-Pad3)*
X165100000Y-76835000D03*
G04 #@! TO.P,U3,4,Q6*
G04 #@! TO.N,unconnected-(U3-Q6-Pad4)*
X165100000Y-79375000D03*
G04 #@! TO.P,U3,5,Q3*
G04 #@! TO.N,unconnected-(U3-Q3-Pad5)*
X165100000Y-81915000D03*
G04 #@! TO.P,U3,6,Q2*
G04 #@! TO.N,unconnected-(U3-Q2-Pad6)*
X165100000Y-84455000D03*
G04 #@! TO.P,U3,7,Q1*
G04 #@! TO.N,unconnected-(U3-Q1-Pad7)*
X165100000Y-86995000D03*
G04 #@! TO.P,U3,8,VSS*
G04 #@! TO.N,GND*
X165100000Y-89535000D03*
G04 #@! TO.P,U3,9,Q0*
G04 #@! TO.N,/Clock_1hz/CLK_1Hz*
X172720000Y-89535000D03*
G04 #@! TO.P,U3,10,CLK*
G04 #@! TO.N,/Clock_1hz/CLK_2Hz*
X172720000Y-86995000D03*
G04 #@! TO.P,U3,11,Reset*
G04 #@! TO.N,GND*
X172720000Y-84455000D03*
G04 #@! TO.P,U3,12,Q8*
G04 #@! TO.N,unconnected-(U3-Q8-Pad12)*
X172720000Y-81915000D03*
G04 #@! TO.P,U3,13,Q7*
G04 #@! TO.N,unconnected-(U3-Q7-Pad13)*
X172720000Y-79375000D03*
G04 #@! TO.P,U3,14,Q9*
G04 #@! TO.N,unconnected-(U3-Q9-Pad14)*
X172720000Y-76835000D03*
G04 #@! TO.P,U3,15,Q10*
G04 #@! TO.N,unconnected-(U3-Q10-Pad15)*
X172720000Y-74295000D03*
G04 #@! TO.P,U3,16,VDD*
G04 #@! TO.N,+3.3V*
X172720000Y-71755000D03*
G04 #@! TD*
D13*
G04 #@! TO.P,D8,1,K*
G04 #@! TO.N,GND*
X172720000Y-118685000D03*
D14*
G04 #@! TO.P,D8,2,A*
G04 #@! TO.N,Net-(D8-A)*
X172720000Y-116185000D03*
G04 #@! TD*
D13*
G04 #@! TO.P,D5,1,K*
G04 #@! TO.N,GND*
X144145000Y-130145000D03*
D14*
G04 #@! TO.P,D5,2,A*
G04 #@! TO.N,Net-(D5-A)*
X144145000Y-127645000D03*
G04 #@! TD*
D13*
G04 #@! TO.P,D4,1,K*
G04 #@! TO.N,GND*
X153780000Y-130175000D03*
D14*
G04 #@! TO.P,D4,2,A*
G04 #@! TO.N,Net-(D4-A)*
X153780000Y-127675000D03*
G04 #@! TD*
D15*
G04 #@! TO.P,R3,1*
G04 #@! TO.N,+3.3V*
X185420000Y-99060000D03*
D16*
G04 #@! TO.P,R3,2*
G04 #@! TO.N,Net-(R3-Pad2)*
X185420000Y-91440000D03*
G04 #@! TD*
D13*
G04 #@! TO.P,D2,1,K*
G04 #@! TO.N,GND*
X172720000Y-130155000D03*
D14*
G04 #@! TO.P,D2,2,A*
G04 #@! TO.N,Net-(D2-A)*
X172720000Y-127655000D03*
G04 #@! TD*
D13*
G04 #@! TO.P,D15,1,K*
G04 #@! TO.N,GND*
X163195000Y-107275000D03*
D14*
G04 #@! TO.P,D15,2,A*
G04 #@! TO.N,Net-(D15-A)*
X163195000Y-104775000D03*
G04 #@! TD*
D15*
G04 #@! TO.P,R15,1*
G04 #@! TO.N,Net-(D4-A)*
X149225000Y-132715000D03*
D16*
G04 #@! TO.P,R15,2*
G04 #@! TO.N,Net-(U5-Q3)*
X149225000Y-125095000D03*
G04 #@! TD*
D15*
G04 #@! TO.P,R20,1*
G04 #@! TO.N,Net-(D9-A)*
X158750000Y-121265000D03*
D16*
G04 #@! TO.P,R20,2*
G04 #@! TO.N,Net-(U7-Q2)*
X158750000Y-113645000D03*
G04 #@! TD*
D20*
G04 #@! TO.P,U1,1,IN*
G04 #@! TO.N,+5V*
X142230000Y-74300000D03*
D21*
G04 #@! TO.P,U1,2,OUT*
G04 #@! TO.N,+3.3V*
X144770000Y-74300000D03*
G04 #@! TO.P,U1,3,GND*
G04 #@! TO.N,GND*
X147310000Y-74300000D03*
G04 #@! TD*
D13*
G04 #@! TO.P,D9,1,K*
G04 #@! TO.N,GND*
X163195000Y-118685000D03*
D14*
G04 #@! TO.P,D9,2,A*
G04 #@! TO.N,Net-(D9-A)*
X163195000Y-116185000D03*
G04 #@! TD*
D15*
G04 #@! TO.P,R24,1*
G04 #@! TO.N,Net-(D13-A)*
X177800000Y-102195000D03*
D16*
G04 #@! TO.P,R24,2*
G04 #@! TO.N,Net-(U8-Q0)*
X177800000Y-109815000D03*
G04 #@! TD*
D17*
G04 #@! TO.P,U5,1,Q11*
G04 #@! TO.N,unconnected-(U5-Q11-Pad1)*
X107305000Y-122545000D03*
D18*
G04 #@! TO.P,U5,2,Q5*
G04 #@! TO.N,Net-(U5-Q5)*
X109845000Y-122545000D03*
G04 #@! TO.P,U5,3,Q4*
G04 #@! TO.N,Net-(U5-Q4)*
X112385000Y-122545000D03*
G04 #@! TO.P,U5,4,Q6*
G04 #@! TO.N,unconnected-(U5-Q6-Pad4)*
X114925000Y-122545000D03*
G04 #@! TO.P,U5,5,Q3*
G04 #@! TO.N,Net-(U5-Q3)*
X117465000Y-122545000D03*
G04 #@! TO.P,U5,6,Q2*
G04 #@! TO.N,Net-(U5-Q2)*
X120005000Y-122545000D03*
G04 #@! TO.P,U5,7,Q1*
G04 #@! TO.N,Net-(U5-Q1)*
X122545000Y-122545000D03*
G04 #@! TO.P,U5,8,VSS*
G04 #@! TO.N,GND*
X125085000Y-122545000D03*
G04 #@! TO.P,U5,9,Q0*
G04 #@! TO.N,Net-(U5-Q0)*
X125085000Y-114925000D03*
G04 #@! TO.P,U5,10,CLK*
G04 #@! TO.N,/Clock_Binary/CLOCK_SEC*
X122545000Y-114925000D03*
G04 #@! TO.P,U5,11,Reset*
G04 #@! TO.N,/Clock_Binary/RESET_SEC*
X120005000Y-114925000D03*
G04 #@! TO.P,U5,12,Q8*
G04 #@! TO.N,unconnected-(U5-Q8-Pad12)*
X117465000Y-114925000D03*
G04 #@! TO.P,U5,13,Q7*
G04 #@! TO.N,unconnected-(U5-Q7-Pad13)*
X114925000Y-114925000D03*
G04 #@! TO.P,U5,14,Q9*
G04 #@! TO.N,unconnected-(U5-Q9-Pad14)*
X112385000Y-114925000D03*
G04 #@! TO.P,U5,15,Q10*
G04 #@! TO.N,unconnected-(U5-Q10-Pad15)*
X109845000Y-114925000D03*
G04 #@! TO.P,U5,16,VDD*
G04 #@! TO.N,+3.3V*
X107305000Y-114925000D03*
G04 #@! TD*
D15*
G04 #@! TO.P,R21,1*
G04 #@! TO.N,Net-(D10-A)*
X149225000Y-121265000D03*
D16*
G04 #@! TO.P,R21,2*
G04 #@! TO.N,Net-(U7-Q3)*
X149225000Y-113645000D03*
G04 #@! TD*
D13*
G04 #@! TO.P,SW5,1,1*
G04 #@! TO.N,/Interface/SWITCH_PAUSE_NOT*
X124460000Y-130135000D03*
D14*
G04 #@! TO.P,SW5,2,2*
G04 #@! TO.N,Net-(R10-Pad2)*
X124460000Y-127635000D03*
G04 #@! TD*
D13*
G04 #@! TO.P,D10,1,K*
G04 #@! TO.N,GND*
X153670000Y-118685000D03*
D14*
G04 #@! TO.P,D10,2,A*
G04 #@! TO.N,Net-(D10-A)*
X153670000Y-116185000D03*
G04 #@! TD*
D15*
G04 #@! TO.P,R5,1*
G04 #@! TO.N,/Interface/SWITCH_PAUSE_NOT*
X175895000Y-91440000D03*
D16*
G04 #@! TO.P,R5,2*
G04 #@! TO.N,GND*
X175895000Y-99060000D03*
G04 #@! TD*
D10*
G04 #@! TO.P,C6,1*
G04 #@! TO.N,Net-(C6-Pad1)*
X135255000Y-88940000D03*
G04 #@! TO.P,C6,2*
G04 #@! TO.N,GND*
X135255000Y-93940000D03*
G04 #@! TD*
D13*
G04 #@! TO.P,D3,1,K*
G04 #@! TO.N,GND*
X163195000Y-130155000D03*
D14*
G04 #@! TO.P,D3,2,A*
G04 #@! TO.N,Net-(D3-A)*
X163195000Y-127655000D03*
G04 #@! TD*
D17*
G04 #@! TO.P,U7,1,Q11*
G04 #@! TO.N,unconnected-(U7-Q11-Pad1)*
X107305000Y-111115000D03*
D18*
G04 #@! TO.P,U7,2,Q5*
G04 #@! TO.N,Net-(U7-Q5)*
X109845000Y-111115000D03*
G04 #@! TO.P,U7,3,Q4*
G04 #@! TO.N,Net-(U7-Q4)*
X112385000Y-111115000D03*
G04 #@! TO.P,U7,4,Q6*
G04 #@! TO.N,unconnected-(U7-Q6-Pad4)*
X114925000Y-111115000D03*
G04 #@! TO.P,U7,5,Q3*
G04 #@! TO.N,Net-(U7-Q3)*
X117465000Y-111115000D03*
G04 #@! TO.P,U7,6,Q2*
G04 #@! TO.N,Net-(U7-Q2)*
X120005000Y-111115000D03*
G04 #@! TO.P,U7,7,Q1*
G04 #@! TO.N,Net-(U7-Q1)*
X122545000Y-111115000D03*
G04 #@! TO.P,U7,8,VSS*
G04 #@! TO.N,GND*
X125085000Y-111115000D03*
G04 #@! TO.P,U7,9,Q0*
G04 #@! TO.N,Net-(U7-Q0)*
X125085000Y-103495000D03*
G04 #@! TO.P,U7,10,CLK*
G04 #@! TO.N,/Clock_Binary/CLOCK_MIN*
X122545000Y-103495000D03*
G04 #@! TO.P,U7,11,Reset*
G04 #@! TO.N,/Clock_Binary/RESET_MIN*
X120005000Y-103495000D03*
G04 #@! TO.P,U7,12,Q8*
G04 #@! TO.N,unconnected-(U7-Q8-Pad12)*
X117465000Y-103495000D03*
G04 #@! TO.P,U7,13,Q7*
G04 #@! TO.N,unconnected-(U7-Q7-Pad13)*
X114925000Y-103495000D03*
G04 #@! TO.P,U7,14,Q9*
G04 #@! TO.N,unconnected-(U7-Q9-Pad14)*
X112385000Y-103495000D03*
G04 #@! TO.P,U7,15,Q10*
G04 #@! TO.N,unconnected-(U7-Q10-Pad15)*
X109845000Y-103495000D03*
G04 #@! TO.P,U7,16,VDD*
G04 #@! TO.N,+3.3V*
X107305000Y-103495000D03*
G04 #@! TD*
D15*
G04 #@! TO.P,R27,1*
G04 #@! TO.N,Net-(D16-A)*
X149225000Y-109815000D03*
D16*
G04 #@! TO.P,R27,2*
G04 #@! TO.N,Net-(U8-Q3)*
X149225000Y-102195000D03*
G04 #@! TD*
D15*
G04 #@! TO.P,R17,1*
G04 #@! TO.N,Net-(D6-A)*
X130175000Y-132715000D03*
D16*
G04 #@! TO.P,R17,2*
G04 #@! TO.N,Net-(U5-Q5)*
X130175000Y-125095000D03*
G04 #@! TD*
D15*
G04 #@! TO.P,R7,1*
G04 #@! TO.N,Net-(R6-Pad2)*
X132080000Y-83185000D03*
D16*
G04 #@! TO.P,R7,2*
G04 #@! TO.N,Net-(C5-Pad1)*
X132080000Y-75565000D03*
G04 #@! TD*
D10*
G04 #@! TO.P,C7,1*
G04 #@! TO.N,Net-(C7-Pad1)*
X135255000Y-101045000D03*
G04 #@! TO.P,C7,2*
G04 #@! TO.N,/Interface/SWITCH_PAUSE_NOT*
X135255000Y-106045000D03*
G04 #@! TD*
D17*
G04 #@! TO.P,U11,1*
G04 #@! TO.N,Net-(U11-Pad1)*
X94625000Y-73020000D03*
D18*
G04 #@! TO.P,U11,2*
G04 #@! TO.N,/Clock_Binary/CARRY_SEC*
X94625000Y-75560000D03*
G04 #@! TO.P,U11,3*
G04 #@! TO.N,/Clock_Binary/RESET_SEC*
X94625000Y-78100000D03*
G04 #@! TO.P,U11,4*
G04 #@! TO.N,/Clock_Binary/RESET_MIN*
X94625000Y-80640000D03*
G04 #@! TO.P,U11,5*
G04 #@! TO.N,Net-(U11-Pad1)*
X94625000Y-83180000D03*
G04 #@! TO.P,U11,6*
G04 #@! TO.N,/Clock_Binary/CARRY_MIN*
X94625000Y-85720000D03*
G04 #@! TO.P,U11,7,Vss*
G04 #@! TO.N,GND*
X94625000Y-88260000D03*
G04 #@! TO.P,U11,8*
G04 #@! TO.N,Net-(U11-Pad1)*
X102245000Y-88260000D03*
G04 #@! TO.P,U11,9*
G04 #@! TO.N,/Clock_Binary/CARRY_HOUR*
X102245000Y-85720000D03*
G04 #@! TO.P,U11,10*
G04 #@! TO.N,/Clock_Binary/RESET_HOUR*
X102245000Y-83180000D03*
G04 #@! TO.P,U11,11*
G04 #@! TO.N,N/C*
X102245000Y-80640000D03*
G04 #@! TO.P,U11,12*
X102245000Y-78100000D03*
G04 #@! TO.P,U11,13*
X102245000Y-75560000D03*
G04 #@! TO.P,U11,14,Vdd*
G04 #@! TO.N,+3.3V*
X102245000Y-73020000D03*
G04 #@! TD*
D15*
G04 #@! TO.P,R22,1*
G04 #@! TO.N,Net-(D11-A)*
X139700000Y-121265000D03*
D16*
G04 #@! TO.P,R22,2*
G04 #@! TO.N,Net-(U7-Q4)*
X139700000Y-113645000D03*
G04 #@! TD*
D17*
G04 #@! TO.P,U4,1*
G04 #@! TO.N,/Interface/SWITCH_PAUSE_NOT*
X117485000Y-73025000D03*
D18*
G04 #@! TO.P,U4,2*
G04 #@! TO.N,/Interface/SWITCH_PAUSE*
X117485000Y-75565000D03*
G04 #@! TO.P,U4,3*
G04 #@! TO.N,Net-(C6-Pad1)*
X117485000Y-78105000D03*
G04 #@! TO.P,U4,4*
G04 #@! TO.N,/Interface/BUTTON_RESET*
X117485000Y-80645000D03*
G04 #@! TO.P,U4,5*
G04 #@! TO.N,N/C*
X117485000Y-83185000D03*
G04 #@! TO.P,U4,6*
X117485000Y-85725000D03*
G04 #@! TO.P,U4,7,Vss*
G04 #@! TO.N,GND*
X117485000Y-88265000D03*
G04 #@! TO.P,U4,8*
G04 #@! TO.N,/Interface/BUTTON_SEC*
X125105000Y-88265000D03*
G04 #@! TO.P,U4,9*
G04 #@! TO.N,Net-(C3-Pad1)*
X125105000Y-85725000D03*
G04 #@! TO.P,U4,10*
G04 #@! TO.N,/Interface/BUTTON_MIN*
X125105000Y-83185000D03*
G04 #@! TO.P,U4,11*
G04 #@! TO.N,Net-(C5-Pad1)*
X125105000Y-80645000D03*
G04 #@! TO.P,U4,12*
G04 #@! TO.N,/Interface/BUTTON_HOUR*
X125105000Y-78105000D03*
G04 #@! TO.P,U4,13*
G04 #@! TO.N,Net-(C7-Pad1)*
X125105000Y-75565000D03*
G04 #@! TO.P,U4,14,Vdd*
G04 #@! TO.N,+3.3V*
X125105000Y-73025000D03*
G04 #@! TD*
D10*
G04 #@! TO.P,C3,1*
G04 #@! TO.N,Net-(C3-Pad1)*
X179705000Y-99020000D03*
G04 #@! TO.P,C3,2*
G04 #@! TO.N,/Interface/SWITCH_PAUSE_NOT*
X179705000Y-94020000D03*
G04 #@! TD*
D15*
G04 #@! TO.P,R26,1*
G04 #@! TO.N,Net-(D15-A)*
X158750000Y-109815000D03*
D16*
G04 #@! TO.P,R26,2*
G04 #@! TO.N,Net-(U8-Q2)*
X158750000Y-102195000D03*
G04 #@! TD*
D13*
G04 #@! TO.P,D14,1,K*
G04 #@! TO.N,GND*
X172720000Y-107275000D03*
D14*
G04 #@! TO.P,D14,2,A*
G04 #@! TO.N,Net-(D14-A)*
X172720000Y-104775000D03*
G04 #@! TD*
D15*
G04 #@! TO.P,R14,1*
G04 #@! TO.N,Net-(D3-A)*
X158750000Y-132715000D03*
D16*
G04 #@! TO.P,R14,2*
G04 #@! TO.N,Net-(U5-Q2)*
X158750000Y-125095000D03*
G04 #@! TD*
D17*
G04 #@! TO.P,U6,1*
G04 #@! TO.N,/Clock_Binary/CARRY_SEC*
X94635000Y-114295000D03*
D18*
G04 #@! TO.P,U6,2*
G04 #@! TO.N,Net-(U5-Q2)*
X94635000Y-116835000D03*
G04 #@! TO.P,U6,3*
G04 #@! TO.N,Net-(U5-Q3)*
X94635000Y-119375000D03*
G04 #@! TO.P,U6,4*
G04 #@! TO.N,Net-(U5-Q4)*
X94635000Y-121915000D03*
G04 #@! TO.P,U6,5*
G04 #@! TO.N,Net-(U5-Q5)*
X94635000Y-124455000D03*
G04 #@! TO.P,U6,6*
G04 #@! TO.N,N/C*
X94635000Y-126995000D03*
G04 #@! TO.P,U6,7,Vss*
G04 #@! TO.N,GND*
X94635000Y-129535000D03*
G04 #@! TO.P,U6,8*
G04 #@! TO.N,N/C*
X102255000Y-129535000D03*
G04 #@! TO.P,U6,9*
G04 #@! TO.N,Net-(U7-Q2)*
X102255000Y-126995000D03*
G04 #@! TO.P,U6,10*
G04 #@! TO.N,Net-(U7-Q3)*
X102255000Y-124455000D03*
G04 #@! TO.P,U6,11*
G04 #@! TO.N,Net-(U7-Q4)*
X102255000Y-121915000D03*
G04 #@! TO.P,U6,12*
G04 #@! TO.N,Net-(U7-Q5)*
X102255000Y-119375000D03*
G04 #@! TO.P,U6,13*
G04 #@! TO.N,/Clock_Binary/CARRY_MIN*
X102255000Y-116835000D03*
G04 #@! TO.P,U6,14,Vdd*
G04 #@! TO.N,+3.3V*
X102255000Y-114295000D03*
G04 #@! TD*
D13*
G04 #@! TO.P,D12,1,K*
G04 #@! TO.N,GND*
X134730000Y-118715000D03*
D14*
G04 #@! TO.P,D12,2,A*
G04 #@! TO.N,Net-(D12-A)*
X134730000Y-116215000D03*
G04 #@! TD*
D17*
G04 #@! TO.P,U8,1,Q11*
G04 #@! TO.N,unconnected-(U8-Q11-Pad1)*
X107305000Y-99685000D03*
D18*
G04 #@! TO.P,U8,2,Q5*
G04 #@! TO.N,unconnected-(U8-Q5-Pad2)*
X109845000Y-99685000D03*
G04 #@! TO.P,U8,3,Q4*
G04 #@! TO.N,Net-(U8-Q4)*
X112385000Y-99685000D03*
G04 #@! TO.P,U8,4,Q6*
G04 #@! TO.N,unconnected-(U8-Q6-Pad4)*
X114925000Y-99685000D03*
G04 #@! TO.P,U8,5,Q3*
G04 #@! TO.N,Net-(U8-Q3)*
X117465000Y-99685000D03*
G04 #@! TO.P,U8,6,Q2*
G04 #@! TO.N,Net-(U8-Q2)*
X120005000Y-99685000D03*
G04 #@! TO.P,U8,7,Q1*
G04 #@! TO.N,Net-(U8-Q1)*
X122545000Y-99685000D03*
G04 #@! TO.P,U8,8,VSS*
G04 #@! TO.N,GND*
X125085000Y-99685000D03*
G04 #@! TO.P,U8,9,Q0*
G04 #@! TO.N,Net-(U8-Q0)*
X125085000Y-92065000D03*
G04 #@! TO.P,U8,10,CLK*
G04 #@! TO.N,/Clock_Binary/CLOCK_HOUR*
X122545000Y-92065000D03*
G04 #@! TO.P,U8,11,Reset*
G04 #@! TO.N,/Clock_Binary/RESET_HOUR*
X120005000Y-92065000D03*
G04 #@! TO.P,U8,12,Q8*
G04 #@! TO.N,unconnected-(U8-Q8-Pad12)*
X117465000Y-92065000D03*
G04 #@! TO.P,U8,13,Q7*
G04 #@! TO.N,unconnected-(U8-Q7-Pad13)*
X114925000Y-92065000D03*
G04 #@! TO.P,U8,14,Q9*
G04 #@! TO.N,unconnected-(U8-Q9-Pad14)*
X112385000Y-92065000D03*
G04 #@! TO.P,U8,15,Q10*
G04 #@! TO.N,unconnected-(U8-Q10-Pad15)*
X109845000Y-92065000D03*
G04 #@! TO.P,U8,16,VDD*
G04 #@! TO.N,+3.3V*
X107305000Y-92065000D03*
G04 #@! TD*
D13*
G04 #@! TO.P,D16,1,K*
G04 #@! TO.N,GND*
X153670000Y-107275000D03*
D14*
G04 #@! TO.P,D16,2,A*
G04 #@! TO.N,Net-(D16-A)*
X153670000Y-104775000D03*
G04 #@! TD*
D13*
G04 #@! TO.P,SW3,1,1*
G04 #@! TO.N,/Interface/SWITCH_PAUSE_NOT*
X108585000Y-130135000D03*
D14*
G04 #@! TO.P,SW3,2,2*
G04 #@! TO.N,Net-(R3-Pad2)*
X108585000Y-127635000D03*
G04 #@! TD*
D13*
G04 #@! TO.P,D7,1,K*
G04 #@! TO.N,GND*
X182245000Y-118705000D03*
D14*
G04 #@! TO.P,D7,2,A*
G04 #@! TO.N,Net-(D7-A)*
X182245000Y-116205000D03*
G04 #@! TD*
D15*
G04 #@! TO.P,R25,1*
G04 #@! TO.N,Net-(D14-A)*
X168275000Y-109815000D03*
D16*
G04 #@! TO.P,R25,2*
G04 #@! TO.N,Net-(U8-Q1)*
X168275000Y-102195000D03*
G04 #@! TD*
D22*
G04 #@! TO.P,SW1,1,1*
G04 #@! TO.N,+3.3V*
X152480000Y-95885000D03*
D23*
G04 #@! TO.P,SW1,2,2*
G04 #@! TO.N,/Interface/SWITCH_PAUSE_NOT*
X154980000Y-95885000D03*
G04 #@! TO.P,SW1,3,K*
G04 #@! TO.N,GND*
X157480000Y-95885000D03*
G04 #@! TD*
D13*
G04 #@! TO.P,D17,1,K*
G04 #@! TO.N,GND*
X144145000Y-107275000D03*
D14*
G04 #@! TO.P,D17,2,A*
G04 #@! TO.N,Net-(D17-A)*
X144145000Y-104775000D03*
G04 #@! TD*
D10*
G04 #@! TO.P,C8,1*
G04 #@! TO.N,/Clock_Binary/RESET_SEC*
X100791900Y-133176900D03*
G04 #@! TO.P,C8,2*
G04 #@! TO.N,GND*
X95791900Y-133176900D03*
G04 #@! TD*
D13*
G04 #@! TO.P,D1,1,K*
G04 #@! TO.N,GND*
X182245000Y-130155000D03*
D14*
G04 #@! TO.P,D1,2,A*
G04 #@! TO.N,Net-(D1-A)*
X182245000Y-127655000D03*
G04 #@! TD*
D10*
G04 #@! TO.P,C5,1*
G04 #@! TO.N,Net-(C5-Pad1)*
X135255000Y-76875000D03*
G04 #@! TO.P,C5,2*
G04 #@! TO.N,/Interface/SWITCH_PAUSE_NOT*
X135255000Y-81875000D03*
G04 #@! TD*
D13*
G04 #@! TO.P,SW4,1,1*
G04 #@! TO.N,/Interface/SWITCH_PAUSE_NOT*
X116725200Y-130111600D03*
D14*
G04 #@! TO.P,SW4,2,2*
G04 #@! TO.N,Net-(R6-Pad2)*
X116725200Y-127611600D03*
G04 #@! TD*
D24*
G04 #@! TO.P,Y1,1,1*
G04 #@! TO.N,Net-(C1-Pad1)*
X176090000Y-80380100D03*
G04 #@! TO.P,Y1,2,2*
G04 #@! TO.N,Net-(U2-(PHI)I)*
X176090000Y-78480100D03*
G04 #@! TD*
D15*
G04 #@! TO.P,R10,1*
G04 #@! TO.N,+3.3V*
X129540000Y-99735000D03*
D16*
G04 #@! TO.P,R10,2*
G04 #@! TO.N,Net-(R10-Pad2)*
X129540000Y-107355000D03*
G04 #@! TD*
D15*
G04 #@! TO.P,R28,1*
G04 #@! TO.N,Net-(D17-A)*
X139700000Y-109815000D03*
D16*
G04 #@! TO.P,R28,2*
G04 #@! TO.N,Net-(U8-Q4)*
X139700000Y-102195000D03*
G04 #@! TD*
D15*
G04 #@! TO.P,R9,1*
G04 #@! TO.N,Net-(R8-Pad2)*
X132080000Y-95250000D03*
D16*
G04 #@! TO.P,R9,2*
G04 #@! TO.N,Net-(C6-Pad1)*
X132080000Y-87630000D03*
G04 #@! TD*
D17*
G04 #@! TO.P,U10,1*
G04 #@! TO.N,Net-(U10-Pad1)*
X106045000Y-73030000D03*
D18*
G04 #@! TO.P,U10,2*
G04 #@! TO.N,/Interface/BUTTON_SEC*
X106045000Y-75570000D03*
G04 #@! TO.P,U10,3*
G04 #@! TO.N,/Clock_Binary/CLOCK_SEC*
X106045000Y-78110000D03*
G04 #@! TO.P,U10,4*
G04 #@! TO.N,/Clock_Binary/CLOCK_MIN*
X106045000Y-80650000D03*
G04 #@! TO.P,U10,5*
G04 #@! TO.N,/Clock_Binary/CARRY_SEC*
X106045000Y-83190000D03*
G04 #@! TO.P,U10,6*
G04 #@! TO.N,/Interface/BUTTON_MIN*
X106045000Y-85730000D03*
G04 #@! TO.P,U10,7,Vss*
G04 #@! TO.N,GND*
X106045000Y-88270000D03*
G04 #@! TO.P,U10,8*
G04 #@! TO.N,/Clock_Binary/CARRY_MIN*
X113665000Y-88270000D03*
G04 #@! TO.P,U10,9*
G04 #@! TO.N,/Interface/BUTTON_HOUR*
X113665000Y-85730000D03*
G04 #@! TO.P,U10,10*
G04 #@! TO.N,/Clock_Binary/CLOCK_HOUR*
X113665000Y-83190000D03*
G04 #@! TO.P,U10,11*
G04 #@! TO.N,N/C*
X113665000Y-80650000D03*
G04 #@! TO.P,U10,12*
X113665000Y-78110000D03*
G04 #@! TO.P,U10,13*
X113665000Y-75570000D03*
G04 #@! TO.P,U10,14,Vdd*
G04 #@! TO.N,+3.3V*
X113665000Y-73030000D03*
G04 #@! TD*
D15*
G04 #@! TO.P,R8,1*
G04 #@! TO.N,+3.3V*
X129540000Y-87630000D03*
D16*
G04 #@! TO.P,R8,2*
G04 #@! TO.N,Net-(R8-Pad2)*
X129540000Y-95250000D03*
G04 #@! TD*
D10*
G04 #@! TO.P,C4,1*
G04 #@! TO.N,/Interface/SWITCH_PAUSE_NOT*
X172720000Y-94060000D03*
G04 #@! TO.P,C4,2*
G04 #@! TO.N,GND*
X172720000Y-99060000D03*
G04 #@! TD*
D15*
G04 #@! TO.P,R12,1*
G04 #@! TO.N,Net-(D1-A)*
X177800000Y-132715000D03*
D16*
G04 #@! TO.P,R12,2*
G04 #@! TO.N,Net-(U5-Q0)*
X177800000Y-125095000D03*
G04 #@! TD*
D15*
G04 #@! TO.P,R4,1*
G04 #@! TO.N,Net-(R3-Pad2)*
X182880000Y-91440000D03*
D16*
G04 #@! TO.P,R4,2*
G04 #@! TO.N,Net-(C3-Pad1)*
X182880000Y-99060000D03*
G04 #@! TD*
D13*
G04 #@! TO.P,D6,1,K*
G04 #@! TO.N,GND*
X134620000Y-130155000D03*
D14*
G04 #@! TO.P,D6,2,A*
G04 #@! TO.N,Net-(D6-A)*
X134620000Y-127655000D03*
G04 #@! TD*
D11*
G04 #@! TO.P,SW2,1,1*
G04 #@! TO.N,GND*
X142280000Y-95885000D03*
D12*
G04 #@! TO.P,SW2,2,2*
G04 #@! TO.N,Net-(R8-Pad2)*
X144780000Y-95885000D03*
G04 #@! TD*
D15*
G04 #@! TO.P,R19,1*
G04 #@! TO.N,Net-(D8-A)*
X168275000Y-121285000D03*
D16*
G04 #@! TO.P,R19,2*
G04 #@! TO.N,Net-(U7-Q1)*
X168275000Y-113665000D03*
G04 #@! TD*
D15*
G04 #@! TO.P,R6,1*
G04 #@! TO.N,+3.3V*
X129540000Y-75565000D03*
D16*
G04 #@! TO.P,R6,2*
G04 #@! TO.N,Net-(R6-Pad2)*
X129540000Y-83185000D03*
G04 #@! TD*
D17*
G04 #@! TO.P,U9,1*
G04 #@! TO.N,/Interface/SWITCH_PAUSE_NOT*
X94635000Y-93980000D03*
D18*
G04 #@! TO.P,U9,2*
G04 #@! TO.N,/Clock_1hz/CLK_1Hz*
X94635000Y-96520000D03*
G04 #@! TO.P,U9,3*
G04 #@! TO.N,Net-(U10-Pad1)*
X94635000Y-99060000D03*
G04 #@! TO.P,U9,4*
G04 #@! TO.N,Net-(U11-Pad1)*
X94635000Y-101600000D03*
G04 #@! TO.P,U9,5*
G04 #@! TO.N,/Interface/SWITCH_PAUSE*
X94635000Y-104140000D03*
G04 #@! TO.P,U9,6*
G04 #@! TO.N,/Interface/BUTTON_RESET*
X94635000Y-106680000D03*
G04 #@! TO.P,U9,7,Vss*
G04 #@! TO.N,GND*
X94635000Y-109220000D03*
G04 #@! TO.P,U9,8*
G04 #@! TO.N,Net-(U8-Q3)*
X102255000Y-109220000D03*
G04 #@! TO.P,U9,9*
G04 #@! TO.N,Net-(U8-Q4)*
X102255000Y-106680000D03*
G04 #@! TO.P,U9,10*
G04 #@! TO.N,/Clock_Binary/CARRY_HOUR*
X102255000Y-104140000D03*
G04 #@! TO.P,U9,11*
G04 #@! TO.N,N/C*
X102255000Y-101600000D03*
G04 #@! TO.P,U9,12*
X102255000Y-99060000D03*
G04 #@! TO.P,U9,13*
X102255000Y-96520000D03*
G04 #@! TO.P,U9,14,Vdd*
G04 #@! TO.N,+3.3V*
X102255000Y-93980000D03*
G04 #@! TD*
D25*
G04 #@! TO.N,/Clock_Binary/RESET_MIN*
X118879900Y-103728100D02*
X118879900Y-103495000D01*
X114795600Y-107812400D02*
X118879900Y-103728100D01*
X101739600Y-107812400D02*
X114795600Y-107812400D01*
X100195800Y-106268600D02*
X101739600Y-107812400D01*
X100195800Y-102982600D02*
X100195800Y-106268600D01*
X95003200Y-97790000D02*
X100195800Y-102982600D01*
X94246300Y-97790000D02*
X95003200Y-97790000D01*
X93493900Y-97037600D02*
X94246300Y-97790000D01*
X93493900Y-82614900D02*
X93493900Y-97037600D01*
X94343700Y-81765100D02*
X93493900Y-82614900D01*
X94625000Y-81765100D02*
X94343700Y-81765100D01*
X94625000Y-80640000D02*
X94625000Y-81765100D01*
X120005000Y-103495000D02*
X118879900Y-103495000D01*
G04 #@! TO.N,Net-(U11-Pad1)*
X96039900Y-83180000D02*
X94625000Y-83180000D01*
X101119900Y-88260000D02*
X96039900Y-83180000D01*
X102245000Y-88260000D02*
X101119900Y-88260000D01*
G04 #@! TO.N,/Clock_Binary/CARRY_MIN*
X107806800Y-88270000D02*
X113665000Y-88270000D01*
X106640600Y-87103800D02*
X107806800Y-88270000D01*
X105036900Y-87103800D02*
X106640600Y-87103800D01*
X102731000Y-89409700D02*
X105036900Y-87103800D01*
X99439800Y-89409700D02*
X102731000Y-89409700D01*
X95750100Y-85720000D02*
X99439800Y-89409700D01*
X94625000Y-85720000D02*
X95750100Y-85720000D01*
G04 #@! TO.N,/Interface/BUTTON_HOUR*
X123979900Y-78338100D02*
X123979900Y-78105000D01*
X117863000Y-84455000D02*
X123979900Y-78338100D01*
X116065100Y-84455000D02*
X117863000Y-84455000D01*
X114790100Y-85730000D02*
X116065100Y-84455000D01*
X113665000Y-85730000D02*
X114790100Y-85730000D01*
X125105000Y-78105000D02*
X123979900Y-78105000D01*
G04 #@! TO.N,/Interface/BUTTON_MIN*
X120262700Y-86902200D02*
X123979900Y-83185000D01*
X108342300Y-86902200D02*
X120262700Y-86902200D01*
X107170100Y-85730000D02*
X108342300Y-86902200D01*
X106045000Y-85730000D02*
X107170100Y-85730000D01*
X125105000Y-83185000D02*
X123979900Y-83185000D01*
G04 #@! TO.N,/Interface/BUTTON_RESET*
X115094900Y-79380000D02*
X116359900Y-80645000D01*
X111903400Y-79380000D02*
X115094900Y-79380000D01*
X109363400Y-76840000D02*
X111903400Y-79380000D01*
X100239600Y-76840000D02*
X109363400Y-76840000D01*
X97785900Y-74386300D02*
X100239600Y-76840000D01*
X94205400Y-74386300D02*
X97785900Y-74386300D01*
X93009200Y-75582500D02*
X94205400Y-74386300D01*
X93009200Y-104210400D02*
X93009200Y-75582500D01*
X94353700Y-105554900D02*
X93009200Y-104210400D01*
X94635000Y-105554900D02*
X94353700Y-105554900D01*
X94635000Y-106680000D02*
X94635000Y-105554900D01*
X117485000Y-80645000D02*
X116359900Y-80645000D01*
G04 #@! TO.N,/Clock_1hz/CLK_1Hz*
X170190000Y-90939900D02*
X171594900Y-89535000D01*
X101340200Y-90939900D02*
X170190000Y-90939900D01*
X95760100Y-96520000D02*
X101340200Y-90939900D01*
X94635000Y-96520000D02*
X95760100Y-96520000D01*
X172720000Y-89535000D02*
X171594900Y-89535000D01*
G04 #@! TO.N,/Clock_1hz/CLK_2Hz*
X157825300Y-80500200D02*
X154160100Y-76835000D01*
X165381400Y-80500200D02*
X157825300Y-80500200D01*
X171594900Y-86713700D02*
X165381400Y-80500200D01*
X171594900Y-86995000D02*
X171594900Y-86713700D01*
X172720000Y-86995000D02*
X171594900Y-86995000D01*
X153035000Y-76835000D02*
X154160100Y-76835000D01*
G04 #@! TO.N,Net-(U5-Q5)*
X94635000Y-124455000D02*
X95760100Y-124455000D01*
X109845000Y-122545000D02*
X108719900Y-122545000D01*
X110556600Y-125095000D02*
X130175000Y-125095000D01*
X108719900Y-123258300D02*
X110556600Y-125095000D01*
X108308000Y-123670200D02*
X108719900Y-123258300D01*
X103380200Y-123670200D02*
X108308000Y-123670200D01*
X102986400Y-123276400D02*
X103380200Y-123670200D01*
X96938700Y-123276400D02*
X102986400Y-123276400D01*
X95760100Y-124455000D02*
X96938700Y-123276400D01*
X108719900Y-123258300D02*
X108719900Y-122545000D01*
G04 #@! TO.N,Net-(U5-Q4)*
X113510100Y-122778200D02*
X113510100Y-122545000D01*
X114863500Y-124131600D02*
X113510100Y-122778200D01*
X129594900Y-124131600D02*
X114863500Y-124131600D01*
X129656600Y-124069900D02*
X129594900Y-124131600D01*
X137649800Y-124069900D02*
X129656600Y-124069900D01*
X138674900Y-125095000D02*
X137649800Y-124069900D01*
X139700000Y-125095000D02*
X138674900Y-125095000D01*
X112385000Y-122545000D02*
X113510100Y-122545000D01*
X111259900Y-122311900D02*
X111259900Y-122545000D01*
X109729000Y-120781000D02*
X111259900Y-122311900D01*
X96894100Y-120781000D02*
X109729000Y-120781000D01*
X95760100Y-121915000D02*
X96894100Y-120781000D01*
X94635000Y-121915000D02*
X95760100Y-121915000D01*
X112385000Y-122545000D02*
X111259900Y-122545000D01*
G04 #@! TO.N,Net-(U5-Q3)*
X116902500Y-122545000D02*
X117151300Y-122545000D01*
X116902500Y-122545000D02*
X116339900Y-122545000D01*
X117465000Y-122545000D02*
X117151300Y-122545000D01*
X95085000Y-119375000D02*
X95760100Y-119375000D01*
X116339900Y-122311900D02*
X116339900Y-122545000D01*
X112267900Y-118239900D02*
X116339900Y-122311900D01*
X96895200Y-118239900D02*
X112267900Y-118239900D01*
X95760100Y-119375000D02*
X96895200Y-118239900D01*
X95085000Y-119375000D02*
X94635000Y-119375000D01*
X147138400Y-126156500D02*
X148199900Y-125095000D01*
X128995700Y-126156500D02*
X147138400Y-126156500D01*
X128682400Y-125843200D02*
X128995700Y-126156500D01*
X94371600Y-125843200D02*
X128682400Y-125843200D01*
X93454100Y-124925700D02*
X94371600Y-125843200D01*
X93454100Y-121399700D02*
X93454100Y-124925700D01*
X94353700Y-120500100D02*
X93454100Y-121399700D01*
X94635000Y-120500100D02*
X94353700Y-120500100D01*
X94635000Y-119375000D02*
X94635000Y-120500100D01*
X149225000Y-125095000D02*
X148199900Y-125095000D01*
G04 #@! TO.N,Net-(U5-Q2)*
X158750000Y-125095000D02*
X157724900Y-125095000D01*
X94635000Y-116835000D02*
X95760100Y-116835000D01*
X120005000Y-122545000D02*
X120005000Y-121419900D01*
X155728200Y-123098300D02*
X157724900Y-125095000D01*
X129345800Y-123098300D02*
X155728200Y-123098300D01*
X127667400Y-121419900D02*
X129345800Y-123098300D01*
X120005000Y-121419900D02*
X127667400Y-121419900D01*
X114635300Y-116050200D02*
X120005000Y-121419900D01*
X103380200Y-116050200D02*
X114635300Y-116050200D01*
X102986400Y-115656400D02*
X103380200Y-116050200D01*
X96938700Y-115656400D02*
X102986400Y-115656400D01*
X95760100Y-116835000D02*
X96938700Y-115656400D01*
G04 #@! TO.N,Net-(U5-Q1)*
X166207800Y-126137100D02*
X167249900Y-125095000D01*
X154054200Y-126137100D02*
X166207800Y-126137100D01*
X151536900Y-123619800D02*
X154054200Y-126137100D01*
X129188300Y-123619800D02*
X151536900Y-123619800D01*
X129132100Y-123676000D02*
X129188300Y-123619800D01*
X124519800Y-123676000D02*
X129132100Y-123676000D01*
X123670100Y-122826300D02*
X124519800Y-123676000D01*
X123670100Y-122545000D02*
X123670100Y-122826300D01*
X122545000Y-122545000D02*
X123670100Y-122545000D01*
X168275000Y-125095000D02*
X167249900Y-125095000D01*
G04 #@! TO.N,Net-(U5-Q0)*
X133708300Y-122423200D02*
X126210100Y-114925000D01*
X174103100Y-122423200D02*
X133708300Y-122423200D01*
X176774900Y-125095000D02*
X174103100Y-122423200D01*
X177800000Y-125095000D02*
X176774900Y-125095000D01*
X125085000Y-114925000D02*
X126210100Y-114925000D01*
G04 #@! TO.N,Net-(R10-Pad2)*
X129540000Y-107355000D02*
X131860000Y-107355000D01*
G04 #@! TO.N,Net-(R8-Pad2)*
X129540000Y-95250000D02*
X132080000Y-95250000D01*
X144780000Y-95885000D02*
X143604900Y-95885000D01*
X136273100Y-95250000D02*
X132080000Y-95250000D01*
X138251300Y-97228200D02*
X136273100Y-95250000D01*
X143167700Y-97228200D02*
X138251300Y-97228200D01*
X143604900Y-96791000D02*
X143167700Y-97228200D01*
X143604900Y-95885000D02*
X143604900Y-96791000D01*
G04 #@! TO.N,Net-(R6-Pad2)*
X129540000Y-83185000D02*
X132080000Y-83185000D01*
G04 #@! TO.N,Net-(R3-Pad2)*
X182880000Y-91440000D02*
X185420000Y-91440000D01*
G04 #@! TO.N,Net-(C6-Pad1)*
X134415100Y-88940000D02*
X133105100Y-87630000D01*
X135255000Y-88940000D02*
X134415100Y-88940000D01*
X132080000Y-87630000D02*
X133105100Y-87630000D01*
G04 #@! TO.N,Net-(U7-Q5)*
X113218800Y-113645000D02*
X130175000Y-113645000D01*
X110970100Y-111396300D02*
X113218800Y-113645000D01*
X110970100Y-111115000D02*
X110970100Y-111396300D01*
X109845000Y-111115000D02*
X110970100Y-111115000D01*
G04 #@! TO.N,Net-(U8-Q4)*
X139700000Y-102195000D02*
X138674900Y-102195000D01*
X102255000Y-106680000D02*
X103380100Y-106680000D01*
X112385000Y-99685000D02*
X112385000Y-100810100D01*
X108388600Y-100810100D02*
X112385000Y-100810100D01*
X103380100Y-105818600D02*
X108388600Y-100810100D01*
X103380100Y-106680000D02*
X103380100Y-105818600D01*
X135005700Y-98525800D02*
X138674900Y-102195000D01*
X122048600Y-98525800D02*
X135005700Y-98525800D01*
X121275000Y-99299400D02*
X122048600Y-98525800D01*
X121275000Y-100042500D02*
X121275000Y-99299400D01*
X120507400Y-100810100D02*
X121275000Y-100042500D01*
X112385000Y-100810100D02*
X120507400Y-100810100D01*
G04 #@! TO.N,Net-(U7-Q4)*
X137637100Y-112607200D02*
X138674900Y-113645000D01*
X129160200Y-112607200D02*
X137637100Y-112607200D01*
X129074500Y-112692900D02*
X129160200Y-112607200D01*
X114806700Y-112692900D02*
X129074500Y-112692900D01*
X113510100Y-111396300D02*
X114806700Y-112692900D01*
X113510100Y-111115000D02*
X113510100Y-111396300D01*
X112385000Y-111115000D02*
X113510100Y-111115000D01*
X139700000Y-113645000D02*
X138674900Y-113645000D01*
G04 #@! TO.N,Net-(U8-Q3)*
X149225000Y-102195000D02*
X148199900Y-102195000D01*
X117465000Y-99685000D02*
X118590100Y-99685000D01*
X118590100Y-99451800D02*
X118590100Y-99685000D01*
X120416400Y-97625500D02*
X118590100Y-99451800D01*
X138012000Y-97625500D02*
X120416400Y-97625500D01*
X142581500Y-102195000D02*
X138012000Y-97625500D01*
X148199900Y-102195000D02*
X142581500Y-102195000D01*
G04 #@! TO.N,Net-(U7-Q3)*
X117465000Y-111115000D02*
X118590100Y-111115000D01*
X149225000Y-113645000D02*
X148199900Y-113645000D01*
X118590100Y-111396400D02*
X118590100Y-111115000D01*
X119433800Y-112240100D02*
X118590100Y-111396400D01*
X128738200Y-112240100D02*
X119433800Y-112240100D01*
X128822600Y-112155700D02*
X128738200Y-112240100D01*
X146710600Y-112155700D02*
X128822600Y-112155700D01*
X148199900Y-113645000D02*
X146710600Y-112155700D01*
G04 #@! TO.N,Net-(U8-Q2)*
X156682800Y-103237100D02*
X157724900Y-102195000D01*
X142761800Y-103237100D02*
X156682800Y-103237100D01*
X137600300Y-98075600D02*
X142761800Y-103237100D01*
X121614400Y-98075600D02*
X137600300Y-98075600D01*
X120005000Y-99685000D02*
X121614400Y-98075600D01*
X158750000Y-102195000D02*
X157724900Y-102195000D01*
G04 #@! TO.N,Net-(U7-Q2)*
X161139900Y-115009800D02*
X159775100Y-113645000D01*
X173407500Y-115009800D02*
X161139900Y-115009800D01*
X176774900Y-118377200D02*
X173407500Y-115009800D01*
X176774900Y-122559600D02*
X176774900Y-118377200D01*
X178833800Y-124618500D02*
X176774900Y-122559600D01*
X178833800Y-125550200D02*
X178833800Y-124618500D01*
X175531500Y-128852500D02*
X178833800Y-125550200D01*
X105237600Y-128852500D02*
X175531500Y-128852500D01*
X103380100Y-126995000D02*
X105237600Y-128852500D01*
X102255000Y-126995000D02*
X103380100Y-126995000D01*
X158750000Y-113645000D02*
X159775100Y-113645000D01*
G04 #@! TO.N,/Clock_Binary/CARRY_SEC*
X95750100Y-75793200D02*
X95750100Y-75560000D01*
X101866900Y-81910000D02*
X95750100Y-75793200D01*
X103639900Y-81910000D02*
X101866900Y-81910000D01*
X104919900Y-83190000D02*
X103639900Y-81910000D01*
X106045000Y-83190000D02*
X104919900Y-83190000D01*
X94625000Y-75560000D02*
X95750100Y-75560000D01*
G04 #@! TO.N,/Interface/SWITCH_PAUSE_NOT*
X157466000Y-94060000D02*
X172720000Y-94060000D01*
X156155100Y-95370900D02*
X157466000Y-94060000D01*
X156155100Y-95885000D02*
X156155100Y-95370900D01*
X154980000Y-95885000D02*
X156155100Y-95885000D01*
X124436600Y-130111600D02*
X124460000Y-130135000D01*
X116725200Y-130111600D02*
X124436600Y-130111600D01*
X116701800Y-130135000D02*
X116725200Y-130111600D01*
X108585000Y-130135000D02*
X116701800Y-130135000D01*
X99430100Y-90310000D02*
X95760100Y-93980000D01*
X118769200Y-90310000D02*
X99430100Y-90310000D01*
X124624200Y-84455000D02*
X118769200Y-90310000D01*
X132675000Y-84455000D02*
X124624200Y-84455000D01*
X135255000Y-81875000D02*
X132675000Y-84455000D01*
X94635000Y-93980000D02*
X95760100Y-93980000D01*
G04 #@! TO.N,Net-(U8-Q1)*
X167249900Y-102619800D02*
X167249900Y-102195000D01*
X163901700Y-105968000D02*
X167249900Y-102619800D01*
X139994900Y-105968000D02*
X163901700Y-105968000D01*
X136197100Y-102170200D02*
X139994900Y-105968000D01*
X125874000Y-102170200D02*
X136197100Y-102170200D01*
X123670100Y-99966300D02*
X125874000Y-102170200D01*
X123670100Y-99685000D02*
X123670100Y-99966300D01*
X122545000Y-99685000D02*
X123670100Y-99685000D01*
X168275000Y-102195000D02*
X167249900Y-102195000D01*
G04 #@! TO.N,Net-(U7-Q1)*
X164988300Y-111403400D02*
X167249900Y-113665000D01*
X139838800Y-111403400D02*
X164988300Y-111403400D01*
X138425000Y-109989600D02*
X139838800Y-111403400D01*
X124514200Y-109989600D02*
X138425000Y-109989600D01*
X123670100Y-110833700D02*
X124514200Y-109989600D01*
X123670100Y-111115000D02*
X123670100Y-110833700D01*
X122545000Y-111115000D02*
X123670100Y-111115000D01*
X168275000Y-113665000D02*
X167249900Y-113665000D01*
G04 #@! TO.N,Net-(U8-Q0)*
X177800000Y-109815000D02*
X176774900Y-109815000D01*
X176774900Y-109142300D02*
X176774900Y-109815000D01*
X173610600Y-105978000D02*
X176774900Y-109142300D01*
X172071600Y-105978000D02*
X173610600Y-105978000D01*
X170180400Y-104086800D02*
X172071600Y-105978000D01*
X170180400Y-102557300D02*
X170180400Y-104086800D01*
X166282400Y-98659300D02*
X170180400Y-102557300D01*
X153112300Y-98659300D02*
X166282400Y-98659300D01*
X146518000Y-92065000D02*
X153112300Y-98659300D01*
X125085000Y-92065000D02*
X146518000Y-92065000D01*
G04 #@! TO.N,Net-(U7-Q0)*
X177800000Y-118765700D02*
X177800000Y-121265000D01*
X169987500Y-110953200D02*
X177800000Y-118765700D01*
X144343300Y-110953200D02*
X169987500Y-110953200D01*
X136885100Y-103495000D02*
X144343300Y-110953200D01*
X125085000Y-103495000D02*
X136885100Y-103495000D01*
G04 #@! TO.N,Net-(C3-Pad1)*
X182880000Y-99060000D02*
X181854900Y-99060000D01*
X181814900Y-99020000D02*
X181854900Y-99060000D01*
X179705000Y-99020000D02*
X181814900Y-99020000D01*
X174586900Y-93901900D02*
X179705000Y-99020000D01*
X174586900Y-89794100D02*
X174586900Y-93901900D01*
X173057800Y-88265000D02*
X174586900Y-89794100D01*
X171781800Y-88265000D02*
X173057800Y-88265000D01*
X169241800Y-85725000D02*
X171781800Y-88265000D01*
X125105000Y-85725000D02*
X169241800Y-85725000D01*
G04 #@! TO.N,Net-(U2-(PHI)I)*
X159529900Y-84221900D02*
X159529900Y-84455000D01*
X153413000Y-78105000D02*
X159529900Y-84221900D01*
X152660700Y-78105000D02*
X153413000Y-78105000D01*
X151883500Y-77327800D02*
X152660700Y-78105000D01*
X151883500Y-76358500D02*
X151883500Y-77327800D01*
X152566800Y-75675200D02*
X151883500Y-76358500D01*
X175395100Y-75675200D02*
X152566800Y-75675200D01*
X175504900Y-75785000D02*
X175395100Y-75675200D01*
X160655000Y-84455000D02*
X159529900Y-84455000D01*
X176090000Y-78480100D02*
X176090000Y-75785000D01*
X176530000Y-75785000D02*
X176090000Y-75785000D01*
X176090000Y-75785000D02*
X175504900Y-75785000D01*
G04 #@! TO.N,Net-(C7-Pad1)*
X134195100Y-101045000D02*
X132885100Y-99735000D01*
X135255000Y-101045000D02*
X134195100Y-101045000D01*
X131860000Y-99735000D02*
X132885100Y-99735000D01*
G04 #@! TO.N,Net-(C5-Pad1)*
X126230100Y-80389800D02*
X131054900Y-75565000D01*
X126230100Y-80645000D02*
X126230100Y-80389800D01*
X132080000Y-75565000D02*
X131054900Y-75565000D01*
X125105000Y-80645000D02*
X126230100Y-80645000D01*
X134415100Y-76875000D02*
X133105100Y-75565000D01*
X135255000Y-76875000D02*
X134415100Y-76875000D01*
X132080000Y-75565000D02*
X133105100Y-75565000D01*
G04 #@! TO.N,Net-(C1-Pad1)*
X177615100Y-73060100D02*
X176530000Y-71975000D01*
X177615100Y-80380100D02*
X177615100Y-73060100D01*
X176090000Y-80380100D02*
X177615100Y-80380100D01*
X178210100Y-80380100D02*
X182880000Y-85050000D01*
X177615100Y-80380100D02*
X178210100Y-80380100D01*
G04 #@! TO.N,GND*
X106045000Y-88270000D02*
X104919900Y-88270000D01*
X103330100Y-89859800D02*
X104919900Y-88270000D01*
X97349900Y-89859800D02*
X103330100Y-89859800D01*
X95750100Y-88260000D02*
X97349900Y-89859800D01*
X172720000Y-99060000D02*
X175895000Y-99060000D01*
X89996900Y-133176900D02*
X88900000Y-132080000D01*
X95791900Y-133176900D02*
X89996900Y-133176900D01*
X140335000Y-93940000D02*
X142280000Y-95885000D01*
X135255000Y-93940000D02*
X140335000Y-93940000D01*
X177205000Y-84455000D02*
X177800000Y-85050000D01*
X172720000Y-84455000D02*
X177205000Y-84455000D01*
X144145000Y-107275000D02*
X153670000Y-107275000D01*
X153670000Y-107275000D02*
X163195000Y-107275000D01*
X144115000Y-118715000D02*
X144145000Y-118685000D01*
X134730000Y-118715000D02*
X144115000Y-118715000D01*
X172720000Y-107275000D02*
X163195000Y-107275000D01*
X153670000Y-118685000D02*
X144145000Y-118685000D01*
X163195000Y-118685000D02*
X153670000Y-118685000D01*
X182245000Y-130155000D02*
X172720000Y-130155000D01*
X172720000Y-118685000D02*
X163195000Y-118685000D01*
X108309600Y-89409500D02*
X107170100Y-88270000D01*
X115215400Y-89409500D02*
X108309600Y-89409500D01*
X116359900Y-88265000D02*
X115215400Y-89409500D01*
X117485000Y-88265000D02*
X116359900Y-88265000D01*
X106045000Y-88270000D02*
X107170100Y-88270000D01*
X172720000Y-130155000D02*
X163195000Y-130155000D01*
X153800000Y-130155000D02*
X153780000Y-130175000D01*
X163195000Y-130155000D02*
X153800000Y-130155000D01*
X144145000Y-130150000D02*
X144145000Y-130145000D01*
X144140000Y-130155000D02*
X144145000Y-130150000D01*
X134620000Y-130155000D02*
X144140000Y-130155000D01*
X153755000Y-130150000D02*
X153780000Y-130175000D01*
X144145000Y-130150000D02*
X153755000Y-130150000D01*
X166464900Y-94979000D02*
X166464900Y-95885000D01*
X166020400Y-94534500D02*
X166464900Y-94979000D01*
X160005600Y-94534500D02*
X166020400Y-94534500D01*
X158655100Y-95885000D02*
X160005600Y-94534500D01*
X157480000Y-95885000D02*
X158655100Y-95885000D01*
X167640000Y-95885000D02*
X166464900Y-95885000D01*
X94625000Y-88260000D02*
X95750100Y-88260000D01*
X95791900Y-131817000D02*
X95791900Y-133176900D01*
X94635000Y-130660100D02*
X95791900Y-131817000D01*
X94635000Y-129535000D02*
X94635000Y-130660100D01*
G04 #@! TO.N,+3.3V*
X104264900Y-93980000D02*
X106179900Y-92065000D01*
X102255000Y-93980000D02*
X104264900Y-93980000D01*
X107305000Y-92065000D02*
X106179900Y-92065000D01*
X105549900Y-114295000D02*
X106179900Y-114925000D01*
X102255000Y-114295000D02*
X105549900Y-114295000D01*
X107305000Y-114925000D02*
X106179900Y-114925000D01*
X111414700Y-74155200D02*
X112539900Y-73030000D01*
X104505300Y-74155200D02*
X111414700Y-74155200D01*
X103370100Y-73020000D02*
X104505300Y-74155200D01*
X102245000Y-73020000D02*
X103370100Y-73020000D01*
X113665000Y-73030000D02*
X112539900Y-73030000D01*
X160655000Y-71755000D02*
X159529900Y-71755000D01*
X162905300Y-72880200D02*
X161780100Y-71755000D01*
X170469700Y-72880200D02*
X162905300Y-72880200D01*
X171594900Y-71755000D02*
X170469700Y-72880200D01*
X172720000Y-71755000D02*
X171594900Y-71755000D01*
X160655000Y-71755000D02*
X161780100Y-71755000D01*
X146189800Y-72880200D02*
X144770000Y-74300000D01*
X158404700Y-72880200D02*
X146189800Y-72880200D01*
X159529900Y-71755000D02*
X158404700Y-72880200D01*
X130608900Y-74496100D02*
X129540000Y-75565000D01*
X133738800Y-74496100D02*
X130608900Y-74496100D01*
X134767900Y-75525200D02*
X133738800Y-74496100D01*
X143544800Y-75525200D02*
X134767900Y-75525200D01*
X144770000Y-74300000D02*
X143544800Y-75525200D01*
X184301100Y-100178900D02*
X185420000Y-99060000D01*
X178626000Y-100178900D02*
X184301100Y-100178900D01*
X175675100Y-97228000D02*
X178626000Y-100178900D01*
X153823000Y-97228000D02*
X175675100Y-97228000D01*
X152480000Y-95885000D02*
X153823000Y-97228000D01*
X115910200Y-74150100D02*
X114790100Y-73030000D01*
X122854800Y-74150100D02*
X115910200Y-74150100D01*
X123979900Y-73025000D02*
X122854800Y-74150100D01*
X125105000Y-73025000D02*
X123979900Y-73025000D01*
X113665000Y-73030000D02*
X114790100Y-73030000D01*
G04 #@! TD*
M02*
