M48
; DRILL file {KiCad 7.0.1} date Wed Apr 19 14:54:03 2023
; FORMAT={-:-/ absolute / inch / decimal}
; #@! TF.CreationDate,2023-04-19T14:54:03-05:00
; #@! TF.GenerationSoftware,Kicad,Pcbnew,7.0.1
; #@! TF.FileFunction,Plated,1,2,PTH
FMAT,2
INCH
; #@! TA.AperFunction,Plated,PTH,ViaDrill
T1C0.0157
; #@! TA.AperFunction,Plated,PTH,ComponentDrill
T2C0.0197
; #@! TA.AperFunction,Plated,PTH,ComponentDrill
T3C0.0276
; #@! TA.AperFunction,Plated,PTH,ComponentDrill
T4C0.0315
; #@! TA.AperFunction,Plated,PTH,ComponentDrill
T5C0.0374
; #@! TA.AperFunction,Plated,PTH,ComponentDrill
T6C0.0394
; #@! TA.AperFunction,Plated,PTH,ComponentDrill
T7C0.0984
%
G90
G05
T1
X4.3799Y-3.3452
X5.0482Y-3.4368
X5.4157Y-4.1258
T2
X6.9327Y-3.0898
X6.9327Y-3.1646
T3
X5.1351Y-3.4261
X5.1351Y-3.7261
X5.1367Y-2.9529
X5.1367Y-3.2529
X5.1492Y-3.9345
X5.1492Y-4.2345
X5.15Y-4.4742
X5.15Y-4.7742
X5.15Y-4.925
X5.15Y-5.225
X5.2351Y-3.4261
X5.2351Y-3.7261
X5.2367Y-2.9529
X5.2367Y-3.2529
X5.2406Y-3.9345
X5.2406Y-4.2345
X5.525Y-4.0234
X5.525Y-4.3234
X5.525Y-4.4742
X5.525Y-4.7742
X5.525Y-4.925
X5.525Y-5.225
X5.9Y-4.0234
X5.9Y-4.3234
X5.9Y-4.4742
X5.9Y-4.7742
X5.9Y-4.925
X5.9Y-5.225
X6.275Y-4.0234
X6.275Y-4.3234
X6.275Y-4.4742
X6.275Y-4.7742
X6.275Y-4.925
X6.275Y-5.225
X6.65Y-4.0234
X6.65Y-4.3234
X6.65Y-4.475
X6.65Y-4.775
X6.65Y-4.925
X6.65Y-5.225
X6.925Y-3.6
X6.925Y-3.9
X6.95Y-2.8337
X6.95Y-2.9837
X7.025Y-4.0234
X7.025Y-4.3234
X7.025Y-4.4742
X7.025Y-4.7742
X7.025Y-4.925
X7.025Y-5.225
X7.2Y-3.6
X7.2Y-3.9
X7.25Y-2.8337
X7.25Y-2.9837
X7.3Y-3.6
X7.3Y-3.9
T4
X3.7254Y-2.8748
X3.7254Y-2.9748
X3.7254Y-3.0748
X3.7254Y-3.1748
X3.7254Y-3.2748
X3.7254Y-3.3748
X3.7254Y-3.4748
X3.7258Y-3.7
X3.7258Y-3.8
X3.7258Y-3.9
X3.7258Y-4.0
X3.7258Y-4.1
X3.7258Y-4.2
X3.7258Y-4.3
X3.7258Y-4.4998
X3.7258Y-4.5998
X3.7258Y-4.6998
X3.7258Y-4.7998
X3.7258Y-4.8998
X3.7258Y-4.9998
X3.7258Y-5.0998
X4.0254Y-2.8748
X4.0254Y-2.9748
X4.0254Y-3.0748
X4.0254Y-3.1748
X4.0254Y-3.2748
X4.0254Y-3.3748
X4.0254Y-3.4748
X4.0258Y-3.7
X4.0258Y-3.8
X4.0258Y-3.9
X4.0258Y-4.0
X4.0258Y-4.1
X4.0258Y-4.2
X4.0258Y-4.3
X4.0258Y-4.4998
X4.0258Y-4.5998
X4.0258Y-4.6998
X4.0258Y-4.7998
X4.0258Y-4.8998
X4.0258Y-4.9998
X4.0258Y-5.0998
X4.1694Y-3.6701
X4.1694Y-3.8669
X4.1694Y-4.121
X4.1694Y-4.3179
X4.1694Y-4.5736
X4.1694Y-4.7705
X4.175Y-2.8752
X4.175Y-2.9752
X4.175Y-3.0752
X4.175Y-3.1752
X4.175Y-3.2752
X4.175Y-3.3752
X4.175Y-3.4752
X4.3124Y-3.6235
X4.3124Y-3.9235
X4.3124Y-4.0735
X4.3124Y-4.3735
X4.3124Y-4.5235
X4.3124Y-4.8235
X4.4124Y-3.6235
X4.4124Y-3.9235
X4.4124Y-4.0735
X4.4124Y-4.3735
X4.4124Y-4.5235
X4.4124Y-4.8235
X4.475Y-2.8752
X4.475Y-2.9752
X4.475Y-3.0752
X4.475Y-3.1752
X4.475Y-3.2752
X4.475Y-3.3752
X4.475Y-3.4752
X4.5124Y-3.6235
X4.5124Y-3.9235
X4.5124Y-4.0735
X4.5124Y-4.3735
X4.5124Y-4.5235
X4.5124Y-4.8235
X4.6124Y-3.6235
X4.6124Y-3.9235
X4.6124Y-4.0735
X4.6124Y-4.3735
X4.6124Y-4.5235
X4.6124Y-4.8235
X4.6254Y-2.875
X4.6254Y-2.975
X4.6254Y-3.075
X4.6254Y-3.175
X4.6254Y-3.275
X4.6254Y-3.375
X4.6254Y-3.475
X4.7124Y-3.6235
X4.7124Y-3.9235
X4.7124Y-4.0735
X4.7124Y-4.3735
X4.7124Y-4.5235
X4.7124Y-4.8235
X4.8124Y-3.6235
X4.8124Y-3.9235
X4.8124Y-4.0735
X4.8124Y-4.3735
X4.8124Y-4.5235
X4.8124Y-4.8235
X4.9124Y-3.6235
X4.9124Y-3.9235
X4.9124Y-4.0735
X4.9124Y-4.3735
X4.9124Y-4.5235
X4.9124Y-4.8235
X4.9254Y-2.875
X4.9254Y-2.975
X4.9254Y-3.075
X4.9254Y-3.175
X4.9254Y-3.275
X4.9254Y-3.375
X4.9254Y-3.475
X5.0124Y-3.6235
X5.0124Y-3.9235
X5.0124Y-4.0735
X5.0124Y-4.3735
X5.0124Y-4.5235
X5.0124Y-4.8235
X5.3601Y-3.4777
X5.3601Y-3.6746
X5.3617Y-3.0045
X5.3617Y-3.2013
X5.3742Y-3.986
X5.3742Y-4.1829
X6.025Y-2.825
X6.025Y-2.925
X6.025Y-3.025
X6.025Y-3.125
X6.025Y-3.225
X6.025Y-3.325
X6.025Y-3.425
X6.025Y-3.525
X6.325Y-2.825
X6.325Y-2.925
X6.325Y-3.025
X6.325Y-3.125
X6.325Y-3.225
X6.325Y-3.325
X6.325Y-3.425
X6.325Y-3.525
X6.5Y-2.825
X6.5Y-2.925
X6.5Y-3.025
X6.5Y-3.125
X6.5Y-3.225
X6.5Y-3.325
X6.5Y-3.425
X6.5Y-3.525
X6.8Y-2.825
X6.8Y-2.925
X6.8Y-3.025
X6.8Y-3.125
X6.8Y-3.225
X6.8Y-3.325
X6.8Y-3.425
X6.8Y-3.525
X6.8Y-3.7031
X6.8Y-3.9
X7.0Y-3.25
X7.0Y-3.3484
X7.075Y-3.7016
X7.075Y-3.8984
X7.2Y-3.25
X7.2Y-3.3484
T5
X6.0031Y-3.775
X6.1016Y-3.775
X6.2Y-3.775
T6
X4.275Y-5.025
X4.275Y-5.1234
X4.5955Y-5.0241
X4.5955Y-5.1225
X4.9Y-5.025
X4.9Y-5.1234
X5.325Y-5.0258
X5.325Y-5.1242
X5.3293Y-4.5754
X5.3293Y-4.6738
X5.5996Y-2.9252
X5.6016Y-3.775
X5.6996Y-2.9252
X5.7Y-3.775
X5.7Y-4.125
X5.7Y-4.2234
X5.7Y-4.5742
X5.7Y-4.6726
X5.7Y-5.0254
X5.7Y-5.1238
X5.7996Y-2.9252
X6.075Y-4.125
X6.075Y-4.2234
X6.075Y-4.5742
X6.075Y-4.6726
X6.0793Y-5.0266
X6.0793Y-5.125
X6.45Y-4.125
X6.45Y-4.2234
X6.45Y-4.5742
X6.45Y-4.6726
X6.45Y-5.0258
X6.45Y-5.1242
X6.5016Y-3.775
X6.6Y-3.775
X6.825Y-4.125
X6.825Y-4.2234
X6.825Y-4.5742
X6.825Y-4.6726
X6.825Y-5.0258
X6.825Y-5.1242
X7.2Y-4.125
X7.2Y-4.2234
X7.2Y-4.575
X7.2Y-4.6734
X7.2Y-5.0258
X7.2Y-5.1242
T7
X3.5Y-2.8
X3.5Y-5.2
X7.5Y-2.8
X7.5Y-5.2
T0
M30
