G04 #@! TF.GenerationSoftware,KiCad,Pcbnew,7.0.1*
G04 #@! TF.CreationDate,2023-04-19T00:28:21-05:00*
G04 #@! TF.ProjectId,binary_clock,62696e61-7279-45f6-936c-6f636b2e6b69,rev?*
G04 #@! TF.SameCoordinates,Original*
G04 #@! TF.FileFunction,Soldermask,Bot*
G04 #@! TF.FilePolarity,Negative*
%FSLAX46Y46*%
G04 Gerber Fmt 4.6, Leading zero omitted, Abs format (unit mm)*
G04 Created by KiCad (PCBNEW 7.0.1) date 2023-04-19 00:28:21*
%MOMM*%
%LPD*%
G01*
G04 APERTURE LIST*
G04 Aperture macros list*
%AMRoundRect*
0 Rectangle with rounded corners*
0 $1 Rounding radius*
0 $2 $3 $4 $5 $6 $7 $8 $9 X,Y pos of 4 corners*
0 Add a 4 corners polygon primitive as box body*
4,1,4,$2,$3,$4,$5,$6,$7,$8,$9,$2,$3,0*
0 Add four circle primitives for the rounded corners*
1,1,$1+$1,$2,$3*
1,1,$1+$1,$4,$5*
1,1,$1+$1,$6,$7*
1,1,$1+$1,$8,$9*
0 Add four rect primitives between the rounded corners*
20,1,$1+$1,$2,$3,$4,$5,0*
20,1,$1+$1,$4,$5,$6,$7,0*
20,1,$1+$1,$6,$7,$8,$9,0*
20,1,$1+$1,$8,$9,$2,$3,0*%
G04 Aperture macros list end*
%ADD10C,1.600000*%
%ADD11RoundRect,0.250000X-0.600000X-0.750000X0.600000X-0.750000X0.600000X0.750000X-0.600000X0.750000X0*%
%ADD12O,1.700000X2.000000*%
%ADD13RoundRect,0.250000X0.750000X-0.600000X0.750000X0.600000X-0.750000X0.600000X-0.750000X-0.600000X0*%
%ADD14O,2.000000X1.700000*%
%ADD15C,1.400000*%
%ADD16O,1.400000X1.400000*%
%ADD17R,1.600000X1.600000*%
%ADD18O,1.600000X1.600000*%
%ADD19C,5.000000*%
%ADD20R,1.800000X1.800000*%
%ADD21C,1.800000*%
%ADD22RoundRect,0.250000X-0.600000X-0.725000X0.600000X-0.725000X0.600000X0.725000X-0.600000X0.725000X0*%
%ADD23O,1.700000X1.950000*%
%ADD24C,1.000000*%
G04 APERTURE END LIST*
D10*
G04 #@! TO.C,C2*
X177800000Y-82550000D03*
X177800000Y-85050000D03*
G04 #@! TD*
G04 #@! TO.C,C1*
X182880000Y-85050000D03*
X182880000Y-82550000D03*
G04 #@! TD*
D11*
G04 #@! TO.C,J1*
X165140000Y-95885000D03*
D12*
X167640000Y-95885000D03*
G04 #@! TD*
D13*
G04 #@! TO.C,D11*
X144145000Y-118685000D03*
D14*
X144145000Y-116185000D03*
G04 #@! TD*
D15*
G04 #@! TO.C,R11*
X131860000Y-107355000D03*
D16*
X131860000Y-99735000D03*
G04 #@! TD*
D17*
G04 #@! TO.C,U2*
X153035000Y-71755000D03*
D18*
X153035000Y-74295000D03*
X153035000Y-76835000D03*
X153035000Y-79375000D03*
X153035000Y-81915000D03*
X153035000Y-84455000D03*
X153035000Y-86995000D03*
X153035000Y-89535000D03*
X160655000Y-89535000D03*
X160655000Y-86995000D03*
X160655000Y-84455000D03*
X160655000Y-81915000D03*
X160655000Y-79375000D03*
X160655000Y-76835000D03*
X160655000Y-74295000D03*
X160655000Y-71755000D03*
G04 #@! TD*
D15*
G04 #@! TO.C,R13*
X168275000Y-132715000D03*
D16*
X168275000Y-125095000D03*
G04 #@! TD*
D19*
G04 #@! TO.C,H2*
X88900000Y-71120000D03*
G04 #@! TD*
D15*
G04 #@! TO.C,R2*
X184150000Y-75785000D03*
D16*
X176530000Y-75785000D03*
G04 #@! TD*
D15*
G04 #@! TO.C,R1*
X176530000Y-71975000D03*
D16*
X184150000Y-71975000D03*
G04 #@! TD*
D15*
G04 #@! TO.C,R23*
X130175000Y-121265000D03*
D16*
X130175000Y-113645000D03*
G04 #@! TD*
D15*
G04 #@! TO.C,R18*
X177800000Y-113645000D03*
D16*
X177800000Y-121265000D03*
G04 #@! TD*
D15*
G04 #@! TO.C,R16*
X139700000Y-132715000D03*
D16*
X139700000Y-125095000D03*
G04 #@! TD*
D19*
G04 #@! TO.C,H1*
X88900000Y-132080000D03*
G04 #@! TD*
G04 #@! TO.C,H4*
X190500000Y-71120000D03*
G04 #@! TD*
D13*
G04 #@! TO.C,D13*
X182245000Y-107275000D03*
D14*
X182245000Y-104775000D03*
G04 #@! TD*
D19*
G04 #@! TO.C,H3*
X190500000Y-132080000D03*
G04 #@! TD*
D17*
G04 #@! TO.C,U3*
X165100000Y-71755000D03*
D18*
X165100000Y-74295000D03*
X165100000Y-76835000D03*
X165100000Y-79375000D03*
X165100000Y-81915000D03*
X165100000Y-84455000D03*
X165100000Y-86995000D03*
X165100000Y-89535000D03*
X172720000Y-89535000D03*
X172720000Y-86995000D03*
X172720000Y-84455000D03*
X172720000Y-81915000D03*
X172720000Y-79375000D03*
X172720000Y-76835000D03*
X172720000Y-74295000D03*
X172720000Y-71755000D03*
G04 #@! TD*
D13*
G04 #@! TO.C,D8*
X172720000Y-118685000D03*
D14*
X172720000Y-116185000D03*
G04 #@! TD*
D13*
G04 #@! TO.C,D5*
X144145000Y-130145000D03*
D14*
X144145000Y-127645000D03*
G04 #@! TD*
D13*
G04 #@! TO.C,D4*
X153780000Y-130175000D03*
D14*
X153780000Y-127675000D03*
G04 #@! TD*
D15*
G04 #@! TO.C,R3*
X185420000Y-99060000D03*
D16*
X185420000Y-91440000D03*
G04 #@! TD*
D13*
G04 #@! TO.C,D2*
X172720000Y-130155000D03*
D14*
X172720000Y-127655000D03*
G04 #@! TD*
D13*
G04 #@! TO.C,D15*
X163195000Y-107275000D03*
D14*
X163195000Y-104775000D03*
G04 #@! TD*
D15*
G04 #@! TO.C,R15*
X149225000Y-132715000D03*
D16*
X149225000Y-125095000D03*
G04 #@! TD*
D15*
G04 #@! TO.C,R20*
X158750000Y-121265000D03*
D16*
X158750000Y-113645000D03*
G04 #@! TD*
D20*
G04 #@! TO.C,U1*
X142230000Y-74300000D03*
D21*
X144770000Y-74300000D03*
X147310000Y-74300000D03*
G04 #@! TD*
D13*
G04 #@! TO.C,D9*
X163195000Y-118685000D03*
D14*
X163195000Y-116185000D03*
G04 #@! TD*
D15*
G04 #@! TO.C,R24*
X177800000Y-102195000D03*
D16*
X177800000Y-109815000D03*
G04 #@! TD*
D17*
G04 #@! TO.C,U5*
X107305000Y-122545000D03*
D18*
X109845000Y-122545000D03*
X112385000Y-122545000D03*
X114925000Y-122545000D03*
X117465000Y-122545000D03*
X120005000Y-122545000D03*
X122545000Y-122545000D03*
X125085000Y-122545000D03*
X125085000Y-114925000D03*
X122545000Y-114925000D03*
X120005000Y-114925000D03*
X117465000Y-114925000D03*
X114925000Y-114925000D03*
X112385000Y-114925000D03*
X109845000Y-114925000D03*
X107305000Y-114925000D03*
G04 #@! TD*
D15*
G04 #@! TO.C,R21*
X149225000Y-121265000D03*
D16*
X149225000Y-113645000D03*
G04 #@! TD*
D13*
G04 #@! TO.C,SW5*
X124460000Y-130135000D03*
D14*
X124460000Y-127635000D03*
G04 #@! TD*
D13*
G04 #@! TO.C,D10*
X153670000Y-118685000D03*
D14*
X153670000Y-116185000D03*
G04 #@! TD*
D15*
G04 #@! TO.C,R5*
X175895000Y-91440000D03*
D16*
X175895000Y-99060000D03*
G04 #@! TD*
D10*
G04 #@! TO.C,C6*
X135255000Y-88940000D03*
X135255000Y-93940000D03*
G04 #@! TD*
D13*
G04 #@! TO.C,D3*
X163195000Y-130155000D03*
D14*
X163195000Y-127655000D03*
G04 #@! TD*
D17*
G04 #@! TO.C,U7*
X107305000Y-111115000D03*
D18*
X109845000Y-111115000D03*
X112385000Y-111115000D03*
X114925000Y-111115000D03*
X117465000Y-111115000D03*
X120005000Y-111115000D03*
X122545000Y-111115000D03*
X125085000Y-111115000D03*
X125085000Y-103495000D03*
X122545000Y-103495000D03*
X120005000Y-103495000D03*
X117465000Y-103495000D03*
X114925000Y-103495000D03*
X112385000Y-103495000D03*
X109845000Y-103495000D03*
X107305000Y-103495000D03*
G04 #@! TD*
D15*
G04 #@! TO.C,R27*
X149225000Y-109815000D03*
D16*
X149225000Y-102195000D03*
G04 #@! TD*
D15*
G04 #@! TO.C,R17*
X130175000Y-132715000D03*
D16*
X130175000Y-125095000D03*
G04 #@! TD*
D15*
G04 #@! TO.C,R7*
X132080000Y-83185000D03*
D16*
X132080000Y-75565000D03*
G04 #@! TD*
D10*
G04 #@! TO.C,C7*
X135255000Y-101045000D03*
X135255000Y-106045000D03*
G04 #@! TD*
D17*
G04 #@! TO.C,U11*
X94625000Y-73020000D03*
D18*
X94625000Y-75560000D03*
X94625000Y-78100000D03*
X94625000Y-80640000D03*
X94625000Y-83180000D03*
X94625000Y-85720000D03*
X94625000Y-88260000D03*
X102245000Y-88260000D03*
X102245000Y-85720000D03*
X102245000Y-83180000D03*
X102245000Y-80640000D03*
X102245000Y-78100000D03*
X102245000Y-75560000D03*
X102245000Y-73020000D03*
G04 #@! TD*
D15*
G04 #@! TO.C,R22*
X139700000Y-121265000D03*
D16*
X139700000Y-113645000D03*
G04 #@! TD*
D17*
G04 #@! TO.C,U4*
X117485000Y-73025000D03*
D18*
X117485000Y-75565000D03*
X117485000Y-78105000D03*
X117485000Y-80645000D03*
X117485000Y-83185000D03*
X117485000Y-85725000D03*
X117485000Y-88265000D03*
X125105000Y-88265000D03*
X125105000Y-85725000D03*
X125105000Y-83185000D03*
X125105000Y-80645000D03*
X125105000Y-78105000D03*
X125105000Y-75565000D03*
X125105000Y-73025000D03*
G04 #@! TD*
D10*
G04 #@! TO.C,C3*
X179705000Y-99020000D03*
X179705000Y-94020000D03*
G04 #@! TD*
D15*
G04 #@! TO.C,R26*
X158750000Y-109815000D03*
D16*
X158750000Y-102195000D03*
G04 #@! TD*
D13*
G04 #@! TO.C,D14*
X172720000Y-107275000D03*
D14*
X172720000Y-104775000D03*
G04 #@! TD*
D15*
G04 #@! TO.C,R14*
X158750000Y-132715000D03*
D16*
X158750000Y-125095000D03*
G04 #@! TD*
D17*
G04 #@! TO.C,U6*
X94635000Y-114295000D03*
D18*
X94635000Y-116835000D03*
X94635000Y-119375000D03*
X94635000Y-121915000D03*
X94635000Y-124455000D03*
X94635000Y-126995000D03*
X94635000Y-129535000D03*
X102255000Y-129535000D03*
X102255000Y-126995000D03*
X102255000Y-124455000D03*
X102255000Y-121915000D03*
X102255000Y-119375000D03*
X102255000Y-116835000D03*
X102255000Y-114295000D03*
G04 #@! TD*
D13*
G04 #@! TO.C,D12*
X134730000Y-118715000D03*
D14*
X134730000Y-116215000D03*
G04 #@! TD*
D17*
G04 #@! TO.C,U8*
X107305000Y-99685000D03*
D18*
X109845000Y-99685000D03*
X112385000Y-99685000D03*
X114925000Y-99685000D03*
X117465000Y-99685000D03*
X120005000Y-99685000D03*
X122545000Y-99685000D03*
X125085000Y-99685000D03*
X125085000Y-92065000D03*
X122545000Y-92065000D03*
X120005000Y-92065000D03*
X117465000Y-92065000D03*
X114925000Y-92065000D03*
X112385000Y-92065000D03*
X109845000Y-92065000D03*
X107305000Y-92065000D03*
G04 #@! TD*
D13*
G04 #@! TO.C,D16*
X153670000Y-107275000D03*
D14*
X153670000Y-104775000D03*
G04 #@! TD*
D13*
G04 #@! TO.C,SW3*
X108585000Y-130135000D03*
D14*
X108585000Y-127635000D03*
G04 #@! TD*
D13*
G04 #@! TO.C,D7*
X182245000Y-118705000D03*
D14*
X182245000Y-116205000D03*
G04 #@! TD*
D15*
G04 #@! TO.C,R25*
X168275000Y-109815000D03*
D16*
X168275000Y-102195000D03*
G04 #@! TD*
D22*
G04 #@! TO.C,SW1*
X152480000Y-95885000D03*
D23*
X154980000Y-95885000D03*
X157480000Y-95885000D03*
G04 #@! TD*
D13*
G04 #@! TO.C,D17*
X144145000Y-107275000D03*
D14*
X144145000Y-104775000D03*
G04 #@! TD*
D10*
G04 #@! TO.C,C8*
X100791900Y-133176900D03*
X95791900Y-133176900D03*
G04 #@! TD*
D13*
G04 #@! TO.C,D1*
X182245000Y-130155000D03*
D14*
X182245000Y-127655000D03*
G04 #@! TD*
D10*
G04 #@! TO.C,C5*
X135255000Y-76875000D03*
X135255000Y-81875000D03*
G04 #@! TD*
D13*
G04 #@! TO.C,SW4*
X116725200Y-130111600D03*
D14*
X116725200Y-127611600D03*
G04 #@! TD*
D24*
G04 #@! TO.C,Y1*
X176090000Y-80380100D03*
X176090000Y-78480100D03*
G04 #@! TD*
D15*
G04 #@! TO.C,R10*
X129540000Y-99735000D03*
D16*
X129540000Y-107355000D03*
G04 #@! TD*
D15*
G04 #@! TO.C,R28*
X139700000Y-109815000D03*
D16*
X139700000Y-102195000D03*
G04 #@! TD*
D15*
G04 #@! TO.C,R9*
X132080000Y-95250000D03*
D16*
X132080000Y-87630000D03*
G04 #@! TD*
D17*
G04 #@! TO.C,U10*
X106045000Y-73030000D03*
D18*
X106045000Y-75570000D03*
X106045000Y-78110000D03*
X106045000Y-80650000D03*
X106045000Y-83190000D03*
X106045000Y-85730000D03*
X106045000Y-88270000D03*
X113665000Y-88270000D03*
X113665000Y-85730000D03*
X113665000Y-83190000D03*
X113665000Y-80650000D03*
X113665000Y-78110000D03*
X113665000Y-75570000D03*
X113665000Y-73030000D03*
G04 #@! TD*
D15*
G04 #@! TO.C,R8*
X129540000Y-87630000D03*
D16*
X129540000Y-95250000D03*
G04 #@! TD*
D10*
G04 #@! TO.C,C4*
X172720000Y-94060000D03*
X172720000Y-99060000D03*
G04 #@! TD*
D15*
G04 #@! TO.C,R12*
X177800000Y-132715000D03*
D16*
X177800000Y-125095000D03*
G04 #@! TD*
D15*
G04 #@! TO.C,R4*
X182880000Y-91440000D03*
D16*
X182880000Y-99060000D03*
G04 #@! TD*
D13*
G04 #@! TO.C,D6*
X134620000Y-130155000D03*
D14*
X134620000Y-127655000D03*
G04 #@! TD*
D11*
G04 #@! TO.C,SW2*
X142280000Y-95885000D03*
D12*
X144780000Y-95885000D03*
G04 #@! TD*
D15*
G04 #@! TO.C,R19*
X168275000Y-121285000D03*
D16*
X168275000Y-113665000D03*
G04 #@! TD*
D15*
G04 #@! TO.C,R6*
X129540000Y-75565000D03*
D16*
X129540000Y-83185000D03*
G04 #@! TD*
D17*
G04 #@! TO.C,U9*
X94635000Y-93980000D03*
D18*
X94635000Y-96520000D03*
X94635000Y-99060000D03*
X94635000Y-101600000D03*
X94635000Y-104140000D03*
X94635000Y-106680000D03*
X94635000Y-109220000D03*
X102255000Y-109220000D03*
X102255000Y-106680000D03*
X102255000Y-104140000D03*
X102255000Y-101600000D03*
X102255000Y-99060000D03*
X102255000Y-96520000D03*
X102255000Y-93980000D03*
G04 #@! TD*
M02*
