G04 #@! TF.GenerationSoftware,KiCad,Pcbnew,7.0.1*
G04 #@! TF.CreationDate,2023-04-19T14:54:02-05:00*
G04 #@! TF.ProjectId,binary_clock,62696e61-7279-45f6-936c-6f636b2e6b69,rev?*
G04 #@! TF.SameCoordinates,Original*
G04 #@! TF.FileFunction,Legend,Top*
G04 #@! TF.FilePolarity,Positive*
%FSLAX46Y46*%
G04 Gerber Fmt 4.6, Leading zero omitted, Abs format (unit mm)*
G04 Created by KiCad (PCBNEW 7.0.1) date 2023-04-19 14:54:02*
%MOMM*%
%LPD*%
G01*
G04 APERTURE LIST*
%ADD10C,0.150000*%
%ADD11C,0.120000*%
G04 APERTURE END LIST*
D10*
G04 #@! TO.C,C10*
X105138917Y-100834228D02*
X105091298Y-100881848D01*
X105091298Y-100881848D02*
X104948441Y-100929467D01*
X104948441Y-100929467D02*
X104853203Y-100929467D01*
X104853203Y-100929467D02*
X104710346Y-100881848D01*
X104710346Y-100881848D02*
X104615108Y-100786609D01*
X104615108Y-100786609D02*
X104567489Y-100691371D01*
X104567489Y-100691371D02*
X104519870Y-100500895D01*
X104519870Y-100500895D02*
X104519870Y-100358038D01*
X104519870Y-100358038D02*
X104567489Y-100167562D01*
X104567489Y-100167562D02*
X104615108Y-100072324D01*
X104615108Y-100072324D02*
X104710346Y-99977086D01*
X104710346Y-99977086D02*
X104853203Y-99929467D01*
X104853203Y-99929467D02*
X104948441Y-99929467D01*
X104948441Y-99929467D02*
X105091298Y-99977086D01*
X105091298Y-99977086D02*
X105138917Y-100024705D01*
X106091298Y-100929467D02*
X105519870Y-100929467D01*
X105805584Y-100929467D02*
X105805584Y-99929467D01*
X105805584Y-99929467D02*
X105710346Y-100072324D01*
X105710346Y-100072324D02*
X105615108Y-100167562D01*
X105615108Y-100167562D02*
X105519870Y-100215181D01*
X106710346Y-99929467D02*
X106805584Y-99929467D01*
X106805584Y-99929467D02*
X106900822Y-99977086D01*
X106900822Y-99977086D02*
X106948441Y-100024705D01*
X106948441Y-100024705D02*
X106996060Y-100119943D01*
X106996060Y-100119943D02*
X107043679Y-100310419D01*
X107043679Y-100310419D02*
X107043679Y-100548514D01*
X107043679Y-100548514D02*
X106996060Y-100738990D01*
X106996060Y-100738990D02*
X106948441Y-100834228D01*
X106948441Y-100834228D02*
X106900822Y-100881848D01*
X106900822Y-100881848D02*
X106805584Y-100929467D01*
X106805584Y-100929467D02*
X106710346Y-100929467D01*
X106710346Y-100929467D02*
X106615108Y-100881848D01*
X106615108Y-100881848D02*
X106567489Y-100834228D01*
X106567489Y-100834228D02*
X106519870Y-100738990D01*
X106519870Y-100738990D02*
X106472251Y-100548514D01*
X106472251Y-100548514D02*
X106472251Y-100310419D01*
X106472251Y-100310419D02*
X106519870Y-100119943D01*
X106519870Y-100119943D02*
X106567489Y-100024705D01*
X106567489Y-100024705D02*
X106615108Y-99977086D01*
X106615108Y-99977086D02*
X106710346Y-99929467D01*
G04 #@! TO.C,C9*
X105656533Y-112250880D02*
X105608914Y-112298500D01*
X105608914Y-112298500D02*
X105466057Y-112346119D01*
X105466057Y-112346119D02*
X105370819Y-112346119D01*
X105370819Y-112346119D02*
X105227962Y-112298500D01*
X105227962Y-112298500D02*
X105132724Y-112203261D01*
X105132724Y-112203261D02*
X105085105Y-112108023D01*
X105085105Y-112108023D02*
X105037486Y-111917547D01*
X105037486Y-111917547D02*
X105037486Y-111774690D01*
X105037486Y-111774690D02*
X105085105Y-111584214D01*
X105085105Y-111584214D02*
X105132724Y-111488976D01*
X105132724Y-111488976D02*
X105227962Y-111393738D01*
X105227962Y-111393738D02*
X105370819Y-111346119D01*
X105370819Y-111346119D02*
X105466057Y-111346119D01*
X105466057Y-111346119D02*
X105608914Y-111393738D01*
X105608914Y-111393738D02*
X105656533Y-111441357D01*
X106132724Y-112346119D02*
X106323200Y-112346119D01*
X106323200Y-112346119D02*
X106418438Y-112298500D01*
X106418438Y-112298500D02*
X106466057Y-112250880D01*
X106466057Y-112250880D02*
X106561295Y-112108023D01*
X106561295Y-112108023D02*
X106608914Y-111917547D01*
X106608914Y-111917547D02*
X106608914Y-111536595D01*
X106608914Y-111536595D02*
X106561295Y-111441357D01*
X106561295Y-111441357D02*
X106513676Y-111393738D01*
X106513676Y-111393738D02*
X106418438Y-111346119D01*
X106418438Y-111346119D02*
X106227962Y-111346119D01*
X106227962Y-111346119D02*
X106132724Y-111393738D01*
X106132724Y-111393738D02*
X106085105Y-111441357D01*
X106085105Y-111441357D02*
X106037486Y-111536595D01*
X106037486Y-111536595D02*
X106037486Y-111774690D01*
X106037486Y-111774690D02*
X106085105Y-111869928D01*
X106085105Y-111869928D02*
X106132724Y-111917547D01*
X106132724Y-111917547D02*
X106227962Y-111965166D01*
X106227962Y-111965166D02*
X106418438Y-111965166D01*
X106418438Y-111965166D02*
X106513676Y-111917547D01*
X106513676Y-111917547D02*
X106561295Y-111869928D01*
X106561295Y-111869928D02*
X106608914Y-111774690D01*
G04 #@! TO.C,D11*
X143565714Y-123017619D02*
X143565714Y-122017619D01*
X143565714Y-122017619D02*
X143803809Y-122017619D01*
X143803809Y-122017619D02*
X143946666Y-122065238D01*
X143946666Y-122065238D02*
X144041904Y-122160476D01*
X144041904Y-122160476D02*
X144089523Y-122255714D01*
X144089523Y-122255714D02*
X144137142Y-122446190D01*
X144137142Y-122446190D02*
X144137142Y-122589047D01*
X144137142Y-122589047D02*
X144089523Y-122779523D01*
X144089523Y-122779523D02*
X144041904Y-122874761D01*
X144041904Y-122874761D02*
X143946666Y-122970000D01*
X143946666Y-122970000D02*
X143803809Y-123017619D01*
X143803809Y-123017619D02*
X143565714Y-123017619D01*
X145089523Y-123017619D02*
X144518095Y-123017619D01*
X144803809Y-123017619D02*
X144803809Y-122017619D01*
X144803809Y-122017619D02*
X144708571Y-122160476D01*
X144708571Y-122160476D02*
X144613333Y-122255714D01*
X144613333Y-122255714D02*
X144518095Y-122303333D01*
X146041904Y-123017619D02*
X145470476Y-123017619D01*
X145756190Y-123017619D02*
X145756190Y-122017619D01*
X145756190Y-122017619D02*
X145660952Y-122160476D01*
X145660952Y-122160476D02*
X145565714Y-122255714D01*
X145565714Y-122255714D02*
X145470476Y-122303333D01*
G04 #@! TO.C,R11*
X133573519Y-110738057D02*
X133097328Y-111071390D01*
X133573519Y-111309485D02*
X132573519Y-111309485D01*
X132573519Y-111309485D02*
X132573519Y-110928533D01*
X132573519Y-110928533D02*
X132621138Y-110833295D01*
X132621138Y-110833295D02*
X132668757Y-110785676D01*
X132668757Y-110785676D02*
X132763995Y-110738057D01*
X132763995Y-110738057D02*
X132906852Y-110738057D01*
X132906852Y-110738057D02*
X133002090Y-110785676D01*
X133002090Y-110785676D02*
X133049709Y-110833295D01*
X133049709Y-110833295D02*
X133097328Y-110928533D01*
X133097328Y-110928533D02*
X133097328Y-111309485D01*
X133573519Y-109785676D02*
X133573519Y-110357104D01*
X133573519Y-110071390D02*
X132573519Y-110071390D01*
X132573519Y-110071390D02*
X132716376Y-110166628D01*
X132716376Y-110166628D02*
X132811614Y-110261866D01*
X132811614Y-110261866D02*
X132859233Y-110357104D01*
X133573519Y-108833295D02*
X133573519Y-109404723D01*
X133573519Y-109119009D02*
X132573519Y-109119009D01*
X132573519Y-109119009D02*
X132716376Y-109214247D01*
X132716376Y-109214247D02*
X132811614Y-109309485D01*
X132811614Y-109309485D02*
X132859233Y-109404723D01*
G04 #@! TO.C,U2*
X156083095Y-68887619D02*
X156083095Y-69697142D01*
X156083095Y-69697142D02*
X156130714Y-69792380D01*
X156130714Y-69792380D02*
X156178333Y-69840000D01*
X156178333Y-69840000D02*
X156273571Y-69887619D01*
X156273571Y-69887619D02*
X156464047Y-69887619D01*
X156464047Y-69887619D02*
X156559285Y-69840000D01*
X156559285Y-69840000D02*
X156606904Y-69792380D01*
X156606904Y-69792380D02*
X156654523Y-69697142D01*
X156654523Y-69697142D02*
X156654523Y-68887619D01*
X157083095Y-68982857D02*
X157130714Y-68935238D01*
X157130714Y-68935238D02*
X157225952Y-68887619D01*
X157225952Y-68887619D02*
X157464047Y-68887619D01*
X157464047Y-68887619D02*
X157559285Y-68935238D01*
X157559285Y-68935238D02*
X157606904Y-68982857D01*
X157606904Y-68982857D02*
X157654523Y-69078095D01*
X157654523Y-69078095D02*
X157654523Y-69173333D01*
X157654523Y-69173333D02*
X157606904Y-69316190D01*
X157606904Y-69316190D02*
X157035476Y-69887619D01*
X157035476Y-69887619D02*
X157654523Y-69887619D01*
G04 #@! TO.C,R13*
X168267142Y-135082619D02*
X167933809Y-134606428D01*
X167695714Y-135082619D02*
X167695714Y-134082619D01*
X167695714Y-134082619D02*
X168076666Y-134082619D01*
X168076666Y-134082619D02*
X168171904Y-134130238D01*
X168171904Y-134130238D02*
X168219523Y-134177857D01*
X168219523Y-134177857D02*
X168267142Y-134273095D01*
X168267142Y-134273095D02*
X168267142Y-134415952D01*
X168267142Y-134415952D02*
X168219523Y-134511190D01*
X168219523Y-134511190D02*
X168171904Y-134558809D01*
X168171904Y-134558809D02*
X168076666Y-134606428D01*
X168076666Y-134606428D02*
X167695714Y-134606428D01*
X169219523Y-135082619D02*
X168648095Y-135082619D01*
X168933809Y-135082619D02*
X168933809Y-134082619D01*
X168933809Y-134082619D02*
X168838571Y-134225476D01*
X168838571Y-134225476D02*
X168743333Y-134320714D01*
X168743333Y-134320714D02*
X168648095Y-134368333D01*
X169552857Y-134082619D02*
X170171904Y-134082619D01*
X170171904Y-134082619D02*
X169838571Y-134463571D01*
X169838571Y-134463571D02*
X169981428Y-134463571D01*
X169981428Y-134463571D02*
X170076666Y-134511190D01*
X170076666Y-134511190D02*
X170124285Y-134558809D01*
X170124285Y-134558809D02*
X170171904Y-134654047D01*
X170171904Y-134654047D02*
X170171904Y-134892142D01*
X170171904Y-134892142D02*
X170124285Y-134987380D01*
X170124285Y-134987380D02*
X170076666Y-135035000D01*
X170076666Y-135035000D02*
X169981428Y-135082619D01*
X169981428Y-135082619D02*
X169695714Y-135082619D01*
X169695714Y-135082619D02*
X169600476Y-135035000D01*
X169600476Y-135035000D02*
X169552857Y-134987380D01*
G04 #@! TO.C,H2*
X88138095Y-68082619D02*
X88138095Y-67082619D01*
X88138095Y-67558809D02*
X88709523Y-67558809D01*
X88709523Y-68082619D02*
X88709523Y-67082619D01*
X89138095Y-67177857D02*
X89185714Y-67130238D01*
X89185714Y-67130238D02*
X89280952Y-67082619D01*
X89280952Y-67082619D02*
X89519047Y-67082619D01*
X89519047Y-67082619D02*
X89614285Y-67130238D01*
X89614285Y-67130238D02*
X89661904Y-67177857D01*
X89661904Y-67177857D02*
X89709523Y-67273095D01*
X89709523Y-67273095D02*
X89709523Y-67368333D01*
X89709523Y-67368333D02*
X89661904Y-67511190D01*
X89661904Y-67511190D02*
X89090476Y-68082619D01*
X89090476Y-68082619D02*
X89709523Y-68082619D01*
G04 #@! TO.C,R2*
X180183333Y-74342619D02*
X179850000Y-73866428D01*
X179611905Y-74342619D02*
X179611905Y-73342619D01*
X179611905Y-73342619D02*
X179992857Y-73342619D01*
X179992857Y-73342619D02*
X180088095Y-73390238D01*
X180088095Y-73390238D02*
X180135714Y-73437857D01*
X180135714Y-73437857D02*
X180183333Y-73533095D01*
X180183333Y-73533095D02*
X180183333Y-73675952D01*
X180183333Y-73675952D02*
X180135714Y-73771190D01*
X180135714Y-73771190D02*
X180088095Y-73818809D01*
X180088095Y-73818809D02*
X179992857Y-73866428D01*
X179992857Y-73866428D02*
X179611905Y-73866428D01*
X180564286Y-73437857D02*
X180611905Y-73390238D01*
X180611905Y-73390238D02*
X180707143Y-73342619D01*
X180707143Y-73342619D02*
X180945238Y-73342619D01*
X180945238Y-73342619D02*
X181040476Y-73390238D01*
X181040476Y-73390238D02*
X181088095Y-73437857D01*
X181088095Y-73437857D02*
X181135714Y-73533095D01*
X181135714Y-73533095D02*
X181135714Y-73628333D01*
X181135714Y-73628333D02*
X181088095Y-73771190D01*
X181088095Y-73771190D02*
X180516667Y-74342619D01*
X180516667Y-74342619D02*
X181135714Y-74342619D01*
G04 #@! TO.C,R1*
X180173333Y-70517619D02*
X179840000Y-70041428D01*
X179601905Y-70517619D02*
X179601905Y-69517619D01*
X179601905Y-69517619D02*
X179982857Y-69517619D01*
X179982857Y-69517619D02*
X180078095Y-69565238D01*
X180078095Y-69565238D02*
X180125714Y-69612857D01*
X180125714Y-69612857D02*
X180173333Y-69708095D01*
X180173333Y-69708095D02*
X180173333Y-69850952D01*
X180173333Y-69850952D02*
X180125714Y-69946190D01*
X180125714Y-69946190D02*
X180078095Y-69993809D01*
X180078095Y-69993809D02*
X179982857Y-70041428D01*
X179982857Y-70041428D02*
X179601905Y-70041428D01*
X181125714Y-70517619D02*
X180554286Y-70517619D01*
X180840000Y-70517619D02*
X180840000Y-69517619D01*
X180840000Y-69517619D02*
X180744762Y-69660476D01*
X180744762Y-69660476D02*
X180649524Y-69755714D01*
X180649524Y-69755714D02*
X180554286Y-69803333D01*
G04 #@! TO.C,R23*
X130167142Y-123652619D02*
X129833809Y-123176428D01*
X129595714Y-123652619D02*
X129595714Y-122652619D01*
X129595714Y-122652619D02*
X129976666Y-122652619D01*
X129976666Y-122652619D02*
X130071904Y-122700238D01*
X130071904Y-122700238D02*
X130119523Y-122747857D01*
X130119523Y-122747857D02*
X130167142Y-122843095D01*
X130167142Y-122843095D02*
X130167142Y-122985952D01*
X130167142Y-122985952D02*
X130119523Y-123081190D01*
X130119523Y-123081190D02*
X130071904Y-123128809D01*
X130071904Y-123128809D02*
X129976666Y-123176428D01*
X129976666Y-123176428D02*
X129595714Y-123176428D01*
X130548095Y-122747857D02*
X130595714Y-122700238D01*
X130595714Y-122700238D02*
X130690952Y-122652619D01*
X130690952Y-122652619D02*
X130929047Y-122652619D01*
X130929047Y-122652619D02*
X131024285Y-122700238D01*
X131024285Y-122700238D02*
X131071904Y-122747857D01*
X131071904Y-122747857D02*
X131119523Y-122843095D01*
X131119523Y-122843095D02*
X131119523Y-122938333D01*
X131119523Y-122938333D02*
X131071904Y-123081190D01*
X131071904Y-123081190D02*
X130500476Y-123652619D01*
X130500476Y-123652619D02*
X131119523Y-123652619D01*
X131452857Y-122652619D02*
X132071904Y-122652619D01*
X132071904Y-122652619D02*
X131738571Y-123033571D01*
X131738571Y-123033571D02*
X131881428Y-123033571D01*
X131881428Y-123033571D02*
X131976666Y-123081190D01*
X131976666Y-123081190D02*
X132024285Y-123128809D01*
X132024285Y-123128809D02*
X132071904Y-123224047D01*
X132071904Y-123224047D02*
X132071904Y-123462142D01*
X132071904Y-123462142D02*
X132024285Y-123557380D01*
X132024285Y-123557380D02*
X131976666Y-123605000D01*
X131976666Y-123605000D02*
X131881428Y-123652619D01*
X131881428Y-123652619D02*
X131595714Y-123652619D01*
X131595714Y-123652619D02*
X131500476Y-123605000D01*
X131500476Y-123605000D02*
X131452857Y-123557380D01*
G04 #@! TO.C,R18*
X177792142Y-123652619D02*
X177458809Y-123176428D01*
X177220714Y-123652619D02*
X177220714Y-122652619D01*
X177220714Y-122652619D02*
X177601666Y-122652619D01*
X177601666Y-122652619D02*
X177696904Y-122700238D01*
X177696904Y-122700238D02*
X177744523Y-122747857D01*
X177744523Y-122747857D02*
X177792142Y-122843095D01*
X177792142Y-122843095D02*
X177792142Y-122985952D01*
X177792142Y-122985952D02*
X177744523Y-123081190D01*
X177744523Y-123081190D02*
X177696904Y-123128809D01*
X177696904Y-123128809D02*
X177601666Y-123176428D01*
X177601666Y-123176428D02*
X177220714Y-123176428D01*
X178744523Y-123652619D02*
X178173095Y-123652619D01*
X178458809Y-123652619D02*
X178458809Y-122652619D01*
X178458809Y-122652619D02*
X178363571Y-122795476D01*
X178363571Y-122795476D02*
X178268333Y-122890714D01*
X178268333Y-122890714D02*
X178173095Y-122938333D01*
X179315952Y-123081190D02*
X179220714Y-123033571D01*
X179220714Y-123033571D02*
X179173095Y-122985952D01*
X179173095Y-122985952D02*
X179125476Y-122890714D01*
X179125476Y-122890714D02*
X179125476Y-122843095D01*
X179125476Y-122843095D02*
X179173095Y-122747857D01*
X179173095Y-122747857D02*
X179220714Y-122700238D01*
X179220714Y-122700238D02*
X179315952Y-122652619D01*
X179315952Y-122652619D02*
X179506428Y-122652619D01*
X179506428Y-122652619D02*
X179601666Y-122700238D01*
X179601666Y-122700238D02*
X179649285Y-122747857D01*
X179649285Y-122747857D02*
X179696904Y-122843095D01*
X179696904Y-122843095D02*
X179696904Y-122890714D01*
X179696904Y-122890714D02*
X179649285Y-122985952D01*
X179649285Y-122985952D02*
X179601666Y-123033571D01*
X179601666Y-123033571D02*
X179506428Y-123081190D01*
X179506428Y-123081190D02*
X179315952Y-123081190D01*
X179315952Y-123081190D02*
X179220714Y-123128809D01*
X179220714Y-123128809D02*
X179173095Y-123176428D01*
X179173095Y-123176428D02*
X179125476Y-123271666D01*
X179125476Y-123271666D02*
X179125476Y-123462142D01*
X179125476Y-123462142D02*
X179173095Y-123557380D01*
X179173095Y-123557380D02*
X179220714Y-123605000D01*
X179220714Y-123605000D02*
X179315952Y-123652619D01*
X179315952Y-123652619D02*
X179506428Y-123652619D01*
X179506428Y-123652619D02*
X179601666Y-123605000D01*
X179601666Y-123605000D02*
X179649285Y-123557380D01*
X179649285Y-123557380D02*
X179696904Y-123462142D01*
X179696904Y-123462142D02*
X179696904Y-123271666D01*
X179696904Y-123271666D02*
X179649285Y-123176428D01*
X179649285Y-123176428D02*
X179601666Y-123128809D01*
X179601666Y-123128809D02*
X179506428Y-123081190D01*
G04 #@! TO.C,C2*
X178167380Y-87796666D02*
X178215000Y-87844285D01*
X178215000Y-87844285D02*
X178262619Y-87987142D01*
X178262619Y-87987142D02*
X178262619Y-88082380D01*
X178262619Y-88082380D02*
X178215000Y-88225237D01*
X178215000Y-88225237D02*
X178119761Y-88320475D01*
X178119761Y-88320475D02*
X178024523Y-88368094D01*
X178024523Y-88368094D02*
X177834047Y-88415713D01*
X177834047Y-88415713D02*
X177691190Y-88415713D01*
X177691190Y-88415713D02*
X177500714Y-88368094D01*
X177500714Y-88368094D02*
X177405476Y-88320475D01*
X177405476Y-88320475D02*
X177310238Y-88225237D01*
X177310238Y-88225237D02*
X177262619Y-88082380D01*
X177262619Y-88082380D02*
X177262619Y-87987142D01*
X177262619Y-87987142D02*
X177310238Y-87844285D01*
X177310238Y-87844285D02*
X177357857Y-87796666D01*
X177357857Y-87415713D02*
X177310238Y-87368094D01*
X177310238Y-87368094D02*
X177262619Y-87272856D01*
X177262619Y-87272856D02*
X177262619Y-87034761D01*
X177262619Y-87034761D02*
X177310238Y-86939523D01*
X177310238Y-86939523D02*
X177357857Y-86891904D01*
X177357857Y-86891904D02*
X177453095Y-86844285D01*
X177453095Y-86844285D02*
X177548333Y-86844285D01*
X177548333Y-86844285D02*
X177691190Y-86891904D01*
X177691190Y-86891904D02*
X178262619Y-87463332D01*
X178262619Y-87463332D02*
X178262619Y-86844285D01*
G04 #@! TO.C,R16*
X139692142Y-135082619D02*
X139358809Y-134606428D01*
X139120714Y-135082619D02*
X139120714Y-134082619D01*
X139120714Y-134082619D02*
X139501666Y-134082619D01*
X139501666Y-134082619D02*
X139596904Y-134130238D01*
X139596904Y-134130238D02*
X139644523Y-134177857D01*
X139644523Y-134177857D02*
X139692142Y-134273095D01*
X139692142Y-134273095D02*
X139692142Y-134415952D01*
X139692142Y-134415952D02*
X139644523Y-134511190D01*
X139644523Y-134511190D02*
X139596904Y-134558809D01*
X139596904Y-134558809D02*
X139501666Y-134606428D01*
X139501666Y-134606428D02*
X139120714Y-134606428D01*
X140644523Y-135082619D02*
X140073095Y-135082619D01*
X140358809Y-135082619D02*
X140358809Y-134082619D01*
X140358809Y-134082619D02*
X140263571Y-134225476D01*
X140263571Y-134225476D02*
X140168333Y-134320714D01*
X140168333Y-134320714D02*
X140073095Y-134368333D01*
X141501666Y-134082619D02*
X141311190Y-134082619D01*
X141311190Y-134082619D02*
X141215952Y-134130238D01*
X141215952Y-134130238D02*
X141168333Y-134177857D01*
X141168333Y-134177857D02*
X141073095Y-134320714D01*
X141073095Y-134320714D02*
X141025476Y-134511190D01*
X141025476Y-134511190D02*
X141025476Y-134892142D01*
X141025476Y-134892142D02*
X141073095Y-134987380D01*
X141073095Y-134987380D02*
X141120714Y-135035000D01*
X141120714Y-135035000D02*
X141215952Y-135082619D01*
X141215952Y-135082619D02*
X141406428Y-135082619D01*
X141406428Y-135082619D02*
X141501666Y-135035000D01*
X141501666Y-135035000D02*
X141549285Y-134987380D01*
X141549285Y-134987380D02*
X141596904Y-134892142D01*
X141596904Y-134892142D02*
X141596904Y-134654047D01*
X141596904Y-134654047D02*
X141549285Y-134558809D01*
X141549285Y-134558809D02*
X141501666Y-134511190D01*
X141501666Y-134511190D02*
X141406428Y-134463571D01*
X141406428Y-134463571D02*
X141215952Y-134463571D01*
X141215952Y-134463571D02*
X141120714Y-134511190D01*
X141120714Y-134511190D02*
X141073095Y-134558809D01*
X141073095Y-134558809D02*
X141025476Y-134654047D01*
G04 #@! TO.C,H1*
X88138095Y-129042619D02*
X88138095Y-128042619D01*
X88138095Y-128518809D02*
X88709523Y-128518809D01*
X88709523Y-129042619D02*
X88709523Y-128042619D01*
X89709523Y-129042619D02*
X89138095Y-129042619D01*
X89423809Y-129042619D02*
X89423809Y-128042619D01*
X89423809Y-128042619D02*
X89328571Y-128185476D01*
X89328571Y-128185476D02*
X89233333Y-128280714D01*
X89233333Y-128280714D02*
X89138095Y-128328333D01*
G04 #@! TO.C,H4*
X189738095Y-68082619D02*
X189738095Y-67082619D01*
X189738095Y-67558809D02*
X190309523Y-67558809D01*
X190309523Y-68082619D02*
X190309523Y-67082619D01*
X191214285Y-67415952D02*
X191214285Y-68082619D01*
X190976190Y-67035000D02*
X190738095Y-67749285D01*
X190738095Y-67749285D02*
X191357142Y-67749285D01*
G04 #@! TO.C,J1*
X166056666Y-91797619D02*
X166056666Y-92511904D01*
X166056666Y-92511904D02*
X166009047Y-92654761D01*
X166009047Y-92654761D02*
X165913809Y-92750000D01*
X165913809Y-92750000D02*
X165770952Y-92797619D01*
X165770952Y-92797619D02*
X165675714Y-92797619D01*
X167056666Y-92797619D02*
X166485238Y-92797619D01*
X166770952Y-92797619D02*
X166770952Y-91797619D01*
X166770952Y-91797619D02*
X166675714Y-91940476D01*
X166675714Y-91940476D02*
X166580476Y-92035714D01*
X166580476Y-92035714D02*
X166485238Y-92083333D01*
G04 #@! TO.C,D13*
X181665714Y-111587619D02*
X181665714Y-110587619D01*
X181665714Y-110587619D02*
X181903809Y-110587619D01*
X181903809Y-110587619D02*
X182046666Y-110635238D01*
X182046666Y-110635238D02*
X182141904Y-110730476D01*
X182141904Y-110730476D02*
X182189523Y-110825714D01*
X182189523Y-110825714D02*
X182237142Y-111016190D01*
X182237142Y-111016190D02*
X182237142Y-111159047D01*
X182237142Y-111159047D02*
X182189523Y-111349523D01*
X182189523Y-111349523D02*
X182141904Y-111444761D01*
X182141904Y-111444761D02*
X182046666Y-111540000D01*
X182046666Y-111540000D02*
X181903809Y-111587619D01*
X181903809Y-111587619D02*
X181665714Y-111587619D01*
X183189523Y-111587619D02*
X182618095Y-111587619D01*
X182903809Y-111587619D02*
X182903809Y-110587619D01*
X182903809Y-110587619D02*
X182808571Y-110730476D01*
X182808571Y-110730476D02*
X182713333Y-110825714D01*
X182713333Y-110825714D02*
X182618095Y-110873333D01*
X183522857Y-110587619D02*
X184141904Y-110587619D01*
X184141904Y-110587619D02*
X183808571Y-110968571D01*
X183808571Y-110968571D02*
X183951428Y-110968571D01*
X183951428Y-110968571D02*
X184046666Y-111016190D01*
X184046666Y-111016190D02*
X184094285Y-111063809D01*
X184094285Y-111063809D02*
X184141904Y-111159047D01*
X184141904Y-111159047D02*
X184141904Y-111397142D01*
X184141904Y-111397142D02*
X184094285Y-111492380D01*
X184094285Y-111492380D02*
X184046666Y-111540000D01*
X184046666Y-111540000D02*
X183951428Y-111587619D01*
X183951428Y-111587619D02*
X183665714Y-111587619D01*
X183665714Y-111587619D02*
X183570476Y-111540000D01*
X183570476Y-111540000D02*
X183522857Y-111492380D01*
G04 #@! TO.C,C1*
X183247380Y-87796666D02*
X183295000Y-87844285D01*
X183295000Y-87844285D02*
X183342619Y-87987142D01*
X183342619Y-87987142D02*
X183342619Y-88082380D01*
X183342619Y-88082380D02*
X183295000Y-88225237D01*
X183295000Y-88225237D02*
X183199761Y-88320475D01*
X183199761Y-88320475D02*
X183104523Y-88368094D01*
X183104523Y-88368094D02*
X182914047Y-88415713D01*
X182914047Y-88415713D02*
X182771190Y-88415713D01*
X182771190Y-88415713D02*
X182580714Y-88368094D01*
X182580714Y-88368094D02*
X182485476Y-88320475D01*
X182485476Y-88320475D02*
X182390238Y-88225237D01*
X182390238Y-88225237D02*
X182342619Y-88082380D01*
X182342619Y-88082380D02*
X182342619Y-87987142D01*
X182342619Y-87987142D02*
X182390238Y-87844285D01*
X182390238Y-87844285D02*
X182437857Y-87796666D01*
X183342619Y-86844285D02*
X183342619Y-87415713D01*
X183342619Y-87129999D02*
X182342619Y-87129999D01*
X182342619Y-87129999D02*
X182485476Y-87225237D01*
X182485476Y-87225237D02*
X182580714Y-87320475D01*
X182580714Y-87320475D02*
X182628333Y-87415713D01*
G04 #@! TO.C,H3*
X189738095Y-129042619D02*
X189738095Y-128042619D01*
X189738095Y-128518809D02*
X190309523Y-128518809D01*
X190309523Y-129042619D02*
X190309523Y-128042619D01*
X190690476Y-128042619D02*
X191309523Y-128042619D01*
X191309523Y-128042619D02*
X190976190Y-128423571D01*
X190976190Y-128423571D02*
X191119047Y-128423571D01*
X191119047Y-128423571D02*
X191214285Y-128471190D01*
X191214285Y-128471190D02*
X191261904Y-128518809D01*
X191261904Y-128518809D02*
X191309523Y-128614047D01*
X191309523Y-128614047D02*
X191309523Y-128852142D01*
X191309523Y-128852142D02*
X191261904Y-128947380D01*
X191261904Y-128947380D02*
X191214285Y-128995000D01*
X191214285Y-128995000D02*
X191119047Y-129042619D01*
X191119047Y-129042619D02*
X190833333Y-129042619D01*
X190833333Y-129042619D02*
X190738095Y-128995000D01*
X190738095Y-128995000D02*
X190690476Y-128947380D01*
G04 #@! TO.C,U3*
X168148095Y-68887619D02*
X168148095Y-69697142D01*
X168148095Y-69697142D02*
X168195714Y-69792380D01*
X168195714Y-69792380D02*
X168243333Y-69840000D01*
X168243333Y-69840000D02*
X168338571Y-69887619D01*
X168338571Y-69887619D02*
X168529047Y-69887619D01*
X168529047Y-69887619D02*
X168624285Y-69840000D01*
X168624285Y-69840000D02*
X168671904Y-69792380D01*
X168671904Y-69792380D02*
X168719523Y-69697142D01*
X168719523Y-69697142D02*
X168719523Y-68887619D01*
X169100476Y-68887619D02*
X169719523Y-68887619D01*
X169719523Y-68887619D02*
X169386190Y-69268571D01*
X169386190Y-69268571D02*
X169529047Y-69268571D01*
X169529047Y-69268571D02*
X169624285Y-69316190D01*
X169624285Y-69316190D02*
X169671904Y-69363809D01*
X169671904Y-69363809D02*
X169719523Y-69459047D01*
X169719523Y-69459047D02*
X169719523Y-69697142D01*
X169719523Y-69697142D02*
X169671904Y-69792380D01*
X169671904Y-69792380D02*
X169624285Y-69840000D01*
X169624285Y-69840000D02*
X169529047Y-69887619D01*
X169529047Y-69887619D02*
X169243333Y-69887619D01*
X169243333Y-69887619D02*
X169148095Y-69840000D01*
X169148095Y-69840000D02*
X169100476Y-69792380D01*
G04 #@! TO.C,D8*
X172616905Y-123017619D02*
X172616905Y-122017619D01*
X172616905Y-122017619D02*
X172855000Y-122017619D01*
X172855000Y-122017619D02*
X172997857Y-122065238D01*
X172997857Y-122065238D02*
X173093095Y-122160476D01*
X173093095Y-122160476D02*
X173140714Y-122255714D01*
X173140714Y-122255714D02*
X173188333Y-122446190D01*
X173188333Y-122446190D02*
X173188333Y-122589047D01*
X173188333Y-122589047D02*
X173140714Y-122779523D01*
X173140714Y-122779523D02*
X173093095Y-122874761D01*
X173093095Y-122874761D02*
X172997857Y-122970000D01*
X172997857Y-122970000D02*
X172855000Y-123017619D01*
X172855000Y-123017619D02*
X172616905Y-123017619D01*
X173759762Y-122446190D02*
X173664524Y-122398571D01*
X173664524Y-122398571D02*
X173616905Y-122350952D01*
X173616905Y-122350952D02*
X173569286Y-122255714D01*
X173569286Y-122255714D02*
X173569286Y-122208095D01*
X173569286Y-122208095D02*
X173616905Y-122112857D01*
X173616905Y-122112857D02*
X173664524Y-122065238D01*
X173664524Y-122065238D02*
X173759762Y-122017619D01*
X173759762Y-122017619D02*
X173950238Y-122017619D01*
X173950238Y-122017619D02*
X174045476Y-122065238D01*
X174045476Y-122065238D02*
X174093095Y-122112857D01*
X174093095Y-122112857D02*
X174140714Y-122208095D01*
X174140714Y-122208095D02*
X174140714Y-122255714D01*
X174140714Y-122255714D02*
X174093095Y-122350952D01*
X174093095Y-122350952D02*
X174045476Y-122398571D01*
X174045476Y-122398571D02*
X173950238Y-122446190D01*
X173950238Y-122446190D02*
X173759762Y-122446190D01*
X173759762Y-122446190D02*
X173664524Y-122493809D01*
X173664524Y-122493809D02*
X173616905Y-122541428D01*
X173616905Y-122541428D02*
X173569286Y-122636666D01*
X173569286Y-122636666D02*
X173569286Y-122827142D01*
X173569286Y-122827142D02*
X173616905Y-122922380D01*
X173616905Y-122922380D02*
X173664524Y-122970000D01*
X173664524Y-122970000D02*
X173759762Y-123017619D01*
X173759762Y-123017619D02*
X173950238Y-123017619D01*
X173950238Y-123017619D02*
X174045476Y-122970000D01*
X174045476Y-122970000D02*
X174093095Y-122922380D01*
X174093095Y-122922380D02*
X174140714Y-122827142D01*
X174140714Y-122827142D02*
X174140714Y-122636666D01*
X174140714Y-122636666D02*
X174093095Y-122541428D01*
X174093095Y-122541428D02*
X174045476Y-122493809D01*
X174045476Y-122493809D02*
X173950238Y-122446190D01*
G04 #@! TO.C,D5*
X144041905Y-134447619D02*
X144041905Y-133447619D01*
X144041905Y-133447619D02*
X144280000Y-133447619D01*
X144280000Y-133447619D02*
X144422857Y-133495238D01*
X144422857Y-133495238D02*
X144518095Y-133590476D01*
X144518095Y-133590476D02*
X144565714Y-133685714D01*
X144565714Y-133685714D02*
X144613333Y-133876190D01*
X144613333Y-133876190D02*
X144613333Y-134019047D01*
X144613333Y-134019047D02*
X144565714Y-134209523D01*
X144565714Y-134209523D02*
X144518095Y-134304761D01*
X144518095Y-134304761D02*
X144422857Y-134400000D01*
X144422857Y-134400000D02*
X144280000Y-134447619D01*
X144280000Y-134447619D02*
X144041905Y-134447619D01*
X145518095Y-133447619D02*
X145041905Y-133447619D01*
X145041905Y-133447619D02*
X144994286Y-133923809D01*
X144994286Y-133923809D02*
X145041905Y-133876190D01*
X145041905Y-133876190D02*
X145137143Y-133828571D01*
X145137143Y-133828571D02*
X145375238Y-133828571D01*
X145375238Y-133828571D02*
X145470476Y-133876190D01*
X145470476Y-133876190D02*
X145518095Y-133923809D01*
X145518095Y-133923809D02*
X145565714Y-134019047D01*
X145565714Y-134019047D02*
X145565714Y-134257142D01*
X145565714Y-134257142D02*
X145518095Y-134352380D01*
X145518095Y-134352380D02*
X145470476Y-134400000D01*
X145470476Y-134400000D02*
X145375238Y-134447619D01*
X145375238Y-134447619D02*
X145137143Y-134447619D01*
X145137143Y-134447619D02*
X145041905Y-134400000D01*
X145041905Y-134400000D02*
X144994286Y-134352380D01*
G04 #@! TO.C,D4*
X153566905Y-134447619D02*
X153566905Y-133447619D01*
X153566905Y-133447619D02*
X153805000Y-133447619D01*
X153805000Y-133447619D02*
X153947857Y-133495238D01*
X153947857Y-133495238D02*
X154043095Y-133590476D01*
X154043095Y-133590476D02*
X154090714Y-133685714D01*
X154090714Y-133685714D02*
X154138333Y-133876190D01*
X154138333Y-133876190D02*
X154138333Y-134019047D01*
X154138333Y-134019047D02*
X154090714Y-134209523D01*
X154090714Y-134209523D02*
X154043095Y-134304761D01*
X154043095Y-134304761D02*
X153947857Y-134400000D01*
X153947857Y-134400000D02*
X153805000Y-134447619D01*
X153805000Y-134447619D02*
X153566905Y-134447619D01*
X154995476Y-133780952D02*
X154995476Y-134447619D01*
X154757381Y-133400000D02*
X154519286Y-134114285D01*
X154519286Y-134114285D02*
X155138333Y-134114285D01*
G04 #@! TO.C,R3*
X185253333Y-101518615D02*
X184920000Y-101042424D01*
X184681905Y-101518615D02*
X184681905Y-100518615D01*
X184681905Y-100518615D02*
X185062857Y-100518615D01*
X185062857Y-100518615D02*
X185158095Y-100566234D01*
X185158095Y-100566234D02*
X185205714Y-100613853D01*
X185205714Y-100613853D02*
X185253333Y-100709091D01*
X185253333Y-100709091D02*
X185253333Y-100851948D01*
X185253333Y-100851948D02*
X185205714Y-100947186D01*
X185205714Y-100947186D02*
X185158095Y-100994805D01*
X185158095Y-100994805D02*
X185062857Y-101042424D01*
X185062857Y-101042424D02*
X184681905Y-101042424D01*
X185586667Y-100518615D02*
X186205714Y-100518615D01*
X186205714Y-100518615D02*
X185872381Y-100899567D01*
X185872381Y-100899567D02*
X186015238Y-100899567D01*
X186015238Y-100899567D02*
X186110476Y-100947186D01*
X186110476Y-100947186D02*
X186158095Y-100994805D01*
X186158095Y-100994805D02*
X186205714Y-101090043D01*
X186205714Y-101090043D02*
X186205714Y-101328138D01*
X186205714Y-101328138D02*
X186158095Y-101423376D01*
X186158095Y-101423376D02*
X186110476Y-101470996D01*
X186110476Y-101470996D02*
X186015238Y-101518615D01*
X186015238Y-101518615D02*
X185729524Y-101518615D01*
X185729524Y-101518615D02*
X185634286Y-101470996D01*
X185634286Y-101470996D02*
X185586667Y-101423376D01*
G04 #@! TO.C,D2*
X172616905Y-134447619D02*
X172616905Y-133447619D01*
X172616905Y-133447619D02*
X172855000Y-133447619D01*
X172855000Y-133447619D02*
X172997857Y-133495238D01*
X172997857Y-133495238D02*
X173093095Y-133590476D01*
X173093095Y-133590476D02*
X173140714Y-133685714D01*
X173140714Y-133685714D02*
X173188333Y-133876190D01*
X173188333Y-133876190D02*
X173188333Y-134019047D01*
X173188333Y-134019047D02*
X173140714Y-134209523D01*
X173140714Y-134209523D02*
X173093095Y-134304761D01*
X173093095Y-134304761D02*
X172997857Y-134400000D01*
X172997857Y-134400000D02*
X172855000Y-134447619D01*
X172855000Y-134447619D02*
X172616905Y-134447619D01*
X173569286Y-133542857D02*
X173616905Y-133495238D01*
X173616905Y-133495238D02*
X173712143Y-133447619D01*
X173712143Y-133447619D02*
X173950238Y-133447619D01*
X173950238Y-133447619D02*
X174045476Y-133495238D01*
X174045476Y-133495238D02*
X174093095Y-133542857D01*
X174093095Y-133542857D02*
X174140714Y-133638095D01*
X174140714Y-133638095D02*
X174140714Y-133733333D01*
X174140714Y-133733333D02*
X174093095Y-133876190D01*
X174093095Y-133876190D02*
X173521667Y-134447619D01*
X173521667Y-134447619D02*
X174140714Y-134447619D01*
G04 #@! TO.C,D15*
X162615714Y-111587619D02*
X162615714Y-110587619D01*
X162615714Y-110587619D02*
X162853809Y-110587619D01*
X162853809Y-110587619D02*
X162996666Y-110635238D01*
X162996666Y-110635238D02*
X163091904Y-110730476D01*
X163091904Y-110730476D02*
X163139523Y-110825714D01*
X163139523Y-110825714D02*
X163187142Y-111016190D01*
X163187142Y-111016190D02*
X163187142Y-111159047D01*
X163187142Y-111159047D02*
X163139523Y-111349523D01*
X163139523Y-111349523D02*
X163091904Y-111444761D01*
X163091904Y-111444761D02*
X162996666Y-111540000D01*
X162996666Y-111540000D02*
X162853809Y-111587619D01*
X162853809Y-111587619D02*
X162615714Y-111587619D01*
X164139523Y-111587619D02*
X163568095Y-111587619D01*
X163853809Y-111587619D02*
X163853809Y-110587619D01*
X163853809Y-110587619D02*
X163758571Y-110730476D01*
X163758571Y-110730476D02*
X163663333Y-110825714D01*
X163663333Y-110825714D02*
X163568095Y-110873333D01*
X165044285Y-110587619D02*
X164568095Y-110587619D01*
X164568095Y-110587619D02*
X164520476Y-111063809D01*
X164520476Y-111063809D02*
X164568095Y-111016190D01*
X164568095Y-111016190D02*
X164663333Y-110968571D01*
X164663333Y-110968571D02*
X164901428Y-110968571D01*
X164901428Y-110968571D02*
X164996666Y-111016190D01*
X164996666Y-111016190D02*
X165044285Y-111063809D01*
X165044285Y-111063809D02*
X165091904Y-111159047D01*
X165091904Y-111159047D02*
X165091904Y-111397142D01*
X165091904Y-111397142D02*
X165044285Y-111492380D01*
X165044285Y-111492380D02*
X164996666Y-111540000D01*
X164996666Y-111540000D02*
X164901428Y-111587619D01*
X164901428Y-111587619D02*
X164663333Y-111587619D01*
X164663333Y-111587619D02*
X164568095Y-111540000D01*
X164568095Y-111540000D02*
X164520476Y-111492380D01*
G04 #@! TO.C,R15*
X149217142Y-135082619D02*
X148883809Y-134606428D01*
X148645714Y-135082619D02*
X148645714Y-134082619D01*
X148645714Y-134082619D02*
X149026666Y-134082619D01*
X149026666Y-134082619D02*
X149121904Y-134130238D01*
X149121904Y-134130238D02*
X149169523Y-134177857D01*
X149169523Y-134177857D02*
X149217142Y-134273095D01*
X149217142Y-134273095D02*
X149217142Y-134415952D01*
X149217142Y-134415952D02*
X149169523Y-134511190D01*
X149169523Y-134511190D02*
X149121904Y-134558809D01*
X149121904Y-134558809D02*
X149026666Y-134606428D01*
X149026666Y-134606428D02*
X148645714Y-134606428D01*
X150169523Y-135082619D02*
X149598095Y-135082619D01*
X149883809Y-135082619D02*
X149883809Y-134082619D01*
X149883809Y-134082619D02*
X149788571Y-134225476D01*
X149788571Y-134225476D02*
X149693333Y-134320714D01*
X149693333Y-134320714D02*
X149598095Y-134368333D01*
X151074285Y-134082619D02*
X150598095Y-134082619D01*
X150598095Y-134082619D02*
X150550476Y-134558809D01*
X150550476Y-134558809D02*
X150598095Y-134511190D01*
X150598095Y-134511190D02*
X150693333Y-134463571D01*
X150693333Y-134463571D02*
X150931428Y-134463571D01*
X150931428Y-134463571D02*
X151026666Y-134511190D01*
X151026666Y-134511190D02*
X151074285Y-134558809D01*
X151074285Y-134558809D02*
X151121904Y-134654047D01*
X151121904Y-134654047D02*
X151121904Y-134892142D01*
X151121904Y-134892142D02*
X151074285Y-134987380D01*
X151074285Y-134987380D02*
X151026666Y-135035000D01*
X151026666Y-135035000D02*
X150931428Y-135082619D01*
X150931428Y-135082619D02*
X150693333Y-135082619D01*
X150693333Y-135082619D02*
X150598095Y-135035000D01*
X150598095Y-135035000D02*
X150550476Y-134987380D01*
G04 #@! TO.C,R20*
X158742142Y-123652619D02*
X158408809Y-123176428D01*
X158170714Y-123652619D02*
X158170714Y-122652619D01*
X158170714Y-122652619D02*
X158551666Y-122652619D01*
X158551666Y-122652619D02*
X158646904Y-122700238D01*
X158646904Y-122700238D02*
X158694523Y-122747857D01*
X158694523Y-122747857D02*
X158742142Y-122843095D01*
X158742142Y-122843095D02*
X158742142Y-122985952D01*
X158742142Y-122985952D02*
X158694523Y-123081190D01*
X158694523Y-123081190D02*
X158646904Y-123128809D01*
X158646904Y-123128809D02*
X158551666Y-123176428D01*
X158551666Y-123176428D02*
X158170714Y-123176428D01*
X159123095Y-122747857D02*
X159170714Y-122700238D01*
X159170714Y-122700238D02*
X159265952Y-122652619D01*
X159265952Y-122652619D02*
X159504047Y-122652619D01*
X159504047Y-122652619D02*
X159599285Y-122700238D01*
X159599285Y-122700238D02*
X159646904Y-122747857D01*
X159646904Y-122747857D02*
X159694523Y-122843095D01*
X159694523Y-122843095D02*
X159694523Y-122938333D01*
X159694523Y-122938333D02*
X159646904Y-123081190D01*
X159646904Y-123081190D02*
X159075476Y-123652619D01*
X159075476Y-123652619D02*
X159694523Y-123652619D01*
X160313571Y-122652619D02*
X160408809Y-122652619D01*
X160408809Y-122652619D02*
X160504047Y-122700238D01*
X160504047Y-122700238D02*
X160551666Y-122747857D01*
X160551666Y-122747857D02*
X160599285Y-122843095D01*
X160599285Y-122843095D02*
X160646904Y-123033571D01*
X160646904Y-123033571D02*
X160646904Y-123271666D01*
X160646904Y-123271666D02*
X160599285Y-123462142D01*
X160599285Y-123462142D02*
X160551666Y-123557380D01*
X160551666Y-123557380D02*
X160504047Y-123605000D01*
X160504047Y-123605000D02*
X160408809Y-123652619D01*
X160408809Y-123652619D02*
X160313571Y-123652619D01*
X160313571Y-123652619D02*
X160218333Y-123605000D01*
X160218333Y-123605000D02*
X160170714Y-123557380D01*
X160170714Y-123557380D02*
X160123095Y-123462142D01*
X160123095Y-123462142D02*
X160075476Y-123271666D01*
X160075476Y-123271666D02*
X160075476Y-123033571D01*
X160075476Y-123033571D02*
X160123095Y-122843095D01*
X160123095Y-122843095D02*
X160170714Y-122747857D01*
X160170714Y-122747857D02*
X160218333Y-122700238D01*
X160218333Y-122700238D02*
X160313571Y-122652619D01*
G04 #@! TO.C,U1*
X141468095Y-71222619D02*
X141468095Y-72032142D01*
X141468095Y-72032142D02*
X141515714Y-72127380D01*
X141515714Y-72127380D02*
X141563333Y-72175000D01*
X141563333Y-72175000D02*
X141658571Y-72222619D01*
X141658571Y-72222619D02*
X141849047Y-72222619D01*
X141849047Y-72222619D02*
X141944285Y-72175000D01*
X141944285Y-72175000D02*
X141991904Y-72127380D01*
X141991904Y-72127380D02*
X142039523Y-72032142D01*
X142039523Y-72032142D02*
X142039523Y-71222619D01*
X143039523Y-72222619D02*
X142468095Y-72222619D01*
X142753809Y-72222619D02*
X142753809Y-71222619D01*
X142753809Y-71222619D02*
X142658571Y-71365476D01*
X142658571Y-71365476D02*
X142563333Y-71460714D01*
X142563333Y-71460714D02*
X142468095Y-71508333D01*
G04 #@! TO.C,D9*
X163091905Y-123017619D02*
X163091905Y-122017619D01*
X163091905Y-122017619D02*
X163330000Y-122017619D01*
X163330000Y-122017619D02*
X163472857Y-122065238D01*
X163472857Y-122065238D02*
X163568095Y-122160476D01*
X163568095Y-122160476D02*
X163615714Y-122255714D01*
X163615714Y-122255714D02*
X163663333Y-122446190D01*
X163663333Y-122446190D02*
X163663333Y-122589047D01*
X163663333Y-122589047D02*
X163615714Y-122779523D01*
X163615714Y-122779523D02*
X163568095Y-122874761D01*
X163568095Y-122874761D02*
X163472857Y-122970000D01*
X163472857Y-122970000D02*
X163330000Y-123017619D01*
X163330000Y-123017619D02*
X163091905Y-123017619D01*
X164139524Y-123017619D02*
X164330000Y-123017619D01*
X164330000Y-123017619D02*
X164425238Y-122970000D01*
X164425238Y-122970000D02*
X164472857Y-122922380D01*
X164472857Y-122922380D02*
X164568095Y-122779523D01*
X164568095Y-122779523D02*
X164615714Y-122589047D01*
X164615714Y-122589047D02*
X164615714Y-122208095D01*
X164615714Y-122208095D02*
X164568095Y-122112857D01*
X164568095Y-122112857D02*
X164520476Y-122065238D01*
X164520476Y-122065238D02*
X164425238Y-122017619D01*
X164425238Y-122017619D02*
X164234762Y-122017619D01*
X164234762Y-122017619D02*
X164139524Y-122065238D01*
X164139524Y-122065238D02*
X164091905Y-122112857D01*
X164091905Y-122112857D02*
X164044286Y-122208095D01*
X164044286Y-122208095D02*
X164044286Y-122446190D01*
X164044286Y-122446190D02*
X164091905Y-122541428D01*
X164091905Y-122541428D02*
X164139524Y-122589047D01*
X164139524Y-122589047D02*
X164234762Y-122636666D01*
X164234762Y-122636666D02*
X164425238Y-122636666D01*
X164425238Y-122636666D02*
X164520476Y-122589047D01*
X164520476Y-122589047D02*
X164568095Y-122541428D01*
X164568095Y-122541428D02*
X164615714Y-122446190D01*
G04 #@! TO.C,R24*
X177792142Y-112222619D02*
X177458809Y-111746428D01*
X177220714Y-112222619D02*
X177220714Y-111222619D01*
X177220714Y-111222619D02*
X177601666Y-111222619D01*
X177601666Y-111222619D02*
X177696904Y-111270238D01*
X177696904Y-111270238D02*
X177744523Y-111317857D01*
X177744523Y-111317857D02*
X177792142Y-111413095D01*
X177792142Y-111413095D02*
X177792142Y-111555952D01*
X177792142Y-111555952D02*
X177744523Y-111651190D01*
X177744523Y-111651190D02*
X177696904Y-111698809D01*
X177696904Y-111698809D02*
X177601666Y-111746428D01*
X177601666Y-111746428D02*
X177220714Y-111746428D01*
X178173095Y-111317857D02*
X178220714Y-111270238D01*
X178220714Y-111270238D02*
X178315952Y-111222619D01*
X178315952Y-111222619D02*
X178554047Y-111222619D01*
X178554047Y-111222619D02*
X178649285Y-111270238D01*
X178649285Y-111270238D02*
X178696904Y-111317857D01*
X178696904Y-111317857D02*
X178744523Y-111413095D01*
X178744523Y-111413095D02*
X178744523Y-111508333D01*
X178744523Y-111508333D02*
X178696904Y-111651190D01*
X178696904Y-111651190D02*
X178125476Y-112222619D01*
X178125476Y-112222619D02*
X178744523Y-112222619D01*
X179601666Y-111555952D02*
X179601666Y-112222619D01*
X179363571Y-111175000D02*
X179125476Y-111889285D01*
X179125476Y-111889285D02*
X179744523Y-111889285D01*
G04 #@! TO.C,U5*
X106667319Y-119467904D02*
X107476842Y-119467904D01*
X107476842Y-119467904D02*
X107572080Y-119420285D01*
X107572080Y-119420285D02*
X107619700Y-119372666D01*
X107619700Y-119372666D02*
X107667319Y-119277428D01*
X107667319Y-119277428D02*
X107667319Y-119086952D01*
X107667319Y-119086952D02*
X107619700Y-118991714D01*
X107619700Y-118991714D02*
X107572080Y-118944095D01*
X107572080Y-118944095D02*
X107476842Y-118896476D01*
X107476842Y-118896476D02*
X106667319Y-118896476D01*
X106667319Y-117944095D02*
X106667319Y-118420285D01*
X106667319Y-118420285D02*
X107143509Y-118467904D01*
X107143509Y-118467904D02*
X107095890Y-118420285D01*
X107095890Y-118420285D02*
X107048271Y-118325047D01*
X107048271Y-118325047D02*
X107048271Y-118086952D01*
X107048271Y-118086952D02*
X107095890Y-117991714D01*
X107095890Y-117991714D02*
X107143509Y-117944095D01*
X107143509Y-117944095D02*
X107238747Y-117896476D01*
X107238747Y-117896476D02*
X107476842Y-117896476D01*
X107476842Y-117896476D02*
X107572080Y-117944095D01*
X107572080Y-117944095D02*
X107619700Y-117991714D01*
X107619700Y-117991714D02*
X107667319Y-118086952D01*
X107667319Y-118086952D02*
X107667319Y-118325047D01*
X107667319Y-118325047D02*
X107619700Y-118420285D01*
X107619700Y-118420285D02*
X107572080Y-118467904D01*
G04 #@! TO.C,R21*
X149217142Y-123652619D02*
X148883809Y-123176428D01*
X148645714Y-123652619D02*
X148645714Y-122652619D01*
X148645714Y-122652619D02*
X149026666Y-122652619D01*
X149026666Y-122652619D02*
X149121904Y-122700238D01*
X149121904Y-122700238D02*
X149169523Y-122747857D01*
X149169523Y-122747857D02*
X149217142Y-122843095D01*
X149217142Y-122843095D02*
X149217142Y-122985952D01*
X149217142Y-122985952D02*
X149169523Y-123081190D01*
X149169523Y-123081190D02*
X149121904Y-123128809D01*
X149121904Y-123128809D02*
X149026666Y-123176428D01*
X149026666Y-123176428D02*
X148645714Y-123176428D01*
X149598095Y-122747857D02*
X149645714Y-122700238D01*
X149645714Y-122700238D02*
X149740952Y-122652619D01*
X149740952Y-122652619D02*
X149979047Y-122652619D01*
X149979047Y-122652619D02*
X150074285Y-122700238D01*
X150074285Y-122700238D02*
X150121904Y-122747857D01*
X150121904Y-122747857D02*
X150169523Y-122843095D01*
X150169523Y-122843095D02*
X150169523Y-122938333D01*
X150169523Y-122938333D02*
X150121904Y-123081190D01*
X150121904Y-123081190D02*
X149550476Y-123652619D01*
X149550476Y-123652619D02*
X150169523Y-123652619D01*
X151121904Y-123652619D02*
X150550476Y-123652619D01*
X150836190Y-123652619D02*
X150836190Y-122652619D01*
X150836190Y-122652619D02*
X150740952Y-122795476D01*
X150740952Y-122795476D02*
X150645714Y-122890714D01*
X150645714Y-122890714D02*
X150550476Y-122938333D01*
G04 #@! TO.C,SW5*
X123126667Y-134400000D02*
X123269524Y-134447619D01*
X123269524Y-134447619D02*
X123507619Y-134447619D01*
X123507619Y-134447619D02*
X123602857Y-134400000D01*
X123602857Y-134400000D02*
X123650476Y-134352380D01*
X123650476Y-134352380D02*
X123698095Y-134257142D01*
X123698095Y-134257142D02*
X123698095Y-134161904D01*
X123698095Y-134161904D02*
X123650476Y-134066666D01*
X123650476Y-134066666D02*
X123602857Y-134019047D01*
X123602857Y-134019047D02*
X123507619Y-133971428D01*
X123507619Y-133971428D02*
X123317143Y-133923809D01*
X123317143Y-133923809D02*
X123221905Y-133876190D01*
X123221905Y-133876190D02*
X123174286Y-133828571D01*
X123174286Y-133828571D02*
X123126667Y-133733333D01*
X123126667Y-133733333D02*
X123126667Y-133638095D01*
X123126667Y-133638095D02*
X123174286Y-133542857D01*
X123174286Y-133542857D02*
X123221905Y-133495238D01*
X123221905Y-133495238D02*
X123317143Y-133447619D01*
X123317143Y-133447619D02*
X123555238Y-133447619D01*
X123555238Y-133447619D02*
X123698095Y-133495238D01*
X124031429Y-133447619D02*
X124269524Y-134447619D01*
X124269524Y-134447619D02*
X124460000Y-133733333D01*
X124460000Y-133733333D02*
X124650476Y-134447619D01*
X124650476Y-134447619D02*
X124888572Y-133447619D01*
X125745714Y-133447619D02*
X125269524Y-133447619D01*
X125269524Y-133447619D02*
X125221905Y-133923809D01*
X125221905Y-133923809D02*
X125269524Y-133876190D01*
X125269524Y-133876190D02*
X125364762Y-133828571D01*
X125364762Y-133828571D02*
X125602857Y-133828571D01*
X125602857Y-133828571D02*
X125698095Y-133876190D01*
X125698095Y-133876190D02*
X125745714Y-133923809D01*
X125745714Y-133923809D02*
X125793333Y-134019047D01*
X125793333Y-134019047D02*
X125793333Y-134257142D01*
X125793333Y-134257142D02*
X125745714Y-134352380D01*
X125745714Y-134352380D02*
X125698095Y-134400000D01*
X125698095Y-134400000D02*
X125602857Y-134447619D01*
X125602857Y-134447619D02*
X125364762Y-134447619D01*
X125364762Y-134447619D02*
X125269524Y-134400000D01*
X125269524Y-134400000D02*
X125221905Y-134352380D01*
G04 #@! TO.C,D10*
X153090714Y-123017619D02*
X153090714Y-122017619D01*
X153090714Y-122017619D02*
X153328809Y-122017619D01*
X153328809Y-122017619D02*
X153471666Y-122065238D01*
X153471666Y-122065238D02*
X153566904Y-122160476D01*
X153566904Y-122160476D02*
X153614523Y-122255714D01*
X153614523Y-122255714D02*
X153662142Y-122446190D01*
X153662142Y-122446190D02*
X153662142Y-122589047D01*
X153662142Y-122589047D02*
X153614523Y-122779523D01*
X153614523Y-122779523D02*
X153566904Y-122874761D01*
X153566904Y-122874761D02*
X153471666Y-122970000D01*
X153471666Y-122970000D02*
X153328809Y-123017619D01*
X153328809Y-123017619D02*
X153090714Y-123017619D01*
X154614523Y-123017619D02*
X154043095Y-123017619D01*
X154328809Y-123017619D02*
X154328809Y-122017619D01*
X154328809Y-122017619D02*
X154233571Y-122160476D01*
X154233571Y-122160476D02*
X154138333Y-122255714D01*
X154138333Y-122255714D02*
X154043095Y-122303333D01*
X155233571Y-122017619D02*
X155328809Y-122017619D01*
X155328809Y-122017619D02*
X155424047Y-122065238D01*
X155424047Y-122065238D02*
X155471666Y-122112857D01*
X155471666Y-122112857D02*
X155519285Y-122208095D01*
X155519285Y-122208095D02*
X155566904Y-122398571D01*
X155566904Y-122398571D02*
X155566904Y-122636666D01*
X155566904Y-122636666D02*
X155519285Y-122827142D01*
X155519285Y-122827142D02*
X155471666Y-122922380D01*
X155471666Y-122922380D02*
X155424047Y-122970000D01*
X155424047Y-122970000D02*
X155328809Y-123017619D01*
X155328809Y-123017619D02*
X155233571Y-123017619D01*
X155233571Y-123017619D02*
X155138333Y-122970000D01*
X155138333Y-122970000D02*
X155090714Y-122922380D01*
X155090714Y-122922380D02*
X155043095Y-122827142D01*
X155043095Y-122827142D02*
X154995476Y-122636666D01*
X154995476Y-122636666D02*
X154995476Y-122398571D01*
X154995476Y-122398571D02*
X155043095Y-122208095D01*
X155043095Y-122208095D02*
X155090714Y-122112857D01*
X155090714Y-122112857D02*
X155138333Y-122065238D01*
X155138333Y-122065238D02*
X155233571Y-122017619D01*
G04 #@! TO.C,R5*
X175522501Y-101461197D02*
X175189168Y-100985006D01*
X174951073Y-101461197D02*
X174951073Y-100461197D01*
X174951073Y-100461197D02*
X175332025Y-100461197D01*
X175332025Y-100461197D02*
X175427263Y-100508816D01*
X175427263Y-100508816D02*
X175474882Y-100556435D01*
X175474882Y-100556435D02*
X175522501Y-100651673D01*
X175522501Y-100651673D02*
X175522501Y-100794530D01*
X175522501Y-100794530D02*
X175474882Y-100889768D01*
X175474882Y-100889768D02*
X175427263Y-100937387D01*
X175427263Y-100937387D02*
X175332025Y-100985006D01*
X175332025Y-100985006D02*
X174951073Y-100985006D01*
X176427263Y-100461197D02*
X175951073Y-100461197D01*
X175951073Y-100461197D02*
X175903454Y-100937387D01*
X175903454Y-100937387D02*
X175951073Y-100889768D01*
X175951073Y-100889768D02*
X176046311Y-100842149D01*
X176046311Y-100842149D02*
X176284406Y-100842149D01*
X176284406Y-100842149D02*
X176379644Y-100889768D01*
X176379644Y-100889768D02*
X176427263Y-100937387D01*
X176427263Y-100937387D02*
X176474882Y-101032625D01*
X176474882Y-101032625D02*
X176474882Y-101270720D01*
X176474882Y-101270720D02*
X176427263Y-101365958D01*
X176427263Y-101365958D02*
X176379644Y-101413578D01*
X176379644Y-101413578D02*
X176284406Y-101461197D01*
X176284406Y-101461197D02*
X176046311Y-101461197D01*
X176046311Y-101461197D02*
X175951073Y-101413578D01*
X175951073Y-101413578D02*
X175903454Y-101365958D01*
G04 #@! TO.C,C6*
X136514680Y-96080866D02*
X136562300Y-96128485D01*
X136562300Y-96128485D02*
X136609919Y-96271342D01*
X136609919Y-96271342D02*
X136609919Y-96366580D01*
X136609919Y-96366580D02*
X136562300Y-96509437D01*
X136562300Y-96509437D02*
X136467061Y-96604675D01*
X136467061Y-96604675D02*
X136371823Y-96652294D01*
X136371823Y-96652294D02*
X136181347Y-96699913D01*
X136181347Y-96699913D02*
X136038490Y-96699913D01*
X136038490Y-96699913D02*
X135848014Y-96652294D01*
X135848014Y-96652294D02*
X135752776Y-96604675D01*
X135752776Y-96604675D02*
X135657538Y-96509437D01*
X135657538Y-96509437D02*
X135609919Y-96366580D01*
X135609919Y-96366580D02*
X135609919Y-96271342D01*
X135609919Y-96271342D02*
X135657538Y-96128485D01*
X135657538Y-96128485D02*
X135705157Y-96080866D01*
X135609919Y-95223723D02*
X135609919Y-95414199D01*
X135609919Y-95414199D02*
X135657538Y-95509437D01*
X135657538Y-95509437D02*
X135705157Y-95557056D01*
X135705157Y-95557056D02*
X135848014Y-95652294D01*
X135848014Y-95652294D02*
X136038490Y-95699913D01*
X136038490Y-95699913D02*
X136419442Y-95699913D01*
X136419442Y-95699913D02*
X136514680Y-95652294D01*
X136514680Y-95652294D02*
X136562300Y-95604675D01*
X136562300Y-95604675D02*
X136609919Y-95509437D01*
X136609919Y-95509437D02*
X136609919Y-95318961D01*
X136609919Y-95318961D02*
X136562300Y-95223723D01*
X136562300Y-95223723D02*
X136514680Y-95176104D01*
X136514680Y-95176104D02*
X136419442Y-95128485D01*
X136419442Y-95128485D02*
X136181347Y-95128485D01*
X136181347Y-95128485D02*
X136086109Y-95176104D01*
X136086109Y-95176104D02*
X136038490Y-95223723D01*
X136038490Y-95223723D02*
X135990871Y-95318961D01*
X135990871Y-95318961D02*
X135990871Y-95509437D01*
X135990871Y-95509437D02*
X136038490Y-95604675D01*
X136038490Y-95604675D02*
X136086109Y-95652294D01*
X136086109Y-95652294D02*
X136181347Y-95699913D01*
G04 #@! TO.C,D3*
X163091905Y-134447619D02*
X163091905Y-133447619D01*
X163091905Y-133447619D02*
X163330000Y-133447619D01*
X163330000Y-133447619D02*
X163472857Y-133495238D01*
X163472857Y-133495238D02*
X163568095Y-133590476D01*
X163568095Y-133590476D02*
X163615714Y-133685714D01*
X163615714Y-133685714D02*
X163663333Y-133876190D01*
X163663333Y-133876190D02*
X163663333Y-134019047D01*
X163663333Y-134019047D02*
X163615714Y-134209523D01*
X163615714Y-134209523D02*
X163568095Y-134304761D01*
X163568095Y-134304761D02*
X163472857Y-134400000D01*
X163472857Y-134400000D02*
X163330000Y-134447619D01*
X163330000Y-134447619D02*
X163091905Y-134447619D01*
X163996667Y-133447619D02*
X164615714Y-133447619D01*
X164615714Y-133447619D02*
X164282381Y-133828571D01*
X164282381Y-133828571D02*
X164425238Y-133828571D01*
X164425238Y-133828571D02*
X164520476Y-133876190D01*
X164520476Y-133876190D02*
X164568095Y-133923809D01*
X164568095Y-133923809D02*
X164615714Y-134019047D01*
X164615714Y-134019047D02*
X164615714Y-134257142D01*
X164615714Y-134257142D02*
X164568095Y-134352380D01*
X164568095Y-134352380D02*
X164520476Y-134400000D01*
X164520476Y-134400000D02*
X164425238Y-134447619D01*
X164425238Y-134447619D02*
X164139524Y-134447619D01*
X164139524Y-134447619D02*
X164044286Y-134400000D01*
X164044286Y-134400000D02*
X163996667Y-134352380D01*
G04 #@! TO.C,U7*
X106667319Y-108037904D02*
X107476842Y-108037904D01*
X107476842Y-108037904D02*
X107572080Y-107990285D01*
X107572080Y-107990285D02*
X107619700Y-107942666D01*
X107619700Y-107942666D02*
X107667319Y-107847428D01*
X107667319Y-107847428D02*
X107667319Y-107656952D01*
X107667319Y-107656952D02*
X107619700Y-107561714D01*
X107619700Y-107561714D02*
X107572080Y-107514095D01*
X107572080Y-107514095D02*
X107476842Y-107466476D01*
X107476842Y-107466476D02*
X106667319Y-107466476D01*
X106667319Y-107085523D02*
X106667319Y-106418857D01*
X106667319Y-106418857D02*
X107667319Y-106847428D01*
G04 #@! TO.C,R27*
X149217142Y-112222619D02*
X148883809Y-111746428D01*
X148645714Y-112222619D02*
X148645714Y-111222619D01*
X148645714Y-111222619D02*
X149026666Y-111222619D01*
X149026666Y-111222619D02*
X149121904Y-111270238D01*
X149121904Y-111270238D02*
X149169523Y-111317857D01*
X149169523Y-111317857D02*
X149217142Y-111413095D01*
X149217142Y-111413095D02*
X149217142Y-111555952D01*
X149217142Y-111555952D02*
X149169523Y-111651190D01*
X149169523Y-111651190D02*
X149121904Y-111698809D01*
X149121904Y-111698809D02*
X149026666Y-111746428D01*
X149026666Y-111746428D02*
X148645714Y-111746428D01*
X149598095Y-111317857D02*
X149645714Y-111270238D01*
X149645714Y-111270238D02*
X149740952Y-111222619D01*
X149740952Y-111222619D02*
X149979047Y-111222619D01*
X149979047Y-111222619D02*
X150074285Y-111270238D01*
X150074285Y-111270238D02*
X150121904Y-111317857D01*
X150121904Y-111317857D02*
X150169523Y-111413095D01*
X150169523Y-111413095D02*
X150169523Y-111508333D01*
X150169523Y-111508333D02*
X150121904Y-111651190D01*
X150121904Y-111651190D02*
X149550476Y-112222619D01*
X149550476Y-112222619D02*
X150169523Y-112222619D01*
X150502857Y-111222619D02*
X151169523Y-111222619D01*
X151169523Y-111222619D02*
X150740952Y-112222619D01*
G04 #@! TO.C,R17*
X130057142Y-135082619D02*
X129723809Y-134606428D01*
X129485714Y-135082619D02*
X129485714Y-134082619D01*
X129485714Y-134082619D02*
X129866666Y-134082619D01*
X129866666Y-134082619D02*
X129961904Y-134130238D01*
X129961904Y-134130238D02*
X130009523Y-134177857D01*
X130009523Y-134177857D02*
X130057142Y-134273095D01*
X130057142Y-134273095D02*
X130057142Y-134415952D01*
X130057142Y-134415952D02*
X130009523Y-134511190D01*
X130009523Y-134511190D02*
X129961904Y-134558809D01*
X129961904Y-134558809D02*
X129866666Y-134606428D01*
X129866666Y-134606428D02*
X129485714Y-134606428D01*
X131009523Y-135082619D02*
X130438095Y-135082619D01*
X130723809Y-135082619D02*
X130723809Y-134082619D01*
X130723809Y-134082619D02*
X130628571Y-134225476D01*
X130628571Y-134225476D02*
X130533333Y-134320714D01*
X130533333Y-134320714D02*
X130438095Y-134368333D01*
X131342857Y-134082619D02*
X132009523Y-134082619D01*
X132009523Y-134082619D02*
X131580952Y-135082619D01*
G04 #@! TO.C,R7*
X133475419Y-84694866D02*
X132999228Y-85028199D01*
X133475419Y-85266294D02*
X132475419Y-85266294D01*
X132475419Y-85266294D02*
X132475419Y-84885342D01*
X132475419Y-84885342D02*
X132523038Y-84790104D01*
X132523038Y-84790104D02*
X132570657Y-84742485D01*
X132570657Y-84742485D02*
X132665895Y-84694866D01*
X132665895Y-84694866D02*
X132808752Y-84694866D01*
X132808752Y-84694866D02*
X132903990Y-84742485D01*
X132903990Y-84742485D02*
X132951609Y-84790104D01*
X132951609Y-84790104D02*
X132999228Y-84885342D01*
X132999228Y-84885342D02*
X132999228Y-85266294D01*
X132475419Y-84361532D02*
X132475419Y-83694866D01*
X132475419Y-83694866D02*
X133475419Y-84123437D01*
G04 #@! TO.C,C7*
X136873280Y-108991866D02*
X136920900Y-109039485D01*
X136920900Y-109039485D02*
X136968519Y-109182342D01*
X136968519Y-109182342D02*
X136968519Y-109277580D01*
X136968519Y-109277580D02*
X136920900Y-109420437D01*
X136920900Y-109420437D02*
X136825661Y-109515675D01*
X136825661Y-109515675D02*
X136730423Y-109563294D01*
X136730423Y-109563294D02*
X136539947Y-109610913D01*
X136539947Y-109610913D02*
X136397090Y-109610913D01*
X136397090Y-109610913D02*
X136206614Y-109563294D01*
X136206614Y-109563294D02*
X136111376Y-109515675D01*
X136111376Y-109515675D02*
X136016138Y-109420437D01*
X136016138Y-109420437D02*
X135968519Y-109277580D01*
X135968519Y-109277580D02*
X135968519Y-109182342D01*
X135968519Y-109182342D02*
X136016138Y-109039485D01*
X136016138Y-109039485D02*
X136063757Y-108991866D01*
X135968519Y-108658532D02*
X135968519Y-107991866D01*
X135968519Y-107991866D02*
X136968519Y-108420437D01*
G04 #@! TO.C,U11*
X97186905Y-69947619D02*
X97186905Y-70757142D01*
X97186905Y-70757142D02*
X97234524Y-70852380D01*
X97234524Y-70852380D02*
X97282143Y-70900000D01*
X97282143Y-70900000D02*
X97377381Y-70947619D01*
X97377381Y-70947619D02*
X97567857Y-70947619D01*
X97567857Y-70947619D02*
X97663095Y-70900000D01*
X97663095Y-70900000D02*
X97710714Y-70852380D01*
X97710714Y-70852380D02*
X97758333Y-70757142D01*
X97758333Y-70757142D02*
X97758333Y-69947619D01*
X98758333Y-70947619D02*
X98186905Y-70947619D01*
X98472619Y-70947619D02*
X98472619Y-69947619D01*
X98472619Y-69947619D02*
X98377381Y-70090476D01*
X98377381Y-70090476D02*
X98282143Y-70185714D01*
X98282143Y-70185714D02*
X98186905Y-70233333D01*
X99710714Y-70947619D02*
X99139286Y-70947619D01*
X99425000Y-70947619D02*
X99425000Y-69947619D01*
X99425000Y-69947619D02*
X99329762Y-70090476D01*
X99329762Y-70090476D02*
X99234524Y-70185714D01*
X99234524Y-70185714D02*
X99139286Y-70233333D01*
G04 #@! TO.C,R22*
X139692142Y-123652619D02*
X139358809Y-123176428D01*
X139120714Y-123652619D02*
X139120714Y-122652619D01*
X139120714Y-122652619D02*
X139501666Y-122652619D01*
X139501666Y-122652619D02*
X139596904Y-122700238D01*
X139596904Y-122700238D02*
X139644523Y-122747857D01*
X139644523Y-122747857D02*
X139692142Y-122843095D01*
X139692142Y-122843095D02*
X139692142Y-122985952D01*
X139692142Y-122985952D02*
X139644523Y-123081190D01*
X139644523Y-123081190D02*
X139596904Y-123128809D01*
X139596904Y-123128809D02*
X139501666Y-123176428D01*
X139501666Y-123176428D02*
X139120714Y-123176428D01*
X140073095Y-122747857D02*
X140120714Y-122700238D01*
X140120714Y-122700238D02*
X140215952Y-122652619D01*
X140215952Y-122652619D02*
X140454047Y-122652619D01*
X140454047Y-122652619D02*
X140549285Y-122700238D01*
X140549285Y-122700238D02*
X140596904Y-122747857D01*
X140596904Y-122747857D02*
X140644523Y-122843095D01*
X140644523Y-122843095D02*
X140644523Y-122938333D01*
X140644523Y-122938333D02*
X140596904Y-123081190D01*
X140596904Y-123081190D02*
X140025476Y-123652619D01*
X140025476Y-123652619D02*
X140644523Y-123652619D01*
X141025476Y-122747857D02*
X141073095Y-122700238D01*
X141073095Y-122700238D02*
X141168333Y-122652619D01*
X141168333Y-122652619D02*
X141406428Y-122652619D01*
X141406428Y-122652619D02*
X141501666Y-122700238D01*
X141501666Y-122700238D02*
X141549285Y-122747857D01*
X141549285Y-122747857D02*
X141596904Y-122843095D01*
X141596904Y-122843095D02*
X141596904Y-122938333D01*
X141596904Y-122938333D02*
X141549285Y-123081190D01*
X141549285Y-123081190D02*
X140977857Y-123652619D01*
X140977857Y-123652619D02*
X141596904Y-123652619D01*
G04 #@! TO.C,U4*
X120533095Y-70157619D02*
X120533095Y-70967142D01*
X120533095Y-70967142D02*
X120580714Y-71062380D01*
X120580714Y-71062380D02*
X120628333Y-71110000D01*
X120628333Y-71110000D02*
X120723571Y-71157619D01*
X120723571Y-71157619D02*
X120914047Y-71157619D01*
X120914047Y-71157619D02*
X121009285Y-71110000D01*
X121009285Y-71110000D02*
X121056904Y-71062380D01*
X121056904Y-71062380D02*
X121104523Y-70967142D01*
X121104523Y-70967142D02*
X121104523Y-70157619D01*
X122009285Y-70490952D02*
X122009285Y-71157619D01*
X121771190Y-70110000D02*
X121533095Y-70824285D01*
X121533095Y-70824285D02*
X122152142Y-70824285D01*
G04 #@! TO.C,C3*
X179538333Y-92442380D02*
X179490714Y-92490000D01*
X179490714Y-92490000D02*
X179347857Y-92537619D01*
X179347857Y-92537619D02*
X179252619Y-92537619D01*
X179252619Y-92537619D02*
X179109762Y-92490000D01*
X179109762Y-92490000D02*
X179014524Y-92394761D01*
X179014524Y-92394761D02*
X178966905Y-92299523D01*
X178966905Y-92299523D02*
X178919286Y-92109047D01*
X178919286Y-92109047D02*
X178919286Y-91966190D01*
X178919286Y-91966190D02*
X178966905Y-91775714D01*
X178966905Y-91775714D02*
X179014524Y-91680476D01*
X179014524Y-91680476D02*
X179109762Y-91585238D01*
X179109762Y-91585238D02*
X179252619Y-91537619D01*
X179252619Y-91537619D02*
X179347857Y-91537619D01*
X179347857Y-91537619D02*
X179490714Y-91585238D01*
X179490714Y-91585238D02*
X179538333Y-91632857D01*
X179871667Y-91537619D02*
X180490714Y-91537619D01*
X180490714Y-91537619D02*
X180157381Y-91918571D01*
X180157381Y-91918571D02*
X180300238Y-91918571D01*
X180300238Y-91918571D02*
X180395476Y-91966190D01*
X180395476Y-91966190D02*
X180443095Y-92013809D01*
X180443095Y-92013809D02*
X180490714Y-92109047D01*
X180490714Y-92109047D02*
X180490714Y-92347142D01*
X180490714Y-92347142D02*
X180443095Y-92442380D01*
X180443095Y-92442380D02*
X180395476Y-92490000D01*
X180395476Y-92490000D02*
X180300238Y-92537619D01*
X180300238Y-92537619D02*
X180014524Y-92537619D01*
X180014524Y-92537619D02*
X179919286Y-92490000D01*
X179919286Y-92490000D02*
X179871667Y-92442380D01*
G04 #@! TO.C,R26*
X158742142Y-112222619D02*
X158408809Y-111746428D01*
X158170714Y-112222619D02*
X158170714Y-111222619D01*
X158170714Y-111222619D02*
X158551666Y-111222619D01*
X158551666Y-111222619D02*
X158646904Y-111270238D01*
X158646904Y-111270238D02*
X158694523Y-111317857D01*
X158694523Y-111317857D02*
X158742142Y-111413095D01*
X158742142Y-111413095D02*
X158742142Y-111555952D01*
X158742142Y-111555952D02*
X158694523Y-111651190D01*
X158694523Y-111651190D02*
X158646904Y-111698809D01*
X158646904Y-111698809D02*
X158551666Y-111746428D01*
X158551666Y-111746428D02*
X158170714Y-111746428D01*
X159123095Y-111317857D02*
X159170714Y-111270238D01*
X159170714Y-111270238D02*
X159265952Y-111222619D01*
X159265952Y-111222619D02*
X159504047Y-111222619D01*
X159504047Y-111222619D02*
X159599285Y-111270238D01*
X159599285Y-111270238D02*
X159646904Y-111317857D01*
X159646904Y-111317857D02*
X159694523Y-111413095D01*
X159694523Y-111413095D02*
X159694523Y-111508333D01*
X159694523Y-111508333D02*
X159646904Y-111651190D01*
X159646904Y-111651190D02*
X159075476Y-112222619D01*
X159075476Y-112222619D02*
X159694523Y-112222619D01*
X160551666Y-111222619D02*
X160361190Y-111222619D01*
X160361190Y-111222619D02*
X160265952Y-111270238D01*
X160265952Y-111270238D02*
X160218333Y-111317857D01*
X160218333Y-111317857D02*
X160123095Y-111460714D01*
X160123095Y-111460714D02*
X160075476Y-111651190D01*
X160075476Y-111651190D02*
X160075476Y-112032142D01*
X160075476Y-112032142D02*
X160123095Y-112127380D01*
X160123095Y-112127380D02*
X160170714Y-112175000D01*
X160170714Y-112175000D02*
X160265952Y-112222619D01*
X160265952Y-112222619D02*
X160456428Y-112222619D01*
X160456428Y-112222619D02*
X160551666Y-112175000D01*
X160551666Y-112175000D02*
X160599285Y-112127380D01*
X160599285Y-112127380D02*
X160646904Y-112032142D01*
X160646904Y-112032142D02*
X160646904Y-111794047D01*
X160646904Y-111794047D02*
X160599285Y-111698809D01*
X160599285Y-111698809D02*
X160551666Y-111651190D01*
X160551666Y-111651190D02*
X160456428Y-111603571D01*
X160456428Y-111603571D02*
X160265952Y-111603571D01*
X160265952Y-111603571D02*
X160170714Y-111651190D01*
X160170714Y-111651190D02*
X160123095Y-111698809D01*
X160123095Y-111698809D02*
X160075476Y-111794047D01*
G04 #@! TO.C,D14*
X172140714Y-111587619D02*
X172140714Y-110587619D01*
X172140714Y-110587619D02*
X172378809Y-110587619D01*
X172378809Y-110587619D02*
X172521666Y-110635238D01*
X172521666Y-110635238D02*
X172616904Y-110730476D01*
X172616904Y-110730476D02*
X172664523Y-110825714D01*
X172664523Y-110825714D02*
X172712142Y-111016190D01*
X172712142Y-111016190D02*
X172712142Y-111159047D01*
X172712142Y-111159047D02*
X172664523Y-111349523D01*
X172664523Y-111349523D02*
X172616904Y-111444761D01*
X172616904Y-111444761D02*
X172521666Y-111540000D01*
X172521666Y-111540000D02*
X172378809Y-111587619D01*
X172378809Y-111587619D02*
X172140714Y-111587619D01*
X173664523Y-111587619D02*
X173093095Y-111587619D01*
X173378809Y-111587619D02*
X173378809Y-110587619D01*
X173378809Y-110587619D02*
X173283571Y-110730476D01*
X173283571Y-110730476D02*
X173188333Y-110825714D01*
X173188333Y-110825714D02*
X173093095Y-110873333D01*
X174521666Y-110920952D02*
X174521666Y-111587619D01*
X174283571Y-110540000D02*
X174045476Y-111254285D01*
X174045476Y-111254285D02*
X174664523Y-111254285D01*
G04 #@! TO.C,R14*
X158742142Y-135082619D02*
X158408809Y-134606428D01*
X158170714Y-135082619D02*
X158170714Y-134082619D01*
X158170714Y-134082619D02*
X158551666Y-134082619D01*
X158551666Y-134082619D02*
X158646904Y-134130238D01*
X158646904Y-134130238D02*
X158694523Y-134177857D01*
X158694523Y-134177857D02*
X158742142Y-134273095D01*
X158742142Y-134273095D02*
X158742142Y-134415952D01*
X158742142Y-134415952D02*
X158694523Y-134511190D01*
X158694523Y-134511190D02*
X158646904Y-134558809D01*
X158646904Y-134558809D02*
X158551666Y-134606428D01*
X158551666Y-134606428D02*
X158170714Y-134606428D01*
X159694523Y-135082619D02*
X159123095Y-135082619D01*
X159408809Y-135082619D02*
X159408809Y-134082619D01*
X159408809Y-134082619D02*
X159313571Y-134225476D01*
X159313571Y-134225476D02*
X159218333Y-134320714D01*
X159218333Y-134320714D02*
X159123095Y-134368333D01*
X160551666Y-134415952D02*
X160551666Y-135082619D01*
X160313571Y-134035000D02*
X160075476Y-134749285D01*
X160075476Y-134749285D02*
X160694523Y-134749285D01*
G04 #@! TO.C,U6*
X90698095Y-113757619D02*
X90698095Y-114567142D01*
X90698095Y-114567142D02*
X90745714Y-114662380D01*
X90745714Y-114662380D02*
X90793333Y-114710000D01*
X90793333Y-114710000D02*
X90888571Y-114757619D01*
X90888571Y-114757619D02*
X91079047Y-114757619D01*
X91079047Y-114757619D02*
X91174285Y-114710000D01*
X91174285Y-114710000D02*
X91221904Y-114662380D01*
X91221904Y-114662380D02*
X91269523Y-114567142D01*
X91269523Y-114567142D02*
X91269523Y-113757619D01*
X92174285Y-113757619D02*
X91983809Y-113757619D01*
X91983809Y-113757619D02*
X91888571Y-113805238D01*
X91888571Y-113805238D02*
X91840952Y-113852857D01*
X91840952Y-113852857D02*
X91745714Y-113995714D01*
X91745714Y-113995714D02*
X91698095Y-114186190D01*
X91698095Y-114186190D02*
X91698095Y-114567142D01*
X91698095Y-114567142D02*
X91745714Y-114662380D01*
X91745714Y-114662380D02*
X91793333Y-114710000D01*
X91793333Y-114710000D02*
X91888571Y-114757619D01*
X91888571Y-114757619D02*
X92079047Y-114757619D01*
X92079047Y-114757619D02*
X92174285Y-114710000D01*
X92174285Y-114710000D02*
X92221904Y-114662380D01*
X92221904Y-114662380D02*
X92269523Y-114567142D01*
X92269523Y-114567142D02*
X92269523Y-114329047D01*
X92269523Y-114329047D02*
X92221904Y-114233809D01*
X92221904Y-114233809D02*
X92174285Y-114186190D01*
X92174285Y-114186190D02*
X92079047Y-114138571D01*
X92079047Y-114138571D02*
X91888571Y-114138571D01*
X91888571Y-114138571D02*
X91793333Y-114186190D01*
X91793333Y-114186190D02*
X91745714Y-114233809D01*
X91745714Y-114233809D02*
X91698095Y-114329047D01*
G04 #@! TO.C,D12*
X134040714Y-123017619D02*
X134040714Y-122017619D01*
X134040714Y-122017619D02*
X134278809Y-122017619D01*
X134278809Y-122017619D02*
X134421666Y-122065238D01*
X134421666Y-122065238D02*
X134516904Y-122160476D01*
X134516904Y-122160476D02*
X134564523Y-122255714D01*
X134564523Y-122255714D02*
X134612142Y-122446190D01*
X134612142Y-122446190D02*
X134612142Y-122589047D01*
X134612142Y-122589047D02*
X134564523Y-122779523D01*
X134564523Y-122779523D02*
X134516904Y-122874761D01*
X134516904Y-122874761D02*
X134421666Y-122970000D01*
X134421666Y-122970000D02*
X134278809Y-123017619D01*
X134278809Y-123017619D02*
X134040714Y-123017619D01*
X135564523Y-123017619D02*
X134993095Y-123017619D01*
X135278809Y-123017619D02*
X135278809Y-122017619D01*
X135278809Y-122017619D02*
X135183571Y-122160476D01*
X135183571Y-122160476D02*
X135088333Y-122255714D01*
X135088333Y-122255714D02*
X134993095Y-122303333D01*
X135945476Y-122112857D02*
X135993095Y-122065238D01*
X135993095Y-122065238D02*
X136088333Y-122017619D01*
X136088333Y-122017619D02*
X136326428Y-122017619D01*
X136326428Y-122017619D02*
X136421666Y-122065238D01*
X136421666Y-122065238D02*
X136469285Y-122112857D01*
X136469285Y-122112857D02*
X136516904Y-122208095D01*
X136516904Y-122208095D02*
X136516904Y-122303333D01*
X136516904Y-122303333D02*
X136469285Y-122446190D01*
X136469285Y-122446190D02*
X135897857Y-123017619D01*
X135897857Y-123017619D02*
X136516904Y-123017619D01*
G04 #@! TO.C,U8*
X106667319Y-96607904D02*
X107476842Y-96607904D01*
X107476842Y-96607904D02*
X107572080Y-96560285D01*
X107572080Y-96560285D02*
X107619700Y-96512666D01*
X107619700Y-96512666D02*
X107667319Y-96417428D01*
X107667319Y-96417428D02*
X107667319Y-96226952D01*
X107667319Y-96226952D02*
X107619700Y-96131714D01*
X107619700Y-96131714D02*
X107572080Y-96084095D01*
X107572080Y-96084095D02*
X107476842Y-96036476D01*
X107476842Y-96036476D02*
X106667319Y-96036476D01*
X107095890Y-95417428D02*
X107048271Y-95512666D01*
X107048271Y-95512666D02*
X107000652Y-95560285D01*
X107000652Y-95560285D02*
X106905414Y-95607904D01*
X106905414Y-95607904D02*
X106857795Y-95607904D01*
X106857795Y-95607904D02*
X106762557Y-95560285D01*
X106762557Y-95560285D02*
X106714938Y-95512666D01*
X106714938Y-95512666D02*
X106667319Y-95417428D01*
X106667319Y-95417428D02*
X106667319Y-95226952D01*
X106667319Y-95226952D02*
X106714938Y-95131714D01*
X106714938Y-95131714D02*
X106762557Y-95084095D01*
X106762557Y-95084095D02*
X106857795Y-95036476D01*
X106857795Y-95036476D02*
X106905414Y-95036476D01*
X106905414Y-95036476D02*
X107000652Y-95084095D01*
X107000652Y-95084095D02*
X107048271Y-95131714D01*
X107048271Y-95131714D02*
X107095890Y-95226952D01*
X107095890Y-95226952D02*
X107095890Y-95417428D01*
X107095890Y-95417428D02*
X107143509Y-95512666D01*
X107143509Y-95512666D02*
X107191128Y-95560285D01*
X107191128Y-95560285D02*
X107286366Y-95607904D01*
X107286366Y-95607904D02*
X107476842Y-95607904D01*
X107476842Y-95607904D02*
X107572080Y-95560285D01*
X107572080Y-95560285D02*
X107619700Y-95512666D01*
X107619700Y-95512666D02*
X107667319Y-95417428D01*
X107667319Y-95417428D02*
X107667319Y-95226952D01*
X107667319Y-95226952D02*
X107619700Y-95131714D01*
X107619700Y-95131714D02*
X107572080Y-95084095D01*
X107572080Y-95084095D02*
X107476842Y-95036476D01*
X107476842Y-95036476D02*
X107286366Y-95036476D01*
X107286366Y-95036476D02*
X107191128Y-95084095D01*
X107191128Y-95084095D02*
X107143509Y-95131714D01*
X107143509Y-95131714D02*
X107095890Y-95226952D01*
G04 #@! TO.C,D16*
X153090714Y-111587619D02*
X153090714Y-110587619D01*
X153090714Y-110587619D02*
X153328809Y-110587619D01*
X153328809Y-110587619D02*
X153471666Y-110635238D01*
X153471666Y-110635238D02*
X153566904Y-110730476D01*
X153566904Y-110730476D02*
X153614523Y-110825714D01*
X153614523Y-110825714D02*
X153662142Y-111016190D01*
X153662142Y-111016190D02*
X153662142Y-111159047D01*
X153662142Y-111159047D02*
X153614523Y-111349523D01*
X153614523Y-111349523D02*
X153566904Y-111444761D01*
X153566904Y-111444761D02*
X153471666Y-111540000D01*
X153471666Y-111540000D02*
X153328809Y-111587619D01*
X153328809Y-111587619D02*
X153090714Y-111587619D01*
X154614523Y-111587619D02*
X154043095Y-111587619D01*
X154328809Y-111587619D02*
X154328809Y-110587619D01*
X154328809Y-110587619D02*
X154233571Y-110730476D01*
X154233571Y-110730476D02*
X154138333Y-110825714D01*
X154138333Y-110825714D02*
X154043095Y-110873333D01*
X155471666Y-110587619D02*
X155281190Y-110587619D01*
X155281190Y-110587619D02*
X155185952Y-110635238D01*
X155185952Y-110635238D02*
X155138333Y-110682857D01*
X155138333Y-110682857D02*
X155043095Y-110825714D01*
X155043095Y-110825714D02*
X154995476Y-111016190D01*
X154995476Y-111016190D02*
X154995476Y-111397142D01*
X154995476Y-111397142D02*
X155043095Y-111492380D01*
X155043095Y-111492380D02*
X155090714Y-111540000D01*
X155090714Y-111540000D02*
X155185952Y-111587619D01*
X155185952Y-111587619D02*
X155376428Y-111587619D01*
X155376428Y-111587619D02*
X155471666Y-111540000D01*
X155471666Y-111540000D02*
X155519285Y-111492380D01*
X155519285Y-111492380D02*
X155566904Y-111397142D01*
X155566904Y-111397142D02*
X155566904Y-111159047D01*
X155566904Y-111159047D02*
X155519285Y-111063809D01*
X155519285Y-111063809D02*
X155471666Y-111016190D01*
X155471666Y-111016190D02*
X155376428Y-110968571D01*
X155376428Y-110968571D02*
X155185952Y-110968571D01*
X155185952Y-110968571D02*
X155090714Y-111016190D01*
X155090714Y-111016190D02*
X155043095Y-111063809D01*
X155043095Y-111063809D02*
X154995476Y-111159047D01*
G04 #@! TO.C,SW3*
X107251667Y-134400000D02*
X107394524Y-134447619D01*
X107394524Y-134447619D02*
X107632619Y-134447619D01*
X107632619Y-134447619D02*
X107727857Y-134400000D01*
X107727857Y-134400000D02*
X107775476Y-134352380D01*
X107775476Y-134352380D02*
X107823095Y-134257142D01*
X107823095Y-134257142D02*
X107823095Y-134161904D01*
X107823095Y-134161904D02*
X107775476Y-134066666D01*
X107775476Y-134066666D02*
X107727857Y-134019047D01*
X107727857Y-134019047D02*
X107632619Y-133971428D01*
X107632619Y-133971428D02*
X107442143Y-133923809D01*
X107442143Y-133923809D02*
X107346905Y-133876190D01*
X107346905Y-133876190D02*
X107299286Y-133828571D01*
X107299286Y-133828571D02*
X107251667Y-133733333D01*
X107251667Y-133733333D02*
X107251667Y-133638095D01*
X107251667Y-133638095D02*
X107299286Y-133542857D01*
X107299286Y-133542857D02*
X107346905Y-133495238D01*
X107346905Y-133495238D02*
X107442143Y-133447619D01*
X107442143Y-133447619D02*
X107680238Y-133447619D01*
X107680238Y-133447619D02*
X107823095Y-133495238D01*
X108156429Y-133447619D02*
X108394524Y-134447619D01*
X108394524Y-134447619D02*
X108585000Y-133733333D01*
X108585000Y-133733333D02*
X108775476Y-134447619D01*
X108775476Y-134447619D02*
X109013572Y-133447619D01*
X109299286Y-133447619D02*
X109918333Y-133447619D01*
X109918333Y-133447619D02*
X109585000Y-133828571D01*
X109585000Y-133828571D02*
X109727857Y-133828571D01*
X109727857Y-133828571D02*
X109823095Y-133876190D01*
X109823095Y-133876190D02*
X109870714Y-133923809D01*
X109870714Y-133923809D02*
X109918333Y-134019047D01*
X109918333Y-134019047D02*
X109918333Y-134257142D01*
X109918333Y-134257142D02*
X109870714Y-134352380D01*
X109870714Y-134352380D02*
X109823095Y-134400000D01*
X109823095Y-134400000D02*
X109727857Y-134447619D01*
X109727857Y-134447619D02*
X109442143Y-134447619D01*
X109442143Y-134447619D02*
X109346905Y-134400000D01*
X109346905Y-134400000D02*
X109299286Y-134352380D01*
G04 #@! TO.C,D7*
X182141905Y-123017619D02*
X182141905Y-122017619D01*
X182141905Y-122017619D02*
X182380000Y-122017619D01*
X182380000Y-122017619D02*
X182522857Y-122065238D01*
X182522857Y-122065238D02*
X182618095Y-122160476D01*
X182618095Y-122160476D02*
X182665714Y-122255714D01*
X182665714Y-122255714D02*
X182713333Y-122446190D01*
X182713333Y-122446190D02*
X182713333Y-122589047D01*
X182713333Y-122589047D02*
X182665714Y-122779523D01*
X182665714Y-122779523D02*
X182618095Y-122874761D01*
X182618095Y-122874761D02*
X182522857Y-122970000D01*
X182522857Y-122970000D02*
X182380000Y-123017619D01*
X182380000Y-123017619D02*
X182141905Y-123017619D01*
X183046667Y-122017619D02*
X183713333Y-122017619D01*
X183713333Y-122017619D02*
X183284762Y-123017619D01*
G04 #@! TO.C,R25*
X168267142Y-112222619D02*
X167933809Y-111746428D01*
X167695714Y-112222619D02*
X167695714Y-111222619D01*
X167695714Y-111222619D02*
X168076666Y-111222619D01*
X168076666Y-111222619D02*
X168171904Y-111270238D01*
X168171904Y-111270238D02*
X168219523Y-111317857D01*
X168219523Y-111317857D02*
X168267142Y-111413095D01*
X168267142Y-111413095D02*
X168267142Y-111555952D01*
X168267142Y-111555952D02*
X168219523Y-111651190D01*
X168219523Y-111651190D02*
X168171904Y-111698809D01*
X168171904Y-111698809D02*
X168076666Y-111746428D01*
X168076666Y-111746428D02*
X167695714Y-111746428D01*
X168648095Y-111317857D02*
X168695714Y-111270238D01*
X168695714Y-111270238D02*
X168790952Y-111222619D01*
X168790952Y-111222619D02*
X169029047Y-111222619D01*
X169029047Y-111222619D02*
X169124285Y-111270238D01*
X169124285Y-111270238D02*
X169171904Y-111317857D01*
X169171904Y-111317857D02*
X169219523Y-111413095D01*
X169219523Y-111413095D02*
X169219523Y-111508333D01*
X169219523Y-111508333D02*
X169171904Y-111651190D01*
X169171904Y-111651190D02*
X168600476Y-112222619D01*
X168600476Y-112222619D02*
X169219523Y-112222619D01*
X170124285Y-111222619D02*
X169648095Y-111222619D01*
X169648095Y-111222619D02*
X169600476Y-111698809D01*
X169600476Y-111698809D02*
X169648095Y-111651190D01*
X169648095Y-111651190D02*
X169743333Y-111603571D01*
X169743333Y-111603571D02*
X169981428Y-111603571D01*
X169981428Y-111603571D02*
X170076666Y-111651190D01*
X170076666Y-111651190D02*
X170124285Y-111698809D01*
X170124285Y-111698809D02*
X170171904Y-111794047D01*
X170171904Y-111794047D02*
X170171904Y-112032142D01*
X170171904Y-112032142D02*
X170124285Y-112127380D01*
X170124285Y-112127380D02*
X170076666Y-112175000D01*
X170076666Y-112175000D02*
X169981428Y-112222619D01*
X169981428Y-112222619D02*
X169743333Y-112222619D01*
X169743333Y-112222619D02*
X169648095Y-112175000D01*
X169648095Y-112175000D02*
X169600476Y-112127380D01*
G04 #@! TO.C,SW1*
X153646667Y-92750000D02*
X153789524Y-92797619D01*
X153789524Y-92797619D02*
X154027619Y-92797619D01*
X154027619Y-92797619D02*
X154122857Y-92750000D01*
X154122857Y-92750000D02*
X154170476Y-92702380D01*
X154170476Y-92702380D02*
X154218095Y-92607142D01*
X154218095Y-92607142D02*
X154218095Y-92511904D01*
X154218095Y-92511904D02*
X154170476Y-92416666D01*
X154170476Y-92416666D02*
X154122857Y-92369047D01*
X154122857Y-92369047D02*
X154027619Y-92321428D01*
X154027619Y-92321428D02*
X153837143Y-92273809D01*
X153837143Y-92273809D02*
X153741905Y-92226190D01*
X153741905Y-92226190D02*
X153694286Y-92178571D01*
X153694286Y-92178571D02*
X153646667Y-92083333D01*
X153646667Y-92083333D02*
X153646667Y-91988095D01*
X153646667Y-91988095D02*
X153694286Y-91892857D01*
X153694286Y-91892857D02*
X153741905Y-91845238D01*
X153741905Y-91845238D02*
X153837143Y-91797619D01*
X153837143Y-91797619D02*
X154075238Y-91797619D01*
X154075238Y-91797619D02*
X154218095Y-91845238D01*
X154551429Y-91797619D02*
X154789524Y-92797619D01*
X154789524Y-92797619D02*
X154980000Y-92083333D01*
X154980000Y-92083333D02*
X155170476Y-92797619D01*
X155170476Y-92797619D02*
X155408572Y-91797619D01*
X156313333Y-92797619D02*
X155741905Y-92797619D01*
X156027619Y-92797619D02*
X156027619Y-91797619D01*
X156027619Y-91797619D02*
X155932381Y-91940476D01*
X155932381Y-91940476D02*
X155837143Y-92035714D01*
X155837143Y-92035714D02*
X155741905Y-92083333D01*
G04 #@! TO.C,D17*
X143565714Y-111587619D02*
X143565714Y-110587619D01*
X143565714Y-110587619D02*
X143803809Y-110587619D01*
X143803809Y-110587619D02*
X143946666Y-110635238D01*
X143946666Y-110635238D02*
X144041904Y-110730476D01*
X144041904Y-110730476D02*
X144089523Y-110825714D01*
X144089523Y-110825714D02*
X144137142Y-111016190D01*
X144137142Y-111016190D02*
X144137142Y-111159047D01*
X144137142Y-111159047D02*
X144089523Y-111349523D01*
X144089523Y-111349523D02*
X144041904Y-111444761D01*
X144041904Y-111444761D02*
X143946666Y-111540000D01*
X143946666Y-111540000D02*
X143803809Y-111587619D01*
X143803809Y-111587619D02*
X143565714Y-111587619D01*
X145089523Y-111587619D02*
X144518095Y-111587619D01*
X144803809Y-111587619D02*
X144803809Y-110587619D01*
X144803809Y-110587619D02*
X144708571Y-110730476D01*
X144708571Y-110730476D02*
X144613333Y-110825714D01*
X144613333Y-110825714D02*
X144518095Y-110873333D01*
X145422857Y-110587619D02*
X146089523Y-110587619D01*
X146089523Y-110587619D02*
X145660952Y-111587619D01*
G04 #@! TO.C,C8*
X105615508Y-123677579D02*
X105567889Y-123725199D01*
X105567889Y-123725199D02*
X105425032Y-123772818D01*
X105425032Y-123772818D02*
X105329794Y-123772818D01*
X105329794Y-123772818D02*
X105186937Y-123725199D01*
X105186937Y-123725199D02*
X105091699Y-123629960D01*
X105091699Y-123629960D02*
X105044080Y-123534722D01*
X105044080Y-123534722D02*
X104996461Y-123344246D01*
X104996461Y-123344246D02*
X104996461Y-123201389D01*
X104996461Y-123201389D02*
X105044080Y-123010913D01*
X105044080Y-123010913D02*
X105091699Y-122915675D01*
X105091699Y-122915675D02*
X105186937Y-122820437D01*
X105186937Y-122820437D02*
X105329794Y-122772818D01*
X105329794Y-122772818D02*
X105425032Y-122772818D01*
X105425032Y-122772818D02*
X105567889Y-122820437D01*
X105567889Y-122820437D02*
X105615508Y-122868056D01*
X106186937Y-123201389D02*
X106091699Y-123153770D01*
X106091699Y-123153770D02*
X106044080Y-123106151D01*
X106044080Y-123106151D02*
X105996461Y-123010913D01*
X105996461Y-123010913D02*
X105996461Y-122963294D01*
X105996461Y-122963294D02*
X106044080Y-122868056D01*
X106044080Y-122868056D02*
X106091699Y-122820437D01*
X106091699Y-122820437D02*
X106186937Y-122772818D01*
X106186937Y-122772818D02*
X106377413Y-122772818D01*
X106377413Y-122772818D02*
X106472651Y-122820437D01*
X106472651Y-122820437D02*
X106520270Y-122868056D01*
X106520270Y-122868056D02*
X106567889Y-122963294D01*
X106567889Y-122963294D02*
X106567889Y-123010913D01*
X106567889Y-123010913D02*
X106520270Y-123106151D01*
X106520270Y-123106151D02*
X106472651Y-123153770D01*
X106472651Y-123153770D02*
X106377413Y-123201389D01*
X106377413Y-123201389D02*
X106186937Y-123201389D01*
X106186937Y-123201389D02*
X106091699Y-123249008D01*
X106091699Y-123249008D02*
X106044080Y-123296627D01*
X106044080Y-123296627D02*
X105996461Y-123391865D01*
X105996461Y-123391865D02*
X105996461Y-123582341D01*
X105996461Y-123582341D02*
X106044080Y-123677579D01*
X106044080Y-123677579D02*
X106091699Y-123725199D01*
X106091699Y-123725199D02*
X106186937Y-123772818D01*
X106186937Y-123772818D02*
X106377413Y-123772818D01*
X106377413Y-123772818D02*
X106472651Y-123725199D01*
X106472651Y-123725199D02*
X106520270Y-123677579D01*
X106520270Y-123677579D02*
X106567889Y-123582341D01*
X106567889Y-123582341D02*
X106567889Y-123391865D01*
X106567889Y-123391865D02*
X106520270Y-123296627D01*
X106520270Y-123296627D02*
X106472651Y-123249008D01*
X106472651Y-123249008D02*
X106377413Y-123201389D01*
G04 #@! TO.C,D1*
X182141905Y-134447619D02*
X182141905Y-133447619D01*
X182141905Y-133447619D02*
X182380000Y-133447619D01*
X182380000Y-133447619D02*
X182522857Y-133495238D01*
X182522857Y-133495238D02*
X182618095Y-133590476D01*
X182618095Y-133590476D02*
X182665714Y-133685714D01*
X182665714Y-133685714D02*
X182713333Y-133876190D01*
X182713333Y-133876190D02*
X182713333Y-134019047D01*
X182713333Y-134019047D02*
X182665714Y-134209523D01*
X182665714Y-134209523D02*
X182618095Y-134304761D01*
X182618095Y-134304761D02*
X182522857Y-134400000D01*
X182522857Y-134400000D02*
X182380000Y-134447619D01*
X182380000Y-134447619D02*
X182141905Y-134447619D01*
X183665714Y-134447619D02*
X183094286Y-134447619D01*
X183380000Y-134447619D02*
X183380000Y-133447619D01*
X183380000Y-133447619D02*
X183284762Y-133590476D01*
X183284762Y-133590476D02*
X183189524Y-133685714D01*
X183189524Y-133685714D02*
X183094286Y-133733333D01*
G04 #@! TO.C,C5*
X136555180Y-84059866D02*
X136602800Y-84107485D01*
X136602800Y-84107485D02*
X136650419Y-84250342D01*
X136650419Y-84250342D02*
X136650419Y-84345580D01*
X136650419Y-84345580D02*
X136602800Y-84488437D01*
X136602800Y-84488437D02*
X136507561Y-84583675D01*
X136507561Y-84583675D02*
X136412323Y-84631294D01*
X136412323Y-84631294D02*
X136221847Y-84678913D01*
X136221847Y-84678913D02*
X136078990Y-84678913D01*
X136078990Y-84678913D02*
X135888514Y-84631294D01*
X135888514Y-84631294D02*
X135793276Y-84583675D01*
X135793276Y-84583675D02*
X135698038Y-84488437D01*
X135698038Y-84488437D02*
X135650419Y-84345580D01*
X135650419Y-84345580D02*
X135650419Y-84250342D01*
X135650419Y-84250342D02*
X135698038Y-84107485D01*
X135698038Y-84107485D02*
X135745657Y-84059866D01*
X135650419Y-83155104D02*
X135650419Y-83631294D01*
X135650419Y-83631294D02*
X136126609Y-83678913D01*
X136126609Y-83678913D02*
X136078990Y-83631294D01*
X136078990Y-83631294D02*
X136031371Y-83536056D01*
X136031371Y-83536056D02*
X136031371Y-83297961D01*
X136031371Y-83297961D02*
X136078990Y-83202723D01*
X136078990Y-83202723D02*
X136126609Y-83155104D01*
X136126609Y-83155104D02*
X136221847Y-83107485D01*
X136221847Y-83107485D02*
X136459942Y-83107485D01*
X136459942Y-83107485D02*
X136555180Y-83155104D01*
X136555180Y-83155104D02*
X136602800Y-83202723D01*
X136602800Y-83202723D02*
X136650419Y-83297961D01*
X136650419Y-83297961D02*
X136650419Y-83536056D01*
X136650419Y-83536056D02*
X136602800Y-83631294D01*
X136602800Y-83631294D02*
X136555180Y-83678913D01*
G04 #@! TO.C,SW4*
X115391867Y-134376600D02*
X115534724Y-134424219D01*
X115534724Y-134424219D02*
X115772819Y-134424219D01*
X115772819Y-134424219D02*
X115868057Y-134376600D01*
X115868057Y-134376600D02*
X115915676Y-134328980D01*
X115915676Y-134328980D02*
X115963295Y-134233742D01*
X115963295Y-134233742D02*
X115963295Y-134138504D01*
X115963295Y-134138504D02*
X115915676Y-134043266D01*
X115915676Y-134043266D02*
X115868057Y-133995647D01*
X115868057Y-133995647D02*
X115772819Y-133948028D01*
X115772819Y-133948028D02*
X115582343Y-133900409D01*
X115582343Y-133900409D02*
X115487105Y-133852790D01*
X115487105Y-133852790D02*
X115439486Y-133805171D01*
X115439486Y-133805171D02*
X115391867Y-133709933D01*
X115391867Y-133709933D02*
X115391867Y-133614695D01*
X115391867Y-133614695D02*
X115439486Y-133519457D01*
X115439486Y-133519457D02*
X115487105Y-133471838D01*
X115487105Y-133471838D02*
X115582343Y-133424219D01*
X115582343Y-133424219D02*
X115820438Y-133424219D01*
X115820438Y-133424219D02*
X115963295Y-133471838D01*
X116296629Y-133424219D02*
X116534724Y-134424219D01*
X116534724Y-134424219D02*
X116725200Y-133709933D01*
X116725200Y-133709933D02*
X116915676Y-134424219D01*
X116915676Y-134424219D02*
X117153772Y-133424219D01*
X117963295Y-133757552D02*
X117963295Y-134424219D01*
X117725200Y-133376600D02*
X117487105Y-134090885D01*
X117487105Y-134090885D02*
X118106152Y-134090885D01*
G04 #@! TO.C,Y1*
X186110543Y-79218448D02*
X186110543Y-79694639D01*
X185777210Y-78694639D02*
X186110543Y-79218448D01*
X186110543Y-79218448D02*
X186443876Y-78694639D01*
X187301019Y-79694639D02*
X186729591Y-79694639D01*
X187015305Y-79694639D02*
X187015305Y-78694639D01*
X187015305Y-78694639D02*
X186920067Y-78837496D01*
X186920067Y-78837496D02*
X186824829Y-78932734D01*
X186824829Y-78932734D02*
X186729591Y-78980353D01*
G04 #@! TO.C,R10*
X131253519Y-110738057D02*
X130777328Y-111071390D01*
X131253519Y-111309485D02*
X130253519Y-111309485D01*
X130253519Y-111309485D02*
X130253519Y-110928533D01*
X130253519Y-110928533D02*
X130301138Y-110833295D01*
X130301138Y-110833295D02*
X130348757Y-110785676D01*
X130348757Y-110785676D02*
X130443995Y-110738057D01*
X130443995Y-110738057D02*
X130586852Y-110738057D01*
X130586852Y-110738057D02*
X130682090Y-110785676D01*
X130682090Y-110785676D02*
X130729709Y-110833295D01*
X130729709Y-110833295D02*
X130777328Y-110928533D01*
X130777328Y-110928533D02*
X130777328Y-111309485D01*
X131253519Y-109785676D02*
X131253519Y-110357104D01*
X131253519Y-110071390D02*
X130253519Y-110071390D01*
X130253519Y-110071390D02*
X130396376Y-110166628D01*
X130396376Y-110166628D02*
X130491614Y-110261866D01*
X130491614Y-110261866D02*
X130539233Y-110357104D01*
X130253519Y-109166628D02*
X130253519Y-109071390D01*
X130253519Y-109071390D02*
X130301138Y-108976152D01*
X130301138Y-108976152D02*
X130348757Y-108928533D01*
X130348757Y-108928533D02*
X130443995Y-108880914D01*
X130443995Y-108880914D02*
X130634471Y-108833295D01*
X130634471Y-108833295D02*
X130872566Y-108833295D01*
X130872566Y-108833295D02*
X131063042Y-108880914D01*
X131063042Y-108880914D02*
X131158280Y-108928533D01*
X131158280Y-108928533D02*
X131205900Y-108976152D01*
X131205900Y-108976152D02*
X131253519Y-109071390D01*
X131253519Y-109071390D02*
X131253519Y-109166628D01*
X131253519Y-109166628D02*
X131205900Y-109261866D01*
X131205900Y-109261866D02*
X131158280Y-109309485D01*
X131158280Y-109309485D02*
X131063042Y-109357104D01*
X131063042Y-109357104D02*
X130872566Y-109404723D01*
X130872566Y-109404723D02*
X130634471Y-109404723D01*
X130634471Y-109404723D02*
X130443995Y-109357104D01*
X130443995Y-109357104D02*
X130348757Y-109309485D01*
X130348757Y-109309485D02*
X130301138Y-109261866D01*
X130301138Y-109261866D02*
X130253519Y-109166628D01*
G04 #@! TO.C,R28*
X139692142Y-112222619D02*
X139358809Y-111746428D01*
X139120714Y-112222619D02*
X139120714Y-111222619D01*
X139120714Y-111222619D02*
X139501666Y-111222619D01*
X139501666Y-111222619D02*
X139596904Y-111270238D01*
X139596904Y-111270238D02*
X139644523Y-111317857D01*
X139644523Y-111317857D02*
X139692142Y-111413095D01*
X139692142Y-111413095D02*
X139692142Y-111555952D01*
X139692142Y-111555952D02*
X139644523Y-111651190D01*
X139644523Y-111651190D02*
X139596904Y-111698809D01*
X139596904Y-111698809D02*
X139501666Y-111746428D01*
X139501666Y-111746428D02*
X139120714Y-111746428D01*
X140073095Y-111317857D02*
X140120714Y-111270238D01*
X140120714Y-111270238D02*
X140215952Y-111222619D01*
X140215952Y-111222619D02*
X140454047Y-111222619D01*
X140454047Y-111222619D02*
X140549285Y-111270238D01*
X140549285Y-111270238D02*
X140596904Y-111317857D01*
X140596904Y-111317857D02*
X140644523Y-111413095D01*
X140644523Y-111413095D02*
X140644523Y-111508333D01*
X140644523Y-111508333D02*
X140596904Y-111651190D01*
X140596904Y-111651190D02*
X140025476Y-112222619D01*
X140025476Y-112222619D02*
X140644523Y-112222619D01*
X141215952Y-111651190D02*
X141120714Y-111603571D01*
X141120714Y-111603571D02*
X141073095Y-111555952D01*
X141073095Y-111555952D02*
X141025476Y-111460714D01*
X141025476Y-111460714D02*
X141025476Y-111413095D01*
X141025476Y-111413095D02*
X141073095Y-111317857D01*
X141073095Y-111317857D02*
X141120714Y-111270238D01*
X141120714Y-111270238D02*
X141215952Y-111222619D01*
X141215952Y-111222619D02*
X141406428Y-111222619D01*
X141406428Y-111222619D02*
X141501666Y-111270238D01*
X141501666Y-111270238D02*
X141549285Y-111317857D01*
X141549285Y-111317857D02*
X141596904Y-111413095D01*
X141596904Y-111413095D02*
X141596904Y-111460714D01*
X141596904Y-111460714D02*
X141549285Y-111555952D01*
X141549285Y-111555952D02*
X141501666Y-111603571D01*
X141501666Y-111603571D02*
X141406428Y-111651190D01*
X141406428Y-111651190D02*
X141215952Y-111651190D01*
X141215952Y-111651190D02*
X141120714Y-111698809D01*
X141120714Y-111698809D02*
X141073095Y-111746428D01*
X141073095Y-111746428D02*
X141025476Y-111841666D01*
X141025476Y-111841666D02*
X141025476Y-112032142D01*
X141025476Y-112032142D02*
X141073095Y-112127380D01*
X141073095Y-112127380D02*
X141120714Y-112175000D01*
X141120714Y-112175000D02*
X141215952Y-112222619D01*
X141215952Y-112222619D02*
X141406428Y-112222619D01*
X141406428Y-112222619D02*
X141501666Y-112175000D01*
X141501666Y-112175000D02*
X141549285Y-112127380D01*
X141549285Y-112127380D02*
X141596904Y-112032142D01*
X141596904Y-112032142D02*
X141596904Y-111841666D01*
X141596904Y-111841666D02*
X141549285Y-111746428D01*
X141549285Y-111746428D02*
X141501666Y-111698809D01*
X141501666Y-111698809D02*
X141406428Y-111651190D01*
G04 #@! TO.C,R9*
X133434919Y-96715866D02*
X132958728Y-97049199D01*
X133434919Y-97287294D02*
X132434919Y-97287294D01*
X132434919Y-97287294D02*
X132434919Y-96906342D01*
X132434919Y-96906342D02*
X132482538Y-96811104D01*
X132482538Y-96811104D02*
X132530157Y-96763485D01*
X132530157Y-96763485D02*
X132625395Y-96715866D01*
X132625395Y-96715866D02*
X132768252Y-96715866D01*
X132768252Y-96715866D02*
X132863490Y-96763485D01*
X132863490Y-96763485D02*
X132911109Y-96811104D01*
X132911109Y-96811104D02*
X132958728Y-96906342D01*
X132958728Y-96906342D02*
X132958728Y-97287294D01*
X133434919Y-96239675D02*
X133434919Y-96049199D01*
X133434919Y-96049199D02*
X133387300Y-95953961D01*
X133387300Y-95953961D02*
X133339680Y-95906342D01*
X133339680Y-95906342D02*
X133196823Y-95811104D01*
X133196823Y-95811104D02*
X133006347Y-95763485D01*
X133006347Y-95763485D02*
X132625395Y-95763485D01*
X132625395Y-95763485D02*
X132530157Y-95811104D01*
X132530157Y-95811104D02*
X132482538Y-95858723D01*
X132482538Y-95858723D02*
X132434919Y-95953961D01*
X132434919Y-95953961D02*
X132434919Y-96144437D01*
X132434919Y-96144437D02*
X132482538Y-96239675D01*
X132482538Y-96239675D02*
X132530157Y-96287294D01*
X132530157Y-96287294D02*
X132625395Y-96334913D01*
X132625395Y-96334913D02*
X132863490Y-96334913D01*
X132863490Y-96334913D02*
X132958728Y-96287294D01*
X132958728Y-96287294D02*
X133006347Y-96239675D01*
X133006347Y-96239675D02*
X133053966Y-96144437D01*
X133053966Y-96144437D02*
X133053966Y-95953961D01*
X133053966Y-95953961D02*
X133006347Y-95858723D01*
X133006347Y-95858723D02*
X132958728Y-95811104D01*
X132958728Y-95811104D02*
X132863490Y-95763485D01*
G04 #@! TO.C,U10*
X108606905Y-69957619D02*
X108606905Y-70767142D01*
X108606905Y-70767142D02*
X108654524Y-70862380D01*
X108654524Y-70862380D02*
X108702143Y-70910000D01*
X108702143Y-70910000D02*
X108797381Y-70957619D01*
X108797381Y-70957619D02*
X108987857Y-70957619D01*
X108987857Y-70957619D02*
X109083095Y-70910000D01*
X109083095Y-70910000D02*
X109130714Y-70862380D01*
X109130714Y-70862380D02*
X109178333Y-70767142D01*
X109178333Y-70767142D02*
X109178333Y-69957619D01*
X110178333Y-70957619D02*
X109606905Y-70957619D01*
X109892619Y-70957619D02*
X109892619Y-69957619D01*
X109892619Y-69957619D02*
X109797381Y-70100476D01*
X109797381Y-70100476D02*
X109702143Y-70195714D01*
X109702143Y-70195714D02*
X109606905Y-70243333D01*
X110797381Y-69957619D02*
X110892619Y-69957619D01*
X110892619Y-69957619D02*
X110987857Y-70005238D01*
X110987857Y-70005238D02*
X111035476Y-70052857D01*
X111035476Y-70052857D02*
X111083095Y-70148095D01*
X111083095Y-70148095D02*
X111130714Y-70338571D01*
X111130714Y-70338571D02*
X111130714Y-70576666D01*
X111130714Y-70576666D02*
X111083095Y-70767142D01*
X111083095Y-70767142D02*
X111035476Y-70862380D01*
X111035476Y-70862380D02*
X110987857Y-70910000D01*
X110987857Y-70910000D02*
X110892619Y-70957619D01*
X110892619Y-70957619D02*
X110797381Y-70957619D01*
X110797381Y-70957619D02*
X110702143Y-70910000D01*
X110702143Y-70910000D02*
X110654524Y-70862380D01*
X110654524Y-70862380D02*
X110606905Y-70767142D01*
X110606905Y-70767142D02*
X110559286Y-70576666D01*
X110559286Y-70576666D02*
X110559286Y-70338571D01*
X110559286Y-70338571D02*
X110606905Y-70148095D01*
X110606905Y-70148095D02*
X110654524Y-70052857D01*
X110654524Y-70052857D02*
X110702143Y-70005238D01*
X110702143Y-70005238D02*
X110797381Y-69957619D01*
G04 #@! TO.C,R8*
X130894919Y-96715866D02*
X130418728Y-97049199D01*
X130894919Y-97287294D02*
X129894919Y-97287294D01*
X129894919Y-97287294D02*
X129894919Y-96906342D01*
X129894919Y-96906342D02*
X129942538Y-96811104D01*
X129942538Y-96811104D02*
X129990157Y-96763485D01*
X129990157Y-96763485D02*
X130085395Y-96715866D01*
X130085395Y-96715866D02*
X130228252Y-96715866D01*
X130228252Y-96715866D02*
X130323490Y-96763485D01*
X130323490Y-96763485D02*
X130371109Y-96811104D01*
X130371109Y-96811104D02*
X130418728Y-96906342D01*
X130418728Y-96906342D02*
X130418728Y-97287294D01*
X130323490Y-96144437D02*
X130275871Y-96239675D01*
X130275871Y-96239675D02*
X130228252Y-96287294D01*
X130228252Y-96287294D02*
X130133014Y-96334913D01*
X130133014Y-96334913D02*
X130085395Y-96334913D01*
X130085395Y-96334913D02*
X129990157Y-96287294D01*
X129990157Y-96287294D02*
X129942538Y-96239675D01*
X129942538Y-96239675D02*
X129894919Y-96144437D01*
X129894919Y-96144437D02*
X129894919Y-95953961D01*
X129894919Y-95953961D02*
X129942538Y-95858723D01*
X129942538Y-95858723D02*
X129990157Y-95811104D01*
X129990157Y-95811104D02*
X130085395Y-95763485D01*
X130085395Y-95763485D02*
X130133014Y-95763485D01*
X130133014Y-95763485D02*
X130228252Y-95811104D01*
X130228252Y-95811104D02*
X130275871Y-95858723D01*
X130275871Y-95858723D02*
X130323490Y-95953961D01*
X130323490Y-95953961D02*
X130323490Y-96144437D01*
X130323490Y-96144437D02*
X130371109Y-96239675D01*
X130371109Y-96239675D02*
X130418728Y-96287294D01*
X130418728Y-96287294D02*
X130513966Y-96334913D01*
X130513966Y-96334913D02*
X130704442Y-96334913D01*
X130704442Y-96334913D02*
X130799680Y-96287294D01*
X130799680Y-96287294D02*
X130847300Y-96239675D01*
X130847300Y-96239675D02*
X130894919Y-96144437D01*
X130894919Y-96144437D02*
X130894919Y-95953961D01*
X130894919Y-95953961D02*
X130847300Y-95858723D01*
X130847300Y-95858723D02*
X130799680Y-95811104D01*
X130799680Y-95811104D02*
X130704442Y-95763485D01*
X130704442Y-95763485D02*
X130513966Y-95763485D01*
X130513966Y-95763485D02*
X130418728Y-95811104D01*
X130418728Y-95811104D02*
X130371109Y-95858723D01*
X130371109Y-95858723D02*
X130323490Y-95953961D01*
G04 #@! TO.C,C4*
X172651617Y-92523636D02*
X172603998Y-92571256D01*
X172603998Y-92571256D02*
X172461141Y-92618875D01*
X172461141Y-92618875D02*
X172365903Y-92618875D01*
X172365903Y-92618875D02*
X172223046Y-92571256D01*
X172223046Y-92571256D02*
X172127808Y-92476017D01*
X172127808Y-92476017D02*
X172080189Y-92380779D01*
X172080189Y-92380779D02*
X172032570Y-92190303D01*
X172032570Y-92190303D02*
X172032570Y-92047446D01*
X172032570Y-92047446D02*
X172080189Y-91856970D01*
X172080189Y-91856970D02*
X172127808Y-91761732D01*
X172127808Y-91761732D02*
X172223046Y-91666494D01*
X172223046Y-91666494D02*
X172365903Y-91618875D01*
X172365903Y-91618875D02*
X172461141Y-91618875D01*
X172461141Y-91618875D02*
X172603998Y-91666494D01*
X172603998Y-91666494D02*
X172651617Y-91714113D01*
X173508760Y-91952208D02*
X173508760Y-92618875D01*
X173270665Y-91571256D02*
X173032570Y-92285541D01*
X173032570Y-92285541D02*
X173651617Y-92285541D01*
G04 #@! TO.C,R12*
X177792142Y-135082619D02*
X177458809Y-134606428D01*
X177220714Y-135082619D02*
X177220714Y-134082619D01*
X177220714Y-134082619D02*
X177601666Y-134082619D01*
X177601666Y-134082619D02*
X177696904Y-134130238D01*
X177696904Y-134130238D02*
X177744523Y-134177857D01*
X177744523Y-134177857D02*
X177792142Y-134273095D01*
X177792142Y-134273095D02*
X177792142Y-134415952D01*
X177792142Y-134415952D02*
X177744523Y-134511190D01*
X177744523Y-134511190D02*
X177696904Y-134558809D01*
X177696904Y-134558809D02*
X177601666Y-134606428D01*
X177601666Y-134606428D02*
X177220714Y-134606428D01*
X178744523Y-135082619D02*
X178173095Y-135082619D01*
X178458809Y-135082619D02*
X178458809Y-134082619D01*
X178458809Y-134082619D02*
X178363571Y-134225476D01*
X178363571Y-134225476D02*
X178268333Y-134320714D01*
X178268333Y-134320714D02*
X178173095Y-134368333D01*
X179125476Y-134177857D02*
X179173095Y-134130238D01*
X179173095Y-134130238D02*
X179268333Y-134082619D01*
X179268333Y-134082619D02*
X179506428Y-134082619D01*
X179506428Y-134082619D02*
X179601666Y-134130238D01*
X179601666Y-134130238D02*
X179649285Y-134177857D01*
X179649285Y-134177857D02*
X179696904Y-134273095D01*
X179696904Y-134273095D02*
X179696904Y-134368333D01*
X179696904Y-134368333D02*
X179649285Y-134511190D01*
X179649285Y-134511190D02*
X179077857Y-135082619D01*
X179077857Y-135082619D02*
X179696904Y-135082619D01*
G04 #@! TO.C,R4*
X182713333Y-101461197D02*
X182380000Y-100985006D01*
X182141905Y-101461197D02*
X182141905Y-100461197D01*
X182141905Y-100461197D02*
X182522857Y-100461197D01*
X182522857Y-100461197D02*
X182618095Y-100508816D01*
X182618095Y-100508816D02*
X182665714Y-100556435D01*
X182665714Y-100556435D02*
X182713333Y-100651673D01*
X182713333Y-100651673D02*
X182713333Y-100794530D01*
X182713333Y-100794530D02*
X182665714Y-100889768D01*
X182665714Y-100889768D02*
X182618095Y-100937387D01*
X182618095Y-100937387D02*
X182522857Y-100985006D01*
X182522857Y-100985006D02*
X182141905Y-100985006D01*
X183570476Y-100794530D02*
X183570476Y-101461197D01*
X183332381Y-100413578D02*
X183094286Y-101127863D01*
X183094286Y-101127863D02*
X183713333Y-101127863D01*
G04 #@! TO.C,D6*
X134516905Y-134447619D02*
X134516905Y-133447619D01*
X134516905Y-133447619D02*
X134755000Y-133447619D01*
X134755000Y-133447619D02*
X134897857Y-133495238D01*
X134897857Y-133495238D02*
X134993095Y-133590476D01*
X134993095Y-133590476D02*
X135040714Y-133685714D01*
X135040714Y-133685714D02*
X135088333Y-133876190D01*
X135088333Y-133876190D02*
X135088333Y-134019047D01*
X135088333Y-134019047D02*
X135040714Y-134209523D01*
X135040714Y-134209523D02*
X134993095Y-134304761D01*
X134993095Y-134304761D02*
X134897857Y-134400000D01*
X134897857Y-134400000D02*
X134755000Y-134447619D01*
X134755000Y-134447619D02*
X134516905Y-134447619D01*
X135945476Y-133447619D02*
X135755000Y-133447619D01*
X135755000Y-133447619D02*
X135659762Y-133495238D01*
X135659762Y-133495238D02*
X135612143Y-133542857D01*
X135612143Y-133542857D02*
X135516905Y-133685714D01*
X135516905Y-133685714D02*
X135469286Y-133876190D01*
X135469286Y-133876190D02*
X135469286Y-134257142D01*
X135469286Y-134257142D02*
X135516905Y-134352380D01*
X135516905Y-134352380D02*
X135564524Y-134400000D01*
X135564524Y-134400000D02*
X135659762Y-134447619D01*
X135659762Y-134447619D02*
X135850238Y-134447619D01*
X135850238Y-134447619D02*
X135945476Y-134400000D01*
X135945476Y-134400000D02*
X135993095Y-134352380D01*
X135993095Y-134352380D02*
X136040714Y-134257142D01*
X136040714Y-134257142D02*
X136040714Y-134019047D01*
X136040714Y-134019047D02*
X135993095Y-133923809D01*
X135993095Y-133923809D02*
X135945476Y-133876190D01*
X135945476Y-133876190D02*
X135850238Y-133828571D01*
X135850238Y-133828571D02*
X135659762Y-133828571D01*
X135659762Y-133828571D02*
X135564524Y-133876190D01*
X135564524Y-133876190D02*
X135516905Y-133923809D01*
X135516905Y-133923809D02*
X135469286Y-134019047D01*
G04 #@! TO.C,SW2*
X142196667Y-92750000D02*
X142339524Y-92797619D01*
X142339524Y-92797619D02*
X142577619Y-92797619D01*
X142577619Y-92797619D02*
X142672857Y-92750000D01*
X142672857Y-92750000D02*
X142720476Y-92702380D01*
X142720476Y-92702380D02*
X142768095Y-92607142D01*
X142768095Y-92607142D02*
X142768095Y-92511904D01*
X142768095Y-92511904D02*
X142720476Y-92416666D01*
X142720476Y-92416666D02*
X142672857Y-92369047D01*
X142672857Y-92369047D02*
X142577619Y-92321428D01*
X142577619Y-92321428D02*
X142387143Y-92273809D01*
X142387143Y-92273809D02*
X142291905Y-92226190D01*
X142291905Y-92226190D02*
X142244286Y-92178571D01*
X142244286Y-92178571D02*
X142196667Y-92083333D01*
X142196667Y-92083333D02*
X142196667Y-91988095D01*
X142196667Y-91988095D02*
X142244286Y-91892857D01*
X142244286Y-91892857D02*
X142291905Y-91845238D01*
X142291905Y-91845238D02*
X142387143Y-91797619D01*
X142387143Y-91797619D02*
X142625238Y-91797619D01*
X142625238Y-91797619D02*
X142768095Y-91845238D01*
X143101429Y-91797619D02*
X143339524Y-92797619D01*
X143339524Y-92797619D02*
X143530000Y-92083333D01*
X143530000Y-92083333D02*
X143720476Y-92797619D01*
X143720476Y-92797619D02*
X143958572Y-91797619D01*
X144291905Y-91892857D02*
X144339524Y-91845238D01*
X144339524Y-91845238D02*
X144434762Y-91797619D01*
X144434762Y-91797619D02*
X144672857Y-91797619D01*
X144672857Y-91797619D02*
X144768095Y-91845238D01*
X144768095Y-91845238D02*
X144815714Y-91892857D01*
X144815714Y-91892857D02*
X144863333Y-91988095D01*
X144863333Y-91988095D02*
X144863333Y-92083333D01*
X144863333Y-92083333D02*
X144815714Y-92226190D01*
X144815714Y-92226190D02*
X144244286Y-92797619D01*
X144244286Y-92797619D02*
X144863333Y-92797619D01*
G04 #@! TO.C,R19*
X168267142Y-123652619D02*
X167933809Y-123176428D01*
X167695714Y-123652619D02*
X167695714Y-122652619D01*
X167695714Y-122652619D02*
X168076666Y-122652619D01*
X168076666Y-122652619D02*
X168171904Y-122700238D01*
X168171904Y-122700238D02*
X168219523Y-122747857D01*
X168219523Y-122747857D02*
X168267142Y-122843095D01*
X168267142Y-122843095D02*
X168267142Y-122985952D01*
X168267142Y-122985952D02*
X168219523Y-123081190D01*
X168219523Y-123081190D02*
X168171904Y-123128809D01*
X168171904Y-123128809D02*
X168076666Y-123176428D01*
X168076666Y-123176428D02*
X167695714Y-123176428D01*
X169219523Y-123652619D02*
X168648095Y-123652619D01*
X168933809Y-123652619D02*
X168933809Y-122652619D01*
X168933809Y-122652619D02*
X168838571Y-122795476D01*
X168838571Y-122795476D02*
X168743333Y-122890714D01*
X168743333Y-122890714D02*
X168648095Y-122938333D01*
X169695714Y-123652619D02*
X169886190Y-123652619D01*
X169886190Y-123652619D02*
X169981428Y-123605000D01*
X169981428Y-123605000D02*
X170029047Y-123557380D01*
X170029047Y-123557380D02*
X170124285Y-123414523D01*
X170124285Y-123414523D02*
X170171904Y-123224047D01*
X170171904Y-123224047D02*
X170171904Y-122843095D01*
X170171904Y-122843095D02*
X170124285Y-122747857D01*
X170124285Y-122747857D02*
X170076666Y-122700238D01*
X170076666Y-122700238D02*
X169981428Y-122652619D01*
X169981428Y-122652619D02*
X169790952Y-122652619D01*
X169790952Y-122652619D02*
X169695714Y-122700238D01*
X169695714Y-122700238D02*
X169648095Y-122747857D01*
X169648095Y-122747857D02*
X169600476Y-122843095D01*
X169600476Y-122843095D02*
X169600476Y-123081190D01*
X169600476Y-123081190D02*
X169648095Y-123176428D01*
X169648095Y-123176428D02*
X169695714Y-123224047D01*
X169695714Y-123224047D02*
X169790952Y-123271666D01*
X169790952Y-123271666D02*
X169981428Y-123271666D01*
X169981428Y-123271666D02*
X170076666Y-123224047D01*
X170076666Y-123224047D02*
X170124285Y-123176428D01*
X170124285Y-123176428D02*
X170171904Y-123081190D01*
G04 #@! TO.C,R6*
X130935419Y-84694866D02*
X130459228Y-85028199D01*
X130935419Y-85266294D02*
X129935419Y-85266294D01*
X129935419Y-85266294D02*
X129935419Y-84885342D01*
X129935419Y-84885342D02*
X129983038Y-84790104D01*
X129983038Y-84790104D02*
X130030657Y-84742485D01*
X130030657Y-84742485D02*
X130125895Y-84694866D01*
X130125895Y-84694866D02*
X130268752Y-84694866D01*
X130268752Y-84694866D02*
X130363990Y-84742485D01*
X130363990Y-84742485D02*
X130411609Y-84790104D01*
X130411609Y-84790104D02*
X130459228Y-84885342D01*
X130459228Y-84885342D02*
X130459228Y-85266294D01*
X129935419Y-83837723D02*
X129935419Y-84028199D01*
X129935419Y-84028199D02*
X129983038Y-84123437D01*
X129983038Y-84123437D02*
X130030657Y-84171056D01*
X130030657Y-84171056D02*
X130173514Y-84266294D01*
X130173514Y-84266294D02*
X130363990Y-84313913D01*
X130363990Y-84313913D02*
X130744942Y-84313913D01*
X130744942Y-84313913D02*
X130840180Y-84266294D01*
X130840180Y-84266294D02*
X130887800Y-84218675D01*
X130887800Y-84218675D02*
X130935419Y-84123437D01*
X130935419Y-84123437D02*
X130935419Y-83932961D01*
X130935419Y-83932961D02*
X130887800Y-83837723D01*
X130887800Y-83837723D02*
X130840180Y-83790104D01*
X130840180Y-83790104D02*
X130744942Y-83742485D01*
X130744942Y-83742485D02*
X130506847Y-83742485D01*
X130506847Y-83742485D02*
X130411609Y-83790104D01*
X130411609Y-83790104D02*
X130363990Y-83837723D01*
X130363990Y-83837723D02*
X130316371Y-83932961D01*
X130316371Y-83932961D02*
X130316371Y-84123437D01*
X130316371Y-84123437D02*
X130363990Y-84218675D01*
X130363990Y-84218675D02*
X130411609Y-84266294D01*
X130411609Y-84266294D02*
X130506847Y-84313913D01*
G04 #@! TO.C,U9*
X90698095Y-93442619D02*
X90698095Y-94252142D01*
X90698095Y-94252142D02*
X90745714Y-94347380D01*
X90745714Y-94347380D02*
X90793333Y-94395000D01*
X90793333Y-94395000D02*
X90888571Y-94442619D01*
X90888571Y-94442619D02*
X91079047Y-94442619D01*
X91079047Y-94442619D02*
X91174285Y-94395000D01*
X91174285Y-94395000D02*
X91221904Y-94347380D01*
X91221904Y-94347380D02*
X91269523Y-94252142D01*
X91269523Y-94252142D02*
X91269523Y-93442619D01*
X91793333Y-94442619D02*
X91983809Y-94442619D01*
X91983809Y-94442619D02*
X92079047Y-94395000D01*
X92079047Y-94395000D02*
X92126666Y-94347380D01*
X92126666Y-94347380D02*
X92221904Y-94204523D01*
X92221904Y-94204523D02*
X92269523Y-94014047D01*
X92269523Y-94014047D02*
X92269523Y-93633095D01*
X92269523Y-93633095D02*
X92221904Y-93537857D01*
X92221904Y-93537857D02*
X92174285Y-93490238D01*
X92174285Y-93490238D02*
X92079047Y-93442619D01*
X92079047Y-93442619D02*
X91888571Y-93442619D01*
X91888571Y-93442619D02*
X91793333Y-93490238D01*
X91793333Y-93490238D02*
X91745714Y-93537857D01*
X91745714Y-93537857D02*
X91698095Y-93633095D01*
X91698095Y-93633095D02*
X91698095Y-93871190D01*
X91698095Y-93871190D02*
X91745714Y-93966428D01*
X91745714Y-93966428D02*
X91793333Y-94014047D01*
X91793333Y-94014047D02*
X91888571Y-94061666D01*
X91888571Y-94061666D02*
X92079047Y-94061666D01*
X92079047Y-94061666D02*
X92174285Y-94014047D01*
X92174285Y-94014047D02*
X92221904Y-93966428D01*
X92221904Y-93966428D02*
X92269523Y-93871190D01*
D11*
G04 #@! TO.C,C10*
X104182200Y-98390500D02*
X104848200Y-98390500D01*
X104182200Y-93050500D02*
X104848200Y-93050500D01*
X106958200Y-93050500D02*
X107624200Y-93050500D01*
X104182200Y-98390500D02*
X104182200Y-93050500D01*
X106958200Y-98390500D02*
X107624200Y-98390500D01*
X107624200Y-98390500D02*
X107624200Y-93050500D01*
G04 #@! TO.C,C9*
X104182200Y-109843500D02*
X104848200Y-109843500D01*
X104182200Y-104503500D02*
X104848200Y-104503500D01*
X106958200Y-104503500D02*
X107624200Y-104503500D01*
X104182200Y-109843500D02*
X104182200Y-104503500D01*
X106958200Y-109843500D02*
X107624200Y-109843500D01*
X107624200Y-109843500D02*
X107624200Y-104503500D01*
G04 #@! TO.C,D11*
X142030000Y-121535000D02*
X143280000Y-121535000D01*
X142320000Y-121245000D02*
X148290000Y-121245000D01*
X148290000Y-121245000D02*
X148290000Y-113625000D01*
X142330000Y-121235000D02*
X143080000Y-121235000D01*
X143080000Y-121235000D02*
X143080000Y-119435000D01*
X144580000Y-121235000D02*
X144580000Y-120485000D01*
X144580000Y-120485000D02*
X147530000Y-120485000D01*
X147530000Y-120485000D02*
X147530000Y-117435000D01*
X142030000Y-120285000D02*
X142030000Y-121535000D01*
X142330000Y-119435000D02*
X142330000Y-121235000D01*
X143080000Y-119435000D02*
X142330000Y-119435000D01*
X142330000Y-117935000D02*
X143080000Y-117935000D01*
X143080000Y-117935000D02*
X143080000Y-116935000D01*
X142330000Y-116935000D02*
X142330000Y-117935000D01*
X143080000Y-116935000D02*
X142330000Y-116935000D01*
X142330000Y-115435000D02*
X143080000Y-115435000D01*
X143080000Y-115435000D02*
X143080000Y-113635000D01*
X144580000Y-114385000D02*
X147530000Y-114385000D01*
X147530000Y-114385000D02*
X147530000Y-117435000D01*
X142330000Y-113635000D02*
X142330000Y-115435000D01*
X143080000Y-113635000D02*
X142330000Y-113635000D01*
X144580000Y-113635000D02*
X144580000Y-114385000D01*
X142320000Y-113625000D02*
X142320000Y-121245000D01*
X148290000Y-113625000D02*
X142320000Y-113625000D01*
G04 #@! TO.C,R11*
X133110900Y-100875200D02*
X133110900Y-101825200D01*
X134030900Y-101825200D02*
X132190900Y-101825200D01*
X132190900Y-101825200D02*
X132190900Y-105665200D01*
X134030900Y-105665200D02*
X134030900Y-101825200D01*
X132190900Y-105665200D02*
X134030900Y-105665200D01*
X133110900Y-106615200D02*
X133110900Y-105665200D01*
G04 #@! TO.C,U2*
X151705000Y-70365000D02*
X151705000Y-90925000D01*
X151705000Y-90925000D02*
X161985000Y-90925000D01*
X154195000Y-70425000D02*
X154195000Y-90865000D01*
X154195000Y-90865000D02*
X159495000Y-90865000D01*
X155845000Y-70425000D02*
X154195000Y-70425000D01*
X159495000Y-70425000D02*
X157845000Y-70425000D01*
X159495000Y-90865000D02*
X159495000Y-70425000D01*
X161985000Y-70365000D02*
X151705000Y-70365000D01*
X161985000Y-90925000D02*
X161985000Y-70365000D01*
X155845000Y-70425000D02*
G75*
G03*
X157845000Y-70425000I1000000J0D01*
G01*
G04 #@! TO.C,R13*
X168910000Y-131775000D02*
X168910000Y-130825000D01*
X167990000Y-130825000D02*
X169830000Y-130825000D01*
X169830000Y-130825000D02*
X169830000Y-126985000D01*
X167990000Y-126985000D02*
X167990000Y-130825000D01*
X169830000Y-126985000D02*
X167990000Y-126985000D01*
X168910000Y-126035000D02*
X168910000Y-126985000D01*
G04 #@! TO.C,R2*
X183210000Y-75785000D02*
X182260000Y-75785000D01*
X182260000Y-76705000D02*
X182260000Y-74865000D01*
X182260000Y-74865000D02*
X178420000Y-74865000D01*
X178420000Y-76705000D02*
X182260000Y-76705000D01*
X178420000Y-74865000D02*
X178420000Y-76705000D01*
X177470000Y-75785000D02*
X178420000Y-75785000D01*
G04 #@! TO.C,R1*
X177470000Y-71975000D02*
X178420000Y-71975000D01*
X178420000Y-71055000D02*
X178420000Y-72895000D01*
X178420000Y-72895000D02*
X182260000Y-72895000D01*
X182260000Y-71055000D02*
X178420000Y-71055000D01*
X182260000Y-72895000D02*
X182260000Y-71055000D01*
X183210000Y-71975000D02*
X182260000Y-71975000D01*
G04 #@! TO.C,R23*
X130810000Y-114585000D02*
X130810000Y-115535000D01*
X131730000Y-115535000D02*
X129890000Y-115535000D01*
X129890000Y-115535000D02*
X129890000Y-119375000D01*
X131730000Y-119375000D02*
X131730000Y-115535000D01*
X129890000Y-119375000D02*
X131730000Y-119375000D01*
X130810000Y-120325000D02*
X130810000Y-119375000D01*
G04 #@! TO.C,R18*
X178435000Y-114585000D02*
X178435000Y-115535000D01*
X179355000Y-115535000D02*
X177515000Y-115535000D01*
X177515000Y-115535000D02*
X177515000Y-119375000D01*
X179355000Y-119375000D02*
X179355000Y-115535000D01*
X177515000Y-119375000D02*
X179355000Y-119375000D01*
X178435000Y-120325000D02*
X178435000Y-119375000D01*
G04 #@! TO.C,C2*
X178720000Y-83171000D02*
X178720000Y-84429000D01*
X176880000Y-83171000D02*
X176880000Y-84429000D01*
G04 #@! TO.C,R16*
X140335000Y-131775000D02*
X140335000Y-130825000D01*
X139415000Y-130825000D02*
X141255000Y-130825000D01*
X141255000Y-130825000D02*
X141255000Y-126985000D01*
X139415000Y-126985000D02*
X139415000Y-130825000D01*
X141255000Y-126985000D02*
X139415000Y-126985000D01*
X140335000Y-126035000D02*
X140335000Y-126985000D01*
G04 #@! TO.C,J1*
X162290000Y-93135000D02*
X162290000Y-94385000D01*
X162580000Y-93425000D02*
X162580000Y-99395000D01*
X162580000Y-99395000D02*
X170200000Y-99395000D01*
X162590000Y-93435000D02*
X162590000Y-94185000D01*
X162590000Y-94185000D02*
X164390000Y-94185000D01*
X162590000Y-95685000D02*
X163340000Y-95685000D01*
X163340000Y-95685000D02*
X163340000Y-97025000D01*
X163540000Y-93135000D02*
X162290000Y-93135000D01*
X164390000Y-93435000D02*
X162590000Y-93435000D01*
X164390000Y-94185000D02*
X164390000Y-93435000D01*
X165890000Y-93435000D02*
X165890000Y-94185000D01*
X165890000Y-94185000D02*
X166890000Y-94185000D01*
X166390000Y-98635000D02*
X164400000Y-98635000D01*
X166890000Y-93435000D02*
X165890000Y-93435000D01*
X166890000Y-94185000D02*
X166890000Y-93435000D01*
X168390000Y-93435000D02*
X168390000Y-94185000D01*
X168390000Y-94185000D02*
X170190000Y-94185000D01*
X169440000Y-95685000D02*
X169440000Y-98635000D01*
X169440000Y-98635000D02*
X166390000Y-98635000D01*
X170190000Y-93435000D02*
X168390000Y-93435000D01*
X170190000Y-94185000D02*
X170190000Y-93435000D01*
X170190000Y-95685000D02*
X169440000Y-95685000D01*
X170200000Y-93425000D02*
X162580000Y-93425000D01*
X170200000Y-99395000D02*
X170200000Y-93425000D01*
G04 #@! TO.C,D13*
X180130000Y-110125000D02*
X181380000Y-110125000D01*
X180420000Y-109835000D02*
X186390000Y-109835000D01*
X186390000Y-109835000D02*
X186390000Y-102215000D01*
X180430000Y-109825000D02*
X181180000Y-109825000D01*
X181180000Y-109825000D02*
X181180000Y-108025000D01*
X182680000Y-109825000D02*
X182680000Y-109075000D01*
X182680000Y-109075000D02*
X185630000Y-109075000D01*
X185630000Y-109075000D02*
X185630000Y-106025000D01*
X180130000Y-108875000D02*
X180130000Y-110125000D01*
X180430000Y-108025000D02*
X180430000Y-109825000D01*
X181180000Y-108025000D02*
X180430000Y-108025000D01*
X180430000Y-106525000D02*
X181180000Y-106525000D01*
X181180000Y-106525000D02*
X181180000Y-105525000D01*
X180430000Y-105525000D02*
X180430000Y-106525000D01*
X181180000Y-105525000D02*
X180430000Y-105525000D01*
X180430000Y-104025000D02*
X181180000Y-104025000D01*
X181180000Y-104025000D02*
X181180000Y-102225000D01*
X182680000Y-102975000D02*
X185630000Y-102975000D01*
X185630000Y-102975000D02*
X185630000Y-106025000D01*
X180430000Y-102225000D02*
X180430000Y-104025000D01*
X181180000Y-102225000D02*
X180430000Y-102225000D01*
X182680000Y-102225000D02*
X182680000Y-102975000D01*
X180420000Y-102215000D02*
X180420000Y-109835000D01*
X186390000Y-102215000D02*
X180420000Y-102215000D01*
G04 #@! TO.C,C1*
X181960000Y-84429000D02*
X181960000Y-83171000D01*
X183800000Y-84429000D02*
X183800000Y-83171000D01*
G04 #@! TO.C,U3*
X163770000Y-70365000D02*
X163770000Y-90925000D01*
X163770000Y-90925000D02*
X174050000Y-90925000D01*
X166260000Y-70425000D02*
X166260000Y-90865000D01*
X166260000Y-90865000D02*
X171560000Y-90865000D01*
X167910000Y-70425000D02*
X166260000Y-70425000D01*
X171560000Y-70425000D02*
X169910000Y-70425000D01*
X171560000Y-90865000D02*
X171560000Y-70425000D01*
X174050000Y-70365000D02*
X163770000Y-70365000D01*
X174050000Y-90925000D02*
X174050000Y-70365000D01*
X167910000Y-70425000D02*
G75*
G03*
X169910000Y-70425000I1000000J0D01*
G01*
G04 #@! TO.C,D8*
X170605000Y-121535000D02*
X171855000Y-121535000D01*
X170895000Y-121245000D02*
X176865000Y-121245000D01*
X176865000Y-121245000D02*
X176865000Y-113625000D01*
X170905000Y-121235000D02*
X171655000Y-121235000D01*
X171655000Y-121235000D02*
X171655000Y-119435000D01*
X173155000Y-121235000D02*
X173155000Y-120485000D01*
X173155000Y-120485000D02*
X176105000Y-120485000D01*
X176105000Y-120485000D02*
X176105000Y-117435000D01*
X170605000Y-120285000D02*
X170605000Y-121535000D01*
X170905000Y-119435000D02*
X170905000Y-121235000D01*
X171655000Y-119435000D02*
X170905000Y-119435000D01*
X170905000Y-117935000D02*
X171655000Y-117935000D01*
X171655000Y-117935000D02*
X171655000Y-116935000D01*
X170905000Y-116935000D02*
X170905000Y-117935000D01*
X171655000Y-116935000D02*
X170905000Y-116935000D01*
X170905000Y-115435000D02*
X171655000Y-115435000D01*
X171655000Y-115435000D02*
X171655000Y-113635000D01*
X173155000Y-114385000D02*
X176105000Y-114385000D01*
X176105000Y-114385000D02*
X176105000Y-117435000D01*
X170905000Y-113635000D02*
X170905000Y-115435000D01*
X171655000Y-113635000D02*
X170905000Y-113635000D01*
X173155000Y-113635000D02*
X173155000Y-114385000D01*
X170895000Y-113625000D02*
X170895000Y-121245000D01*
X176865000Y-113625000D02*
X170895000Y-113625000D01*
G04 #@! TO.C,D5*
X142030000Y-132995000D02*
X143280000Y-132995000D01*
X142320000Y-132705000D02*
X148290000Y-132705000D01*
X148290000Y-132705000D02*
X148290000Y-125085000D01*
X142330000Y-132695000D02*
X143080000Y-132695000D01*
X143080000Y-132695000D02*
X143080000Y-130895000D01*
X144580000Y-132695000D02*
X144580000Y-131945000D01*
X144580000Y-131945000D02*
X147530000Y-131945000D01*
X147530000Y-131945000D02*
X147530000Y-128895000D01*
X142030000Y-131745000D02*
X142030000Y-132995000D01*
X142330000Y-130895000D02*
X142330000Y-132695000D01*
X143080000Y-130895000D02*
X142330000Y-130895000D01*
X142330000Y-129395000D02*
X143080000Y-129395000D01*
X143080000Y-129395000D02*
X143080000Y-128395000D01*
X142330000Y-128395000D02*
X142330000Y-129395000D01*
X143080000Y-128395000D02*
X142330000Y-128395000D01*
X142330000Y-126895000D02*
X143080000Y-126895000D01*
X143080000Y-126895000D02*
X143080000Y-125095000D01*
X144580000Y-125845000D02*
X147530000Y-125845000D01*
X147530000Y-125845000D02*
X147530000Y-128895000D01*
X142330000Y-125095000D02*
X142330000Y-126895000D01*
X143080000Y-125095000D02*
X142330000Y-125095000D01*
X144580000Y-125095000D02*
X144580000Y-125845000D01*
X142320000Y-125085000D02*
X142320000Y-132705000D01*
X148290000Y-125085000D02*
X142320000Y-125085000D01*
G04 #@! TO.C,D4*
X151665000Y-133025000D02*
X152915000Y-133025000D01*
X151955000Y-132735000D02*
X157925000Y-132735000D01*
X157925000Y-132735000D02*
X157925000Y-125115000D01*
X151965000Y-132725000D02*
X152715000Y-132725000D01*
X152715000Y-132725000D02*
X152715000Y-130925000D01*
X154215000Y-132725000D02*
X154215000Y-131975000D01*
X154215000Y-131975000D02*
X157165000Y-131975000D01*
X157165000Y-131975000D02*
X157165000Y-128925000D01*
X151665000Y-131775000D02*
X151665000Y-133025000D01*
X151965000Y-130925000D02*
X151965000Y-132725000D01*
X152715000Y-130925000D02*
X151965000Y-130925000D01*
X151965000Y-129425000D02*
X152715000Y-129425000D01*
X152715000Y-129425000D02*
X152715000Y-128425000D01*
X151965000Y-128425000D02*
X151965000Y-129425000D01*
X152715000Y-128425000D02*
X151965000Y-128425000D01*
X151965000Y-126925000D02*
X152715000Y-126925000D01*
X152715000Y-126925000D02*
X152715000Y-125125000D01*
X154215000Y-125875000D02*
X157165000Y-125875000D01*
X157165000Y-125875000D02*
X157165000Y-128925000D01*
X151965000Y-125125000D02*
X151965000Y-126925000D01*
X152715000Y-125125000D02*
X151965000Y-125125000D01*
X154215000Y-125125000D02*
X154215000Y-125875000D01*
X151955000Y-125115000D02*
X151955000Y-132735000D01*
X157925000Y-125115000D02*
X151955000Y-125115000D01*
G04 #@! TO.C,R3*
X185420000Y-98120000D02*
X185420000Y-97170000D01*
X184500000Y-97170000D02*
X186340000Y-97170000D01*
X186340000Y-97170000D02*
X186340000Y-93330000D01*
X184500000Y-93330000D02*
X184500000Y-97170000D01*
X186340000Y-93330000D02*
X184500000Y-93330000D01*
X185420000Y-92380000D02*
X185420000Y-93330000D01*
G04 #@! TO.C,D2*
X170605000Y-133005000D02*
X171855000Y-133005000D01*
X170895000Y-132715000D02*
X176865000Y-132715000D01*
X176865000Y-132715000D02*
X176865000Y-125095000D01*
X170905000Y-132705000D02*
X171655000Y-132705000D01*
X171655000Y-132705000D02*
X171655000Y-130905000D01*
X173155000Y-132705000D02*
X173155000Y-131955000D01*
X173155000Y-131955000D02*
X176105000Y-131955000D01*
X176105000Y-131955000D02*
X176105000Y-128905000D01*
X170605000Y-131755000D02*
X170605000Y-133005000D01*
X170905000Y-130905000D02*
X170905000Y-132705000D01*
X171655000Y-130905000D02*
X170905000Y-130905000D01*
X170905000Y-129405000D02*
X171655000Y-129405000D01*
X171655000Y-129405000D02*
X171655000Y-128405000D01*
X170905000Y-128405000D02*
X170905000Y-129405000D01*
X171655000Y-128405000D02*
X170905000Y-128405000D01*
X170905000Y-126905000D02*
X171655000Y-126905000D01*
X171655000Y-126905000D02*
X171655000Y-125105000D01*
X173155000Y-125855000D02*
X176105000Y-125855000D01*
X176105000Y-125855000D02*
X176105000Y-128905000D01*
X170905000Y-125105000D02*
X170905000Y-126905000D01*
X171655000Y-125105000D02*
X170905000Y-125105000D01*
X173155000Y-125105000D02*
X173155000Y-125855000D01*
X170895000Y-125095000D02*
X170895000Y-132715000D01*
X176865000Y-125095000D02*
X170895000Y-125095000D01*
G04 #@! TO.C,D15*
X161080000Y-110125000D02*
X162330000Y-110125000D01*
X161370000Y-109835000D02*
X167340000Y-109835000D01*
X167340000Y-109835000D02*
X167340000Y-102215000D01*
X161380000Y-109825000D02*
X162130000Y-109825000D01*
X162130000Y-109825000D02*
X162130000Y-108025000D01*
X163630000Y-109825000D02*
X163630000Y-109075000D01*
X163630000Y-109075000D02*
X166580000Y-109075000D01*
X166580000Y-109075000D02*
X166580000Y-106025000D01*
X161080000Y-108875000D02*
X161080000Y-110125000D01*
X161380000Y-108025000D02*
X161380000Y-109825000D01*
X162130000Y-108025000D02*
X161380000Y-108025000D01*
X161380000Y-106525000D02*
X162130000Y-106525000D01*
X162130000Y-106525000D02*
X162130000Y-105525000D01*
X161380000Y-105525000D02*
X161380000Y-106525000D01*
X162130000Y-105525000D02*
X161380000Y-105525000D01*
X161380000Y-104025000D02*
X162130000Y-104025000D01*
X162130000Y-104025000D02*
X162130000Y-102225000D01*
X163630000Y-102975000D02*
X166580000Y-102975000D01*
X166580000Y-102975000D02*
X166580000Y-106025000D01*
X161380000Y-102225000D02*
X161380000Y-104025000D01*
X162130000Y-102225000D02*
X161380000Y-102225000D01*
X163630000Y-102225000D02*
X163630000Y-102975000D01*
X161370000Y-102215000D02*
X161370000Y-109835000D01*
X167340000Y-102215000D02*
X161370000Y-102215000D01*
G04 #@! TO.C,R15*
X149860000Y-131775000D02*
X149860000Y-130825000D01*
X148940000Y-130825000D02*
X150780000Y-130825000D01*
X150780000Y-130825000D02*
X150780000Y-126985000D01*
X148940000Y-126985000D02*
X148940000Y-130825000D01*
X150780000Y-126985000D02*
X148940000Y-126985000D01*
X149860000Y-126035000D02*
X149860000Y-126985000D01*
G04 #@! TO.C,R20*
X159385000Y-120325000D02*
X159385000Y-119375000D01*
X158465000Y-119375000D02*
X160305000Y-119375000D01*
X160305000Y-119375000D02*
X160305000Y-115535000D01*
X158465000Y-115535000D02*
X158465000Y-119375000D01*
X160305000Y-115535000D02*
X158465000Y-115535000D01*
X159385000Y-114585000D02*
X159385000Y-115535000D01*
G04 #@! TO.C,U1*
X139450000Y-72900000D02*
X139450000Y-89660000D01*
X139450000Y-89660000D02*
X150110000Y-89660000D01*
X150110000Y-72900000D02*
X139460000Y-72900000D01*
X150110000Y-89660000D02*
X150110000Y-72900000D01*
G04 #@! TO.C,D9*
X161080000Y-121535000D02*
X162330000Y-121535000D01*
X161370000Y-121245000D02*
X167340000Y-121245000D01*
X167340000Y-121245000D02*
X167340000Y-113625000D01*
X161380000Y-121235000D02*
X162130000Y-121235000D01*
X162130000Y-121235000D02*
X162130000Y-119435000D01*
X163630000Y-121235000D02*
X163630000Y-120485000D01*
X163630000Y-120485000D02*
X166580000Y-120485000D01*
X166580000Y-120485000D02*
X166580000Y-117435000D01*
X161080000Y-120285000D02*
X161080000Y-121535000D01*
X161380000Y-119435000D02*
X161380000Y-121235000D01*
X162130000Y-119435000D02*
X161380000Y-119435000D01*
X161380000Y-117935000D02*
X162130000Y-117935000D01*
X162130000Y-117935000D02*
X162130000Y-116935000D01*
X161380000Y-116935000D02*
X161380000Y-117935000D01*
X162130000Y-116935000D02*
X161380000Y-116935000D01*
X161380000Y-115435000D02*
X162130000Y-115435000D01*
X162130000Y-115435000D02*
X162130000Y-113635000D01*
X163630000Y-114385000D02*
X166580000Y-114385000D01*
X166580000Y-114385000D02*
X166580000Y-117435000D01*
X161380000Y-113635000D02*
X161380000Y-115435000D01*
X162130000Y-113635000D02*
X161380000Y-113635000D01*
X163630000Y-113635000D02*
X163630000Y-114385000D01*
X161370000Y-113625000D02*
X161370000Y-121245000D01*
X167340000Y-113625000D02*
X161370000Y-113625000D01*
G04 #@! TO.C,R24*
X178435000Y-103135000D02*
X178435000Y-104085000D01*
X179355000Y-104085000D02*
X177515000Y-104085000D01*
X177515000Y-104085000D02*
X177515000Y-107925000D01*
X179355000Y-107925000D02*
X179355000Y-104085000D01*
X177515000Y-107925000D02*
X179355000Y-107925000D01*
X178435000Y-108875000D02*
X178435000Y-107925000D01*
G04 #@! TO.C,U5*
X108144700Y-123846000D02*
X128704700Y-123846000D01*
X128704700Y-123846000D02*
X128704700Y-113566000D01*
X108204700Y-121356000D02*
X128644700Y-121356000D01*
X128644700Y-121356000D02*
X128644700Y-116056000D01*
X108204700Y-119706000D02*
X108204700Y-121356000D01*
X108204700Y-116056000D02*
X108204700Y-117706000D01*
X128644700Y-116056000D02*
X108204700Y-116056000D01*
X108144700Y-113566000D02*
X108144700Y-123846000D01*
X128704700Y-113566000D02*
X108144700Y-113566000D01*
X108204700Y-119706000D02*
G75*
G03*
X108204700Y-117706000I0J1000000D01*
G01*
G04 #@! TO.C,R21*
X149860000Y-120325000D02*
X149860000Y-119375000D01*
X148940000Y-119375000D02*
X150780000Y-119375000D01*
X150780000Y-119375000D02*
X150780000Y-115535000D01*
X148940000Y-115535000D02*
X148940000Y-119375000D01*
X150780000Y-115535000D02*
X148940000Y-115535000D01*
X149860000Y-114585000D02*
X149860000Y-115535000D01*
G04 #@! TO.C,SW5*
X121710000Y-132985000D02*
X122960000Y-132985000D01*
X122000000Y-132695000D02*
X127970000Y-132695000D01*
X127970000Y-132695000D02*
X127970000Y-125075000D01*
X122010000Y-132685000D02*
X122760000Y-132685000D01*
X122760000Y-132685000D02*
X122760000Y-130885000D01*
X124260000Y-132685000D02*
X124260000Y-131935000D01*
X124260000Y-131935000D02*
X127210000Y-131935000D01*
X127210000Y-131935000D02*
X127210000Y-128885000D01*
X121710000Y-131735000D02*
X121710000Y-132985000D01*
X122010000Y-130885000D02*
X122010000Y-132685000D01*
X122760000Y-130885000D02*
X122010000Y-130885000D01*
X122010000Y-129385000D02*
X122760000Y-129385000D01*
X122760000Y-129385000D02*
X122760000Y-128385000D01*
X122010000Y-128385000D02*
X122010000Y-129385000D01*
X122760000Y-128385000D02*
X122010000Y-128385000D01*
X122010000Y-126885000D02*
X122760000Y-126885000D01*
X122760000Y-126885000D02*
X122760000Y-125085000D01*
X124260000Y-125835000D02*
X127210000Y-125835000D01*
X127210000Y-125835000D02*
X127210000Y-128885000D01*
X122010000Y-125085000D02*
X122010000Y-126885000D01*
X122760000Y-125085000D02*
X122010000Y-125085000D01*
X124260000Y-125085000D02*
X124260000Y-125835000D01*
X122000000Y-125075000D02*
X122000000Y-132695000D01*
X127970000Y-125075000D02*
X122000000Y-125075000D01*
G04 #@! TO.C,D10*
X151555000Y-121535000D02*
X152805000Y-121535000D01*
X151845000Y-121245000D02*
X157815000Y-121245000D01*
X157815000Y-121245000D02*
X157815000Y-113625000D01*
X151855000Y-121235000D02*
X152605000Y-121235000D01*
X152605000Y-121235000D02*
X152605000Y-119435000D01*
X154105000Y-121235000D02*
X154105000Y-120485000D01*
X154105000Y-120485000D02*
X157055000Y-120485000D01*
X157055000Y-120485000D02*
X157055000Y-117435000D01*
X151555000Y-120285000D02*
X151555000Y-121535000D01*
X151855000Y-119435000D02*
X151855000Y-121235000D01*
X152605000Y-119435000D02*
X151855000Y-119435000D01*
X151855000Y-117935000D02*
X152605000Y-117935000D01*
X152605000Y-117935000D02*
X152605000Y-116935000D01*
X151855000Y-116935000D02*
X151855000Y-117935000D01*
X152605000Y-116935000D02*
X151855000Y-116935000D01*
X151855000Y-115435000D02*
X152605000Y-115435000D01*
X152605000Y-115435000D02*
X152605000Y-113635000D01*
X154105000Y-114385000D02*
X157055000Y-114385000D01*
X157055000Y-114385000D02*
X157055000Y-117435000D01*
X151855000Y-113635000D02*
X151855000Y-115435000D01*
X152605000Y-113635000D02*
X151855000Y-113635000D01*
X154105000Y-113635000D02*
X154105000Y-114385000D01*
X151845000Y-113625000D02*
X151845000Y-121245000D01*
X157815000Y-113625000D02*
X151845000Y-113625000D01*
G04 #@! TO.C,R5*
X175895000Y-92380000D02*
X175895000Y-93330000D01*
X176815000Y-93330000D02*
X174975000Y-93330000D01*
X174975000Y-93330000D02*
X174975000Y-97170000D01*
X176815000Y-97170000D02*
X176815000Y-93330000D01*
X174975000Y-97170000D02*
X176815000Y-97170000D01*
X175895000Y-98120000D02*
X175895000Y-97170000D01*
G04 #@! TO.C,C6*
X137868300Y-88164200D02*
X137202300Y-88164200D01*
X137868300Y-88164200D02*
X137868300Y-93504200D01*
X135092300Y-88164200D02*
X134426300Y-88164200D01*
X134426300Y-88164200D02*
X134426300Y-93504200D01*
X137868300Y-93504200D02*
X137202300Y-93504200D01*
X135092300Y-93504200D02*
X134426300Y-93504200D01*
G04 #@! TO.C,D3*
X161080000Y-133005000D02*
X162330000Y-133005000D01*
X161370000Y-132715000D02*
X167340000Y-132715000D01*
X167340000Y-132715000D02*
X167340000Y-125095000D01*
X161380000Y-132705000D02*
X162130000Y-132705000D01*
X162130000Y-132705000D02*
X162130000Y-130905000D01*
X163630000Y-132705000D02*
X163630000Y-131955000D01*
X163630000Y-131955000D02*
X166580000Y-131955000D01*
X166580000Y-131955000D02*
X166580000Y-128905000D01*
X161080000Y-131755000D02*
X161080000Y-133005000D01*
X161380000Y-130905000D02*
X161380000Y-132705000D01*
X162130000Y-130905000D02*
X161380000Y-130905000D01*
X161380000Y-129405000D02*
X162130000Y-129405000D01*
X162130000Y-129405000D02*
X162130000Y-128405000D01*
X161380000Y-128405000D02*
X161380000Y-129405000D01*
X162130000Y-128405000D02*
X161380000Y-128405000D01*
X161380000Y-126905000D02*
X162130000Y-126905000D01*
X162130000Y-126905000D02*
X162130000Y-125105000D01*
X163630000Y-125855000D02*
X166580000Y-125855000D01*
X166580000Y-125855000D02*
X166580000Y-128905000D01*
X161380000Y-125105000D02*
X161380000Y-126905000D01*
X162130000Y-125105000D02*
X161380000Y-125105000D01*
X163630000Y-125105000D02*
X163630000Y-125855000D01*
X161370000Y-125095000D02*
X161370000Y-132715000D01*
X167340000Y-125095000D02*
X161370000Y-125095000D01*
G04 #@! TO.C,U7*
X108144700Y-112416000D02*
X128704700Y-112416000D01*
X128704700Y-112416000D02*
X128704700Y-102136000D01*
X108204700Y-109926000D02*
X128644700Y-109926000D01*
X128644700Y-109926000D02*
X128644700Y-104626000D01*
X108204700Y-108276000D02*
X108204700Y-109926000D01*
X108204700Y-104626000D02*
X108204700Y-106276000D01*
X128644700Y-104626000D02*
X108204700Y-104626000D01*
X108144700Y-102136000D02*
X108144700Y-112416000D01*
X128704700Y-102136000D02*
X108144700Y-102136000D01*
X108204700Y-108276000D02*
G75*
G03*
X108204700Y-106276000I0J1000000D01*
G01*
G04 #@! TO.C,R27*
X149860000Y-108875000D02*
X149860000Y-107925000D01*
X148940000Y-107925000D02*
X150780000Y-107925000D01*
X150780000Y-107925000D02*
X150780000Y-104085000D01*
X148940000Y-104085000D02*
X148940000Y-107925000D01*
X150780000Y-104085000D02*
X148940000Y-104085000D01*
X149860000Y-103135000D02*
X149860000Y-104085000D01*
G04 #@! TO.C,R17*
X130810000Y-131775000D02*
X130810000Y-130825000D01*
X129890000Y-130825000D02*
X131730000Y-130825000D01*
X131730000Y-130825000D02*
X131730000Y-126985000D01*
X129890000Y-126985000D02*
X129890000Y-130825000D01*
X131730000Y-126985000D02*
X129890000Y-126985000D01*
X130810000Y-126035000D02*
X130810000Y-126985000D01*
G04 #@! TO.C,R7*
X133012800Y-81683200D02*
X133012800Y-80733200D01*
X132092800Y-80733200D02*
X133932800Y-80733200D01*
X133932800Y-80733200D02*
X133932800Y-76893200D01*
X132092800Y-76893200D02*
X132092800Y-80733200D01*
X133932800Y-76893200D02*
X132092800Y-76893200D01*
X133012800Y-75943200D02*
X133012800Y-76893200D01*
G04 #@! TO.C,C7*
X135450900Y-106415200D02*
X134784900Y-106415200D01*
X138226900Y-106415200D02*
X137560900Y-106415200D01*
X134784900Y-101075200D02*
X134784900Y-106415200D01*
X135450900Y-101075200D02*
X134784900Y-101075200D01*
X138226900Y-101075200D02*
X138226900Y-106415200D01*
X138226900Y-101075200D02*
X137560900Y-101075200D01*
G04 #@! TO.C,U11*
X93295000Y-71630000D02*
X93295000Y-89650000D01*
X93295000Y-89650000D02*
X103575000Y-89650000D01*
X95785000Y-71690000D02*
X95785000Y-89590000D01*
X95785000Y-89590000D02*
X101085000Y-89590000D01*
X97435000Y-71690000D02*
X95785000Y-71690000D01*
X101085000Y-71690000D02*
X99435000Y-71690000D01*
X101085000Y-89590000D02*
X101085000Y-71690000D01*
X103575000Y-71630000D02*
X93295000Y-71630000D01*
X103575000Y-89650000D02*
X103575000Y-71630000D01*
X97435000Y-71690000D02*
G75*
G03*
X99435000Y-71690000I1000000J0D01*
G01*
G04 #@! TO.C,R22*
X140335000Y-120325000D02*
X140335000Y-119375000D01*
X139415000Y-119375000D02*
X141255000Y-119375000D01*
X141255000Y-119375000D02*
X141255000Y-115535000D01*
X139415000Y-115535000D02*
X139415000Y-119375000D01*
X141255000Y-115535000D02*
X139415000Y-115535000D01*
X140335000Y-114585000D02*
X140335000Y-115535000D01*
G04 #@! TO.C,U4*
X116155000Y-71635000D02*
X116155000Y-89655000D01*
X116155000Y-89655000D02*
X126435000Y-89655000D01*
X118645000Y-71695000D02*
X118645000Y-89595000D01*
X118645000Y-89595000D02*
X123945000Y-89595000D01*
X120295000Y-71695000D02*
X118645000Y-71695000D01*
X123945000Y-71695000D02*
X122295000Y-71695000D01*
X123945000Y-89595000D02*
X123945000Y-71695000D01*
X126435000Y-71635000D02*
X116155000Y-71635000D01*
X126435000Y-89655000D02*
X126435000Y-71635000D01*
X120295000Y-71695000D02*
G75*
G03*
X122295000Y-71695000I1000000J0D01*
G01*
G04 #@! TO.C,C3*
X177984000Y-99190000D02*
X178650000Y-99190000D01*
X177984000Y-99190000D02*
X177984000Y-93850000D01*
X180760000Y-99190000D02*
X181426000Y-99190000D01*
X181426000Y-99190000D02*
X181426000Y-93850000D01*
X177984000Y-93850000D02*
X178650000Y-93850000D01*
X180760000Y-93850000D02*
X181426000Y-93850000D01*
G04 #@! TO.C,R26*
X159385000Y-108875000D02*
X159385000Y-107925000D01*
X158465000Y-107925000D02*
X160305000Y-107925000D01*
X160305000Y-107925000D02*
X160305000Y-104085000D01*
X158465000Y-104085000D02*
X158465000Y-107925000D01*
X160305000Y-104085000D02*
X158465000Y-104085000D01*
X159385000Y-103135000D02*
X159385000Y-104085000D01*
G04 #@! TO.C,D14*
X170605000Y-110125000D02*
X171855000Y-110125000D01*
X170895000Y-109835000D02*
X176865000Y-109835000D01*
X176865000Y-109835000D02*
X176865000Y-102215000D01*
X170905000Y-109825000D02*
X171655000Y-109825000D01*
X171655000Y-109825000D02*
X171655000Y-108025000D01*
X173155000Y-109825000D02*
X173155000Y-109075000D01*
X173155000Y-109075000D02*
X176105000Y-109075000D01*
X176105000Y-109075000D02*
X176105000Y-106025000D01*
X170605000Y-108875000D02*
X170605000Y-110125000D01*
X170905000Y-108025000D02*
X170905000Y-109825000D01*
X171655000Y-108025000D02*
X170905000Y-108025000D01*
X170905000Y-106525000D02*
X171655000Y-106525000D01*
X171655000Y-106525000D02*
X171655000Y-105525000D01*
X170905000Y-105525000D02*
X170905000Y-106525000D01*
X171655000Y-105525000D02*
X170905000Y-105525000D01*
X170905000Y-104025000D02*
X171655000Y-104025000D01*
X171655000Y-104025000D02*
X171655000Y-102225000D01*
X173155000Y-102975000D02*
X176105000Y-102975000D01*
X176105000Y-102975000D02*
X176105000Y-106025000D01*
X170905000Y-102225000D02*
X170905000Y-104025000D01*
X171655000Y-102225000D02*
X170905000Y-102225000D01*
X173155000Y-102225000D02*
X173155000Y-102975000D01*
X170895000Y-102215000D02*
X170895000Y-109835000D01*
X176865000Y-102215000D02*
X170895000Y-102215000D01*
G04 #@! TO.C,R14*
X159385000Y-131775000D02*
X159385000Y-130825000D01*
X158465000Y-130825000D02*
X160305000Y-130825000D01*
X160305000Y-130825000D02*
X160305000Y-126985000D01*
X158465000Y-126985000D02*
X158465000Y-130825000D01*
X160305000Y-126985000D02*
X158465000Y-126985000D01*
X159385000Y-126035000D02*
X159385000Y-126985000D01*
G04 #@! TO.C,U6*
X93305000Y-112905000D02*
X93305000Y-130925000D01*
X93305000Y-130925000D02*
X103585000Y-130925000D01*
X95795000Y-112965000D02*
X95795000Y-130865000D01*
X95795000Y-130865000D02*
X101095000Y-130865000D01*
X97445000Y-112965000D02*
X95795000Y-112965000D01*
X101095000Y-112965000D02*
X99445000Y-112965000D01*
X101095000Y-130865000D02*
X101095000Y-112965000D01*
X103585000Y-112905000D02*
X93305000Y-112905000D01*
X103585000Y-130925000D02*
X103585000Y-112905000D01*
X97445000Y-112965000D02*
G75*
G03*
X99445000Y-112965000I1000000J0D01*
G01*
G04 #@! TO.C,D12*
X132615000Y-121565000D02*
X133865000Y-121565000D01*
X132905000Y-121275000D02*
X138875000Y-121275000D01*
X138875000Y-121275000D02*
X138875000Y-113655000D01*
X132915000Y-121265000D02*
X133665000Y-121265000D01*
X133665000Y-121265000D02*
X133665000Y-119465000D01*
X135165000Y-121265000D02*
X135165000Y-120515000D01*
X135165000Y-120515000D02*
X138115000Y-120515000D01*
X138115000Y-120515000D02*
X138115000Y-117465000D01*
X132615000Y-120315000D02*
X132615000Y-121565000D01*
X132915000Y-119465000D02*
X132915000Y-121265000D01*
X133665000Y-119465000D02*
X132915000Y-119465000D01*
X132915000Y-117965000D02*
X133665000Y-117965000D01*
X133665000Y-117965000D02*
X133665000Y-116965000D01*
X132915000Y-116965000D02*
X132915000Y-117965000D01*
X133665000Y-116965000D02*
X132915000Y-116965000D01*
X132915000Y-115465000D02*
X133665000Y-115465000D01*
X133665000Y-115465000D02*
X133665000Y-113665000D01*
X135165000Y-114415000D02*
X138115000Y-114415000D01*
X138115000Y-114415000D02*
X138115000Y-117465000D01*
X132915000Y-113665000D02*
X132915000Y-115465000D01*
X133665000Y-113665000D02*
X132915000Y-113665000D01*
X135165000Y-113665000D02*
X135165000Y-114415000D01*
X132905000Y-113655000D02*
X132905000Y-121275000D01*
X138875000Y-113655000D02*
X132905000Y-113655000D01*
G04 #@! TO.C,U8*
X108144700Y-100986000D02*
X128704700Y-100986000D01*
X128704700Y-100986000D02*
X128704700Y-90706000D01*
X108204700Y-98496000D02*
X128644700Y-98496000D01*
X128644700Y-98496000D02*
X128644700Y-93196000D01*
X108204700Y-96846000D02*
X108204700Y-98496000D01*
X108204700Y-93196000D02*
X108204700Y-94846000D01*
X128644700Y-93196000D02*
X108204700Y-93196000D01*
X108144700Y-90706000D02*
X108144700Y-100986000D01*
X128704700Y-90706000D02*
X108144700Y-90706000D01*
X108204700Y-96846000D02*
G75*
G03*
X108204700Y-94846000I0J1000000D01*
G01*
G04 #@! TO.C,D16*
X151555000Y-110125000D02*
X152805000Y-110125000D01*
X151845000Y-109835000D02*
X157815000Y-109835000D01*
X157815000Y-109835000D02*
X157815000Y-102215000D01*
X151855000Y-109825000D02*
X152605000Y-109825000D01*
X152605000Y-109825000D02*
X152605000Y-108025000D01*
X154105000Y-109825000D02*
X154105000Y-109075000D01*
X154105000Y-109075000D02*
X157055000Y-109075000D01*
X157055000Y-109075000D02*
X157055000Y-106025000D01*
X151555000Y-108875000D02*
X151555000Y-110125000D01*
X151855000Y-108025000D02*
X151855000Y-109825000D01*
X152605000Y-108025000D02*
X151855000Y-108025000D01*
X151855000Y-106525000D02*
X152605000Y-106525000D01*
X152605000Y-106525000D02*
X152605000Y-105525000D01*
X151855000Y-105525000D02*
X151855000Y-106525000D01*
X152605000Y-105525000D02*
X151855000Y-105525000D01*
X151855000Y-104025000D02*
X152605000Y-104025000D01*
X152605000Y-104025000D02*
X152605000Y-102225000D01*
X154105000Y-102975000D02*
X157055000Y-102975000D01*
X157055000Y-102975000D02*
X157055000Y-106025000D01*
X151855000Y-102225000D02*
X151855000Y-104025000D01*
X152605000Y-102225000D02*
X151855000Y-102225000D01*
X154105000Y-102225000D02*
X154105000Y-102975000D01*
X151845000Y-102215000D02*
X151845000Y-109835000D01*
X157815000Y-102215000D02*
X151845000Y-102215000D01*
G04 #@! TO.C,SW3*
X105835000Y-132985000D02*
X107085000Y-132985000D01*
X106125000Y-132695000D02*
X112095000Y-132695000D01*
X112095000Y-132695000D02*
X112095000Y-125075000D01*
X106135000Y-132685000D02*
X106885000Y-132685000D01*
X106885000Y-132685000D02*
X106885000Y-130885000D01*
X108385000Y-132685000D02*
X108385000Y-131935000D01*
X108385000Y-131935000D02*
X111335000Y-131935000D01*
X111335000Y-131935000D02*
X111335000Y-128885000D01*
X105835000Y-131735000D02*
X105835000Y-132985000D01*
X106135000Y-130885000D02*
X106135000Y-132685000D01*
X106885000Y-130885000D02*
X106135000Y-130885000D01*
X106135000Y-129385000D02*
X106885000Y-129385000D01*
X106885000Y-129385000D02*
X106885000Y-128385000D01*
X106135000Y-128385000D02*
X106135000Y-129385000D01*
X106885000Y-128385000D02*
X106135000Y-128385000D01*
X106135000Y-126885000D02*
X106885000Y-126885000D01*
X106885000Y-126885000D02*
X106885000Y-125085000D01*
X108385000Y-125835000D02*
X111335000Y-125835000D01*
X111335000Y-125835000D02*
X111335000Y-128885000D01*
X106135000Y-125085000D02*
X106135000Y-126885000D01*
X106885000Y-125085000D02*
X106135000Y-125085000D01*
X108385000Y-125085000D02*
X108385000Y-125835000D01*
X106125000Y-125075000D02*
X106125000Y-132695000D01*
X112095000Y-125075000D02*
X106125000Y-125075000D01*
G04 #@! TO.C,D7*
X180130000Y-121555000D02*
X181380000Y-121555000D01*
X180420000Y-121265000D02*
X186390000Y-121265000D01*
X186390000Y-121265000D02*
X186390000Y-113645000D01*
X180430000Y-121255000D02*
X181180000Y-121255000D01*
X181180000Y-121255000D02*
X181180000Y-119455000D01*
X182680000Y-121255000D02*
X182680000Y-120505000D01*
X182680000Y-120505000D02*
X185630000Y-120505000D01*
X185630000Y-120505000D02*
X185630000Y-117455000D01*
X180130000Y-120305000D02*
X180130000Y-121555000D01*
X180430000Y-119455000D02*
X180430000Y-121255000D01*
X181180000Y-119455000D02*
X180430000Y-119455000D01*
X180430000Y-117955000D02*
X181180000Y-117955000D01*
X181180000Y-117955000D02*
X181180000Y-116955000D01*
X180430000Y-116955000D02*
X180430000Y-117955000D01*
X181180000Y-116955000D02*
X180430000Y-116955000D01*
X180430000Y-115455000D02*
X181180000Y-115455000D01*
X181180000Y-115455000D02*
X181180000Y-113655000D01*
X182680000Y-114405000D02*
X185630000Y-114405000D01*
X185630000Y-114405000D02*
X185630000Y-117455000D01*
X180430000Y-113655000D02*
X180430000Y-115455000D01*
X181180000Y-113655000D02*
X180430000Y-113655000D01*
X182680000Y-113655000D02*
X182680000Y-114405000D01*
X180420000Y-113645000D02*
X180420000Y-121265000D01*
X186390000Y-113645000D02*
X180420000Y-113645000D01*
G04 #@! TO.C,R25*
X168910000Y-108875000D02*
X168910000Y-107925000D01*
X167990000Y-107925000D02*
X169830000Y-107925000D01*
X169830000Y-107925000D02*
X169830000Y-104085000D01*
X167990000Y-104085000D02*
X167990000Y-107925000D01*
X169830000Y-104085000D02*
X167990000Y-104085000D01*
X168910000Y-103135000D02*
X168910000Y-104085000D01*
G04 #@! TO.C,SW1*
X149630000Y-93135000D02*
X149630000Y-94385000D01*
X149920000Y-93425000D02*
X149920000Y-99395000D01*
X149920000Y-99395000D02*
X160040000Y-99395000D01*
X149930000Y-93435000D02*
X149930000Y-94185000D01*
X149930000Y-94185000D02*
X151730000Y-94185000D01*
X149930000Y-95685000D02*
X150680000Y-95685000D01*
X150680000Y-95685000D02*
X150680000Y-98635000D01*
X150680000Y-98635000D02*
X154980000Y-98635000D01*
X150880000Y-93135000D02*
X149630000Y-93135000D01*
X151730000Y-93435000D02*
X149930000Y-93435000D01*
X151730000Y-94185000D02*
X151730000Y-93435000D01*
X153230000Y-93435000D02*
X153230000Y-94185000D01*
X153230000Y-94185000D02*
X156730000Y-94185000D01*
X156730000Y-93435000D02*
X153230000Y-93435000D01*
X156730000Y-94185000D02*
X156730000Y-93435000D01*
X158230000Y-93435000D02*
X158230000Y-94185000D01*
X158230000Y-94185000D02*
X160030000Y-94185000D01*
X159280000Y-95685000D02*
X159280000Y-98635000D01*
X159280000Y-98635000D02*
X154980000Y-98635000D01*
X160030000Y-93435000D02*
X158230000Y-93435000D01*
X160030000Y-94185000D02*
X160030000Y-93435000D01*
X160030000Y-95685000D02*
X159280000Y-95685000D01*
X160040000Y-93425000D02*
X149920000Y-93425000D01*
X160040000Y-99395000D02*
X160040000Y-93425000D01*
G04 #@! TO.C,D17*
X142030000Y-110125000D02*
X143280000Y-110125000D01*
X142320000Y-109835000D02*
X148290000Y-109835000D01*
X148290000Y-109835000D02*
X148290000Y-102215000D01*
X142330000Y-109825000D02*
X143080000Y-109825000D01*
X143080000Y-109825000D02*
X143080000Y-108025000D01*
X144580000Y-109825000D02*
X144580000Y-109075000D01*
X144580000Y-109075000D02*
X147530000Y-109075000D01*
X147530000Y-109075000D02*
X147530000Y-106025000D01*
X142030000Y-108875000D02*
X142030000Y-110125000D01*
X142330000Y-108025000D02*
X142330000Y-109825000D01*
X143080000Y-108025000D02*
X142330000Y-108025000D01*
X142330000Y-106525000D02*
X143080000Y-106525000D01*
X143080000Y-106525000D02*
X143080000Y-105525000D01*
X142330000Y-105525000D02*
X142330000Y-106525000D01*
X143080000Y-105525000D02*
X142330000Y-105525000D01*
X142330000Y-104025000D02*
X143080000Y-104025000D01*
X143080000Y-104025000D02*
X143080000Y-102225000D01*
X144580000Y-102975000D02*
X147530000Y-102975000D01*
X147530000Y-102975000D02*
X147530000Y-106025000D01*
X142330000Y-102225000D02*
X142330000Y-104025000D01*
X143080000Y-102225000D02*
X142330000Y-102225000D01*
X144580000Y-102225000D02*
X144580000Y-102975000D01*
X142320000Y-102215000D02*
X142320000Y-109835000D01*
X148290000Y-102215000D02*
X142320000Y-102215000D01*
G04 #@! TO.C,C8*
X104848200Y-121339700D02*
X104182200Y-121339700D01*
X107624200Y-121339700D02*
X106958200Y-121339700D01*
X104182200Y-115999700D02*
X104182200Y-121339700D01*
X104848200Y-115999700D02*
X104182200Y-115999700D01*
X107624200Y-115999700D02*
X107624200Y-121339700D01*
X107624200Y-115999700D02*
X106958200Y-115999700D01*
G04 #@! TO.C,D1*
X180130000Y-133005000D02*
X181380000Y-133005000D01*
X180420000Y-132715000D02*
X186390000Y-132715000D01*
X186390000Y-132715000D02*
X186390000Y-125095000D01*
X180430000Y-132705000D02*
X181180000Y-132705000D01*
X181180000Y-132705000D02*
X181180000Y-130905000D01*
X182680000Y-132705000D02*
X182680000Y-131955000D01*
X182680000Y-131955000D02*
X185630000Y-131955000D01*
X185630000Y-131955000D02*
X185630000Y-128905000D01*
X180130000Y-131755000D02*
X180130000Y-133005000D01*
X180430000Y-130905000D02*
X180430000Y-132705000D01*
X181180000Y-130905000D02*
X180430000Y-130905000D01*
X180430000Y-129405000D02*
X181180000Y-129405000D01*
X181180000Y-129405000D02*
X181180000Y-128405000D01*
X180430000Y-128405000D02*
X180430000Y-129405000D01*
X181180000Y-128405000D02*
X180430000Y-128405000D01*
X180430000Y-126905000D02*
X181180000Y-126905000D01*
X181180000Y-126905000D02*
X181180000Y-125105000D01*
X182680000Y-125855000D02*
X185630000Y-125855000D01*
X185630000Y-125855000D02*
X185630000Y-128905000D01*
X180430000Y-125105000D02*
X180430000Y-126905000D01*
X181180000Y-125105000D02*
X180430000Y-125105000D01*
X182680000Y-125105000D02*
X182680000Y-125855000D01*
X180420000Y-125095000D02*
X180420000Y-132715000D01*
X186390000Y-125095000D02*
X180420000Y-125095000D01*
G04 #@! TO.C,C5*
X137908800Y-76143200D02*
X137242800Y-76143200D01*
X137908800Y-76143200D02*
X137908800Y-81483200D01*
X135132800Y-76143200D02*
X134466800Y-76143200D01*
X134466800Y-76143200D02*
X134466800Y-81483200D01*
X137908800Y-81483200D02*
X137242800Y-81483200D01*
X135132800Y-81483200D02*
X134466800Y-81483200D01*
G04 #@! TO.C,SW4*
X113975200Y-132961600D02*
X115225200Y-132961600D01*
X114265200Y-132671600D02*
X120235200Y-132671600D01*
X120235200Y-132671600D02*
X120235200Y-125051600D01*
X114275200Y-132661600D02*
X115025200Y-132661600D01*
X115025200Y-132661600D02*
X115025200Y-130861600D01*
X116525200Y-132661600D02*
X116525200Y-131911600D01*
X116525200Y-131911600D02*
X119475200Y-131911600D01*
X119475200Y-131911600D02*
X119475200Y-128861600D01*
X113975200Y-131711600D02*
X113975200Y-132961600D01*
X114275200Y-130861600D02*
X114275200Y-132661600D01*
X115025200Y-130861600D02*
X114275200Y-130861600D01*
X114275200Y-129361600D02*
X115025200Y-129361600D01*
X115025200Y-129361600D02*
X115025200Y-128361600D01*
X114275200Y-128361600D02*
X114275200Y-129361600D01*
X115025200Y-128361600D02*
X114275200Y-128361600D01*
X114275200Y-126861600D02*
X115025200Y-126861600D01*
X115025200Y-126861600D02*
X115025200Y-125061600D01*
X116525200Y-125811600D02*
X119475200Y-125811600D01*
X119475200Y-125811600D02*
X119475200Y-128861600D01*
X114275200Y-125061600D02*
X114275200Y-126861600D01*
X115025200Y-125061600D02*
X114275200Y-125061600D01*
X116525200Y-125061600D02*
X116525200Y-125811600D01*
X114265200Y-125051600D02*
X114265200Y-132671600D01*
X120235200Y-125051600D02*
X114265200Y-125051600D01*
G04 #@! TO.C,Y1*
X177890000Y-80660100D02*
X184790000Y-80660100D01*
X184790000Y-80660100D02*
X184790000Y-78200100D01*
X176990000Y-80380100D02*
X176790000Y-80380100D01*
X177890000Y-79780100D02*
X176990000Y-80380100D01*
X177890000Y-79080100D02*
X176990000Y-78480100D01*
X176990000Y-78480100D02*
X176790000Y-78480100D01*
X177890000Y-78200100D02*
X177890000Y-80660100D01*
X184790000Y-78200100D02*
X177890000Y-78200100D01*
G04 #@! TO.C,R10*
X130790900Y-106615200D02*
X130790900Y-105665200D01*
X129870900Y-105665200D02*
X131710900Y-105665200D01*
X131710900Y-105665200D02*
X131710900Y-101825200D01*
X129870900Y-101825200D02*
X129870900Y-105665200D01*
X131710900Y-101825200D02*
X129870900Y-101825200D01*
X130790900Y-100875200D02*
X130790900Y-101825200D01*
G04 #@! TO.C,R28*
X140335000Y-108875000D02*
X140335000Y-107925000D01*
X139415000Y-107925000D02*
X141255000Y-107925000D01*
X141255000Y-107925000D02*
X141255000Y-104085000D01*
X139415000Y-104085000D02*
X139415000Y-107925000D01*
X141255000Y-104085000D02*
X139415000Y-104085000D01*
X140335000Y-103135000D02*
X140335000Y-104085000D01*
G04 #@! TO.C,R9*
X132972300Y-93704200D02*
X132972300Y-92754200D01*
X132052300Y-92754200D02*
X133892300Y-92754200D01*
X133892300Y-92754200D02*
X133892300Y-88914200D01*
X132052300Y-88914200D02*
X132052300Y-92754200D01*
X133892300Y-88914200D02*
X132052300Y-88914200D01*
X132972300Y-87964200D02*
X132972300Y-88914200D01*
G04 #@! TO.C,U10*
X104715000Y-71640000D02*
X104715000Y-89660000D01*
X104715000Y-89660000D02*
X114995000Y-89660000D01*
X107205000Y-71700000D02*
X107205000Y-89600000D01*
X107205000Y-89600000D02*
X112505000Y-89600000D01*
X108855000Y-71700000D02*
X107205000Y-71700000D01*
X112505000Y-71700000D02*
X110855000Y-71700000D01*
X112505000Y-89600000D02*
X112505000Y-71700000D01*
X114995000Y-71640000D02*
X104715000Y-71640000D01*
X114995000Y-89660000D02*
X114995000Y-71640000D01*
X108855000Y-71700000D02*
G75*
G03*
X110855000Y-71700000I1000000J0D01*
G01*
G04 #@! TO.C,R8*
X130432300Y-87964200D02*
X130432300Y-88914200D01*
X131352300Y-88914200D02*
X129512300Y-88914200D01*
X129512300Y-88914200D02*
X129512300Y-92754200D01*
X131352300Y-92754200D02*
X131352300Y-88914200D01*
X129512300Y-92754200D02*
X131352300Y-92754200D01*
X130432300Y-93704200D02*
X130432300Y-92754200D01*
G04 #@! TO.C,C4*
X174441000Y-93890000D02*
X173775000Y-93890000D01*
X174441000Y-93890000D02*
X174441000Y-99230000D01*
X171665000Y-93890000D02*
X170999000Y-93890000D01*
X170999000Y-93890000D02*
X170999000Y-99230000D01*
X174441000Y-99230000D02*
X173775000Y-99230000D01*
X171665000Y-99230000D02*
X170999000Y-99230000D01*
G04 #@! TO.C,R12*
X178435000Y-131775000D02*
X178435000Y-130825000D01*
X177515000Y-130825000D02*
X179355000Y-130825000D01*
X179355000Y-130825000D02*
X179355000Y-126985000D01*
X177515000Y-126985000D02*
X177515000Y-130825000D01*
X179355000Y-126985000D02*
X177515000Y-126985000D01*
X178435000Y-126035000D02*
X178435000Y-126985000D01*
G04 #@! TO.C,R4*
X182880000Y-92380000D02*
X182880000Y-93330000D01*
X183800000Y-93330000D02*
X181960000Y-93330000D01*
X181960000Y-93330000D02*
X181960000Y-97170000D01*
X183800000Y-97170000D02*
X183800000Y-93330000D01*
X181960000Y-97170000D02*
X183800000Y-97170000D01*
X182880000Y-98120000D02*
X182880000Y-97170000D01*
G04 #@! TO.C,D6*
X132505000Y-133005000D02*
X133755000Y-133005000D01*
X132795000Y-132715000D02*
X138765000Y-132715000D01*
X138765000Y-132715000D02*
X138765000Y-125095000D01*
X132805000Y-132705000D02*
X133555000Y-132705000D01*
X133555000Y-132705000D02*
X133555000Y-130905000D01*
X135055000Y-132705000D02*
X135055000Y-131955000D01*
X135055000Y-131955000D02*
X138005000Y-131955000D01*
X138005000Y-131955000D02*
X138005000Y-128905000D01*
X132505000Y-131755000D02*
X132505000Y-133005000D01*
X132805000Y-130905000D02*
X132805000Y-132705000D01*
X133555000Y-130905000D02*
X132805000Y-130905000D01*
X132805000Y-129405000D02*
X133555000Y-129405000D01*
X133555000Y-129405000D02*
X133555000Y-128405000D01*
X132805000Y-128405000D02*
X132805000Y-129405000D01*
X133555000Y-128405000D02*
X132805000Y-128405000D01*
X132805000Y-126905000D02*
X133555000Y-126905000D01*
X133555000Y-126905000D02*
X133555000Y-125105000D01*
X135055000Y-125855000D02*
X138005000Y-125855000D01*
X138005000Y-125855000D02*
X138005000Y-128905000D01*
X132805000Y-125105000D02*
X132805000Y-126905000D01*
X133555000Y-125105000D02*
X132805000Y-125105000D01*
X135055000Y-125105000D02*
X135055000Y-125855000D01*
X132795000Y-125095000D02*
X132795000Y-132715000D01*
X138765000Y-125095000D02*
X132795000Y-125095000D01*
G04 #@! TO.C,SW2*
X139430000Y-93135000D02*
X139430000Y-94385000D01*
X139720000Y-93425000D02*
X139720000Y-99395000D01*
X139720000Y-99395000D02*
X147340000Y-99395000D01*
X139730000Y-93435000D02*
X139730000Y-94185000D01*
X139730000Y-94185000D02*
X141530000Y-94185000D01*
X139730000Y-95685000D02*
X140480000Y-95685000D01*
X140480000Y-95685000D02*
X140480000Y-98635000D01*
X140480000Y-98635000D02*
X143530000Y-98635000D01*
X140680000Y-93135000D02*
X139430000Y-93135000D01*
X141530000Y-93435000D02*
X139730000Y-93435000D01*
X141530000Y-94185000D02*
X141530000Y-93435000D01*
X143030000Y-93435000D02*
X143030000Y-94185000D01*
X143030000Y-94185000D02*
X144030000Y-94185000D01*
X144030000Y-93435000D02*
X143030000Y-93435000D01*
X144030000Y-94185000D02*
X144030000Y-93435000D01*
X145530000Y-93435000D02*
X145530000Y-94185000D01*
X145530000Y-94185000D02*
X147330000Y-94185000D01*
X146580000Y-95685000D02*
X146580000Y-98635000D01*
X146580000Y-98635000D02*
X143530000Y-98635000D01*
X147330000Y-93435000D02*
X145530000Y-93435000D01*
X147330000Y-94185000D02*
X147330000Y-93435000D01*
X147330000Y-95685000D02*
X146580000Y-95685000D01*
X147340000Y-93425000D02*
X139720000Y-93425000D01*
X147340000Y-99395000D02*
X147340000Y-93425000D01*
G04 #@! TO.C,R19*
X168910000Y-120345000D02*
X168910000Y-119395000D01*
X167990000Y-119395000D02*
X169830000Y-119395000D01*
X169830000Y-119395000D02*
X169830000Y-115555000D01*
X167990000Y-115555000D02*
X167990000Y-119395000D01*
X169830000Y-115555000D02*
X167990000Y-115555000D01*
X168910000Y-114605000D02*
X168910000Y-115555000D01*
G04 #@! TO.C,R6*
X130472800Y-75943200D02*
X130472800Y-76893200D01*
X131392800Y-76893200D02*
X129552800Y-76893200D01*
X129552800Y-76893200D02*
X129552800Y-80733200D01*
X131392800Y-80733200D02*
X131392800Y-76893200D01*
X129552800Y-80733200D02*
X131392800Y-80733200D01*
X130472800Y-81683200D02*
X130472800Y-80733200D01*
G04 #@! TO.C,U9*
X93305000Y-92590000D02*
X93305000Y-110610000D01*
X93305000Y-110610000D02*
X103585000Y-110610000D01*
X95795000Y-92650000D02*
X95795000Y-110550000D01*
X95795000Y-110550000D02*
X101095000Y-110550000D01*
X97445000Y-92650000D02*
X95795000Y-92650000D01*
X101095000Y-92650000D02*
X99445000Y-92650000D01*
X101095000Y-110550000D02*
X101095000Y-92650000D01*
X103585000Y-92590000D02*
X93305000Y-92590000D01*
X103585000Y-110610000D02*
X103585000Y-92590000D01*
X97445000Y-92650000D02*
G75*
G03*
X99445000Y-92650000I1000000J0D01*
G01*
G04 #@! TD*
M02*
